<?xml version="1.0" standalone="no"?>
<!DOCTYPE svg PUBLIC "-//W3C//DTD SVG 1.1//EN" "http://www.w3.org/Graphics/SVG/1.1/DTD/svg11.dtd" >
<svg xmlns="http://www.w3.org/2000/svg" xmlns:xlink="http://www.w3.org/1999/xlink" version="1.1">
<metadata>
Created by FontForge 20190801 at Tue Feb  8 05:17:49 2022
 By www-data
Copyright (c) 2019 by pixelcolours. All rights reserved.
</metadata>
<defs>
<font id="DFVNLazyFox" horiz-adv-x="587" >
  <font-face 
    font-family="DFVNLazyFox"
    font-weight="400"
    font-stretch="normal"
    units-per-em="1000"
    panose-1="0 0 0 0 0 0 0 0 0 0"
    ascent="800"
    descent="-200"
    x-height="475"
    cap-height="767"
    bbox="-110 -276 1040 1171"
    underline-thickness="50"
    underline-position="-150"
    unicode-range="U+0020-3000"
  />
<missing-glyph horiz-adv-x="415" 
d="M265 0h-265v666h265v-666zM33 633v-600h199v600h-199z" />
    <glyph glyph-name=".notdef" horiz-adv-x="415" 
d="M265 0h-265v666h265v-666zM33 633v-600h199v600h-199z" />
    <glyph glyph-name="uni0000" horiz-adv-x="150" 
 />
    <glyph glyph-name="uni0000" horiz-adv-x="150" 
 />
    <glyph glyph-name="nonmarkingreturn" horiz-adv-x="333" 
 />
    <glyph glyph-name="space" unicode=" " horiz-adv-x="450" 
 />
    <glyph glyph-name="exclam" unicode="!" horiz-adv-x="290" 
d="M107 193l-9 -8q-3 1 -8.5 1.5t-8.5 0.5q-23 0 -39 5q-3 1 -15 13v4h-2q-1 0 -1 2l1 2h-2q-1 0 -1 2l1 2q-11 20 -11 76q0 3 -0.5 7.5t-1 7t-0.5 4.5l-2 2v11v4l-2 2v4v4l2 4v4q1 2 1.5 7t0.5 8q0 10 1 13q0 4 1 7t1 7q0 23 -4 35q0 7 -1 12q-2 18 -2 25q0 12 1 21v19
q0 3 -1 4q-1 2 1 9q1 1 1 3v10q-1 1 -1 2q-1 1 1 2q1 1 1 2q1 8 1 20h-2l3 6q2 9 3 64q0 1 2 11q1 5 1 9l-2 3q0 2 1 3l2 2q1 11 10 38q0 4 5 19t7 19q0 1 4 5q1 1 1 2v2h2l1 2v2h2l5 4q1 1 5 1q1 1 2 1v1q24 0 28 -4l5 -3q6 -2 8 -5l2 -1h2q1 0 1 -1l2 -2q4 -4 11 -8l12 -8
q4 -4 4 -7q3 -24 -4 -56l-4 -21q0 -5 1 -10v-11q-1 -4 -1 -18q-1 -8 -1 -18q-2 -6 0 -14v-6q0 -2 1 -3v-3q2 -18 2 -39v-38q0 -26 -6 -38q0 -1 4 -5q3 -4 3 -5q3 -8 2 -18q0 -2 -2 -4q-3 -1 -3 -5l3 -2q-1 -3 0 -10q0 -15 -3 -18h-4q6 -4 6 -8q0 -3 -1 -6l-1 -3
q-1 -6 -1 -19t1 -20v-4q-1 -3 1 -6q1 -1 1 -4q0 -1 -3 -10v-5q0 -5 2 -15l2 -3q0 -4 5 -8l2 -4q3 -8 -3 -28t-9 -23q-2 -2 -4 -6q-1 -1 -16 -1zM95 -4v-1q-1 0 -2 1h-12l-27 5l-6 1l-8 2h-2l-2 1q-1 0 -2 1h-2q-2 1 -6 1l-5 1q-15 2 -18 5q-5 5 0 11q2 2 2 3v3q-1 1 -1 2
l2 6q2 4 0 6v2l-1 1l3 21q0 2 5 6l3 3q0 -1 -5 4v1q0 5 4 5q2 0 2 1h-1l-1 1l2 2q1 3 4 4q2 -1 4 -1q-6 4 -1 6q7 3 8 9v1l1 1v3h2q2 0 2 1q3 1 4 5l1 1v2q0 1 -1 2t0 2q1 3 10 3q12 0 16 -2q2 -1 4 -1q3 -3 7 -8l1 -1l3 -2q10 -17 16 -24q1 -3 7 -9h1v-1h1v-1q10 -7 14 -13
l1 -1q0 -1 1 -1l1 -1v-1h-1q-2 0 -2 -2l-2 -2h-1l-1 -1q0 -3 1 -5q1 -1 1 -3l1 -3q1 -2 1 -4q0 -3 -1 -4q-1 -2 -1 -4h1l1 -1l-1 -1l-1 -1q-1 -1 1 -2v-1h-2q-1 -1 -1 -4h1l-2 -1q-2 -4 -1 -13l-1 -2v-1l2 -1l-1 -1h-1q-3 -3 -6 -5q-1 -1 -1 -2q-2 -2 -4 -2q-2 -2 -6 -2h-2z
" />
    <glyph glyph-name="quotedbl" unicode="&#x22;" horiz-adv-x="465" 
d="M289 492l-14 2h-5q-3 -1 -5 -1q-20 0 -50 13q-3 0 -7 4q-5 3 -7 3q0 1 1 2h-2q-1 0 -1 1l1 1h-2q-7 8 -7 19q-1 2 -1 11v9l-2 1v4v1l-2 2q0 2 2 4q1 1 1 2q1 1 1 3q1 2 1 3q0 2 3 7q1 1 1 3q0 3 -1 5l-3 9l-4 14q0 5 1 9v8q0 1 -1 2v3l1 1q0 1 -2 5q0 1 1 2h1v8h-2
q0 1 2 3q2 6 -1 27q-1 1 0 4v4l-2 1q-1 1 0 2l2 1q0 4 5 16q0 2 1 4t1 5q1 0 3 5q1 4 5 6v2h2v1l2 1h3l6 3h3q9 2 21 2q7 0 8 -1l12 -2q3 0 3 -1l2 1q2 0 3 -1l2 -1h2q2 -1 6 -1.5t6 -0.5t6.5 -0.5t6.5 -1.5l6 -3q4 -6 4 -17q0 -5 -1 -7q0 -2 -1 -5l-1 -5q0 -2 1 -4t1 -5
q0 -14 2 -22v-3q2 -2 2 -3q1 -6 3 -24v-11q1 -5 -2 -12q-1 -3 -3 -5q8 -6 8 -11v-2q0 -2 -2 -2q-3 -1 -3 -3l2 -1v-4q0 -4 -1 -6q0 -1 -0.5 -2t-1.5 0h-5q9 -3 5 -7q-1 -1 -1 -2q-3 -6 -3 -13v-5q1 -1 1 -2l-1 -1v-1l2 -2q0 -2 -2 -4l-1 -1q-2 -5 0 -10l1 -1q0 -3 4 -6l2 -1
q2 -5 -5.5 -13.5t-11.5 -9.5q-1 0 -2.5 -0.5t-2.5 -1.5zM94 482l-4 -2q-12 0 -36 2q-13 0 -20 1q-4 0 -8 3q-6 3 -7 4v1h-2q-1 0 0 1v1h-2q-1 0 0 1v1q-9 9 -9 20q-1 2 -1 13l-1 10l-3 1q0 2 1 3v2q0 2 -1 3t-1 2q0 2 1 3t1 2q3 12 3 13l2 3q1 1 1 3q0 1 -2 9l-2 7q0 3 -1 7
q-2 12 -2 13v5q1 4 1 9l-2 2v2l2 2q0 4 -1 5v2q2 4 2 9h-2q-1 1 2 3q0 1 0.5 3.5t0.5 4.5q0 3 -2 21q0 2 1 5v3l-2 1q0 1 1 2l1 1q2 10 5 17l2 4q0 4 1 5l2 5q2 3 5 6q1 0 1 2h2v2h2q2 0 2 1l7 2q1 0 2 1q9 2 21 2q7 0 8 -1t7 -1l9 -2h4q2 0 3 -1t2 -1t2.5 -0.5t4 -1
t4.5 -0.5t6.5 -0.5t6.5 -1.5q3 -1 6 -4q4 -8 4 -20q0 -5 -1 -8l-2 -10q-1 -1 0 -4t1 -5v-13q0 -10 1 -11v-3q2 -2 2 -3q2 -8 2 -20q0 -14 1 -15q0 -6 -3 -12q-1 -4 -3 -6h1q7 -5 7 -10v-2q0 -2 -2 -2q-2 -2 -2 -3l2 -1v-4q-1 -8 -3 -8h-4q9 -2 5 -7l-1 -1q-2 -3 -2 -10
q0 -5 1 -8l-1 -2q0 -1 1 -2l1 -1q0 -2 -1 -3l-1 -2q-1 -4 2 -9q0 -2 2 -4l4 -2l2 -1q5 -4 0 -9l-5 -6q-2 -3 -7 -8q-3 -1 -5 -3q-1 -1 -15 -1q-2 0 -5 -1z" />
    <glyph glyph-name="numbersign" unicode="#" horiz-adv-x="746" 
d="M358 7q-39 0 -52 13q-8 7 -16 35q-8 27 -8 126q0 30 2 46l3 17l-120 -2l-2 -11q-9 -48 -6 -124v-4l1 -9q0 -52 -14 -66q-5 -4 -9 -4q-5 0 -10 2q-12 4 -16 10t-6 25q-1 7 -1 43q0 121 5 134q1 4 -1 6q-1 1 -14 1q-64 3 -86 10q-8 3 -8 8q0 7 11.5 13t20.5 7q18 0 39 -1
l44 -3l4 50q5 59 21 168l1 10l-57 -1h-69q-11 3 -11 9q0 7 13 13t21 7q20 3 50 4q10 1 20.5 1.5t15.5 0.5t11 0.5t7.5 0.5t4 2t3 3t1 4.5t0.5 6.5v9t1 12q2 15 6 36.5t10.5 55t15 56t16.5 22.5q9 0 17 -17t9 -30q0 -15 -7 -49q-7 -36 -12 -73l-5 -35l20 2q38 2 83 2
q9 0 12.5 0.5t6 3t3 5t1.5 11t2 15.5q4 21 19.5 65.5t23.5 57.5q14 23 30 23q21 0 43 -27l18 -21l-2 -19q-1 -15 -11 -55q-6 -23 -11 -46l-2 -11l55 2q99 3 103 -13q0 -13 -11 -18q-6 -2 -78 -5h-10h-19.5h-18h-11.5q-14 0 -17.5 -3t-3.5 -13v-10q0 -99 -14 -155
q-1 -4 -1 -12q0 -7 1 -11q3 -7 3 -16v-5l-2 -9l54 1q13 1 31 1q13 0 16 -1q18 -2 18 -15l-1 -4q-1 -7 -11 -10q-9 -4 -58 -5t-53 -7q-2 -2 -4 -14q-3 -33 -3 -92q0 -29 2 -34q5 -9 5 -25t-5 -31q-7 -33 -22 -33q-8 0 -11 -4q-2 -3 -14 -3zM174 319l-4 -39h124v48
q2 91 21 176l2 10h-13q-10 -1 -30 -1.5t-30 -0.5q-39 -1 -43.5 -4t-7.5 -31q0 -6 -1.5 -16t-4 -29t-4.5 -33q-7 -59 -9 -80z" />
    <glyph glyph-name="dollar" unicode="$" horiz-adv-x="648" 
d="M296 -97l-5 -13q-6 2 -11 3q-14 1 -21 9q-4 3 -6 14l-3 10q-2 0 0 3v4h-2v3q2 3 0 3v1q-1 -1 -1 0v6q-4 30 -5 61q-1 1 -4 1q-37 6 -59 12q-16 8 -38 12q-22 3 -53.5 31t-46.5 52q-38 68 -41 89q-2 16 6.5 25t30.5 9q52 0 68 -28q7 -14 10 -16l3 -9v-1l2 2q4 -4 4 -10h1
l1 1l2 -4l2 -5q50 -56 110 -88q0 25 -1 32l-1 3v29q-1 3 -1 9q0 5 1 10v10q1 7 1 25v22q2 10 2 24q0 40 -3 61v22q-1 10 -1 23q-15 5 -25 15q-2 1 -8.5 4.5t-10.5 5.5q-10 4 -10 5q-3 1 -9 7q-22 13 -47 33h-1l-1 -1q-2 1 -10 11l-2 3q-40 66 -40 151q0 56 25 86q4 6 18 17
l18 15q18 11 51.5 20t55.5 11v17q2 67 10 81l1 3v4h1q1 -1 1 0v3q1 2 1 4l3 2l3 6q1 2 3 4q1 0 2 1v1q2 2 9 1.5t7 -2.5q0 -1 3 -4q3 -4 4 -8h1q1 -1 1 -3q0 -3 1 -4l1 -2q1 -2 3 -5l4 -6q6 -10 6 -17q0 -31 2 -61v-18q18 -4 41.5 -14t29.5 -16q1 -2 6 -3q3 -2 5 -4l-1 -1
h-1l6 -4q3 -2 5 -4q1 -1 1 -3q0 -3 1 -4q1 -2 5 -6q3 -4 4 -7q2 -2 0 -3q0 -1 2 -3l1 -3q0 -4 -6.5 -11.5t-10.5 -7.5q-2 1 -9 1q-8 0 -13 4l-1.5 -1.5t-1.5 -0.5l-3 3q-1 0 -3 1q-1 1 -2 1l-20 6q-15 3 -22 8l-11 7q1 -21 1 -34q0 -24 -1 -46q-2 -40 -1 -45v-5q-1 -3 -1 -5
q0 -4 1 -6v-120q21 -13 47 -27q52 -28 94 -75q6 -8 20 -20q5 -5 5 -6q22 -35 23 -65q0 -12 -2 -20q-2 -10 -2 -20l1 -9q-8 -46 -27 -77q-3 -4 -12 -13l-3 -2q1 1 1 4q0 5 -2 1q-1 -2 -1 -3q-4 -9 -18 -20.5t-25 -15.5q-46 -19 -94 -27q1 -3 1 -5q1 -16 -3 -58q-3 -28 -4 -30
l-3 -10q0 -3 -9 -3zM237 454q1 4 1 7v16q-1 2 -1 4q0 3 1 4t1 3v34h-1l2 10q3 30 3 64q0 6 -0.5 20t-0.5 22v25q0 6 -1 7l-1 4q0 3 1 5v8q-63 -10 -63 -69v-14q3 -71 13 -99l2 -3q0 -1 2 -7q2 -4 6 -8q13 -15 36 -33zM308 65v-9h2l4 1q21 5 37 17q9 9 13 15q14 29 14 69
q-1 90 -69 148v-3l1 -2q1 -5 1 -20v-11q0 -6 -1 -8q-2 -4 -2 -8l2 -4v-37l-2 -10l-2 3q-1 -1 0 -3q3 -5 3 -16q0 -2 -0.5 -6.5t-0.5 -7.5v-68q1 -1 1 -6q-1 -3 -1 -7q2 -6 2 -10q0 -11 -2 -17z" />
    <glyph glyph-name="percent" unicode="%" horiz-adv-x="876" 
d="M185 9l-10 -8l-14 7q-19 8 -29 19q-4 4 -4 25l3 5l-1 1h-1l1 2l2 4h-2q0 1 2 3q1 1 1 3q10 41 71 138l1 4q3 6 5 8q6 9 9 15l10 14q2 2 4 5l2 2q23 32 25 35q4 4 13 16l26 46l10.5 21t13.5 26l16 26l15 25q2 8 5 11q2 4 4 6q4 4 8 13v3l1 1l2 3q0 1 2 3q2 0 2 1l15 26v1
h-1q0 2 4 6l2 1q16 24 46 84l8 14l7 13v3l4 4q2 2 2 3l32 48q3 3 8 12l9 13q11 14 18 25q5 5 7 6l1 3l2 2q1 0 3 2q1 3 4 3h2q6 6 9 6q1 -1 2 0l1 1q3 0 11.5 -3.5t8.5 -5.5q0 -1 3 -6q3 -4 4 -9l2 -1v-3q-1 -2 -1 -4l4 -13q4 -11 4 -16q0 -1 -0.5 -3t-0.5 -4
q-9 -26 -43 -82q-13 -18 -18 -29q-11 -18 -15 -29q0 -1 -13 -24l-14 -24q-13 -23 -13 -24t-2 -3l-3 -6v-2q-1 -1 -2 -3l-1 -2q-9 -21 -60 -106q-10 -17 -35 -50q-3 -3 -3 -12l-1 -3q-7 -14 -14 -23l-5 -5q-3 -1 -6 -6l-1 -3q-9 -16 -19 -28l-6 -6l-3 2q2 -8 -12 -25
q-23 -30 -34 -52l-2 -4q-5 -6 -5 -9q-1 -5 -7 -12l-4 -6q-11 -20 -13 -26q0 -3 -1 -5q-3 -6 -3 -11v-9q-6 -17 -11 -24l-6 -10q-2 -2 -3 -5l-2 -2q-11 -18 -13 -20q-5 -3 -6 -6q-1 -1 -14 3zM128 437q-17 0 -25 2q-30 5 -58 27l-10 8q-5 5 -6 8l-11 16q-3 3 -3 6q-1 1 -1 3
q-7 15 -11 31h-2l-1 10q-2 70 13 103q1 5 18 27l2 3l8 6q29 23 72 23q41 0 55 -6h3l4 -2h4v-1l1 -1l6 -2q4 -3 6 -3v1q6 0 6 -2v1l6 -2q30 -14 50.5 -49.5t23.5 -77.5l1 -4q0 -4 -8 -36q-11 -26 -38 -52q-2 -1 -18 -13q-45 -24 -87 -24zM147 466q4 0 15.5 5t15.5 8l9 9
q7 9 12 20l3 5l1 -1q0 5 4 20q5 24 4 42q-1 1 -1 4v5v2l-2 2v2v10q-2 13 -5 18q-1 1 -1 4q-1 3 -5 6l-2 2q-3 5 -6 15q-4 15 -19 26q-1 2 -6 4q-2 2 -2 5l-3 1q-5 -2 -9 0l-38 4l-16 -2q-20 -5 -28 -56q-2 -24 -2 -33q0 -10 2 -26q0 -2 1 -3v-4l2 -3q0 -2 1 -3
q20 -57 34 -71q16 -15 41 -17zM575 26q-17 0 -25 2q-13 2 -38 13.5t-30 21.5q-5 5 -6 8l-2 2q-6 10 -9 13t-3 7q-1 1 -1 3q-7 15 -11 31l-1 -1q-1 0 -1 1l-1 9q-2 69 13 104q2 4 18 27l2 3l8 6q29 23 72 23q41 0 55 -6l3 -1h2v-1h6v-1l7 -4h1l1 -1q2 -1 4 -1v1q2 0 3 -1
l3 -1v1l6 -2q30 -14 50.5 -50t23.5 -78l1 -3q0 -4 -8 -36q-12 -29 -38 -53q-44 -36 -105 -36zM594 55q4 0 12 3q16 8 19 10l4 3q1 0 4 3l1 3q7 9 12 20l3 5l1 -1q0 4 4 19q5 26 4 43q-1 1 -1 4v4q0 3 -1 4t-1 3v10q-2 13 -5 18q-1 1 -1 3q-1 3 -5 7l-2 1q-2 4 -6 16
q-3 11 -5.5 14t-13.5 12q-3 3 -6 4q-2 2 -2 4q1 1 0.5 1t-3.5 1q-4 -1 -9 0l-38 4q-1 0 -16 -2q-16 -5 -23 -35t-7 -54q0 -10 2 -26q0 -2 1 -3v-4q0 -1 1 -1v-2q1 -3 2 -3q20 -57 34 -71q15 -16 41 -17z" />
    <glyph glyph-name="ampersand" unicode="&#x26;" horiz-adv-x="746" 
d="M199 6l-9 1q-52 7 -98 22q-13 5 -31 16l-3 1l-3 2l-5 5q-42 49 -47 107q0 4 -1 9q-2 8 -2 9q-1 1 1 7q1 3 1 6l-2 1l2 7l2 6h-2q0 3 5 13q43 75 184 196q-66 120 -89 199q-2 5 -3 27q0 3 -1 10.5t-1 8.5q-2 2 0 7q21 50 76.5 88t109.5 38q53 0 116 -39l24 -13l4 -4l2 -1
q38 -38 38 -68q0 -2 -0.5 -4t-0.5 -3q-1 -4 -1 -13v-6l2 -8q-11 -47 -32 -80q-1 -5 -11 -15l-3 -3q1 2 1 5q0 5 -2 1q0 -1 -1 -1v-2q-3 -10 -12.5 -22t-30 -30.5t-30 -26.5t-37.5 -32q25 -47 61 -97l6 -3q8 -14 9 -17q9 -12 38 -52q6 -8 13.5 -19t13.5 -19t10 -14
q4 -4 9 -12v1l4 4l3 3l1 2l2 3q1 3 8 10l5 5q11 13 15 22q0 1 2 5q1 1 1 4l3 11q9 20 26 38t27 23l4 2q3 3 7 3q3 0 4 -3l3 1l6 2l2 1q4 -8 4 -19t-7 -18l-1 -2l-2 -2l1 -1l-1 -2l-2 -2l1 -1l-1 -2q-2 -2 -2 -3q-21 -47 -83 -119q1 -2 2.5 -4t1.5 -3q13 -18 39 -46
q9 -10 10 -14l8 -8v-1h-1l3 -3q4 -3 5 -3v-3q0 -3 1 -3q2 -4 3 -5l3 -3q0 -6 2 -8l2 -1q0 -2 -1.5 -6.5t-3.5 -8t-4 -3.5q-3 0 -6 -1q-7 -1 -13 0l-2 -2q-7 0 -11 4q-5 2 -18 3q-29 4 -42 14q-23 19 -45 42l-3 -2q-9 -9 -17 -12q-50 -38 -88 -54q-28 -10 -53 -16
q-1 -1 -4 -1q-3 -1 -6 -1q-2 -1 -7 -1l-21 -3q-1 -1 -3 0h-3q-9 -1 -28 -1zM276 491q8 11 18 21q19 23 23 27q33 52 33 85v5q-10 66 -53 94q-23 16 -47 16q-10 0 -20 -3q-3 -1 -9 -8t-7 -10q-1 -5 1 -18v-3q-1 -1 -1 -2l3 -33h2q1 -1 1 -5t-1 -6l-1 -3q10 -53 58 -157z
M194 37h7q54 -1 97 16q30 14 45 23q3 0 6 5l4 4q2 1 19 15q4 2 5 3l8 6q1 1 7 6.5t11 10.5l-48 56q-15 16 -24 30q-44 58 -48 63l-18 24q-19 23 -40 57l-20 -15q-32 -27 -48 -46l-24 -24q-24 -24 -32 -35t-19.5 -34t-11.5 -45q0 -39 27 -75q19 -31 89 -44q3 -1 8 -1z" />
    <glyph glyph-name="quotesingle" unicode="'" horiz-adv-x="287" 
d="M42 472h-8q-1 0 -1 1v1h-1l-1 -1q-1 0 -1 1v1l-1 -1h-1v1l-1 1q-15 10 -22 46l-2 1q-1 1 0 3q0 2 -2 6q-1 1 -1 3v2l2 2v2q1 1 1.5 4t0.5 4q0 5 1 7q0 2 1 4q1 1 1 4q0 5 -1 10l-5 29q0 7 1 12t1 9q0 2 -1 3q-1 2 1 4q1 1 1 2q1 1 -1 5v1q0 1 1 1l1 1q0 2 0.5 5.5
t1.5 5.5h-2q-1 1 2 3q3 6 3 31q0 3 1 5t1 4l-2 2l1 1q1 1 2 1q2 8 7 15q0 4 4 8l2 3q2 5 6 5v2h2q1 0 1 1h4q4 1 7 1h2q24 0 28 -3l6 -2l8 -2l2 -1h2q1 0 2 -1l2 -1q15 -3 24 -6q2 0 5 -4q2 -4 2 -15q0 -1 -2 -9l-4 -9q0 -3 1 -5v-5q0 -5 -1 -11q-1 -10 0 -13v-1
q-1 -1 -1 -2q2 -2 2 -3q1 -3 1 -19v-18q0 -7 -3 -13q-2 -5 -3 -6h1q9 -5 8 -12l-2 -2q-3 -1 -3 -2l2 -1q0 -2 1 -4q0 -8 -3 -8h-4q9 -2 5 -6l-1 -1q-3 -8 1 -14v-3h1q2 -2 1 -3t-1 -2q-2 -3 2 -5h2q2 -2 5 -2h2l1 -1q0 -2 -4.5 -6t-7.5 -5q-2 -1 -4 -3q-1 0 -14 -7l-8 -5
q-42 -20 -49 -21q0 -2 -8 0z" />
    <glyph glyph-name="parenleft" unicode="(" horiz-adv-x="335" 
d="M140 -188q-5 -2 -16 1q-4 1 -8 1l-2 2q-2 1 -3 1q-5 0 -5 4l-2 -2q0 1 -2 3l-2 2q-43 37 -73 153l-3 3q-1 2 -1.5 6.5t-0.5 6.5t-0.5 5.5t-1.5 5.5q-5 20 -5 21q-1 3 -1 13v12l-3 60q-1 6 0 16v15q-1 13 -3 41l-4 40q-4 55 -4 80l3 86v9q-1 3 -1 8q0 2 2 10q2 7 2 17v8
q-1 3 -1 5t2 4q1 1 1 4q0 2 0.5 5t1 7t0.5 8l2 17h-2v5l3 6q4 18 9 55q3 23 7 43q0 3 2 8.5t4.5 10.5t2.5 6l-1 5q1 5 6 10q7 18 29 63q3 3 15 32q3 4 7 14q9 22 13 25v3l1 3l1 -1h1l2 4q0 2 3 4q3 0 5 5q2 3 5 3l2 2l1 1q4 1 15 -0.5t11 -3.5q2 -3 3 -3l2 -3q5 -5 6 -9
q0 -1 2 -1h2v-5l1 -3q1 -2 3.5 -6t3.5 -7q8 -16 8 -22q0 -4 -1 -6q-2 -10 -6 -21q-1 -3 -2.5 -7t-3 -9t-2.5 -8l-7.5 -20t-11.5 -30q-9 -23 -13 -41q-1 -2 -1 -10q0 -9 -1 -11q-7 -66 -7 -73v-4q-1 -3 -1 -5q-2 -3 0 -6q1 -2 1 -4q0 -5 -0.5 -15t-1 -27.5t-0.5 -31.5
q-3 -55 -3 -80q1 -12 -1 -50l-3 -34q0 -5 5 -17l2 -4q3 -14 3 -38q0 -6 -2 -10q-2 -6 -1 -11l2 -4q1 -3 1.5 -10t0.5 -11t0.5 -12t1.5 -12l-2 -12h-4q6 -6 8 -35q2 -43 11 -72q0 -3 1 -6q1 -7 4 -11q2 -4 2 -13q0 -7 1 -8q2 -16 9 -26q1 -1 1 -2q1 -2 1 -3q1 -4 8 -8
q3 -2 3 -3q5 -6 5 -22v-9q-2 -15 -2 -16q-2 -6 -2 -7q0 -2 -7 -10q-1 0 -1 -5v-5q-3 -2 -8 -8q-11 -15 -21 -19z" />
    <glyph glyph-name="parenright" unicode=")" horiz-adv-x="315" 
d="M48 -172l-6 -2q-22 16 -31 29q-2 4 -2 11l-2 9l2 4l-1 1h-1l2 4h-1l-1 1l2 4q0 19 9 72q7 41 10 63l-1 4q0 5 1 9t1 10v17q0 1 2 11q2 8 2 10q0 1 7 49l2 12q1 6 1 14q1 7 -2 68q-4 60 -4 71q-1 7 -1 38q0 7 -0.5 21t-1.5 19q0 5 -1 8q-1 4 -1 11v6q1 3 1 7q-1 3 -1 10
q0 2 -1 2v5q-1 1 -1 2q-1 2 -1 4q0 3 1 4t1 4l-3 38h-2q-2 2 0 5v4l1 3q0 37 -13 116l-2 18q-1 11 -3 16l-2 3q-2 2 0 5q1 2 1 5q-2 17 -4 58q-3 15 -3 28v13q-1 5 -1 14q0 5 2 7v3q-1 1 -1 2h2v3q-1 1 -1 2q1 0 2 1l2 2q0 1 1 1v2q2 4 4 5q1 1 1 2l1 1q9 9 25 9l3 -1
q13 0 17 -3h2l2 1q1 0 2 -1l3 -2q6 -4 14 -5q21 -7 22 -13q13 -30 20 -94q1 -27 3 -36l4 -19q1 -13 3 -19q1 -7 7 -53q2 -25 5 -49q1 -1 1 -6q0 -4 2 -12q1 -3 1 -6q8 -47 12 -163q2 -32 -2 -60l-2 -22q0 -3 5 -16q1 -3 1 -5q2 -10 2 -19q0 -2 -0.5 -8t-0.5 -9q-1 -7 -3 -10
q-2 -4 -2 -10l1 -4q0 -3 -0.5 -10.5t-1.5 -18t-1 -15.5l-3 -11q-3 4 -4 1q3 -4 3 -14q0 -8 -3 -21q-8 -40 -11 -74q-3 -9 -3 -14q-1 -1 0 -4q0 -5 -1 -6q0 -2 -1 -5.5t-3 -7t-2 -4.5q-6 -20 -7 -33q-3 -9 -3 -13q0 -5 1 -8q2 -4 0 -6q-3 -15 -18 -36.5t-29 -30.5l-8 -5
q-2 -2 -11 4z" />
    <glyph glyph-name="asterisk" unicode="*" horiz-adv-x="541" 
d="M226 432q-4 0 -8 4l-4 4v2l-1 1h-1q-1 0 -1 1v2h-1q-1 0 -1 1v1q-11 18 -26 72l-1 2q-2 2 -2 9q0 2 -1 4q-2 2 -2 4v8q-2 14 -2 22q-1 1 0 6q0 4 -1 5q0 1 -0.5 3.5t-1.5 7t-2 7.5q-7 -9 -23 -39l-4 -6q-3 -5 -3 -6v-1l-3 -3q-2 -3 -7 -9.5t-7 -9.5q-1 0 -3 -3t-4 -5
l-10 -10h-2v-1h-7q-9 3 -12 8l-2 3l-1 1l-1 1h-1v1l-1 1q-1 1 -3 5l-3 6q-2 2 -1 3q2 12 17 30q5 7 11 19q1 3 4 6q0 1 1.5 3.5t4 6t4.5 7.5q5 9 11 18q0 1 1 2t3 5v2q6 10 11 17h-4l-44 -3q-2 -1 -8 -1h-6l-2 -1h-37q-6 0 -7 1h-14q-4 0 -5 1h-2q-1 1 -2 1q-2 0 -3 1l-5 2
q-1 0 -1.5 3t0.5 4l4 4q0 1 1 1l1 1h1l13 7q6 2 42 2q12 0 16 1q5 0 8 1h7l36 3h4q1 1 3 1h1l18 3h-1l-2 2l-14 12h-1l-3 3q-17 15 -38 29l-3 3l-4 2l-3 3h-2q-2 0 -2 3q-5 3 -16 14l-3 3q-2 1 -4 3l-7 9v1h-1v6q1 7 4 10l2 2q2 2 3 2v1q1 0 2 1h1q11 6 14 6q1 0 15 -7
q10 -7 13 -9q7 -5 10 -7q6 -6 12 -8q3 -3 22 -16q-1 3 -1 6v8q-1 4 -1 7l-2 1q0 2 1 3v2v29v7q-2 6 0 8v7q0 10 2 12v2l-1 1h1q1 0 1 1v1q-1 1 -1 2q1 0 2 1h1l3 5q1 0 1 1v1q15 5 17 3l10 -3q0 -1 1 0h2l2 -3q10 -2 16 -7q2 -1 4 -5q7 -19 7 -46q0 -14 1 -17q0 -7 3 -16
q2 5 7 9q7 7 19 21l2 2l3 3q0 3 3 4l3 2q1 1 2.5 2t3 3t2.5 3q1 0 4 3q0 2 1 3l1 1q8 6 17 7q5 1 9 1q1 -1 4 -1l2 -4h1l2 -1q0 -3 1 -6t1 -8v-3l-1 -2h-1v-3q-2 -5 -28 -38v-1q0 -2 -4 -6l-2 -3q-1 -3 -4 -6l-3 -3q-11 -10 -12 -15l-3 -3q-1 -1 -2 -3l-2 -2q-2 -1 -15 -24
v-1q4 0 8 1h6l2 1q5 0 15 2h4v-1q2 1 12 3q18 2 27 4h3q1 0 2 1l2 1h3h6l14 3q2 0 3 1h2q1 0 1 1h2q2 2 3 2q6 1 23 3h17q1 0 2 -4h2l3 -1q0 -6 -2 -14l-9 -5h-2l-1 -1h-1q-2 0 -2 -1h-3q-16 -5 -67 -14l-1 -1h-3q-2 -1 -5 -1h-2l-2 -2h-2h-9q-3 -1 -10 -1q-2 0 -5 -0.5
t-4 -1.5q4 -2 8 -6l3 -3q0 -2 2 -4h2q3 -3 6 -5l10 -11l-1 -1q4 0 12 -8q14 -14 22 -19l3 -3q6 -4 6 -5l2 -3q4 -4 10 -7l2 -1q2 -2 5 -2h2q6 -4 11 -13l3 -8v-3q1 -1 -5 -6l-1 -2v-1q0 -1 -1 -2q-22 -15 -24 -15q-2 -2 -8 -2v1h-4v1q-9 4 -26 21q-11 11 -13 12l-11 8
q-2 1 -6 6l-3 3q-2 3 -8 9q-2 2 -5 4l-2 2q-2 2 -3 4l-4 4q-2 1 -5 4l3 -13q0 -2 -1 -3t-1 -5l2 -1q0 -4 1 -7t1 -9v-4l-3 -1q3 -1 5 -12q0 -14 5 -29q0 -2 1 -3v-3l1 -1q2 -2 2 -6q-2 -2 0 -4q0 -7 4 -14q0 -1 1 -2t1 -3l6 -5q3 -5 3 -24v-14q-1 -1 -1 -5q0 -2 -9 -3
q0 -2 -1 -5l-2 -3q-6 0 -10 -1q-16 -4 -22 -4z" />
    <glyph glyph-name="plus" unicode="+" horiz-adv-x="599" 
d="M225 144l-4 -4q-3 1 -8.5 1.5t-8.5 0.5q-22 0 -39 4q-3 1 -15 13q-2 0 0 2v2h-1q-2 -2 -2 1l1 2h-2q-2 0 0 2v2q-8 12 -9 33q-1 7 -1 17v19q-1 9 -1 18l-2 1v11q0 2 -1 4t-1 5l2 6q1 2 1 4q1 2 1.5 7t0.5 7q0 8 1 11l2 6q1 3 1 6q0 10 -1 18l-2 14q0 6 -1 10q-5 1 -13 1
v-1l-5 1l-56 3q-5 0 -9 1h-11q-1 0 -2 1h-3l-32 4q-6 0 -18 3q-4 0 -7 1q-2 0 -5 0.5t-4 1.5q-5 0 -6 1h-3v1h-1q-2 0 -2 1h-2v1q-5 2 -5 3h-1q-6 6 0 8l2 2l4 2h2l18 7q24 0 52 -5q18 -2 20 -2q2 -1 10 -1h8l47 -3h20v9l2 8v9q0 3 -1 4t-1 3q0 3 1 5l2 2q0 3 -2 9v2l2 2
q1 1 1 2q0 12 1 17h-2l2 5q2 14 2 57q0 5 1 10q1 4 1 8l-2 2q0 2 1 3t1 2q1 11 8 33q0 2 4 18l3 9q3 11 6 14v3h2q1 0 1 2v2h2q2 0 2 1l3 3q1 1 4 1q1 1 2 1l1 1q2 1 14.5 0.5t13.5 -1.5l7 -2q6 -3 8 -5h2q2 0 5 -3l12 -7q2 -1 6.5 -3.5t6.5 -3.5q3 -2 5 -6q2 -8 2 -18
q0 -20 -3 -35q-3 -13 -3 -19t1 -10v-10q0 -10 -1 -22t-1 -24q1 -1 1 -3l-1 -2v-2l2 -2v-2q1 -4 1 -35v-34v-1q1 -1 3 -1l1 1h19l6 -1v-1q1 1 9 1h6h4l9 -1h4h5l9 1h4h4q2 -2 3 0h10q1 -1 4 -1q11 0 17 1h7l7 2q4 1 29 -1l16 -2q2 -1 5 -1q1 0 1 -4l6 -2h1q-1 -1 -1 -5
q0 -1 -0.5 -2.5t-1.5 -2.5q-2 -6 -10 -6l-5 -1q-1 -1 -2 0h-2v-1h-3v-1l-2 1q-1 0 -2 -1q-22 -2 -85 -2l-2 -1h-29q-3 1 -12 1h-12q-3 0 -6 1h-20v-4q-1 0 1 -2l5 -7q1 -3 1 -10v-6q0 -2 -2 -4q-3 -2 -2 -4l2 -2q-1 -2 -1 -9v-10q0 -1 -1 -3l-1 -2h-5q6 -4 6 -8q0 -3 -1 -4
q-1 -2 -1 -4q-2 -6 -2 -19q0 -11 1 -16v-3q-1 -3 1 -6q1 -1 1 -3q0 -3 -1 -5l-2 -4q-1 -8 2 -18l2 -7q6 -6 6 -7q4 -4 0 -17q0 -1 -1.5 -4t-2.5 -6l-1 -3q-4 -12 -7 -15q-3 -2 -5 -6q-1 -1 -15 -1z" />
    <glyph glyph-name="comma" unicode="," horiz-adv-x="343" 
d="M72 -144h-2q-22 2 -26 5q0 1 -6 3q-4 1 -7 4h-2l-2 1q-1 0 -2 1l-1 2l-9 6q-5 2 -11 6q-4 1 -4 5q0 18 11 32l6 10l2 6q1 5 2 5l6 14q5 10 6 13l1 1v5q2 6 9.5 22t8.5 17q1 4 9 12l4 4l-1 3q-1 2 -1 4q0 5 3 9q1 1 3 1q1 0 3 2l-1 2q0 4 5 9q2 3 3 2l3 -1q-5 5 0 8l1 1
q7 7 10 18l1 1q0 1 1 2v2q-1 1 2 3q1 1 1 2q3 4 3 9v4l-4 6q0 5 4 9l6 4q2 1 5 3q2 2 3 2q4 0 5 1l12 -5l4 1h5l42 -22q8 -8 8 -12v-2h1l-1 -1q0 -1 1 -1h1l-1 -1v-1q-2 -8 0 -10l-6 -19q-1 -2 -5 -10.5t-4 -9.5l1 -2q0 -2 -3 -5v-2q0 -3 -3 -5q-2 -2 -2 -3q-8 -8 -9 -12
q-1 0 -3 -2t-2 -3t-1 -3t-2 -4.5t-1 -4.5l-2 -6q0 -7 -5 -17q-4 -10 -10 -18q0 -1 1 -2q0 -2 -2 -4l-2 -1q-1 -1 -1 -5v-1l-1 -1h-2l-1 -2l-2 -5q0 -1 -0.5 -1t-0.5 -1l1 -1h1l-3 -1q-6 -11 -10 -29q-4 -4 -4 -8l2 -2l-3 -2q-2 -6 -10 -16l-2 -4q0 -2 -1 -2l-3 -3
q-1 -6 -7 -7h-2v-1q0 -1 -2 -1l-2 1q-4 -1 -7 -1z" />
    <glyph glyph-name="hyphen" unicode="-" horiz-adv-x="395" 
d="M23 219q-1 1 -4 1q-2 -2 -4 0h-3h-1h-1q-2 1 -2 3h-1q-2 2 -2 3h-2q-3 8 -3 12v6q1 1 1 3l1 1l-1 2l1 1v1l6 16q6 5 28 7h9q1 0 10 3q16 0 24 2h3q1 0 2 1h1q2 2 35 4l17 -4l3 3q1 1 2 1q2 1 7 1q2 0 3 -1q0 -1 2 -1l1 1h4q4 0 5 -1l3 -1v-3q1 4 7 3q8 -2 13 -2h8l1 2h4
q1 -2 2 -2q4 -1 8 0q1 0 2 2h2l3 3q4 1 14 -3q7 -3 7 -4l3 -2v-7q0 -1 2 -3l2 -2l-3 -28q-1 -1 -3 -5l-3 -2h-2v-1h-2v-2h-2q-7 -2 -42 -4v-2q-2 0 -3 2q-2 0 -3 -2h-4q-1 0 -2 2h-3q-4 0 -6 1h-6q-2 2 -6 2h-4q-2 -1 -6 -1t-5 -1h-6q-4 -1 -9 -1h-22l-1 1q-3 0 -4 -1h-3v1
q-7 0 -8 -1h-3q-6 1 -27 -2q-1 -1 -4 -1h-4v-1q-1 0 -2 1h-1q-4 -2 -15 0h-4q-2 -1 -4 -1z" />
    <glyph glyph-name="period" unicode="." horiz-adv-x="274" 
d="M95 -4v-1q-1 0 -2 1h-12l-27 5l-6 1l-8 2h-2l-2 1q-1 0 -2 1h-2q-2 1 -6 1l-5 1q-15 2 -18 5q-5 5 0 11q2 2 2 3v3q-1 1 -1 2l2 6q2 4 0 6v2l-1 1l3 21q0 2 5 6l3 3q0 -1 -5 4v1q0 5 4 5q2 0 2 1h-1l-1 1l2 2q1 3 4 4q2 -1 4 -1q-6 4 -1 6q7 3 8 9v1l1 1v3h2q2 0 2 1
q3 1 4 5l1 1v2q0 1 -1 2t0 2q1 3 10 3q12 0 16 -2q2 -1 4 -1q3 -3 7 -8l1 -1l3 -2q10 -17 16 -24q1 -3 7 -9h1v-1h1v-1q10 -7 14 -13l1 -1q0 -1 1 -1l1 -1v-1h-1q-2 0 -2 -2l-2 -2h-1l-1 -1q0 -3 1 -5q1 -1 1 -3l1 -3q1 -2 1 -4q0 -3 -1 -4q-1 -2 -1 -4h1l1 -1l-1 -1l-1 -1
q-1 -1 1 -2v-1h-2q-1 -1 -1 -4h1l-2 -1q-2 -4 -1 -13l-1 -2v-1l2 -1l-1 -1h-1q-3 -3 -6 -5q-1 -1 -1 -2q-2 -2 -4 -2q-2 -2 -6 -2h-2z" />
    <glyph glyph-name="slash" unicode="/" horiz-adv-x="633" 
d="M43 -172l-14 -9q-24 24 -28 33q-1 3 0 15l3 15l2 4q-1 0 -2 1l4 6h-1l-1 1l2 2q1 2 1 4q5 26 33 113l18 55l-1 4l4 11q4 11 5 20q1 6 7 20l24 59q2 7 6 13q2 4 5 12q4 7 12 30q21 59 70 147q4 6 6 15l10 13q6 10 9 18q1 2 1 4l6 7l21 37h-1l-1 1q0 3 6 9l2 1
q23 38 65 124l10 20q8 13 9 18v4q1 4 7 10q2 4 6 11.5l12 22.5t14 28q0 1 2.5 6l4.5 9l11 26q1 6 5 12q1 3 4 6q1 0 1 2v2h2q1 0 1 2v2h4l3 4q1 1 4 1q1 0 2 1h1q26 0 27 -3q0 -1 6 -4q5 -3 7 -6l2 -1h2l1 -2q3 -8 9 -14q10 -14 10 -20v-3q-8 -38 -46 -106l-21 -36
q-5 -15 -21 -43q-5 -12 -29 -54q-22 -41 -27 -52l-3 -6q-2 -2 -6 -13q-1 -3 -3 -5q-1 -2 -37 -72q-27 -50 -35 -67q-4 -8 -15 -29q-11 -18 -12 -20q-1 -1 -1 -5v-13q-2 -11 -9 -29q-1 -5 -4 -8q-3 -2 -5 -7v-4l-12 -37l-5 -10q-2 3 -4 1q3 -10 -7 -33q-13 -32 -24 -71
l-5 -15l-2 -11l-4.5 -9t-3.5 -8q-9 -20 -13 -37l-1 -1v-2l-3 -9l-1 -1v-2v-10q0 -6 -1 -7q-5 -14 -26 -45.5t-32 -38.5q-2 -1 -5 -4t-5 -4q-1 -1 -3 -1t-6 3z" />
    <glyph glyph-name="zero" unicode="0" horiz-adv-x="650" 
d="M220 17q-52 0 -94 13h-5q-22 13 -30 20t-21 23q-15 23 -27 49q-4 5 -5 15q-3 11 -4 12q-34 98 -34 165q0 12 4 80q1 3 1 9q-2 11 2 20l2 7l4 27q0 3 3 6v2q1 5 5 20t7 24h-1l-1 1q0 5 5 10l1 2q43 97 60 121q4 7 15 18l11 11l2 4q3 3 6 4q3 2 3 3q31 23 60 33
q18 7 43.5 10.5t32.5 1.5h7v-1h8l2 -2h1q4 1 9 1h3q32 -2 55.5 -13.5t53.5 -40.5q31 -34 63 -108q3 -3 3 -10q1 -1 3 -5l2 -4q21 -74 25 -145q1 -15 -4 -74q0 -5 2 -15v-4q0 -15 -3 -33q-2 -7 -3 -8q-2 -3 -3 -9l1 -4l-9 -38l-4 -10l-2 3q-1 0 -1 -2q2 -12 -8 -30
q-16 -34 -30 -57q-1 -1 -3 -5q-3 -4 -3 -5l-1 -1l-2 -4t-2 -3l-11 -11l-22 -20l-8 -8l-2 -2q-2 -1 -3 -2l-4 -4q-22 -12 -44 -16q-8 -2 -10 -2h1v-1q0 -1 -3.5 -2.5t-4.5 -1.5l-7 -2q-37 -12 -87 -12zM228 63q5 0 8 1l5 1q73 15 104.5 35.5t46.5 49.5v3q0 1 2.5 7t3.5 8
q1 1 1 3l1 4q1 6 5 14l3 8l4 15q5 15 7 25l5 21q4 25 4 69q0 68 -5 117q0 1 -0.5 3t-1 3.5l-1 3t-0.5 2.5q-1 3 -1 8q0 4 -2 14q0 1 -0.5 3.5t-1.5 3.5l-1 3v7q-4 20 -7 30h-1l-2 9q-6 22 -21 57t-26 46l-6 8q-17 23 -27 33q-11 11 -41 21v-1h-3l-8 -3q-2 0 -7 -3
q-7 -4 -12 -6q-46 -10 -74.5 -65t-40.5 -118v-3l-2 -4v-3q-1 -2 -1 -6v-6q-12 -106 -10 -152v-73q0 -6 7 -13l2 -4q3 -6 8 -28q2 -5 0 -8q-2 -4 -1 -8l3 -3q1 -10 9 -30q1 -2 1 -5t-1 -3l-4 -2q8 -2 10 -8q0 -2 1 -6l1 -5q8 -24 19 -39q0 -3 5 -8l1 -1q1 -1 7 -6q1 -2 4 -5
q10 -9 21 -10q4 -1 10 -1z" />
    <glyph glyph-name="one" unicode="1" horiz-adv-x="292" 
d="M106 44l-6 -6q-2 1 -7.5 1.5t-8.5 0.5q-39 0 -48 14l-7 7v2l1 2h-3v5h-1l-1 -1v5q-10 26 -10 52q0 3 -0.5 7t-1 12.5t-0.5 14.5l-2 29l-2 2q-2 3 0 8q0 3 -2 13q-1 3 -1 7t1 7t1 8q0 20 2 36q0 4 1 9q1 4 1 9q-2 9 -3 27l-2 20q-5 5 -5 74v26q0 4 -1 6q-1 1 -1 5q0 3 1 6
q1 2 1 4v8q0 4 -1 5t-1 3q0 1 2 3q1 1 1 2v26h-2q-2 5 2 6l1 2q0 2 2 81q0 7 1 13t1 11l-2 3q0 3 1 4t1 3q3 21 10 44q0 2 5 22q2 3 3 10q5 16 9 17v5h1l1 -1q1 0 1 2q0 3 3 3q1 0 2 1q4 4 7 5h2l1 1q4 1 15 0t12 -3q2 -2 6 -3q7 -3 8 -6h2q2 0 2 -1l3 -4q1 -1 11 -7
q16 -10 16 -16q3 -28 -3 -63l-4 -25q0 -8 1 -13v-35q-1 -11 -1 -23t1 -19v-4q-1 -2 -1 -4l2 -7q4 -32 4 -102q0 -25 -2 -37q-2 -14 -2 -15q0 -3 4 -7q3 -5 3 -6q2 -8 2 -15v-8q0 -4 -2 -6q-2 -4 -2 -7l2 -3q0 -6 1 -12v-16l-3 -8h-4q6 -5 6 -11v-6q-1 -3 -1 -6q-1 -8 -1 -22
q0 -19 2 -28v-4q-2 -5 0 -6q0 -2 1 -3t1 -4v-4l-2 -4v-4q-1 -12 2 -25q2 -2 2 -9q2 -4 4 -6q3 -3 3 -4q1 -2 1 -8q0 -9 -5 -31l-7 -20l-4 -4l-1 -2q-2 -2 -16 -2q-1 0 -3 -3z" />
    <glyph glyph-name="two" unicode="2" horiz-adv-x="603" 
d="M360 18h-26q-3 1 -10 1h-10q-1 1 -5 1h-57q-9 0 -16 1h-19q-2 0 -3 1h-13l-1 1q-12 0 -15 1v-1l-4 1l-46 3q-4 0 -7 1h-9q-1 0 -2 1h-2q-76 0 -76 26q0 9 8 18q2 2 4 5l2 2l3 2q3 3 4 3l-1 1l3 3l3 3q0 2 3 3q2 1 4 3q87 99 123 147l1 4l6 9q4 6 11 19q1 2 4 9
q2 2 7.5 9.5t5.5 8.5q1 2 10 19.5t18 33.5l8 16q23 62 23 171q0 29 -4 43q0 5 1 8t1 6q-1 1 -5 20q-2 2 0 4q1 1 1 2q0 2 -1 8t-2 11t-1 7l-1 -1h-1l1 7q-6 21 -26.5 36t-40.5 14q-15 0 -34 -10l-3 -2q-1 -1 -5 -3l-4 -2q-28 -21 -41 -35.5t-25 -40.5l-6 -27q-1 -4 -4 -7v-2
q1 -3 0 -3h-2v-2q1 -3 -1 -4q-1 -1 -3 -1q0 -1 -0.5 -2.5t-1.5 -2.5q0 -3 -3 -4q-1 -1 -1 -2l-1 -1q-2 -2 -12 -6t-14 -4l-2 1q-2 2 -8 3q-7 1 -10 8h-2q-2 -1 -5 4q-1 3 -3 5q-2 7 -10 17q-8 11 -8 17q-2 4 -2 11q0 5 2 6q35 86 162 127q39 12 69 12q68 0 119 -28
q4 -1 15 -12q3 -3 6 -5q7 -7 7 -9q32 -67 32 -164q0 -50 -10 -77l-8 -22q-6 -16 -6 -18q-1 -1 -1 -7v-16q-6 -22 -14 -37q-3 -8 -6 -9q-3 -3 -7 -10v-5l-23 -42l-8 -10l-3 4v-2q0 -12 -19 -34q-6 -8 -52 -68l-6 -6q-5 -5 -8 -11q-1 -2 -13 -14q-4 -3 -8 -7q-14 -15 -28 -31
q-3 -4 -12 -13q-7 -10 -9 -15q-18 -15 -46 -33h9q3 -1 7 -1l38 -3h8q17 0 31 -1q13 -1 27 -1l28 -3q3 0 6 1h1q3 1 13 1q2 -1 4 -1q1 -1 3 -1l2 1h7q3 -1 8 -1h5v-2q4 2 13 1h4l6 -1h4q3 0 7.5 0.5t6.5 0.5h3q1 -1 3 -1q1 0 2 1h6q1 -1 3 -1q9 0 14 1h6h2l2 2q34 0 38 -4
q5 0 5 -5l6 -2q-1 -1 -1 -4q0 -1 -0.5 -2.5t-1.5 -2.5q-1 -6 -8 -7l-4 -1h-3v-1h-6q-13 -1 -69 -3z" />
    <glyph glyph-name="three" unicode="3" horiz-adv-x="612" 
d="M210 26h-8v2q-3 -1 -11 -1q-10 0 -16 2q-58 10 -69 21q-2 0 -3 1q-3 0 -5 2q-9 4 -22 17l-8 6q-6 4 -9 9l-11 8q-3 1 -5 3q-43 43 -43 65q0 23 40 40l15 -7l7 -7l4 -6v-2q0 -2 1 -2l1 1q0 -1 1 -2v-2q0 -1 1 0l1 -2v-2q49 -68 72 -90l14 -8q9 -2 12 -5l13 -5q22 -6 36 -7
h18q81 8 127 62q4 4 4 9l4 4l2 3q1 3 3 12q0 1 1 2l1 1q4 14 5 21h-1l2 7q2 16 2 26q0 38 -12 73l-2 2q-1 1 -1 4v3l-17 40q-8 16 -32 33l-41 29q0 2 3 7l2 7q0 1 1 2l1 1l-1 2l2 2l-1 2l3 3q5 8 15 21l15 23q17 23 18 41l-1 2q0 3 1 5v5v4l-2 2v4l2 4q1 2 1 5l2 26q0 3 1 6
v7q-2 11 -10 34q-1 5 -6 16q-8 18 -11 28q-7 15 -7 16q0 2 -1 3q-3 2 -3 7q-1 3 -2 3q0 2 -6 8q-1 1 -1 3q-5 8 -14 13v-1l-5 3q-5 1 -15 1q-32 0 -59 -27v-2q-2 -2 -3 -2l-3 -2l-24 -30q-7 -7 -10 -17q-1 -1 -3 -7q-5 -12 -8 -13v-3h-2v-3h-2q-4 0 -5 -2q-2 -2 -4 -2
q-1 0 -2 -1q-4 -1 -15.5 0t-12.5 3q0 1 -5 4q-6 3 -7 7h-2q-2 0 -2 1l-1 3q-1 1 -1 3l-1 3q-2 3 -4 5q-6 9 -8 18q-2 5 0 7q24 44 94 81q33 19 103 27q1 1 5 1h4q3 0 5 1h4q30 -2 66.5 -18t53.5 -34q4 -4 18 -28l6 -16l3 -12l2 -3l5 -5l5 -5q8 -12 9 -28v-6l-2 -4v-6l2 -3
q1 -13 1 -30v-6l-3 -9l-4 1v-1q4 -4 4 -12q0 -12 -30 -76l-1 -2l-3 -3q-4 -5 -5 -8q-2 -4 -3 -5q-5 -5 -27 -21l-11 -9q-6 -2 -10 -6q-6 -5 -6 -9q0 -6 -4 -10q22 -7 37 -21q16 -14 33.5 -46t19.5 -53q4 -17 4 -42t-4 -48v-2q-1 -1 -1 -4l-2 -3q0 -4 -2 -10
q-42 -83 -142 -111q-2 0 -4 -1l-10 -4q-14 -5 -27 -6q-5 -2 -7 0q-5 0 -8 -1l-3 -1q-13 -1 -33 -1z" />
    <glyph glyph-name="four" unicode="4" horiz-adv-x="707" 
d="M427 21q-15 0 -37 8q-3 1 -8 10l-7 9v2q1 2 0 3h-2v5h-2v5q-7 25 -9 74l-120 -2h-55q-7 -1 -15 -1q-10 0 -17 1h-15q-33 1 -64 1q-7 0 -12 1h-11q-53 1 -53 23q0 17 28 40q26 21 30 27q5 9 22 35q6 9 15 23t10 15q1 2 2.5 4.5t3.5 5.5t3 5q10 13 12 13q3 5 8.5 12t7.5 10
l2 2q1 1 1 2q2 4 8 13.5t9 15.5h-1l7 10q33 64 67 134q5 11 12 25q10 19 11 21l1 5q0 1 5 8q3 4 3 5q71 129 113 155l3 2l1 1h1l5 4h1q1 4 5 4q1 0 2 1l1 1q3 1 14.5 -0.5t12.5 -3.5q0 -1 5 -4q6 -4 7 -7q0 -1 2 -1q3 0 4 -3q1 -1 1 -3l11 -7q16 -10 17 -17q0 -6 4 -41
q1 -7 1 -27q-1 -12 -1 -29q0 -2 2 -14l2 -14q1 -5 1.5 -18.5t0.5 -20.5q0 -30 1 -35v-8q0 -3 1 -4q1 -2 1 -4q2 -34 2 -71q-1 -11 -1 -32q0 -32 -6 -51q0 -2 3 -8l3 -5q2 -8 2 -13q0 -1 -0.5 -5t-0.5 -6v-3l-1 -2l-2 -2l-1 -2v-3l2 -3q-1 -3 -1 -12v-16l-3 -8l-4 1
q5 -5 5 -16l-2 -4v-4q-4 -21 -2 -51v-10q0 -2 1 -3q46 0 61 -3q3 -1 7 -1q2 0 2 -4h2q1 -1 2 -1l3 -1l-2 -4q-1 -6 -4 -9q-4 -3 -13 -3q-3 -1 -5 -1h-7v-1h-14q-5 -1 -16.5 -1.5t-17.5 -0.5q0 -3 2 -13q0 -4 2 -10q0 -3 3 -6q3 -4 3 -5v-25q-4 -16 -6 -18q3 -4 -2 -14
t-19.5 -18.5t-33.5 -8.5zM141 164h114h13q9 0 12 1h82v25l-2 2q0 5 1 8q0 6 -1 8v6q-1 3 -1 7t1 8q1 3 1 7q1 3 1.5 9.5t0.5 9.5t0.5 9t1.5 8q0 1 2 9q1 4 1 9q0 15 -1 27l-2 19q0 10 -3 46q0 16 1 27t1 24q0 4 -1 6q-1 1 -1 4q0 1 2 7q1 2 1 4t-0.5 6.5t-0.5 5.5q-1 1 -1 3
t1 3t1 2q1 10 1 25h-2l2 8q2 25 -4 77q-1 3 -1 14q0 10 -1 12l-2 2q0 4 1 6l1 2v28l-3 -6q-48 -88 -53 -99q-6 -10 -24 -51q-13 -27 -60 -115q-1 -5 -7 -11q-2 -8 -5 -11q-57 -79 -92 -137q-18 -24 -47 -52q13 0 16 -1h13v-1q3 1 15 1q17 0 28 -1z" />
    <glyph glyph-name="five" unicode="5" horiz-adv-x="624" 
d="M201 29q-32 0 -67 5q-2 0 -14 4l-7 3q-3 0 -4 1q-17 4 -50 32l-2 2q-2 1 -5 4l-6 6l-2 2q-2 1 -3 2l-4 4q-1 1 -3 2l-2 2q-32 43 -32 85q0 35 26 35q14 0 26 -10t12 -23q45 -85 88 -118h3l15 -6l14 -2q8 -1 16 -1q23 2 40 7q13 3 20 7q79 39 111 132q2 8 2 12l3 7
q1 2 1 4q1 3 1 18q0 3 1 4t1 2q1 5 1 14q0 10 -1 15h-1v9q-9 70 -48 102l-3 1l-6 6q-31 14 -56 14q-14 1 -50 -14q-3 -2 -6.5 -3.5t-5.5 -2t-4 -1.5l-1 -1q-1 0 -3 -2l-3 -1h-1v1l-2 -2q-2 -1 -4 -1h-2q-1 0 -7 -1.5t-7 -2.5q-7 -9 -13 -9q-1 -1 -14 3h-8l-14 5q-4 1 -32 13
q-2 1 -5.5 6.5t-3.5 7.5l1 1h-1v2v1l-1 1h-1v2l1 1q0 18 4 30q1 6 6 18q3 12 6 18q0 2 2.5 9t4.5 12l7 19l-1 4q0 1 2.5 7t3.5 8q1 1 1 3l1 4q1 5 6 14q1 2 2 5l2 2l9 18l8 17q7 9 9 17q4 7 9 23q1 4 2.5 8.5t3 7.5t1.5 4q1 2 3 7q15 38 27 50q3 3 7 6l5 5l9 2q14 0 16 2h5
q3 1 11 2.5t11 2.5l-1 1h7q49 4 71 4q7 0 13 -1q5 -1 10 -1l2 1q1 0 1 -1h2l1 -1h2q5 -1 19 -3.5t21 -3.5q6 0 11 -1t9 -1h9q3 -1 9 -1q5 0 6 -1h3v-1h1q1 1 3 1q1 -1 1 -2l6 -1q6 -3 6 -11v-1q-1 0 -1 -3q-1 -3 -4 -4l1 -1v-1q-4 0 -4 -3q-8 -8 -12 -11q-2 -2 -6 -4
q-18 -3 -43 -3l-51 6q-21 0 -23 2q-12 1 -31 1q-14 0 -19 -1h-4q-1 0 -1 -1h-2q-6 -6 -6 -9q0 -1 6 -11q3 -6 3 -10q0 -11 -11 -22l-6 -9q-2 -2 0 -6q1 -4 1 -7q-2 -10 -7 -20q-1 -3 -3 -5q-4 -2 -5 -5l1 -3l-11 -27l-5 -6q-2 2 -3 1q3 -8 -6 -24q-11 -20 -20 -50
q0 -2 -2 -5.5t-2 -4.5v-3q0 -5 -4 -10q-2 -5 -3 -6q-6 -14 -7 -23v-4q-1 -2 -1 -5t1 -5q1 -3 1 -5v-1q10 10 17 13q40 19 81 19q100 0 144 -79q15 -31 20 -52l2 -13q0 -4 1 -7t1 -6q-3 -37 -19 -81t-35 -68q-16 -22 -56 -51q-3 -1 -11 -9q-3 -3 -4 -3q-13 -10 -28 -16
q-6 -3 -8 -3l-12 -5l-36 -12h-4q-2 -1 -4 -1l-2 -1v1q-13 -5 -31 -5z" />
    <glyph glyph-name="six" unicode="6" horiz-adv-x="644" 
d="M252 2h-19l-25 2.5t-16 1.5q-4 2 -18 3q-1 0 -2.5 0.5l-3 1t-3.5 0.5l-10 2l-20 8q-53 16 -94 44l-4 2q-3 3 -9 13l-15 22l-6 22q-5 26 -7 52q0 9 1 15v11q4 71 13 106t40 99l3 7q1 7 8 15q6 7 9 15q0 1 1 2.5l2 3t1 2.5q1 2 1 4l6 6q7 14 21 33l-1 1q0 2 6 8l2 1
q11 13 39 53l34 47l9 10l5 5l11 13l1 4q3 3 5 4t4 3q17 17 57.5 51.5t47.5 34.5q1 0 3 2q1 1 2 1l1 -1l5 4h1q1 -1 2 -1l9 2q0 -1 1 -1l1 1q1 0 4 -2.5t5 -5.5l2 -3q-1 -1 0 -5q0 -5 -1 -7l1 -1v-2l-2 -2v-2q-1 -2 -1 -9q-2 -16 -5 -20q-3 -3 -9.5 -10.5t-9.5 -11.5
q-12 -12 -18 -20q-1 -2 -4 -5t-8 -9t-10 -11q-24 -26 -56 -71t-45 -73q-2 -2 -3 -4q-4 -6 -5 -11l-1 -4q-12 -26 -14 -32q18 10 35 14q38 13 112 13q71 0 134 -49q0 -3 12 -12q3 -3 3 -5q27 -48 27 -117q0 -46 -33 -107l-2 -6q0 -1 -0.5 -1t-0.5 -1l-2 -5q-1 -1 -1 -2l-1 -4
q-10 -22 -26 -38l-7 -7l-2 -3q-14 -14 -32 -30l-3 -2q-2 -1 -4 -3q-1 -1 -3 -1v1q-22 -25 -99 -45q-2 0 -14 -1.5t-12 -2.5zM278 45q15 0 36 6q4 2 7.5 5t5.5 4.5t3 1.5q16 14 33 30q3 4 14 18q31 48 43 110q5 37 4 60q0 4 -1 6t-1 5v10q0 4 -4 15v5q-3 10 -8 23h-1l-1 7
q-16 29 -45 46t-61 17h-4q-4 0 -7 1h-7q-44 -4 -72 -13t-61 -33q-14 -32 -18 -49q-3 -12 -9 -31q-7 -24 -8 -27q0 -3 1 -5q1 -1 1.5 -3.5t0.5 -3.5l2 -3q1 -4 1 -16v-8q-2 -5 -3 -6q-2 -2 -2 -6l3 -3q0 -7 1 -12v-13q1 -1 1 -4q-1 -3 -2 -2l-4 -1q7 -5 7 -8v-10
q2 -23 11 -40v-2q1 -1 2 -3t1 -3l3 -2q2 -2 2 -3t-3 -4q-4 -3 -4 -4q1 -9 13 -16t22 -7q3 -1 5 -1q4 -1 8 -2.5t10.5 -3.5t12.5 -4q58 -18 72 -18z" />
    <glyph glyph-name="seven" unicode="7" horiz-adv-x="663" 
d="M80 -25h-6q-2 0 -8 6q-1 1 -3 1h-1q-4 1 -4 2t-2 4l-6 9l-8 12q-1 1 -1 3q-1 3 -1 4q-1 4 -3 4q0 1 1 2v2v4q2 19 38 75q3 6 7.5 13.5t5.5 9.5v4q8 8 10 16q3 3 4 8q3 6 10 16l6 8q3 4 8 12.5t8 12.5q16 27 27 41l33 65l16 32q11 24 18 35q19 34 21 38l19 35l1 2l2 5v1
l1 1q2 7 9 15q4 7 8 15l4 8l1 4l6 7l18 34v1h-1q0 3 5 8l2 1q17 29 50 100q10 16 13 26v4l3 4l2 2q14 25 22 38v1h-44l-1 -1h-19q-3 0 -5 1h-5q-7 0 -12 1h-11q-3 0 -6 1h-23q-8 -1 -13 -1h-31q-10 0 -17 1h-30q-2 1 -4 1q-1 -1 -3 -1h-3q-1 0 -1 1h-24q-8 1 -54 1
q-4 0 -8 1h-8l-2 -1h-3l-2 1q-19 0 -32 1q-4 0 -8 1h-8q-9 0 -17 2h-9v1h-4q-5 2 -5 3h-2l-1 7l5 4v1l1 1h2l16 8h53q9 -1 18 -1h113q18 -1 28 -1l34 -2q4 0 6 2h22q1 -1 4 -1h20l5 -1v-1q1 1 5 1q6 0 10 -1h4l9 -1h4h4l8 1h4h17q1 -1 4 -1q11 0 16 1h7q3 0 4 1h9
q34 0 37 -3q2 -1 5 -1q2 0 2 -4l3 -1q1 0 2 -1h1v-2q4 -1 4 -3h3q4 0 4 -4q1 -1 5 -3q4 -4 6 -5q8 -8 8 -9q1 -1 1 -3q-2 -18 -27 -59q-16 -27 -22 -40l-7 -16l-44 -85q-1 -1 -3 -5q-3 -4 -5 -11q-1 -3 -1 -5l-77 -146q-18 -30 -32 -52q-2 -3 -13 -19q-4 -13 -5 -17l-1 -4
q-4 -12 -17 -33q-4 -6 -7 -7q-2 -1 -7 -8v-5l-3 -6q-4 -6 -7 -10q-7 -12 -12 -21l-8 -9q0 2 -3 2q1 -10 -14 -30q-22 -30 -36 -58q-6 -6 -7 -10q-1 -1 -1 -3q-1 -5 -7 -11l-5 -5q-8 -12 -14 -23l-2 -4q-1 -2 -3 -4q-1 -2 -1 -6v-5q-7 -12 -26 -22q-12 -6 -16 -5z" />
    <glyph glyph-name="eight" unicode="8" horiz-adv-x="630" 
d="M261 6q-21 0 -33 2q-8 0 -11 1h-17l-3 -1q-6 0 -10 1t-9 1q-3 0 -7 1h-9l-19 6q-42 16 -71 35q-72 52 -72 111q0 23 14 63l2 6q0 6 6 14q3 3 3 4q3 3 7 11l2 6l5 5l20 26h-2q1 4 6 6l2 1q55 51 75 64l1 1l-17 6h-4q-4 2 -8 6q-8 4 -12 7q-4 2 -5 3l-4 3q-3 2 -11 14
q-17 23 -23 36l-1 4q-2 4 -3 7q-1 8 -3 9q-23 64 -23 94q0 29 13 72v3q2 9 6 14q2 3 3 3q0 1 1.5 5t2.5 6q2 5 3 5q0 1 2 3l2 2q10 14 18 22v1h-1q0 1 2 3l5 3q69 51 102 51l3 2h8q10 1 29 1q39 0 60 -7q39 -14 46 -19l4 -2q2 0 2 -1h-1v-1l3 -1q1 0 3 -1q1 -1 2 -1
q0 -1 1 -2q0 -3 4 -6q2 -2 3 -2q2 -2 2 -5l3 -3v-1q12 -7 23 -17l7 -6q1 -2 3 -4l7 -7q2 -2 6 -10q6 -10 13 -24l4 -13q18 -45 18 -66q0 -13 -6 -37v-4q0 -4 -2 -7q-1 -3 -3 -3q0 -1 -0.5 -3.5t-1.5 -3.5l-1 -4q-2 -2 -2 -3l-10 -16h1v-1l-4 -4q-30 -35 -41 -44
q-11 -11 -16 -11l-1 -2q-1 -1 -3 -1l-2 -2q-4 -1 -10 -5q7 -1 19 -5q12 -6 33.5 -21t28.5 -24q13 -16 37 -55v-2q2 -4 3 -5v-2l1 -1l2 -3q19 -48 19 -97q0 -16 -11 -49v-4q-1 -2 -1 -6l1 -3q-3 -10 -9 -21l-4 -4q-3 -3 -4 -6l-1 -2q-12 -17 -17 -22l-6 -4l-1 1
q-1 -6 -16 -16q-30 -18 -43 -25q-2 0 -6 -1l-4 -2q-3 -3 -7 -3q-1 -1 -13 -4l-28 -7q-4 0 -6 -1l-12 -3q-3 -1 -6 -1q-8 -1 -25 -1zM261 403l6 3q39 16 65 39q3 3 11 13q12 18 17 34q0 2 2 4v4q5 39 4 48q-2 6 0 14q1 5 1 10q0 1 -2 3q-3 1 -3 3q-2 3 -3 10q-2 2 0 4
q1 1 1 3l-2 1q0 1 -4 13v3q-1 1 0 1l2 2q-5 0 -5 4q-2 2 -2 6q-5 14 -14 25l-2 3q-1 3 -3 4q-2 0 -2 2q-1 2 -5 6q-5 7 -12 12l-5 4q-1 0 -2 1q-7 -1 -15 1q-54 25 -76 25q-6 0 -18 -2q-13 -4 -24.5 -20t-14.5 -30l-1 -2q-1 -1 -1 -2v-6q-5 -63 -4 -69q2 -20 -3 -35l2 -2
q6 -4 6 -6q3 -3 5 -15q0 -3 -2 -5t-1 -4l3 -1q0 -2 2 -8q0 -2 1.5 -6.5t1.5 -6.5q0 -3 -2 -3l-4 -2q8 0 8 -7v-5q5 -20 14 -31l2 -2l2 -4q3 0 4 -3q2 -2 2 -3l2 -2q17 -17 26 -17h9q8 -1 33 -6zM240 58q8 -1 24 1h4q2 0 3 1h3l6 3q2 1 4 1q18 2 44 2h25q1 0 4 -0.5t4 -1.5
l6 6l7 7q0 1 3 4l4 4q3 4 14 21q5 10 5 11q7 21 7 63q0 18 -2 36q0 3 -1 4t-1 4v7q0 4 -2 6v2l-1 1v2q-1 1 0 2v2q-1 6 -5 18h-1l-1 5q-8 25 -25 52l-10 15h-1q-1 1 -1 3l-2 2q-18 22 -33 33h-1l-4 -3v-2l-2 -1q-3 0 -3 -1l-8 -4q-14 -9 -19 -9q-12 0 -25 1q-21 0 -24 -1
q-27 -5 -54 -33.5t-43 -58.5q-3 -3 -3 -6l-2 -8q-9 -36 -9 -58q0 -11 1 -16t-2 -24l6 -3l2 -12q1 -3 0 -6q-2 -3 0 -5l1 -1q9 -15 13 -21l5 -7q-1 0 -1 -2q5 0 15 -8l5 -5q23 -15 44 -19l9 -2q2 0 3 1q3 0 4 -1h5q3 -1 6 -1z" />
    <glyph glyph-name="nine" unicode="9" horiz-adv-x="650" 
d="M169 28q-13 0 -18 16q-2 6 -2 7l-2 2l1 2v3q-4 16 -4 20q-1 2 1 8q9 17 45 60q20 24 29 38q2 3 5 7q2 3 2 4l44 66q0 2 5 7q1 1 1 2q1 2 1 3l1 3q0 1 17 32q-42 -4 -65 -4q-21 0 -69 4h-5q-71 18 -108 59q-20 20 -34 57t-14 66q0 42 24 101q1 1 3 7q1 2 9 16l3 4
q1 1 8 13l5 7q0 2 5 6l26 29l9 8q43 31 74 47t75 24l4 2q8 0 13 1q52 2 81 -4q16 -3 45 -17t36 -21l4 -2q2 -4 8 -4l1 -4q8 -6 8 -7l3 -2v-2q46 -44 54 -127l2 -3q0 -5 -1 -8q-1 -4 -1 -9q0 -4 1 -8q0 -8 -3 -16l-3 -8q-5 -17 -14 -40q-3 -11 -9 -19q-1 -4 -8 -24l-9 -27
q-20 -50 -55 -107q-1 -1 -3 -5q-1 -6 -7 -12q-2 -2 -4.5 -6t-3.5 -5l-3 -7q-1 -5 -4 -6l-3 -2q-11 -14 -18 -26h1l1 -1q-5 -4 -6 -5l-1 -1q-19 -21 -42 -58l-16 -22q-10 -14 -18 -22l-1 -4l-6 -5q-20 -22 -35 -37q-4 -4 -8 -9l-9 -9q-2 -1 -8 -7l-9 -9q-5 -3 -6 -3l-3 -3
l-1 1l-3 -3q-1 -1 -2 0h-2l-7 -2q-1 1 -2 0zM259 329q11 0 13 1l14 2l25 6q16 30 21 43l15 29q2 4 4 7.5t3.5 5.5t2.5 4t1 3v11q-1 2 -1 4q0 5 3 16t6 12q2 2 3 5l-1 3q2 5 3 13q0 2 0.5 6t1.5 6l3 6l5 -1q-6 6 -4 11q0 3 1 5t1 4q2 9 4 29v15q0 66 -37 103t-91 37
q-78 0 -132 -65q-2 -2 -6 -8q-38 -69 -43 -115q-5 -32 -3 -55q0 -3 5 -10l7 -23q1 -3 1 -6q-1 -2 1 -7l2 -1q1 -3 11 -25l4 -8l-2 -1q3 -1 11 -9l7 -9q25 -22 60 -34q2 0 7.5 -1.5t8.5 -2.5q2 -1 5 -1h3q3 0 4 -1q3 0 18 -3q25 -2 35 -1z" />
    <glyph glyph-name="colon" unicode=":" horiz-adv-x="282" 
d="M97 359h-14l-1 1h-1q-26 3 -27 4l-6 2q-5 1 -8 1q-1 1 -2 1h-4q-1 1 -3 1q-3 2 -10 3q-16 4 -18 5q-6 4 -1 10l3 3v3q-1 1 -1 2v4l2 4v4v2l-1 1h-1l3 21q2 5 6 8h2q0 1 -1 2q-2 1 -3 3v1q0 4 1 5h2q2 0 2 2h-1q0 2 1 3q2 4 5 4v-1l3 -1q-4 5 0 6q6 4 7 10l1 1q1 0 1 1v1
q-1 0 0 1l4 1q2 1 4 5q0 1 1 2v1q0 1 -1 2l-1 2q2 3 13 3q12 0 13 -1l4 -2q2 0 6 -7q1 0 2 -1h1l3 -2q14 -22 15 -24q2 -3 7 -8v-2h2v-1h1q12 -10 13 -13l2 -1v-1q0 -1 1 -1l1 -1l-1 -1h-1q-1 -1 -1 -2l-3 -3h-1q-1 -1 1 -4q1 -1 1 -3t1 -3q1 -2 1 -4q0 -3 -1 -4
q-1 -2 -1 -4l1 -1l1 -1l-3 -2l1 -2l-1 -1h-1q0 -3 -1 -4h1l-1 -1q-2 -2 -1 -12q0 -1 -1 -2q-2 -2 0 -2l2 -1h-3q-1 -3 -6 -6l-1 -1l-2 -2q-1 0 -2 -1q-2 -2 -5 -2zM103 -4v-1q-1 0 -2 1h-12l-27 5l-6 1l-8 2h-2l-2 1q-1 0 -2 1h-2q-2 1 -6 1q-3 1 -5 1q-15 2 -18 5
q-5 5 0 11q2 2 2 3v3q-1 1 -1 2l2 6q2 4 0 6v2l-1 1l3 21q0 2 5 6l3 3q0 -1 -5 4v1q0 5 4 5q2 0 2 1h-1l-1 1l2 2q1 3 4 4q2 -1 4 -1q-6 4 -1 6q7 3 8 9v1l1 1v3h2q2 0 2 1q3 1 4 5l1 1v2q0 1 -1 2t0 2q1 3 10 3q12 0 16 -2q2 -1 4 -1q3 -3 7 -8l1 -1l3 -2q10 -17 16 -24
q1 -3 7 -9h1v-1h1v-1q10 -7 14 -13l1 -1q0 -1 1 -1l1 -1v-1h-1q-2 0 -2 -2l-2 -2h-1l-1 -1q0 -3 1 -5q1 -1 1 -3l1 -3q1 -2 1 -4q0 -3 -1 -4q-1 -2 -1 -4h1l1 -1l-1 -1l-1 -1q-1 -1 1 -2v-1h-2q-1 -1 -1 -4h1l-2 -1q-2 -4 -1 -13l-1 -2v-1l2 -1l-1 -1h-1q-3 -3 -6 -5
q-1 -1 -1 -2q-2 -2 -4 -2q-2 -2 -6 -2h-2z" />
    <glyph glyph-name="semicolon" unicode=";" horiz-adv-x="353" 
d="M174 356v-1q-1 0 -2 1h-11l-27 5q-6 0 -15 3h-2l-2 1q-1 0 -2 1h-2q-1 0 -2 0.5t-3.5 1t-4.5 0.5q-16 2 -19 5q-2 2 -2 6q0 1 2 5q3 3 3 6q-1 1 -1 2q0 3 1 6q1 4 0 6h1v2h-1l-1 1l3 21q0 1 2 3l6 6q-1 -1 -3 3l-1 1v1q-1 5 3 5q2 0 2 1l-1 1l1 2q1 2 2 3.5t2 0.5h1l3 -1
q-5 5 -1 6q6 3 9 10v2q0 2 3 2q4 3 5 6v1q1 1 1 2v2q-1 1 -1 2q2 3 10 3q12 0 16 -2q2 -1 4 -1q3 -3 6 -7q0 -1 2 -1v-1q3 0 3 -2q7 -12 16 -24l6 -8h1l3 -3q8 -6 13 -13l2 -1v-2l1 -1h-1l-2 -2q-2 -2 -3 -2l-1 -1q0 -3 1 -5q1 -1 1 -3q3 0 3 -7q0 -3 -1 -4q-1 -2 -1 -4h1
v-1l-1 -1l-1 -1q0 -1 1 -2v-1h-2q-1 -1 -1 -4h1l-1 -1q-2 -2 -2 -8v-5q2 0 0 -2l-1 -1l2 -1l-1 -1h-1q-3 -3 -6 -5q0 -3 -3 -3q-2 -2 -4 -2q-1 -1 -4 -1h-2zM72 -144h-2q-22 2 -26 5q0 1 -6 3q-4 1 -7 4h-2l-2 1q-1 0 -2 1l-1 2l-9 6q-5 2 -11 6q-4 1 -4 5q0 18 11 32l6 10
l2 6q1 5 2 5l6 14q5 10 6 13l1 1v5q2 6 9.5 22t8.5 17q1 4 9 12l4 4l-1 3q-1 2 -1 4q0 5 3 9q1 1 3 1q1 0 3 2l-1 2q0 4 5 9q2 3 3 2l3 -1q-5 5 0 8l1 1q7 7 10 18l1 1q0 1 1 2v2q-1 1 2 3q1 1 1 2q3 4 3 9v4l-4 6q0 5 4 9l6 4q2 1 5 3q2 2 3 2q4 0 5 1l12 -5l4 1h5l42 -22
q8 -8 8 -12v-2h1l-1 -1q0 -1 1 -1h1l-1 -1v-1q-2 -8 0 -10l-6 -19q-1 -2 -5 -10.5t-4 -9.5l1 -2q0 -2 -3 -5v-2q0 -3 -3 -5q-2 -2 -2 -3q-8 -8 -9 -12q-1 0 -3 -2t-2 -3t-1 -3t-2 -4.5t-1 -4.5l-2 -6q0 -7 -5 -17q-4 -10 -10 -18q0 -1 1 -2q0 -2 -2 -4l-2 -1q-1 -1 -1 -5v-1
l-1 -1h-2l-1 -2l-2 -5q0 -1 -0.5 -1t-0.5 -1l1 -1h1l-3 -1q-6 -11 -10 -29q-4 -4 -4 -8l2 -2l-3 -2q-2 -6 -10 -16l-2 -4q0 -2 -1 -2l-3 -3q-1 -6 -7 -7h-2v-1q0 -1 -2 -1l-2 1q-4 -1 -7 -1z" />
    <glyph glyph-name="less" unicode="&#x3c;" horiz-adv-x="320" 
d="M113 67h-3l-4 1h-4v2h-1q-1 -1 -1 0h-1q-4 2 -4 5l-3 3q-1 1 -1 3l-2 2q-5 6 -7 12l-1 1q-1 0 -1 1h1q0 4 -3 7q-3 17 -9 22l-2 1h1l1 1l-4 7h-3v1q0 3 -1 4v1q-3 0 -3 3q0 4 -4 8q-1 2 -7 13q-1 5 -3 7q-1 1 -1 4l-3 4q-1 3 -1 5l-5 4q-6 6 -8 9l-2 2q-3 1 -3 3
q0 3 -2 5l-1 1l1 2q-1 0 -2 2q-1 3 -3 4l-8 15q-4 7 -4 12q-2 1 -2 3q0 12 10 27l5 7q0 1 4 9q0 2 6 10l5 10v2q1 0 1 1v3q3 6 6 9q0 1 2.5 5t4.5 6l5 10q4 6 8 9q2 1 4 3q0 1 -1 2v3q0 4 4 7q1 1 2 1q2 0 2 1v1q0 2 5 7l2 2l3 -1q-3 3 1 6q4 4 10 14l1 1v3q1 2 3 2q1 1 1 2
q3 3 3 7v6l-2 2q0 4 4 6q2 2 3 2l2 2l7 3q3 0 4 1q1 0 9 -3l3 1h4q2 -2 10 -4q14 -7 21 -12q1 0 3 -4l3 -5v-1l-1 -1h1l-1 -2h1v-2q0 -6 -4 -14l-8 -15q-2 -2 -3 -4t-2 -2l1 -2l-1 -1q-2 -2 -2 -5q0 -2 -3 -3l-2 -2q-2 -3 -8 -9l-5 -4q0 -2 -1 -5l-3 -4q0 -3 -1 -4
q-2 -2 -3 -7q-6 -11 -7 -13q-4 -4 -4 -7q0 -4 -3 -4v-1q-1 -1 -1 -4v-1h-3l-4 -7l1 -1h1l-2 -1q-6 -5 -9 -22q-3 -3 -3 -7h1l-1 -1l-1 -1q-2 -6 -7 -12q6 -10 10 -14q4 -3 1 -6l3 1q1 0 2 -2q5 -5 5 -7v-1q0 -1 2 -1l2 -1q4 -3 4 -7v-3l-1 -2q2 -2 4 -3q4 -3 8 -9l5 -10
q2 -2 4 -6t3 -5q3 -3 6 -9v-3q0 -1 1 -1v-2l5 -10q6 -8 6 -10q4 -8 4 -9l5 -7q10 -15 10 -27q0 -3 -4 -3q-1 -1 -8 -5l-7 -4q-1 0 -2 -1q-1 0 -2 -1h-3q0 -1 -5 -3l-5 -1q-3 -3 -21 -3z" />
    <glyph glyph-name="equal" unicode="=" horiz-adv-x="628" 
d="M168 367v-1l-5 1q-4 2 -18 2q-6 0 -36 -2q-4 0 -8 2h-8l-2 -2q-2 0 -3 2h-2q-20 2 -32 5q-4 0 -8 1h-8q0 1 -7 3q-7 0 -10 1q-1 1 -3 2l-2 1h-3v2h-3l-1 1v1q-5 5 -5 6l-1 1h-1q-2 2 -2 11q0 4 2 6q0 7 6 9v3l1 1h2q8 13 16 18q34 0 50 -3q18 -2 19 -2h68q2 0 3 1h2
q19 0 35 1h30l34 -2q2 0 3 1l3 3h2q4 1 15 1q3 0 4 -1q1 -2 4 -2l2 2h19l4 -2v-1q6 3 15 3q6 -1 17 -1t17 1h7q1 0 2 1h6q2 -1 4 -1q12 0 18 1q2 0 3 2h3l4 2q1 2 3 2q8 2 28 -3q16 -3 20 -7q2 0 2 -9l5 -5q0 -41 -17 -41h-3v-1h-4v-2h-3q-18 -4 -81 -8h-2q-2 -2 -5 0
q-4 0 -5 -1h-7q-2 -2 -5 0h-6q-3 1 -12 1h-11q-3 0 -6 2h-6q-10 0 -16 -2q-8 -1 -14 -1t-13 -1q-7 -2 -17 -2h-37q-1 -1 -4 -1h-4l-1 1h-8q-1 -1 -3 -1h-2l-1 1h-17zM351 213q-3 0 -5 1h-17q-9 0 -12 2q-3 0 -6 1h-22q-7 -1 -14 -1q-19 -2 -31 -2q-10 3 -33 3q-1 2 -4 2
q-1 -2 -2 -2q-3 0 -4 2h-13q-1 0 -2 1h-2q-7 1 -16 1v-1l-5 3q-4 0 -10.5 0.5t-19 1t-22.5 0.5q-4 0 -8 2h-9l-2 -2h-3l-1 2q-12 0 -31 4h-7q-7 0 -8 1l-16 2q-3 0 -4 1h-3q-1 0 0 1h-3q-1 0 -2 2v1q-5 2 -5 4h-2q-2 6 -2 15v2q1 0 2 4q1 3 3 5v2q0 1 2 1l6 10l9 11
q19 2 54 2q8 -1 16 -1h42q10 -1 22 -1h10q21 0 38 -2l28 -1q8 0 33 -6q2 0 3 2h4l1 1q6 3 16 0q3 0 4 -1q0 -2 3 -2l2 2h8q7 0 10 -2l5 -1v-3q3 3 9 3h5q3 0 8.5 -0.5t7.5 -0.5h4l8 1h4h6q2 0 3 1h9q1 0 16 3q2 0 3 2h4q1 0 3 2q1 2 3 2q2 1 15 1h24q2 -1 5 -1q1 0 2 -9
l4 -1l3 -3l1 -16q0 -15 -2 -15q-1 -2 -6 -7l-6 -6h-2q0 -1 -2 -1h-1v-1h-3q-27 -13 -81 -18l-2 -2h-13q-2 -1 -4 -1z" />
    <glyph glyph-name="greater" unicode="&#x3e;" horiz-adv-x="320" 
d="M60 67h-3q-18 0 -21 3l-5 1q-5 2 -5 3h-3q-3 2 -4 2l-7 4q-7 4 -8 5q-4 0 -4 3q0 12 10 27l5 7q0 1 4 9q0 2 6 10l5 10v2q1 0 1 1v3q3 6 6 9q0 1 2.5 5t4.5 6l5 10q4 6 8 9q2 1 4 3q0 1 -1 2v3q0 4 4 7q1 1 2 1q2 0 2 1v1q0 2 5 7l2 2l3 -1q-3 3 1 6q4 4 10 14
q-5 6 -7 12l-1 1q-1 0 -1 1h1q0 4 -3 7q-3 17 -9 22l-2 1h1l1 1l-4 7h-3v1q0 3 -1 4v1q-3 0 -3 3q0 4 -4 8q-1 2 -7 13q-1 5 -3 7q-1 1 -1 4l-3 4q-1 3 -1 5l-5 4q-6 6 -8 9l-2 2q-3 1 -3 3q0 3 -2 5l-1 1l1 2q-1 0 -2 2q-1 3 -3 4l-8 15q-4 8 -4 14v2h1l-1 2h1l-1 1v1
q1 3 3 5q2 4 3 4q7 5 21 12q8 2 10 4h4l3 -1q8 3 9 3q1 -1 4 -1l7 -3l2 -2q1 0 3 -2q4 -2 4 -6l-2 -2v-6q0 -4 3 -7q0 -1 1 -2l3 -2v-3l1 -1q6 -10 10 -14q4 -3 1 -6l3 1q1 0 2 -2q5 -5 5 -7v-1q0 -1 2 -1l2 -1q4 -3 4 -7v-3l-1 -2q2 -2 4 -3q4 -3 8 -9l5 -10q2 -2 4 -6
t3 -5q3 -3 6 -9v-3q0 -1 1 -1v-2l5 -10q6 -8 6 -10q4 -8 4 -9l5 -7q10 -15 10 -27q0 -2 -2 -3q0 -5 -4 -12l-8 -15q-2 -1 -3 -4q-1 -2 -2 -2l1 -2l-1 -1q-2 -2 -2 -5q0 -2 -3 -3l-2 -2q-2 -3 -8 -9l-5 -4q0 -2 -1 -5l-3 -4q0 -3 -1 -4q-2 -2 -3 -7q-6 -11 -7 -13
q-4 -4 -4 -7q0 -4 -3 -4v-1q-1 -1 -1 -4v-1h-3l-4 -7l1 -1h1l-2 -1q-6 -5 -9 -22q-3 -3 -3 -7h1l-1 -1l-1 -1q-2 -6 -7 -12l-2 -2q0 -2 -1 -3l-3 -3q0 -3 -4 -5h-1h-1h-1v-2h-4z" />
    <glyph glyph-name="question" unicode="?" horiz-adv-x="505" 
d="M145 188q-7 0 -16 12l-4 4l-2 3v3l-1 3l-1 1l-1 -1q0 2 -1 4v3h-2v7q-2 12 -1 20q0 55 37 142v4q2 6 4 10q5 8 8 17q4 8 9 17l27 50l5 10q5 9 6 11q19 47 20 104q1 10 1 26q0 15 -2 22v2q-3 3 -3 5q0 3 1 5v8l-1 3q0 1 1 2t1 2q1 3 1 8q0 6 -1 8l-1 -1l-1 7
q-14 18 -46 18q-26 0 -43 -17l-5 -5q-3 -1 -3 -2q-18 -21 -24 -37q-1 -2 -1 -10t-1 -9v-7q0 -13 -3 -16l1 -2v-2h-1q-1 -1 -2 -1l1 -2v-2q0 -1 -2 -3l-1 -1q-1 -2 -1 -5t-3 -6q-1 -1 -1 -2v-2q-2 -3 -11.5 -9.5t-11.5 -5.5q-1 1 -8 1t-12 5l-1 -1q-1 -1 -3 -1q-1 0 -4 3
t-3 4l-12 8q-27 18 -27 31q0 100 155 142q31 6 67 6q22 0 33 -1q3 0 13 -3q8 0 14 -2q34 -23 55 -72t18 -85q-5 -27 -10 -40l-8 -18q-9 -15 -9 -30v-4q-1 -13 -12 -31q-2 -5 -5 -7q-3 -1 -6 -8v-4q-1 -2 -3 -6.5t-4 -8.5q-1 -2 -2.5 -5.5t-2.5 -5.5t-2.5 -4.5t-2.5 -4.5
q-1 -3 -5 -7l-2 -2l-2 4l-1 -2v-2q0 -10 -10 -27q-18 -30 -27 -60q0 -1 -1 -2q0 -1 -1 -3q-3 -5 -3 -10t-3 -11q-3 -5 -3 -7q-5 -16 -4 -26q0 -11 3 -15q1 -3 3 -5q1 -2 1 -7q0 -18 -13 -42q-2 -1 -15 -6l-3 -5q0 -5 -3 -5q-15 -6 -35 -10q-12 -2 -19 -1zM207 -8h-4
q-4 1 -7 1h-2q-25 3 -27 5l-6 1q-7 1 -8 2h-5l-4 2q-30 0 -31 13l2 4l3 4l-1 2v2q0 4 1 7t1 6v1l-2 2l3 20q2 5 5 7t-1 7v1q0 5 3 5q1 1 1 2q2 4 3 5q2 2 3 1l3 -1q-4 4 0 5q6 4 7 10h1q1 1 1 2v1l2 2h2q2 1 4 5q0 1 1 2v1q0 2 -1 3l-1 1q2 3 13 3q12 0 13 -1l4 -2q1 0 6 -6
l2 -2h1l18 -26q2 -3 7 -8l1 -1v-1l1 -1h1q11 -8 13 -13l2 -1v-1l2 -2l-1 -1h-1q-1 -1 -1 -2q-1 -1 -2 -1l-1 -1l-1 -1q-1 -1 1 -4q1 -1 1 -3l1 -3q1 -2 1 -4q0 -3 -1 -4q-1 -2 -1 -4l2 -2l-1 -1h-2q0 -1 1 -2l1 -1h-3q0 -3 -1 -4h1l1 -1h-2q-2 -4 -1 -13q0 -1 -1 -2t0 -2h2
q0 -1 -2 -1h-1q-2 -3 -6 -6l-1 -1q-2 -2 -4 -2q-2 -2 -6 -3h-1l-1 1v-1z" />
    <glyph glyph-name="at" unicode="@" horiz-adv-x="930" 
d="M453 -60q-92 0 -189.5 29t-173.5 82l-8 6q-48 47 -65 90.5t-17 111.5q0 74 28 145q47 117 103 178.5t146 95.5q78 29 187 30q22 0 66 -8t63 -16l7 -3q1 -1 2 -1t1.5 -0.5t1.5 -0.5q1 -1 5 -3q42 -19 83 -50l1 1q3 -1 9 -7q3 -4 9 -10l3 -5q65 -105 65 -239
q0 -74 -20 -117.5t-76 -92.5l-8 -8q-20 -14 -27 -15q-49 -15 -75 -15q-39 0 -63 19q-55 -44 -141 -44q-14 0 -34 4q-50 14 -93 52l-8 10l-4 4l-5 5q-37 61 -37 133q0 47 30 77q4 5 18 19l12 12q3 3 3 4q2 1 15.5 11t20.5 14l12 6q1 0 2.5 1t3.5 2l4 2l4 3q28 12 43 18h4l2 2
h4h1l1 -1q12 6 32 8q31 1 66 -4q2 0 13 -4l10 -3q13 -6 38 -27q2 4 6 17q0 5 5 7q1 1 2 5q4 8 20 8q10 0 10 -3q0 -5 2 -7l2 -4q5 -8 5 -20q0 -3 2 -1q1 1 2 0v-19q0 -4 6 -37q4 -24 4 -43v-34q0 -31 1 -52q0 -6 0.5 -17t0.5 -15q0 -23 -3 -32q-1 -4 -1 -10q0 -5 1.5 -7
t4.5 -1q14 2 40 38q41 55 41 140q0 50 -15 116t-41 88q-40 39 -108.5 65.5t-126.5 26.5q-93 0 -182 -96q-8 -10 -21 -40l-18 -42q-9 -20 -15 -34q-5 -14 -9 -20q-5 -6 -9 -21l-1 -9q-9 -47 -13 -86l-2 -21q-3 5 -5 5t0 -5q10 -20 10 -59q8 -38 26 -78t41 -60q3 -3 9 -7l8 -8
q27 -22 33 -25q69 -37 129 -41q5 -1 15 -1q15 -1 23 -3q49 -9 85 -9q29 0 52 7q9 3 45 19q18 8 31.5 13.5t17.5 7.5q9 5 9 -1q1 -1 1 -2l17 7q1 1 3 1l4 1q5 0 7 1l2 1q0 -1 -4 -12t-6 -15q-6 -16 -46 -36l-15 -8q-1 -1 -8.5 -4t-8.5 -3q-1 -3 -8 -4q-8 -3 -9 -4v-1
q-12 -9 -54.5 -13.5t-68.5 -4.5zM384 122h13q37 8 61 19l30 20q-7 9 -11 21q-5 11 -4 28v15q0 10 4 30l5 25q7 41 18 80q-29 59 -53 81l-2 1q-16 6 -26 7q-13 2 -16 1q-20 -3 -43 -12q-13 -4 -23 -11q-41 -27 -56 -46t-20 -52q-4 -21 -2 -55q3 -9 3 -11q1 -1 1 -6v-5l6 -17
v-6q5 -13 12 -27h1l3 -8q42 -67 99 -72z" />
    <glyph glyph-name="A" unicode="A" horiz-adv-x="736" 
d="M573 -4q-2 -1 -10 2l-9 2q-1 0 -1 2h-2h-1l-1 2q-1 1 -1 2l-2 -2l-2 4q-22 19 -64 97l-5 10l-3 2l-3 8q-4 6 -5 9l-4 6q-2 3 -4 7l-3 10q-1 6 -3 9l-17 43q-3 14 -8 23q-7 15 -15 31q-12 23 -13 26q-8 16 -15.5 30.5t-10.5 20.5l-3 7q-1 1 -1 2q-1 2 -1 3h-30l-1 -1h-11
q-2 0 -3 1h-3q-7 0 -13 2q-2 0 -3 1h-39q-14 0 -20 2h-2q-1 -1 -2 -1t-2 1h-2q-2 2 -5 0h-1v1h-2q-3 1 -9 1v-1l-3 1q-6 2 -31 3q-3 0 -5 1h-5l-1 -1q-1 0 -1 1h-2l-17 3q-1 1 -4 1t-4 1l-24 -49q-1 -1 -1 -4q-1 -2 -1 -6q-1 -2 -1 -4q-9 -23 -13 -27l-2 -2q-1 -1 -3 -5v-3
l-5 -12q-7 -13 -8 -15l-4 -7l-2 1q1 -7 -9 -23q-9 -16 -23 -50l-2 -4q-1 -4 -3 -6l-2 -7l-7 -12q-6 -9 -11 -25l-1 -2l-2 -4v-3q-3 -7 -3 -13q-2 -6 -17 -31t-19 -29q-4 -3 -6 -6q-2 -2 -7 1q-1 0 -5 -4t-4 -3q-1 0 -5 3t-8.5 8t-5.5 9q-1 1 0 10l3 12q1 1 1 3h-1q0 1 1 3
t1 3l2 4q9 28 52 122v3l4 8q4 8 6 14t6 13q1 1 2 4l2 3q3 5 9 19q4 8 8 15q3 7 5 9l4 8q2 3 5.5 13t5.5 14q1 3 3 7.5t2 5.5l6 13q11 32 29 66q9 21 10 23q1 1 3 5q0 6 4 11q3 5 6 11q3 3 3 8l2 2l13 27l-1 1l5 7q14 27 38 84q11 19 14 30v3l3 6q2 2 2 3q1 1 9.5 20t15.5 34
l6 12q2 6 5 12l5 11q3 8 4 9q-1 9 2 12l-1 1v3h2q1 0 1 2q-1 1 -1 2q1 0 2 1q2 0 2 1l2 3q2 2 4 3q2 0 2 2q20 5 28 5h8q8 0 9 -1q0 -1 2 -1l2 1q5 0 5 -2q19 0 27 -2q3 -1 6 -4q8 -11 19 -59l7 -28l11 -28q11 -32 20 -56q5 -16 9 -22l2 -4q0 -4 1 -5q1 -5 6 -9
q5 -12 16.5 -39t22.5 -55.5t13 -32.5q8 -16 18 -48q1 -5 3 -12l2 -7q0 -3 9 -10q3 -3 3 -4q6 -7 14 -28q2 -6 1 -8q-1 -4 2 -9l3 -3l15 -34l1 -9q-2 0 -4 -2q11 -2 15 -20q1 -3 1 -5q12 -33 25 -56l2 -4q1 -5 5 -8q4 -2 5 -11q0 -1 1 -4l1 -3q4 -11 12 -22q5 -5 6 -8l6 -2
q2 -1 4 -3q8 -10 11 -33l2 -16q0 -1 -1 -3t-1 -3t-11 -9q-1 0 -2 -4q-2 -5 -3 -5l-13 -8q-18 -11 -32 -16zM353 384l-11 30l-8 12q-1 2 -1 8q-1 9 -5 15l-4 7q-3 4 -2 7q0 2 -1 3l-12 32h-2q-2 2 -2 8l1 2q-5 17 -36 95q-4 11 -4 13q-4 10 -4 11q-18 -37 -18 -39
q0 -1 -7 -16q-4 -11 -8 -17q-16 -38 -33 -71q0 -3 -1 -4q-3 -6 -3 -8l-2 -4q-8 -20 -30 -69h6l6 -2h6q1 -1 6 -1h5h8l10 -2h8h6q12 0 22 -1q9 -1 17 -1l19 -3q1 -1 4 1h1q3 2 9 0h1l2 -2h1l1 1h5q2 -1 6 -1l3 -1v-1q2 2 8 1q14 -2 19 -2h5l1 1h4q1 -1 2 -1t2 -1z" />
    <glyph glyph-name="B" unicode="B" horiz-adv-x="591" 
d="M86 2q-3 1 -8.5 1.5t-8.5 0.5q-21 0 -39 7q-4 2 -8 10l-7 9l1 2q0 3 -1 3h-2v6l-1 -1q-1 0 -1 1v5q-7 23 -7 50q-1 11 -1 25v55l-2 3q0 4 1 7v9q0 3 -1 6t-1 7q0 2 2 8q1 3 1 8l3 19q1 7 1 17q0 1 0.5 2.5l1 3t0.5 3.5t0.5 5t1.5 5q0 38 -3 47q0 10 -1 22q-1 11 -1 26
q0 25 3 52q0 4 -1 6q-1 1 -1 5q0 3 1 6q2 8 2 11q-1 2 -1 6q-1 1 -1 3t1 3t1 2q1 10 1 26h-2q-1 1 -0.5 3t1.5 3l1 2q2 14 2 31q0 10 -2 52q-1 5 0 15v11l-3 2q0 1 2 5q1 1 1 3q0 21 4 49q0 16 2 26q0 7 1 12q0 17 4 21v6l1 -1q1 0 1 1v5q1 0 2 1l2 1q2 4 3 5q0 2 4 3
q1 1 1 2l1 1q6 3 15 4q9 7 13 7l6 3q1 1 3 1l3 1v1q1 0 3 1t3 1q38 11 76 11q26 0 70 -7h3q1 -1 17 -6q34 -14 65 -39l15 -15q34 -34 50 -63.5t16 -70.5q0 -15 -1 -23l-1 -13l-3 -7l-2 -6q-6 -14 -6 -19q-1 -3 -4 -6q-8 -14 -18 -30h1v-1l-7 -8q-49 -49 -97 -69l-11 -5
q-1 0 -2 -1q34 -4 70 -16l3 -1q2 0 16 -7.5t15 -8.5l15 -11q18 -16 30 -30l11 -17q37 -56 37 -99q-2 -28 -14 -58l-5 -12q-2 -4 -4 -6l-3 -4q-10 -13 -10 -15q-1 -4 -5 -4q-18 -19 -23 -22v-1h1l-8 -6q-52 -33 -104 -52q-3 0 -5 -1t-4 -1l-2 -1q-1 -1 -2 -1h-3
q-76 -18 -129 -18q-3 0 -8 0.5t-6 0.5l-3 1h-8q-3 1 -5 1h-2q-1 -3 -3 -3zM131 392q3 1 5 1v1h4l3 1v1q3 0 8 1h4q13 3 20 6q43 12 62 21q16 6 26 15q27 20 44 51q3 7 4 7q4 7 8 35t4 40q0 8 -2 22q-3 15 -8 42q0 1 -2 3l-5 5q0 1 -1.5 3.5t-4 6.5t-4.5 8t-2 5t-1 3t-1 3
l-3 1q-12 16 -16 21l-4 6l2 1q-22 22 -60 40q-7 4 -10 4q-2 2 -7 2q-2 2 -5 3q-1 0 -4 1l-3 1q-13 3 -26 3q-7 1 -10 0l-23 -1v-33q9 -39 6 -84q-2 -28 -2 -29q0 -8 1 -15t1 -14v-39v-33v-8q0 -3 1 -4q1 -2 1 -4q1 -4 1 -31q0 -39 -1 -69zM118 27q3 1 9 1q70 4 123 21
q7 2 14 6q46 19 72 46q4 3 6 6l4 6q23 47 22 80v27q0 7 -1 10q0 2 -1 3l-4 3l-8 20q0 3 1 4q0 3 -1 5l-2 1l-14 27l2 2q-5 1 -10 10q-2 3 -4 5q-6 7 -24 23t-24 16l-4 2l-3 2q-3 2 -4 2l-7 3q-14 6 -27 9q-2 0 -5 0.5t-4.5 1t-2.5 0.5h-12l-50 2q-6 -2 -9 -2l-21 -5
q0 -6 -5 -31q0 -2 3 -8l3 -6q1 -4 1 -16v-8q0 -4 -2 -6q-3 -1 -3 -7l2 -2q0 -11 -2 -29l-2 -8h-5q6 -5 6 -16l-2 -4v-4q-5 -26 -3 -52v-10q0 -3 1 -4t1 -4q0 -4 -1 -7l-2 -6v-3l-1 -5q0 -6 2 -18q0 -5 2 -11q2 -4 4 -6q0 -2 1 -3l1 -2q1 -2 1 -7t-0.5 -11t-0.5 -7
q-4 -18 -6 -18q0 -6 -4 -18z" />
    <glyph glyph-name="C" unicode="C" horiz-adv-x="791" 
d="M407 23h-9q-92 -6 -208 43l-5 1q-14 6 -22 14q-4 0 -19 11q-1 1 -7.5 7t-12.5 12q-24 24 -41 46q-7 8 -12 19l-5 7q-66 105 -66 176q0 26 5 69q1 2 1 9q0 9 6 21q3 6 3 7q8 22 8 28q1 3 6 8q12 24 24 44h-2q1 3 8 10l2 2q71 81 123 120q3 2 35 21q10 5 11 6l4 3l2 1l4 2
h2q2 2 5 2q73 28 123 28q45 0 57 -5h6q21 -1 62 -15q2 0 7.5 -2t6.5 -2q4 -1 12 -4.5t15 -6.5l6 -3q0 -2 3 -2q1 -1 2 -1t2 -1q22 -12 40 -33q2 -2 11 -23q5 -5 7 -5q4 -6 5 -11q2 -2 0 -3q-2 -2 0 -4l2 -1l4 -14v-5h-3q5 -2 5 -12q0 -16 4 -28v-3q0 -2 1 -3l1 -1v-3v-4
q-1 -2 -1 -4q0 -6 2 -16q1 -1 1 -3q0 -4 3 -7l2 -2q2 -8 -3 -29q-3 -14 -4 -15q-2 -4 -2 -5q-2 -2 -9 -2q-1 0 -4 -4l-2 -3l-12 1q-10 1 -20 5q-3 3 -6 7l-3 5v4h-1q-1 0 0 1v2h-2v3q-5 16 -8 49q-1 16 -3 21l-1 1q-1 1 -1 4v3v2l-2 2v2v16q-1 3 -1 6v4q0 2 -1 3q0 2 -7 15
l-3 7q-3 4 -7 14l-3 8q-2 0 -2 2l-2 3l-3 4v2q-1 1 -2.5 3.5t-2.5 3.5h-1l-1 2q-5 7 -25 20l-10 5h-1l-2 2q-2 1 -5 3t-6 3l-13 5l-4 2v-2h-9q-5 0 -18 -3q-14 -2 -17 -2h-4q-8 1 -24 1q-60 0 -120 -42q-31 -20 -63.5 -58.5t-46.5 -71.5l-5 -11l-3 -11q-14 -67 -14 -111
q0 -15 1 -22q1 -10 3 -32q1 -20 3 -31q0 -2 8 -10l2 -3q2 -3 11 -27q2 -6 1 -8q-1 -3 1 -9l4 -2q1 -4 16 -32q4 -10 3 -10t-3 -2q8 -1 16 -15l4 -8q17 -25 47 -50q2 0 11 -9q1 -1 2 -1t1.5 -0.5t1.5 -0.5t2.5 -1t3.5 -3t5 -4l4 -4l3 -2q17 -11 32 -15q3 -1 6.5 -2t5.5 -2
l2 -1q3 -1 9 -1h6q4 -1 14.5 -3.5t17.5 -3.5q25 -6 51 -6h13q7 -1 13 0q4 0 4 -4v-2h10q16 5 18 5l3 2l6 2q2 0 3 1q3 1 8 4h2q7 4 14 7v1l4 1q13 7 38 28l10 10v2l2 2q1 0 2 1q2 3 9 10q1 2 4 5t4 5q6 7 8 11q2 2 3 5l4 6q1 3 3 3l1 1v2l1 -1q2 3 3 3h1l4 2q1 0 1 1h1
q13 0 13 -4q0 -2 3 -3q2 -4 2 -5h1l1 -1v-4q0 -1 1.5 -4t2.5 -6t1 -4q0 -3 -1 -6q-11 -20 -50 -51q-4 -3 -7.5 -5.5t-5.5 -4.5l-2 -1q-9 -7 -39 -23q-2 -2 -5 -2q-3 -3 -4 -3q-51 -22 -93 -26l-11 -3h-2q-8 -2 -14 -2v-1z" />
    <glyph glyph-name="D" unicode="D" horiz-adv-x="680" 
d="M96 23l-6 -7q-3 1 -8.5 1.5t-8.5 0.5q-21 0 -39 7q-3 1 -8 10l-7 9v5h-2v5h-2q-2 0 0 2v3q-10 32 -10 102q-1 12 -1 24l-2 3v16q0 3 -1 6t-1 7q0 3 3 15q0 12 3 36q0 4 1 9q1 4 1 9q0 15 -1 27l-2 19q-4 16 -4 47q0 15 1 27v24v4l-2 2v4q0 4 1 6l1 4v8q0 4 -1 5t-1 3
q0 1 2 3q1 1 1 2v26h-2q-1 1 -0.5 3t1.5 3l1 1q1 6 1 29q0 32 -1 54q-1 4 0 14q1 9 0 12l-2 2q0 3 1 5q1 1 1 3q1 18 6 49q0 15 2 25q1 2 1.5 6t0.5 6q1 17 6 21v6h1l1 -1v6q4 2 5 2q1 1 1 2t0.5 1.5t0.5 1.5q2 2 4 3q2 0 3 1v1q9 3 23 3q5 0 6 -1q0 -1 6 -3q2 0 3 -1h9
q4 -1 9 -1h6q3 -1 5 -1v1h6q3 -1 6 -1q39 0 118 -28t125 -53l5 -2q1 -1 11 -8t19.5 -14t10.5 -8q41 -32 74 -92q53 -89 53 -160q0 -26 -8 -66q0 -5 -3.5 -19t-6.5 -14q-1 -5 -5 -15q-3 -8 -3 -9l-2 -4l-3 -4q-11 -22 -22 -38h1l-9 -11q-59 -68 -110 -104q-2 -2 -46 -28
l-20 -10q-82 -38 -130 -38q-25 0 -48 5v-1q-2 -2 -16 -2q-1 0 -3 -3zM165 52q29 0 56.5 10.5t80.5 41.5q28 16 43 32q60 54 81 96q0 2 2 5l3 6q26 71 26 128q0 34 -6 72q0 2 -1 4l-6 9l-1 2q-1 1 -12 28q-2 8 -2 9q0 2 -2 8l-3 3q-3 9 -19 35l-5 9v1l2 1q-5 4 -16 18l-6 8
q-21 26 -58 56l-14 10q-3 3 -5 4q-6 3 -14 9q-6 5 -10 6q-43 24 -69 31q-5 1 -8 1q-80 23 -82 23q-1 1 -2 1l1 -1q3 -15 3 -49q0 -22 -1 -31q-2 -26 -2 -28q0 -19 2 -29v-37v-32q1 -1 1 -4q-1 -2 -1 -4q0 -3 1 -4q1 -2 1 -4q3 -24 3 -103q0 -17 -3 -37l-2 -14q-1 -1 2 -8
l4 -5q2 -8 2 -16v-7q-1 -4 -3 -6q-2 -4 -2 -7l2 -3v-28l-3 -7h-4q6 -6 6 -16l-2 -4v-4q-2 -9 -2 -28q0 -15 1 -23v-5q-1 -4 1 -9q1 -1 1 -4q0 -4 -3 -13q-1 -11 2 -26l2 -10q5 -30 5 -31v-2q0 -1 -0.5 -4.5t-0.5 -9.5l-3 -7q0 -3 -1 -4q23 -3 40 -3z" />
    <glyph glyph-name="E" unicode="E" horiz-adv-x="559" 
d="M331 4h-16q-2 0 -4 1h-5q-7 0 -11 1h-11q-2 0 -5 1h-21q-7 -1 -14 -1h-30q-10 0 -18 1t-15 1h-3q-2 -2 -3 0q-3 0 -4 1h-10q-1 -1 -3 -1h-1q-1 1 -2 1q-7 1 -15 1l-5 1l-47 3q-4 0 -7 1t-6 1l-2 -1q-1 0 -2 1h-1q-7 1 -23 5q-7 0 -10 3l-12 4h-1l-1 1v1h-2v2l-2 2
q-12 3 -14.5 5.5t-3.5 11.5q-1 4 -1 7q-1 2 1 8q1 1 1 3q1 1 1 2q0 4 -2 4q0 2 1 3q0 2 -1 2h11q-1 6 -1 62l-2 3q0 4 1 7v6q-2 6 -2 13l2 7q1 3 1 6q1 3 1.5 9.5t0.5 9.5t0.5 8.5t1.5 7.5l2 8q1 4 1 10q0 15 -1 27t-1 21q-3 12 -3 49q0 17 1 30q1 11 1 32l-2 3v4q0 1 2 7
q1 2 1 4q0 3 -0.5 8t-0.5 7q-1 1 -1 3t1 3t1 2q1 11 1 29h-2q-1 4 1 7l1 2q2 30 -2 92q0 8 1 16q0 11 -1 12l-2 3q0 3 1 5q1 1 1 3q0 20 3 52q0 16 2 26q0 7 1 12q0 19 3 22q1 0 1 2q-1 1 -1 3h3v1q-2 5 -1 6l1 2q0 2 1 2v2h1v1q7 9 10 10t18 2q14 2 29 2q5 0 8 1t7 1
q19 0 40 3h5q2 0 3 1h2q17 2 64 3h5q15 0 28 -1q2 0 3 1h3l2 1q3 1 14 1h3l2 -2h3l1 1h8q6 0 9 -1l5 -1l-1 -1q6 2 14 1l28 -3h12q1 -1 3 -1q8 -2 12 -1h3q1 -1 2 0h3l2 1q18 0 27 -9l3 -3l-3 -6l1 -2q1 -1 0 -3q-2 -6 -15 -19l-6 -3h-1q-1 0 -1 1h-1v-1l-1 1q-1 0 -8 1.5
t-13 3.5t-26 5h-2q-2 0 -3 1h-11h-3l-2 2h-3l-20 2q-2 0 -4 1h-47q-7 -1 -15 -1h-15q-13 0 -17 -1h-17q-2 0 -3 -1h-4l-1 1q-6 -1 -16 -1v-1l-4 1q-7 0 -31 -2q7 -4 9 -10q10 -35 7 -86q-2 -30 -2 -31q0 -11 3 -32v-40q0 -33 1 -40v-9q0 -3 1 -5t1 -4q1 -7 1 -23q1 1 4 1
q7 0 13 1h18q3 1 13 1q15 0 25 -1l19 -3l3 1q1 1 2 1h8q1 -1 3 -1q0 -1 2 -1h5q4 0 6 -1l3 -1l-1 -1q1 1 5 1h5l12 -2h5h2q1 -1 2 -1l1 1h4q1 -1 2 -1q5 -2 9 0h4q1 0 2 1l1 1q5 0 15 -3l8 -2q4 -1 4 -6l3 -2l-3 -16q-2 -2 -4 -3l-3 -1h-2v-1h-3q-8 -2 -21 -2
q-3 0 -11.5 0.5t-13.5 0.5l-1 -1q-2 0 -3 1h-5q-1 -1 -3 -1q-1 0 -2 1h-3q-8 2 -13 2q-2 2 -7 2h-33h-6l-6 2h-6h-2q-1 -1 -2 0h-4q-2 2 -4 0h-1q-1 0 -1 1h-13q-2 1 -11 1q-10 0 -17 -1h-3v-62q0 -21 -4 -40q-2 -12 -3 -16q0 -2 3 -8l3 -6q2 -8 2 -13q0 -15 -3 -18
q-3 -1 -3 -6l2 -3v-13q0 -11 -1 -15l-3 -8l-4 1q6 -6 6 -12q-3 -3 -3 -11q-4 -19 -2 -46v-4q-1 -2 -1 -4q2 -6 2 -7q0 -3 -1 -5q-2 -8 -2 -13q0 -4 2 -12l2 -8q6 -6 6 -7q1 -1 1 -5q0 -9 -7 -23q1 -1 3 -1h9q31 0 64 -3h6l12 -1h6q4 -1 8 -1q2 -2 3 0h4l2 1q2 1 6 1
q5 0 8 -1h5q1 -1 3 -1h19l5 -1v-1q5 2 14 1q20 -2 29 -1h16q7 -1 13 0h3q1 0 2 1q2 0 3 1h6q9 0 15 -1l8 -2q4 -1 4 -6l3 -2l-3 -16q-4 -4 -7 -4h-1v-1h-4q-12 -3 -61 -3z" />
    <glyph glyph-name="F" unicode="F" horiz-adv-x="499" 
d="M97 15l-9 -5q-4 1 -16 1q-20 0 -40 4q-1 0 -8 5l-7 5v3h-2v4h-1q-1 -1 -1 0v3q-7 13 -8 35q-1 7 -1 18v23q-1 11 -1 21l-2 3q0 4 1 7v7q0 3 -1 6q-1 2 -1 6q0 5 3 14q0 4 1 12t1.5 14t0.5 10q3 12 3 19q0 15 -1 28q-1 12 -1 21q-3 12 -3 52q0 18 1 31t1 28q0 4 -1 7
q-1 2 -1 5q0 1 2 7q1 3 1 5q0 7 -2 15v3q0 3 1 4t1 2q1 12 1 31h-2l2 7l1 2q1 7 1 35q0 36 -1 61q0 9 1 16q1 4 1 9q0 4 -1 5l-2 3q0 1 2 5q1 2 1 4q2 36 5 54l2 14q0 11 1 14q0 1 0.5 3t1 5t0.5 5l3 15q2 7 3 8v3l-1 1l-1 1l-2 7q0 3 2 5v1l2 2q2 2 3 4l4 4q1 1 2 1
q15 5 37 5h12q6 0 12 2q9 0 17 1h18q1 0 2 1h48l23 -2q3 0 5 1l1 1h11h2l2 -2h2l1 1h6q4 0 7 -1h3v-2q3 2 10 1q8 -1 23 -1h11q1 -1 3 -1h11q2 0 3 1h5l1 1q4 1 19 -2l10 -2q1 -1 3 -1q1 0 1 -4l2 -2l2 -1l-4 -16q-2 -2 -4 -3l-4 -1h-2v-1h-1l-1 1v-1h-3q-16 -2 -56 -2h-13
q-3 0 -4 1h-3q-6 0 -9 1h-7q-3 0 -4 1h-73q-3 0 -4 1h-1q-4 0 -6 -1h-1l-1 1h-12v-1l-4 1q-3 1 -11 1q-9 0 -14 -1q19 -12 20 -18q3 -14 3 -47q0 -15 -2 -41q-2 -30 -2 -33q0 -10 1 -17v-59v-38v-3l25 -2h42l19 -2l4 2q3 2 9 0h2q1 -1 2 -1l1 1h10l3 -1v-1q2 2 9 1h2l5 -1h2
h2l5 1h2h5l1 1h4q1 -1 2 -1q6 0 9 1h4q1 0 2 1l1 1q3 1 16 -1l9 -2q1 -1 3 -1v-5l4 -2l-3 -16q-2 -2 -4 -3l-3 -1h-2v-1h-3q-7 -2 -46 -4l-1 -1h-16q-2 1 -7 1h-6q-2 0 -3 1h-4q-15 0 -17 -2h-7q-8 0 -10 -1q-6 0 -10 1h-11q-1 -1 -2 -1h-2l-1 1h-8q-4 1 -9 1h-1v-1l-2 1
q-5 1 -24 1v-101q0 -22 -4 -42q-2 -12 -3 -16q0 -2 3 -8l3 -6q2 -10 2 -17v-8q-2 -6 -3 -7q-2 -2 -2 -7l2 -2v-13q-1 -7 -1 -17l-3 -7h-4q6 -6 6 -12q0 -3 -1 -6l-1 -5q-3 -15 -3 -31q0 -11 1 -17v-4q-1 -3 0 -5t1 -4q0 -4 -1 -7q-2 -8 -2 -14q0 -4 2 -12q2 -6 2 -8l4 -4
q1 -2 3 -4q3 -9 -6 -29q-4 -10 -11 -18q-1 -1 -16 -1z" />
    <glyph glyph-name="G" unicode="G" horiz-adv-x="868" 
d="M363 19q-38 0 -90 13.5t-86 31.5q-86 44 -136.5 100t-50.5 137q0 39 11 99q0 2 1 2v5q1 1 1 2q0 3 2 17l9 23l9 37l3 7q2 4 3 5q7 20 25 62h-1q0 4 8 15l3 3q34 45 80 84t83 54q9 4 64 18l6 3q2 0 5 0.5t7.5 1t7.5 0.5q34 3 65 3q96 0 177 -41q25 -13 31 -19q0 -1 5 -4
l6 -4q1 0 4 -1l3 -1h2l1 -1q1 -1 2 -1h1q13 -10 29 -33l9 -23q4 -4 7 -4q3 -3 6 -10q1 -2 0 -3q-2 -2 0 -4h2q1 -1 3 -6l3 -8q0 -1 1 -2q0 -2 -1 -2l-2 -1q5 -2 6 -10q3 -10 8 -23q0 -4 2 -4q0 -1 1 -2q0 -1 1 -2v-6q0 -5 3 -11v-2l6 -6q3 -10 -4 -19.5t-14 -12.5h-2
q-3 -1 -4 -1q-2 -2 -7 3h-7q-9 10 -15 15q-7 3 -10 4h-4q-8 3 -8 12l-6 15q0 3 -2 5q0 2 -1 3q-2 4 -2 5v3l-4 15v4q-1 2 -1 4l-1 2q-2 2 -4.5 6.5t-5.5 9.5q-1 5 -10 17q-6 8 -8 17q-3 0 -3 2v4l-3 2v2q-7 3 -20 7q-16 4 -26 10q-78 53 -162 53q-60 0 -101 -18.5t-73 -65.5
q-9 -12 -23.5 -39t-14.5 -36q-4 -7 -4 -17q-33 -138 -33 -201q0 -54 19 -101q1 -4 8 -9q2 -3 5 -5l24 -27q11 -14 13 -15q2 -3 4.5 -6.5t3.5 -4.5q0 -2 10 -11l5 -2q26 -20 52 -34l15 -8q-5 0 -5 -1t4 -1q9 -2 26 -7q13 -5 25 -8q42 -8 77 -8q14 0 38 2q9 1 22 5q8 0 16 5
q19 5 25 8q53 23 70 60q9 18 17.5 35.5t12.5 25t4 8.5q5 13 6 23q0 1 1 4l1 3q0 1 -1 3l-1 2q-3 0 -3 4q-1 0 -2 3l-3 3q-6 8 -15 15l-9 7q-38 23 -106 41q-3 0 -9 2q-3 0 -4 1l-10 3q-4 0 -5 1h-2h-1l-2 2q-16 4 -23 5v-1l-6 2q-29 7 -65 11q-6 0 -14 2h-6q-1 0 -2 1h-2
q-5 0 -30 4h-6q-6 0 -7 1h-10q-2 0 -3 1h-3l-3 2h-1v1q-4 4 -2 6v2l2 2v1q1 1 1 2q8 8 9 8q12 2 25 2q6 0 39 -3q11 0 21 -2l57 -7q2 -2 7 -2h6q77 -14 131 -35h2l5 -1h2q1 -1 3 -1q8 -1 18 -6l4 -2q2 -2 4 -3h2l6 -2q4 -2 5 -3l4 -2q1 -1 5 -3l5 -3l-1 -1q6 0 16 -7
q2 -2 10 -8l1 3l20 -7q22 -7 31.5 -16t9.5 -28q0 -9 -1 -13l-2 -15l-2 -6q-3 -6 -3 -7v-1h1l-2 -6q-3 -6 -3 -7h1q0 -4 -6 -13q-36 -53 -107.5 -96t-151.5 -62l-7 -1q-37 -6 -72 -3z" />
    <glyph glyph-name="H" unicode="H" horiz-adv-x="707" 
d="M471 4q-3 0 -11 6q-2 1 -5 3q-1 1 -2 1l-1 1q-1 0 -1 2v3h-1q-1 -1 -2 -1v5h-2l-1 -1v3l-1 2q-17 31 -25 121l-3 3q0 5 1 8q0 4 -2 14q-1 3 -1 7q0 7 3 16q0 10 3 37l2 10q1 4 1 9q1 4 1 12q0 10 -1 16q-1 11 -1 22q0 8 -1 21q-1 28 2 65q-21 -2 -59 -1h-17q-3 0 -5 1h-4
q-10 2 -19 2q-3 0 -5 1h-19q-11 0 -12 1h-25q-8 0 -14 1q-7 1 -14 1h-6q-2 0 -3 1h-13q-5 1 -14 1l-4 1l-45 2q-4 0 -7 1q-6 0 -7 -1h-2q-1 0 -2 1h-2q-4 0 -26 2q-3 0 -6 1h-5v-13q1 -2 -1 -58l3 -12l1 -3q2 -15 1 -27q0 -6 -1 -7q-2 -4 -1 -8l1 -3v-32l-2 -9q-1 1 -2 0
q3 -4 3 -13q0 -8 -1 -31t0 -36v-5q-1 -3 -1 -6q0 -2 1 -3t1 -4t-1 -6t-1 -7v-7q0 -11 1 -16q0 -3 1 -4v-5q0 -1 2 -5l2 -4v-2l1 -4q0 -10 -3 -19v-2v-1q0 -1 -1 -3l-1 -1q-2 -2 -1 -3t0 -1h1l-1 -1q1 0 1 1v3q0 1 1 2q10 -5 4 -7h-6q-1 -8 -3 -9q-2 -4 -3 -5q0 -1 -9 -1h-1
v-1l-4 -4q-4 0 -6 1q-14 -2 -15 -1q0 2 -8 2h-1q-3 0 -7 3l-1 1h-1q-15 3 -15 9q-1 1 -1 4v3q0 3 1 6q1 2 1 4v3v7h1v3q0 1 1 1h4q0 2 -2 90l-1 2q-2 3 0 8v16q-1 3 -1 7t1 8v8q1 6 1 22q0 14 1 18q0 5 1 10v10l-3 53q0 13 -1 25q-3 36 -3 56q-1 12 -1 27q0 4 -1 6t-1 5
q0 4 1 7v4q0 6 -2 12v3q0 2 1 3v2q-1 9 -1 24h-2l1 8q0 15 -7 82q-1 3 -1 14t-1 13l-1 2q0 3 1 5v3q-1 21 2 51q4 42 10 61v2q0 2 1 3l1 -1v3q0 2 2 4q2 0 4 5q0 2 3 2q0 1 1 2v1h5q11 0 11 -1l4 -4l5 -5h1v-2l2 -2v-2q1 -2 6 -7q9 -11 9 -16q1 -6 1 -24v-79q3 -24 3 -28
q1 -2 4 -33q2 -27 3 -36v-4q0 -3 1 -4q0 -3 1 -4v-3q4 -28 5 -65h15q23 0 33 -2h35q9 -1 18 -1h27l38 -2q1 -1 28 -4q3 0 6 1l1 1h13q1 -1 3 -1q1 -1 4 -1h8q6 0 8 -1l5 -1l-1 -1q1 1 8 1q5 0 16 -1t17 -1h14q1 -1 3 -1h17q1 0 2 1h4l2 1q6 2 14 0q0 1 1 2q1 2 1 4v8
q0 4 -1 5v3q0 3 1 4t1 2q0 5 0.5 13.5t1.5 12.5l-1 1h-2q0 1 1 3t1 3l1 1q2 18 2 33q0 10 -2 52l-1 3v3l1 5v2q0 10 -1 10l-2 2q0 3 1 5q1 1 1 3q-1 13 2 45v12q-1 5 -1 10q1 4 1 12v2l-1 4v2q0 7 3 10l-1 2v2h2q1 1 1 3q-1 1 -1 2q3 2 4 2q1 1 1 2t0.5 1.5t0.5 1.5q0 2 3 3
q1 1 1 2l1 1q4 3 15 6.5t13 1.5q13 0 17 -3q0 -2 2 0l2 1q4 -4 6 -4q6 -3 13 -5q18 -6 22 -12q5 -15 10 -50q2 -6 2 -31q-1 -14 -1 -41l2 -10v-10v-40v-35v-4q-1 -2 -1 -5t1 -4q1 -2 1 -4q1 -11 -1 -65l-2 -46q0 -17 -5 -39q-2 -11 -3 -15q0 -2 3 -8l3 -6q2 -13 1 -24l-3 -6
q-2 -2 -2 -7l2 -2q-1 -3 -1 -13v-15l-3 -8h-4q6 -5 6 -11q0 -3 -1 -6l-1 -5q-1 -8 -1 -25q0 -15 1 -23q1 -1 1 -4q-1 -4 0 -5l1 -3q1 -3 2 -4q0 -3 -1 -5q-1 -3 -1 -6q0 -12 4 -21q0 -5 3 -8q2 -7 8 -7q3 -7 3 -18q0 -1 -1 -2v-5q-1 0 -1 -2q-1 -3 -1 -6q-1 -15 -3 -17
l-4 -7q0 -1 -14 -6q-1 0 -4 -4q0 -5 -3 -5q-24 -10 -55 -10zM21 48l1 1l-3 5v-2q-1 -1 -0.5 -2t2.5 -2z" />
    <glyph glyph-name="I" unicode="I" horiz-adv-x="237" 
d="M57 2q-2 1 -6 1q-3 1 -5 1q-15 2 -26 7q-3 1 -6 11q-3 8 -4 8v5q-1 0 -1 1v5h-2v3q2 2 0 2q-5 32 -5 131l-1 3q-2 3 0 8v15q-1 3 -1 7t1 8q1 3 1 7q1 3 1.5 10t0.5 10q0 13 1 18q0 4 1 9q1 4 1 9v15q-2 22 -2 33t-1 22t-1 26q0 16 1 28v31q-1 2 -1 5q0 4 1 7q1 2 1 4v3
l-1 7v3q-1 1 -1 3t1 3t1 2v26l-1 1l1 7q2 29 -2 85v26l-2 3q0 3 1 5q1 1 1 3q0 29 1 50v13q0 11 1 13v13q0 10 1 14q0 5 2 7v3q-1 1 -1 3h2v3q-1 2 1 4q1 0 2 2v2q1 3 3 5q5 6 19 6h2q0 -1 5 -3q4 -1 6 -5l2 1h1q0 -1 2 -3q1 -1 1 -3l19 -15q3 -4 4 -8q6 -40 5 -82
q0 -4 -0.5 -10.5t-0.5 -9.5q0 -21 3 -41v-36q0 -30 1 -36v-9q0 -3 1 -4v-4q0 -1 2 -107l-5 -54q0 -2 2 -5v-3q1 -1 1 -2l1 -3q1 -4 1 -16v-8q0 -6 -1 -7q-2 -2 -2 -7l1 -2v-13q0 -12 -1 -17l-1 -8q-1 1 -3 1q3 -5 3 -13q0 -1 -0.5 -5t-0.5 -7q-3 -29 -2 -53v-10q0 -3 1 -4
v-4q0 -4 -1 -7t-1 -7q-1 -9 1 -26q0 -3 1 -5q0 -6 3 -12q1 -3 1 -5q2 -12 -3 -44l-5 -24l-3 -8q-2 -2 -11 -2l-3 -5q0 -5 -3 -5z" />
    <glyph glyph-name="J" unicode="J" horiz-adv-x="489" 
d="M125 -19q-3 0 -4 1h-9q-2 -2 -3 0h-2q-2 0 -4 1h-7q-1 1 -4 1l-1 -1l-4 2l-15 4q-28 4 -41 12l-6 2h-2l-4 3q-12 7 -29.5 24t-17.5 26q0 1 -1 2v2h1l-1 1q-1 1 -1 2v1l1 1l2 7v1q1 2 8 6t8 4h4q3 1 8 1l1 1l2 -1h2q4 0 8 1h8q3 0 4 -1t7 -9q3 -6 5 -8l16 -21
q13 -14 39 -22q0 -2 3 -2h4q20 -5 40 -5q48 0 54 33l1 2h-1q-1 0 -1 1l1 3v2h-2v4l1 2q-1 35 9 91q1 9 2.5 18t3 15.5t1.5 7.5l-2 2q0 5 1 8t1 6v7q-1 2 -1 5q0 4 1 7t1 6l3 19q0 3 0.5 9t1.5 8l2 8q1 4 1 9v5q-1 5 -1.5 16.5t-0.5 25.5q-3 21 -3 47v27v25v4l-2 2v4q0 1 2 7
q1 2 1 4q0 5 -2 13v2q-2 2 0 4l2 1v27h-2q-2 2 1 6l1 2q2 23 -2 84q-2 4 0 15v11l-3 3q0 1 2 5q1 1 1 3q0 23 4 50l2 13q0 10 1 13q0 28 7 35v5h2v6q1 0 2 1q3 0 5 5q1 3 4 3l3 2v1q9 3 23 3q5 0 6 -1q0 -1 6 -3q7 -1 9 -5q0 -2 2 0q3 0 5 -3l2 -3q16 -10 25 -16q5 -5 6 -8
q8 -33 4 -81q-2 -26 -2 -29q0 -8 1 -15t1 -14q1 -5 1 -35t1 -36v-8q0 -3 1 -4q1 -2 1 -4q1 -4 3 -107q1 -18 -3 -38l-3 -15q0 -3 3 -7q3 -6 3 -7q2 -8 2 -16v-8q-1 -5 -3 -6q-3 -3 -3 -7l2 -3v-13q-1 -6 -1 -16l-3 -8h-5q5 -5 5 -13q0 -2 -2 -12q-8 -33 -11 -59q0 -3 -1 -5
l-2 -6q0 -2 1 -4q0 -5 -3 -11q-2 -6 -3 -7q-4 -12 -4 -27v-5q-1 -5 2 -12q0 -54 -88 -90q-3 0 -5 -1q-1 0 -3 -1l-2 -1q-29 -11 -50 -16q-4 -1 -14.5 -1.5t-15.5 -0.5h-2q-1 -1 -3 -1z" />
    <glyph glyph-name="K" unicode="K" horiz-adv-x="584" 
d="M100 6q-34 0 -56 9q-3 1 -8 10l-7 9v5h-2v5h-2q-2 0 0 2v3q-13 43 -13 128l-2 3v15v5l-2 4v5q0 4 1 8q1 3 1 7q2 22 2 37q0 4 1 9q1 4 1 9q0 3 -2 27l-2 20q-5 20 -5 47v26v26q0 4 -1 6q-2 2 -2 5q0 1 1 3t1 3q1 2 1 4q0 7 -2 13q-1 1 -1 3t1 3t1 2q1 5 1 14t-1 12h-2
q-1 2 1 7l1 1q2 23 -2 84q0 8 1 15q0 10 -1 11l-2 3q0 3 1 5q1 1 1 3q3 34 5 50q0 11 3 26q0 27 7 34v5h2v6q1 0 2 1q3 0 5 5q1 3 4 4q2 0 3 1v1q9 3 23 3q5 0 6 -1q0 -1 6 -3q7 -1 9 -5q0 -2 2 0q3 0 5 -3l2 -3l4 -3l8 -4q18 -11 19 -17q4 -18 4 -55q0 -17 -1 -25
q-2 -26 -2 -29q0 -8 1 -15t1 -14l2 -33q0 -30 1 -37v-8q0 -3 1 -4q1 -2 1 -4q1 -3 1 -10l13 13l3 2l4 4q3 2 6 5l16 16l5 5l9 10q29 31 51 50q8 7 16 15l4 4q1 2 8 7l11 11q1 1 1 2q1 1 2 1l2 1q7 6 17 16l-1 1l6 4q35 29 51 53l13 14q3 4 12 13q5 5 7 9l5 5q1 3 3 5t3 4
l5 7h1v1h1v1h2l4 1h1q13 -1 14 -4l3 -2q3 -1 3 -4l1 -1h1v-2q5 -10 5 -16q0 -5 -17 -25q-3 -4 -15 -16l-21 -20q-3 -4 -7 -8q-12 -12 -22 -21l-20 -20q0 -4 -5 -4q-1 -3 -4 -6l-69 -66q-32 -32 -37 -32l-2 -3q-1 -2 -4 -5l-1 -3q-4 -6 -15 -15l-4 -4l-2 -2q-2 -1 -3 -2
l-1 -2q-5 -5 -8 -9q-7 -7 -10 -9l-5 -5l-1 1q-1 -4 -13 -16l-8 -8q2 -6 8 -14q10 -24 16 -33l11 -16q25 -41 28 -44q3 0 3 -5l5 -4q5 -6 24.5 -34t23.5 -33q3 -3 21 -35l3 -2q1 0 1 -1h2l1 -1l2 -2q2 -2 12 -14q1 -2 1 -5q0 -2 2 -4l2 -1q2 -4 6 -8q1 -1 7 -10q3 -5 2 -5
l-2 -1q5 -2 12 -12q5 -11 19 -29l2 -2q1 -4 4 -4q4 -3 4 -5q1 -2 1 -4q3 -6 9 -12l2 -2q0 -1 1 -2l3 -2q1 -1 4.5 -5t6.5 -7l8 -10q13 -13 14 -17q3 -7 4 -8q2 -3 -5 -5q-1 -1 -2 -1q-2 0 0 -3v-8q-2 0 -9 -1.5t-13 -2.5t-10 -1l-6 2q-2 1 -3 1q-1 1 -2 1v1l-1 2l-1 -1v1
l-1 1h-1v1l-1 1q-30 18 -60 60h-2q-1 1 -1 2q-1 2 -1 3q-2 3 -6 7q-3 3 -5 8q-1 2 -3 4q-8 14 -14 22q-2 1 -3 6l-4 6q-13 17 -23 28q-13 13 -23 29q-16 22 -24 34l-3 4q-4 3 -5 7q-1 3 -5 7l-3 4q-1 1 -2 1q-1 1 -1 3v1l-12 18v-1h-1l-2 6q-4 7 -21 31q1 -5 1 -19
q0 -4 -2 -6q-3 -3 -3 -7l3 -3v-29l-2 -7h-5q6 -6 6 -12q0 -4 -1 -7v-5q-2 -16 -2 -26q0 -8 2 -26v-5q-1 -5 0 -6q0 -2 1 -3t1 -4q0 -5 -3 -14q-1 -11 2 -26q1 -1 1 -2q1 -2 1 -3q0 -7 5 -12l2 -4q2 -3 2 -11q0 -4 -0.5 -9t-0.5 -6q-2 -6 -3 -11l-3 -8q-4 -17 -7 -24l-4 -7
q-1 -3 -16 -3q-1 0 -3 -3l-3 -4q-1 -3 -3 -3z" />
    <glyph glyph-name="L" unicode="L" horiz-adv-x="514" 
d="M84 4q-20 0 -47 5q-2 2 -4 2q-4 1 -4 6l-5 3q0 2 1 4q-1 2 -3 4v5h-2v5h-1h-1q-2 2 0 3v3q-11 36 -11 102q-1 12 -1 25l-3 3q0 5 1 8q0 4 -2 14q-1 3 -1 7q0 6 3 15q0 12 1 20q1 7 1 17q0 1 2 9q1 4 1 9q0 3 -2 27l-2 20q-4 16 -4 48q0 16 1 28v24q0 4 -1 6t-1 5q0 4 1 6
t1 4v8q0 4 -1 5l-1 3q0 1 2 3q1 1 1 2q0 20 1 27h-3q0 4 2 6l1 2q1 6 1 48v36q0 7 1 14t1 12l-2 3q0 3 1 5q1 1 1 3q1 16 8 50q0 6 4 26q1 3 3 12q3 18 7 21v6l1 -1h1q1 1 1 3q-1 3 2 4q2 0 2 1q2 2 3 4q2 2 5 3q1 0 2 1v1q4 2 18 2q7 0 11 -2q0 -1 6 -3q7 -3 8 -6q0 -2 2 0
q2 0 5 -4l1 -2l12 -8q16 -11 17 -18q1 -6 1 -49q0 -4 -2 -30l-4 -29q0 -8 1 -14v-51v-33v-3q-1 -3 0 -4q0 -6 2 -8q2 -48 2 -104q0 -19 -3 -37q-2 -14 -2 -15q-2 -2 3 -7l3 -6q2 -8 2 -16v-7q0 -5 -2 -7q-3 -2 -2 -6l2 -3v-29l-3 -7h-4q6 -6 6 -12q0 -4 -1 -7l-1 -5
q-1 -8 -1 -26q0 -17 1 -26v-11q0 -2 1 -3t1 -4q0 -4 -1 -7t-1 -6q-2 -16 2 -27q0 -10 1.5 -26.5t1.5 -38.5v-1h15q2 -1 4 -1q7 0 12 1h9q5 0 10 1h24q5 -1 11 -1q2 0 3 1h5q1 -1 2 -1h6l1 1h1l1 -1h16q5 -1 37 -1h12l1 1h2q1 -1 2 -1q13 0 22 -1q1 -1 6 -1h6q1 -1 6 -1h6
q1 -1 3 -1h3q0 -1 1 -1h1l1 -1l4 -2v-1h1q0 -2 1 -4v-4q-1 0 -1 -1l-2 -2q0 -1 -1 -1v-1q0 -2 -3 -2q-4 -4 -7 -6q-2 -2 -4 -2q-3 -1 -22 -1q-8 0 -14 1h-20q-3 -1 -6 -1q-8 0 -17 1q-14 0 -15 -1h-7q-2 -1 -25 -1h-23h-1q-1 0 -3 0.5t-4.5 0.5t-6.5 0.5t-8 0.5q-2 0 -5 -1
l-1 -1h-11q-2 0 -3 1h-17l-4 1l1 1q-9 -7 -50 -7z" />
    <glyph glyph-name="M" unicode="M" horiz-adv-x="931" 
d="M418 -2l-4 1q-2 1 -5 4h-3l-1 1q-1 1 -1 3q-6 2 -14 13q-2 2 -4 7q0 16 1 27v2l-1 -1q-1 1 -1 5l-2 4q-10 30 -64 156q-24 54 -36 79l-3 4l-7 16q-7 15 -14 28q-14 25 -21 46q-8 20 -18.5 44t-12.5 30q-7 16 -14 38q-30 79 -34 93l-3 8q-1 -3 -1 -10q-1 -10 -3 -13
q-2 -4 -2 -5q-1 -4 -2 -10t-3.5 -17.5t-4.5 -20.5v-1h1l-5 -15q-14 -57 -36 -168q-2 -16 -8 -40q-2 -12 -2 -13v-6l-4 -15q-4 -26 -9 -52.5t-6.5 -36.5t-1.5 -11q-2 -9 -3 -28q-2 -20 -3 -24q-1 -5 -1 -23q-1 -30 -4 -43v-10h-1v-10q0 -1 -1 -2l-1 -2q-1 -3 -1 -6v-4
q0 -3 -2 -5q-1 -1 -1 -3v-2q-3 -2 -9.5 -4.5t-7.5 -0.5q-2 2 -4 5q-4 4 -7 10h-2q0 3 -1 6q0 2 -1 3t-1 2t-2.5 6.5t-4.5 8.5q-11 19 -11 34q-1 75 28 231q0 1 1.5 10.5t3.5 17.5q4 19 6 32q21 83 31 142q3 12 3 16q2 10 2 15q41 204 106 204q7 0 10 -1q11 -2 16 -22
q5 -19 6 -48q1 -20 4 -38q2 -8 9 -20l3 -5q5 -12 15 -45q3 -7 3 -12t3 -14l3 -5q0 -1 3 -9t8 -20.5t11 -26.5q0 -1 1.5 -3.5t2 -5t0.5 -3.5l1 -3q-3 4 -4 3t2 -4q5 -5 23 -46q22 -53 48 -104q0 -1 1 -2.5t2 -3.5l2 -4l4 -11q4 -5 9 -15q2 -7 6 -13l4 -13q12 -27 24 -50
l5 -10q1 -2 2.5 -5.5t1.5 -4.5l2 -3q5 20 10 39q7 31 8 36q3 3 3 9q2 8 2 11q7 29 40 135q1 3 4.5 11.5t9.5 23.5t12 31q2 2 2 13l1 4q4 16 10 29q1 5 4 8q2 3 4 7v4l6 14q1 1 3.5 8.5t4.5 10.5l4 8q1 0 2 -1q0 8 9 27q14 27 24 52l1 2l3 6q1 1 1 2q0 3 3 7q5 7 6 11
q8 14 11 21q0 1 2 5q2 2 3 8v4q5 10 12 17l1 1q15 15 21 16q1 0 2.5 0.5t2.5 1.5t3 -1q5 14 16 19q21 0 26 4h1v1q3 1 19 -6.5t17 -11.5q1 0 2 1l1 -1v-4l1 -3q5 -14 11 -36q6 -33 7 -41q1 -6 1.5 -17t2.5 -24l2 -20l2 -3q1 -2 1 -8v-9l2 -6q1 -3 1 -7q0 -11 -2 -17v-36v-6
l-2 -6v-6q0 -6 6 -48q0 -14 4 -34q0 -11 1 -16v-30q0 -23 1 -29q0 -3 1 -5q1 -3 1 -6q0 -4 -1 -7t-1 -5q0 -8 2 -14q0 -3 1 -4q0 -2 -1 -3q-2 -2 -2 -3q1 -11 1 -30h2q1 -1 -1 -7l-1 -2q-1 -20 7 -93q0 -21 2 -27l3 -3q0 -3 -1 -4q-1 -2 -1 -4q1 -12 1 -50q0 -6 1 -12v-35
q0 -6 -2 -8v-2l1 -2h-1l-1 -1l1 -1v-2l-2 -2q-3 -1 -3 -6l-5 -5l-1 -1q-4 -3 -15 -7t-13 -2h-7q-7 0 -10 3h-2l-2 -1q-1 0 -3 2q-1 1 -3 1q-6 3 -12 5q-22 5 -23 12q-15 37 -15 87q0 6 -0.5 13t-1 11t-0.5 6q0 3 -2 17t-2 15q-2 14 -3 43q-2 29 -3 39v5q0 2 -2 10q-1 1 -1 4
q-3 51 -4 71l-2 48q-1 19 2 42q1 7 1 15q2 2 -3 7l-4 6q-3 10 -2 23q0 5 2 7t2 6l-3 3v12q-1 5 -1 14l2 7h5q-7 4 -7 12q0 4 1 7v5q2 32 -2 54q-1 1 -1 6v5q0 3 -1 4q-2 2 -2 4q0 5 1 10q-1 -2 -7 -17v-3q-1 -1 -3 -6q-4 -6 -6 -15q-1 -7 -6 -15q-1 -1 -2 -4l-2 -3l-17 -40
l-2 -4q-2 -5 -4.5 -10t-2.5 -6l-19 -57l-18 -59q-1 -5 -5 -17.5t-9 -27.5l-7 -21q-3 -12 -3 -14l-3 -7q-4 -8 -5 -14q-1 -3 -1 -8q0 -2 -3 -7q-1 -1 -1 -3q-1 -3 -10 -33h1l-3 -10q-10 -36 -24 -99q0 -5 -1 -9q-4 -18 -4 -19v-3q0 -3 -1 -4q-1 -2 -1 -4q0 -3 -1.5 -9.5
t-4 -17.5t-4.5 -21q-1 -1 -1.5 -4t-0.5 -4q2 -13 1 -18v-15q0 -5 -7 -5l-1 -1v-3l-1 -2v-2l-2 -1q0 -5 -2 -7v-2q-1 0 -1 1h-2l-1 1q-16 -5 -17 -2zM706 740q-2 3 -4 3q-1 -1 -4 -1.5t-4 -0.5q9 0 12 -1z" />
    <glyph glyph-name="N" unicode="N" horiz-adv-x="836" 
d="M570 -4q-25 0 -57 40q-14 16 -33 46q-21 33 -23 35q-7 7 -18 15l-4 3q-6 5 -21 23.5t-17 25.5q-1 3 -8 12l-5 3q-18 24 -42 48l-10 14q6 -3 6 0q0 1 -3 3q-12 4 -39 37q-34 41 -81 90q-5 5 -8 10q-7 8 -14 15q-7 5 -17 22l-8 11q-22 33 -36 52l-7 10q-7 11 -17 21
q-6 5 -8 8q-13 19 -23 41q0 -4 -1 -6v-21q-1 -4 -1 -10q-4 -67 -3 -77v-4q-1 -2 -1 -4q0 -4 1 -5v-119l-3 -56q0 -2 1 -4q1 -3 1 -7l1 -2q1 -5 1 -17v-8q0 -5 -1 -6t-1 -7l1 -2v-29l-1 -7h-3q3 -3 3 -11q0 -1 -0.5 -5t-0.5 -6q-2 -32 -1 -47v-4q-2 -3 0 -5v-6q0 -18 8 -70
q0 -27 -20 -27q-3 0 -7.5 0.5t-6.5 0.5t-2 -1l-5 1q-11 2 -11 3l-3 2q-2 1 -4 3h-1l-1 1h-1v1l-6 5v1h-2v1q-7 2 -7 9q0 1 0.5 3.5t1 6t0.5 7.5l3 7q1 1 1 3q1 1 1 2q1 1 1 3v1q0 3 1 4q0 14 1 27v27l-1 3q0 3 1 6v13q-1 2 -1 6t1 7v7q2 22 2 34q0 4 1 9v9q0 15 -1 27
q-1 11 -1 21l-1 20q-1 13 -1 30q0 18 1 32v31q-1 2 -1 6t1 7q1 2 1 4v9q-1 2 -1 6v3q0 3 1 4v2q1 15 1 29h-1l2 9q2 20 3 55q2 38 2 39q0 9 1 16t1 13v3q0 3 1 5q1 1 1 3q3 23 9 53l2 8q1 4 4 18v2l-3 9q-4 3 1 8q5 4 6 4q0 2 -4 11l-3 10q4 1 14 8q12 6 17 8q8 2 11 2
q9 0 25.5 -10.5t20.5 -18.5l2 -4l3 -3q1 0 5 -4l4 -5q2 0 5 -4q3 -5 3 -6q31 -38 82 -119q52 -86 75 -117l5 -3q1 -1 4.5 -5t6.5 -7q9 -13 21 -24q8 -8 10 -11q19 -23 22 -28q2 -3 13 -15.5t19 -20.5l10 -12t8 -9.5t4 -4.5q12 -18 27 -32q7 -9 33 -36q9 -10 37 -41
q3 -2 45 -51q0 22 -1 33h-2q-1 4 1 14l1 3q0 14 0.5 32.5t0.5 24.5q0 97 -5 132q0 17 1 32v28l-2 6q0 8 3 17q1 51 9 113q0 10 4 55v28q0 43 3 48v13q0 1 1 0h1q1 1 1 7v6q0 1 5 6l3 8q1 2 1 5q0 4 5 5l3 6q3 3 15 3t13 -3q2 -4 3 -5l2 -2q7 -7 8 -12q0 -2 2 0q2 0 2 -1
q1 0 2 -4q0 -1 1 -4l1 -3q1 -1 5.5 -6t7.5 -8q19 -22 20 -35q3 -25 3 -80v-39q-6 -86 -6 -132q0 -20 1 -35t1 -29q0 -45 2 -115q0 -32 1 -43q1 -2 1 -8q-1 -6 1 -19q1 -4 1 -8q2 -36 -20.5 -85t-55.5 -79q-20 -19 -40 -19z" />
    <glyph glyph-name="O" unicode="O" horiz-adv-x="877" 
d="M310 9h-6q-5 0 -17 2.5t-25 5.5l-13 3q-15 6 -29 12q-39 21 -61 38q-5 3 -27 25q-66 65 -93.5 122t-35.5 147q-3 15 -3 22q0 4 2 14q1 5 1 8q1 7 1 22v12q0 2 2 6t2 5q4 24 14 55h-2q0 7 6 13l2 3q73 134 141 175l12 8l5 5q1 0 3 1.5t6 3.5t7 3q77 37 151 37q61 0 81 -5
q0 -1 4 0q4 0 5 -1t5 0h5q2 -2 5 -2q2 -1 7 -1h5q1 0 2 -1h5q6 -2 6 -9q55 -21 93.5 -56.5t79.5 -93.5q2 -2 3 -4q3 -6 5 -8t2 -4q47 -79 54 -178l1 -2q1 -2 1 -3t0.5 -3.5t1.5 -3.5l1 -3q2 -12 2 -20v-8q0 -6 -1 -7q-2 -4 -2 -9l1 -3q-1 -27 -3 -33l-3 -9h-2q3 -8 -3 -27
q-8 -24 -20 -57q-1 -1 -3 -5q-3 -5 -3 -9q0 -1 -0.5 -2.5t-1.5 -2.5q-2 0 -9 -13q-9 -12 -16 -24q-1 -4 -7 -10q-2 -7 -6 -11q-7 -9 -28.5 -25t-31.5 -20q-4 -2 -5 -3q-57 -33 -131.5 -52.5t-141.5 -19.5zM359 58l22 -2q49 3 85 24q73 40 85 49q4 3 13.5 10.5t15.5 11.5
q12 10 20 15q3 2 15 11q16 28 25 55v3q0 2 2 7.5t2 6.5q0 7 2 13l2 7q1 3 1 7q3 13 6 35l2 18q0 30 -13 95l-12 53l-1 2l-3 6q-3 4 -3 12q0 1 -0.5 3.5t-1.5 3.5l-5 8q-2 2 0 3q0 2 -1 3q-2 4 -2 6l-6 12q0 2 -2 6h-2l-2 7q-26 56 -61 91l-7 7q-23 24 -33 33q-10 10 -35 25
l-12 7q-2 0 -3 1l-2 1v1l-2 1q-2 0 -2 1q-2 0 -2 2q-25 -9 -37 -9q-17 0 -30 1q-42 2 -63 -2q-68 -15 -118 -74t-64 -131q-3 -3 -3 -12q-1 -1 -1 -7v-6q-1 -17 -1 -50q0 -91 30 -194q0 -4 11 -13l3 -3q5 -7 18 -31q3 -4 3 -9t4 -10l3 -2q10 -14 26 -34l7 -10l-2 -3
q8 -2 21 -13q3 -4 7 -8q35 -27 72 -37q9 -3 16 -3q2 -1 7 -1h6z" />
    <glyph glyph-name="P" unicode="P" horiz-adv-x="580" 
d="M87 11l-6 -7q-2 1 -8 1.5t-9 0.5q-21 0 -38 7q-5 2 -9 10q-5 8 -6 8q-1 1 0 3v3h-2q-2 0 0 2v3h-2q-1 0 -1 2l1 3q-7 21 -7 62q0 30 2 68l-2 2q0 5 1 8v15q-1 3 -1 7l2 8q1 3 1 7q1 7 3 21.5t2 15.5q4 12 4 18q2 1 0 24q-1 15 -1 23v22q-1 11 -1 26q0 3 2 27q1 11 1 24
q0 4 -1 6t-1 5q0 2 2 6q1 2 1 4q0 3 -0.5 7t-0.5 6q-1 1 -1 3q0 1 2 3q1 1 1 2v25h-2l3 8q2 22 -3 81v14q0 10 -1 11l-2 2q0 3 1 5q1 1 1 3q-1 9 1 47q1 2 1 13q-1 6 -1 12q1 4 1 12q-2 16 2 20v3l-1 2h3v3q-1 1 -1 3q1 0 2 1l2 1q2 4 2 5q0 3 4 4q1 2 2 3q1 0 7 2t12 3.5
t8 1.5h1l7 -2h3q2 2 6 2l4 2h3q25 5 28 5q35 -1 90 -9t79 -18q48 -14 83 -44l6 -5l2 -2l4 -4l4 -4q19 -27 35 -67.5t19 -68.5q2 -32 -11 -73q0 -3 -1 -6t-1 -8v-5q-5 -14 -15 -29l-4 -4l-2 -3q-3 -1 -6 -6l-2 -4q-15 -15 -30 -27h-2l-1 -1l-5 -3l-1 1q-7 -9 -25 -16
q-34 -14 -61 -24q-3 -3 -13 -3q-2 -2 -10 -4q-3 0 -16 -3l-33 -6q-7 0 -13 -2q-4 0 -7 -1l-6 -2q-20 -2 -32 -2q0 -8 -1 -14l-3 -6q-2 -2 -2 -7l2 -2q-1 -3 -1 -13q0 -3 -0.5 -8.5t-1.5 -7.5l-3 -8h-4q5 -5 5 -16l-2 -4v-4q-6 -24 -4 -51v-5q-1 -3 -1 -6q0 -2 1 -3
q1 -2 -1 -11q-1 -3 -1 -6v-3l-1 -7v-3q0 -2 0.5 -6t0.5 -7q1 -1 1 -5q0 -6 5 -11q0 -1 1 -3q1 -1 1 -2q4 -6 -1 -24l-5 -18q-6 -20 -8 -22q-3 -4 -4 -8q-2 -2 -16 -2q-1 0 -3 -2zM127 335q91 11 133 23l3 2q31 11 43 23q16 12 28 25q23 34 23 94q0 39 -7 68q0 4 -1 6
q-4 8 -4 11q-1 3 -1 5t-7 15v3q0 2 -1 3q-4 12 -12 24l-1 -1l-3 8q-32 47 -89 65h-3q-1 0 -4 2l-4 1q-28 7 -58 13q-28 4 -31 4q-2 1 -25 4q10 -4 12 -10q12 -34 12 -82q-1 -17 -1 -32q0 -2 2 -14q1 -7 1 -15q1 -8 1 -38q0 -29 1 -35v-4q-1 -3 0 -4q0 -6 2 -8l-2 -108
q0 -14 -7 -48z" />
    <glyph glyph-name="Q" unicode="Q" horiz-adv-x="877" 
d="M706 -14h-2q-17 2 -47 26h-2l-9 8q-4 2 -7 6l-19 19q-2 2 -3 5q-1 1 -3 2l-2 2l-16 14l-1 -1q-6 -2 -7 -3q-4 -2 -6 2l-5 -2q-2 0 -3 -1l-2 -1q0 2 -1 3q-78 -47 -168 -71l-6 -2q-44 -6 -72 -4q-20 0 -37 4q-68 11 -115 41q-84 53 -120.5 116t-48.5 164q-4 16 -4 25
q0 10 1 16q1 5 1 9q1 9 1 25q-2 12 0 14q0 1 2 7q1 2 1 5q2 16 13 62h-2q0 7 6 15l1 3q52 114 104 169q11 11 37 30l17 13l17 9q106 54 179 54q11 0 62.5 -7.5t57.5 -9.5q59 -6 98 -40t77 -95q0 -1 1 -3l2 -4l1 -2l3 -4l2 -4q40 -88 40 -191q0 -1 3 -13l1 -4q2 -19 1 -31
l-2 -8q-2 -4 -2 -9l1 -3q-4 -28 -4 -37l-3 -9l-2 2q-1 0 -1 -2q3 -9 -17 -76v-3q0 -8 -6 -26q-3 -8 -3 -11q0 -4 -7 -11h1q0 -1 -3 -6t-3 -6h1q0 -4 -19 -23q-1 -1 -1 -2q-2 -9 -5 -12q-4 -7 -12 -15l3 -4q0 -2 2 -4h2l16 -17l-2 -2q4 0 12 -8q13 -15 20 -20q1 0 2 -1l2 -2
l5 -4l2 -2q2 -3 8 -7l1 -1h2q1 -1 2 0h2q5 -4 4 -10q0 -5 -3 -8q0 -2 -1 -5l-1 -1v-2q0 -3 -0.5 -6t-1 -5t-0.5 -3l-7 -5h-2zM363 40q43 0 72 9l2 1l5 2h1l1 1l37 12q55 32 64 48q-3 3 -6 6.5t-4 4.5l-6 5q-2 2 -3 4l-2 2l-3 4q-3 3 -6 3v2q-1 1 -1 2l-13 13h-1v-1l-3 5
q-9 11 -39 38l-2 2q-1 2 -3 4l-5 5h-2l-2 2v2q-5 5 -15 19q-2 2 -3 4l-4 4l-5 11h-1v1l1 1h-1v2l1 1q0 3 1 3v1q6 10 9 10l4 2q2 2 3 2v1q1 1 2 1h2q12 5 14 5t16 -12q1 -1 4.5 -5t6.5 -7q7 -9 16 -17l21 -21q5 -5 10.5 -10t6.5 -6q0 -1 1 -2l2 -2q3 -3 5 -3l8 -8l14 -14
l16 -16q21 28 32 52l8 15q7 11 7 12q2 5 12 1l3 15q0 3 3 15q0 1 0.5 4t1.5 4l10 61q2 43 -8 107q-5 38 -10 60v3l-2 4l-1 2q-1 2 -1 7v4l-3 7q0 1 -1 2v3q-2 2 -2 4q-2 1 0 3q0 1 -1 2q-1 4 -3.5 13t-4.5 13h-2l-1 7q-14 37 -39 70q-67 70 -167 70q-57 0 -111.5 -22
t-84.5 -52q-27 -25 -50.5 -75t-31.5 -92q0 -3 -1 -6q-3 -12 -3 -17v-7q-1 -20 -1 -58q0 -111 39 -218l4 -4q2 -3 5 -5q6 -6 6 -7q2 0 21 -31q3 -3 5 -9q1 -4 6 -10l3 -2q14 -14 35 -32l11 -8q-4 0 -4 -1t3 -2q6 0 20 -7q8 -4 20 -8q32 -8 62 -8z" />
    <glyph glyph-name="R" unicode="R" horiz-adv-x="588" 
d="M411 -3h-3q-31 9 -69 52h-1l-5 5l-2 2l-3 2l-2 3l-3 3q-2 4 -6 8q-5 5 -6 7l-1 1q0 2 -1 2l-2 2q0 1 -2 3l-20 20q-22 20 -34 37l-10 12l-2 2q-5 2 -6 6t-4 7l-3 2q-2 2 -2 3t-1 2q-10 12 -11 13h-1l-2 5q-9 12 -34 42l-9 13l-4 3v2q-3 4 -14 24q0 4 -5 9q-2 0 -3 -1h-6
q-1 -1 -3 -1q-1 -1 -1 -2l2 -3q0 -8 -2 -30l-3 -7h-5q5 -5 5 -13q0 -3 -1 -6l-2 -5q-6 -27 -5 -53q0 -3 -1 -5q-1 -4 0 -5q0 -3 1 -4v-4q0 -1 -4 -13v-3l-1 -7q0 -18 3 -26q0 -3 3 -6q0 -1 1 -3l1 -2q1 -2 1 -8q0 -10 -2 -16q-3 -15 -6 -18l-7 -22q-3 -3 -5 -7q-2 -2 -15 -2
q-2 0 -4 -3q0 -2 -1 -2l-4 -5q-3 1 -8.5 1.5t-8.5 0.5q-40 0 -48 18l-6 9v2l1 3h-1q-2 0 -1 3v3h-2q-1 0 -1 3l1 2q-5 19 -5 51q0 20 1 25q0 6 1.5 30.5t1.5 25.5l-2 3q0 4 1 7t1 8v7q-1 3 -1 7q0 1 1 4t2 6.5t1 4.5q2 18 5 35l2 8q1 4 1 9q1 3 -2 46q0 1 -4 45v51
q0 1 -3 10q0 1 2 7q1 2 1 4q-1 2 -1 7q0 1 -0.5 2.5t-1.5 2.5v3q0 2 1 3l1 2q0 19 -1 26h-2q-1 2 1 7l1 1q1 8 -4 85v26l-3 3q0 1 2 5q1 1 1 3q0 19 5 51q0 12 3 27q2 5 3 13q4 20 6 22q1 0 1 3q-2 2 0 2q0 1 1 0h1v1q-1 3 0 3q0 2 3 3q2 0 2 1l3 4q1 3 4 3l3 3q3 1 13 1h9
q7 3 21 5q9 1 25 1q124 0 221 -97q1 -3 6 -8l3 -3q1 -2 3 -4q17 -26 30.5 -63.5t13.5 -60.5t-8 -54v-16q-3 -13 -10 -26q-1 -5 -4 -7q-4 -2 -5 -6l-1 -3q-4 -5 -7.5 -10.5t-7.5 -10.5t-5 -7q-1 -1 -5 -6l-2 -1l-1 1q-3 -9 -19 -21l-54 -36q-2 -2 -6 -3q-3 -1 -5.5 -2
t-3.5 -2l-23 -9q-3 -1 -7 -2.5t-6 -1.5l5 -8q9 -15 13 -20q2 -2 3 -4l2 -2l27 -35q0 -6 5 -6l2 -2q21 -21 44 -53q1 0 19 -27h2l2 -2h2l2 -2q4 -3 10 -10q1 -1 1 -3t2 -4h2l5 -5q1 -1 2.5 -3.5t2.5 -3.5l2 -2v-2l-2 -1q4 0 9 -8q6 -9 16 -17l5 -4q3 0 4 -4l2 -3q4 -5 13 -14
l3 -2q4 -4 7 -5q1 -1 3 -1q20 -29 20 -41q0 -8 -16 -11h-2q-1 -1 -3 -1v-1l-2 -1h-3zM136 321l8 2l10 5q2 0 4 1q4 1 5 0l1 1h5q49 15 73 29l15 13l9 10q0 1 10 11q21 27 28 50.5t7 59.5q0 33 -6 59q-1 1 -1 2t-0.5 1.5t-0.5 1.5q-2 6 -2 9q-1 2 -1 4l-6 13v5q-6 14 -10 21
h-1l-2 7q-28 48 -75 77l-3 1q-3 1 -7 5q-51 25 -87 27q-2 1 -6.5 1.5t-6.5 0.5q3 -3 6 -4l11 -8q5 -5 5 -9q4 -12 4 -53q0 -17 -1 -24q-2 -26 -2 -29q0 -13 3 -28q0 -53 4 -70v-8q0 -3 1 -5l1 -2q2 -18 6 -107q1 -17 -3 -39q-2 -14 -2 -15q0 -2 3 -8l3 -6q0 -1 1 -2z" />
    <glyph glyph-name="S" unicode="S" horiz-adv-x="626" 
d="M208 -3q-56 0 -75 22q-5 7 -5 8q-4 4 -9 7q-7 4 -14 13q-3 3 -6 5.5t-5 4.5q-2 1 -5 4l-11 11l-9 9v1q-1 1 -3 2l-1 1q-19 19 -25 47l-5 3q-1 1 -3 7q-1 1 0 2t1 2l-2 1l-3 9v2l1 1h2q-4 1 -4 7q-2 10 -6 17v2q-1 1 -1 2l-1 1q-1 1 -1 2v4q-2 8 -5 10v2l-2 2q-1 0 -2 1
t-3 1q-2 3 -4.5 17t-1.5 15v4q0 1 6 4q0 2 1 4l1 3l8 3q7 3 18 5q2 0 6 -3l5 -3v-1l1 -2h1v-1l1 -1h1q0 1 1 1v-3q10 -12 27 -51l2 -1q0 -3 2 -5q0 -1 1 -2l1 -2v-3q0 -2 1 -3q0 -4 1 -6q1 -3 1 -6v-3q0 -2 1 -3l6 -12q0 -2 3 -5l3 -6q0 -1 4 -13l1 -1h1v-4l2 -2v-3l3 -6
l1 1v-3q3 -7 15 -21l3 -3q1 -2 3 -4h1q1 -1 1 -2v-1q6 -6 13 -15q54 -7 68 -7q76 0 115 71l-1 5q0 4 1 9t1 13q0 6 -1 11q-1 4 -1 10t1 13v15q-2 48 -16 90q-19 45 -59.5 74.5t-101.5 57.5l-7 3q-8 1 -16 8l-5 3l-14 8q-7 3 -9 3l-3 3q-2 2 -3 2q-19 13 -35 29h-1l-1 -1
q-4 1 -6 10l-1 3q-8 30 -8 65q0 93 47 132q9 7 9 8l3 4l2 1q2 1 5 3l6 4q71 40 140 40q32 0 45 -6h9q1 0 5.5 -1t10 -2t10.5 -2q10 -3 13 -3q5 -2 28 -14q1 -1 2 -1l1 -1q1 -1 2 -1l1 -1q19 -14 34 -33q5 -7 11 -21q0 -4 6 -4q4 -4 5 -9q1 -1 1 -3q-2 -1 0 -3l1 -1
q2 -2 3 -5l3 -7v-3l-2 -1q5 -1 6 -9q1 -7 7 -21q1 -1 1 -2q0 -3 2 -3q1 -1 1 -2v-3q0 -2 1 -2q2 -6 4 -10q0 -2 2 -4l4 -3q3 -4 3 -17q0 -8 -1 -9t-1 -3t-7 -3l-3 -5l-28 -6l-4 2q-2 1 -3 1q-1 1 -2 1v1l-1 1h-1v2h-2v1q-6 8 -21 45l-1 1q0 3 -2 7l-2 3q-1 1 -1 4q0 2 -1 3
q0 5 -1 8l-2 6q-2 2 -2 7q-2 2 -9 15l-4 8q-3 3 -5 7q-2 7 -9 16q0 1 -1 2q-2 0 -3 4l-3 3v1q-1 0 -1 1l1 1q-1 1 -2.5 3.5t-2.5 3.5l-1 -1l-1 3q-7 9 -18 17q-1 1 -6 -1q-3 -1 -11 -1v-1q-2 0 -5 1l-3 1q-10 0 -19 -1q-14 -2 -17 0q-14 3 -27 3q-38 0 -64 -26.5t-29 -65.5
q-1 -40 4 -65q0 -1 -1 -2v-2l1 -3q5 -15 31 -37.5t54 -37.5q40 -20 78 -44q1 -1 20 -8l5 -2q44 -26 49 -41q2 -6 7 -12l6 -4q22 -32 33 -62l4 -20q-3 5 -5 4t1 -5q15 -17 15 -52q0 -8 -1 -11q-9 -84 -50 -139l-32 -29q-10 -7 -26 -14l-48 -20l-29 -8q-6 -3 -8 -3
q-30 -5 -50 -5z" />
    <glyph glyph-name="T" unicode="T" horiz-adv-x="606" 
d="M211 5q-7 0 -11 1q-6 0 -14 12l-4 4l-2 1v3q0 3 -3 3v6l-1 -1h-1q-1 1 -1 4v3q-5 20 -5 43q0 25 3 49q0 2 0.5 5t1 9t0.5 11l2 22l-2 2q0 4 1 7v13q-1 2 -1 5q0 1 3 13l3 19q1 7 1 16q4 12 4 17v16q0 16 -2 30v21q-1 11 -1 25q0 24 3 51q0 4 -1 6q-1 1 -1 5q0 7 3 10v7
q-1 2 -1 5l-1 3q0 2 1 3t1 2q1 10 1 26h-2l3 7q0 2 0.5 10t0.5 14q0 10 -2 58q0 7 1 14v11l-3 2q0 1 2 5q1 1 1 3q0 22 4 47q0 16 2 26q0 6 1 11q0 17 4 21v1h-2q-1 -1 -3 -1q-3 0 -4 1h-15q-6 1 -16 1v-1l-5 1q-4 1 -19 1q-18 0 -31 -1h-16l-1 -1h-4l-1 1h-30h-23
q-6 0 -8 1h-8v1l-2 -1h-1l-6 3h-1q-1 0 -1 1l-2 7h1q0 4 4 5v1l2 1q10 10 15 10q36 3 49 3h18q5 0 9 1h57q2 0 3 1h2q26 0 64 -1l32 -2l6 2h16q4 0 5 -1t3 -1l2 1h8q3 -1 9 -1l5 -1v-1q1 1 8 1h6q22 -2 32 -2h6q2 0 3 1h7q1 -1 3 -1h2l4 -1h2q2 0 4.5 0.5t3.5 0.5h6l7 2
q6 1 26 -2l14 -2q6 -1 6 -6l6 -2q-1 -1 -1 -5q-3 -11 -11 -14l-5 -1h-3v-1h-6q-21 -3 -78 -2q-1 0 -2 -1q-3 0 -5 1h-8q-3 -1 -4 0h-10q-14 2 -22 2q-3 0 -6 1q5 -5 5 -7q10 -33 6 -81q-2 -28 -2 -29q0 -8 1 -14v-15q1 -6 1 -37v-33v-4q-1 -2 -1 -4q0 -3 1 -4q1 -2 1 -4
q0 -36 -1 -105q0 -20 -4 -37q-3 -11 -3 -14q-2 -2 2 -7l3 -6q2 -8 2 -13q0 -1 -0.5 -5t-0.5 -6q-1 -4 -3 -6t-2 -6l2 -3q-1 -3 -1 -12q0 -11 -1 -16l-3 -7h-4q5 -5 5 -9v-5q-2 -6 -2 -9q-5 -23 -7 -53q0 -2 -1 -4q-1 -3 -1 -6t1 -4v-4q0 -1 -2 -7l-2 -6q-2 -12 -2 -18l1 -5
v-3q0 -2 1 -4q0 -8 4 -12l2 -4q2 -4 2 -9q0 -3 -0.5 -7t-0.5 -5q-1 -1 -1.5 -4t-0.5 -4l-2 -6q-5 -14 -6 -15q-2 -4 -3 -5q-2 -2 -15 -5q-1 0 -4 -5l-4 -4l-16 -4q-18 -5 -28 -5z" />
    <glyph glyph-name="U" unicode="U" horiz-adv-x="731" 
d="M261 -9l-7 -2q-40 -1 -68 13q-24 11 -32 21l-8 10q-34 23 -63 70l-16 25q-5 9 -28 70q0 3 -1 5t-1 4q-1 1 -1 2t-0.5 1.5t-0.5 1.5l-2 3q-24 82 -24 177q0 3 -1 6l-4 9l-3 27q0 4 2 8q1 1 1 7l-2 3v33l1 9q1 -2 3 0q-3 4 -3 17v10q2 26 2 39l-1 12v6q0 3 1 6v9q-1 1 -1 5
t1 7v6q1 5 1 13q0 9 -1 13v5l-3 12l-2 4q-1 8 4 40l5 19q2 6 2 7q1 1 9 1q2 0 3 4l3 4q3 -1 10 -1q15 -2 22 -6q3 -1 6 -8q1 -7 3 -7v-3q-2 -2 0 -2h1v-5h1v-4q4 -20 4 -126l1 -3v-17q0 -3 1 -6v-16q-1 -4 -1 -9q-1 -5 -1 -13v-14q0 -10 -1 -13v-9q-1 -5 -1 -11q0 -3 1 -9.5
t2 -18.5l2 -24q3 -23 4 -27q2 -24 2 -25q6 -53 7 -56q0 -1 2 -5q1 -2 1 -5v-6q0 -4 2 -12q0 -1 0.5 -2.5t1.5 -2.5q1 -2 1 -4v-2q-1 -1 -1 -3l6 -26h1l1 -7q8 -36 26 -73l9 -20l2 -1l2 -7q18 -33 20 -35q3 -6 8 -12q36 -32 95 -32q40 0 85 15l18 16q3 4 8 9l5 5q11 16 19 29
l10 16q10 22 28 108q11 53 12 70q1 2 1 8q-1 5 2 15q2 7 2 17v12q0 3 1 4t1 3l3 39h-2v5l3 6q2 14 2 51q0 44 -2 71q-1 3 -1 19v17l-3 4q0 4 1 6t1 5v63q1 3 1 15q-1 7 -1 15q1 5 1 14q-2 18 2 22v2q-1 1 -1 3h3v2q-1 1 -1 3q1 0 2 1q3 1 4 6q2 2 4 3q1 1 1 2l1 1q10 7 25 7
q3 0 4 -1l7 -1q8 -2 9 -4q2 0 3 1h2l2 -2q2 -2 3 -2l13 -6q20 -8 21 -15q12 -36 12 -99v-43q3 -27 3 -43q1 -7 1 -25q0 -22 -1 -35q-1 -27 -1 -51v-6q0 -6 -1 -7q0 -4 1 -7t1 -5q-5 -84 -24 -166q-6 -26 -31 -75q0 -3 -1 -6t-1 -9q-1 -3 -1 -5q-2 -7 -9.5 -20.5t-12.5 -16.5
q-2 -1 -8 -7v-4q-18 -22 -28 -31l-9 -6l-2 2q-3 -11 -24 -21q-38 -19 -63 -29l-6 -2q-2 0 -10 -3q-1 -1 -3.5 -1.5t-3.5 -0.5l-17 -2q-3 0 -4 -1h-8q-1 -1 -4 -1q-14 -1 -25 -4h-8q-11 -2 -16 -3z" />
    <glyph glyph-name="V" unicode="V" horiz-adv-x="753" 
d="M257 2v-1h-1l-2 2h-1l-2 1q-29 19 -64 90l-2 3q0 1 -2.5 7.5t-3.5 8.5q-1 1 -3 6q-3 4 -6 16l-3 9l-15 54q-4 19 -13 42q-9 24 -10 29q-19 55 -20 62q-18 61 -19 71l-3 7q-2 4 -2 7l-3 14q0 2 -1 2v6q-1 0 -1 2l-3 7l-2 8v3q-5 17 -9 34h-2l-1 10q-9 40 -29 101
q-1 3 -4.5 15.5t-3.5 13.5l-2 2q-1 1 -1 5v3l-12 46q0 1 -2 11q-3 7 -3 10l-2 8l-3 9q-1 4 0 5v1l-1 2h1v2l-1 1l2 2l2 6v1q1 2 6.5 6t6.5 3q2 0 4 1q5 0 6 -1l1 1h3q1 -1 2 -1l8 -2q14 -2 15 -6q15 -22 29 -72q7 -25 13 -42l29 -103q3 -3 3 -10q0 -1 1 -3.5t2 -4.5l1 -2
q3 -11 22 -76l18 -63l6 -25q9 -40 10 -45q0 -4 7 -13l2 -3q5 -11 9 -30q2 -6 2 -8q-1 -2 1 -9l2 -2q3 -10 5 -16q4 -14 5 -19l2 -9q-2 0 -3 -1q7 -5 11 -25q6 -24 19 -51q0 -1 2 -5q1 -2 1 -4q3 -3 4 -6q1 -1 1 -3q0 -4 2 -6l2 2l-1 1v1h3q1 1 1 2v1h3q0 2 2.5 8t7.5 20
t10 27l-1 3l6 14q0 3 3 12l2 3q1 3 2 4q2 5 3 6l16 34l10 17l9 28q2 5 3.5 10t2.5 7.5t1 3.5q1 1 7 22q9 29 22 58q2 6 6 15.5t5 12.5l2 6q0 6 4 13l3 3q3 7 5 15q0 4 3 7l2 2q5 11 11 29h-1q-1 3 3 7l2 1q7 15 35 94l11 28l-1 4q1 1 3 5q2 2 2 3q7 20 24 51q4 17 12 27
l12 26q2 3 5 6q1 0 1 2l1 3l1 -1h1q0 4 2 6h2q2 0 2 1q2 1 4 3t5 2q1 0 2 1v1q3 1 14 -1.5t11 -4.5l5 -5q5 -5 6 -7l2 -2h1q1 0 1 -3l1 -3l3 -6l4 -5q10 -15 10 -21v-2q-11 -45 -30 -87q-9 -20 -13 -31q-3 -5 -6 -17l-5 -15q-25 -60 -30 -80q0 -3 -1 -4q-3 -6 -3 -10
q-1 -2 -1 -4q-11 -32 -25 -69q-19 -45 -19 -48q-7 -20 -19 -40q-1 -3 -3 -6t-3.5 -5t-1.5 -3v-5q-1 -4 0 -8v-3q-2 -13 -8 -25q-1 -2 -4 -5q-4 -2 -5 -6l1 -4q-3 -6 -5 -12l-7 -15l-5 -7q-2 2 -3 1q3 -7 -6 -23q-11 -21 -19 -46v-2q-3 -7 -3 -9q0 -5 -3 -9q-3 -3 -3 -4
q-5 -11 -6 -21v-3q-1 -2 -1 -5t1 -5t1 -4q0 -5 -9 -20.5t-13 -15.5l2 -2q2 -2 0 -2q-1 -1 -6 -1l-4 -1q-14 -2 -19 -2q-2 0 -5.5 0.5t-4.5 0.5q-2 1 -13 -2q-10 -3 -25 -3q-1 -1 -5 0h-6l-1 1h-2z" />
    <glyph glyph-name="W" unicode="W" horiz-adv-x="1050" 
d="M264 6q-24 0 -44 20q-5 4 -8 7.5t-6 8t-4.5 7.5t-4.5 9.5t-4 10t-5 13.5t-6 16l-21 50q-1 3 -5 9q-5 8 -9 21l-2 8q-1 1 -1 2.5t-1 2.5l-4 9l-7 14q-1 2 -1 6q0 3 -1 4q-9 28 -16 48h-1l-3 15q-3 11 -47 153q0 2 -2.5 10.5t-4.5 15.5q-1 4 -7 22l-2 5q-3 5 -3 14
q-7 20 -15 50q-16 53 -20 64l-8 22q-1 5 -16 46q-4 9 -4 14q0 1 -1 2q0 1 -1 3l-2 4h1l-1 2q-1 1 -1 3q-3 4 -2 7v2l-2 8l-2 4q0 1 1 3q0 2 -1 3v2q0 1 3 4t6 5l3 2l6 -3q3 -2 9 -8q1 0 2 1q1 0 4 -3.5t3 -4.5q20 -16 27 -23q4 -4 10 -12q30 -60 73 -201q1 -7 8 -26
q11 -33 22 -71l25 -85l3 -7q0 -1 1 -4l1 -3l3 -8l2 -6q12 -33 70 -173l1 2v2l2 6v2l1 2q0 2 0.5 4t2 4.5t1.5 3.5l1 3q0 -5 1 -5t1 4q-1 11 11 49q25 85 35 124l4 14q5 14 6 21q1 5 9 28l2 6t2 5.5t1 3.5q10 29 18 62l9 38l2 10q6 22 21 58t26 47q6 6 6 7q1 1 8 -2l2 1l2 2
l4 2l2 -2q20 9 23 5q2 -2 7 -3q8 -3 11 -8h2l2 1q1 0 3 -3q1 -4 3 -4q5 -4 15 -9q21 -14 24 -21q4 -10 15 -40l32 -86q24 -67 42 -99q13 -29 27 -71q1 3 5 7t5 10l-1 5q4 8 8 21q7 24 8 26l7 12q0 -1 2 -3q0 1 1 2q-2 12 10 41q18 42 33 90l4 9l3 9q0 5 4 15q2 6 5 11
q11 20 23 56l3 9q5 12 6 21q0 7 1 8q8 22 29 53.5t40 50.5q2 2 11 10q1 1 4 1l6 -2l2 -2q0 -1 8 5l8 6l13 -15q10 -11 13 -22l1 -3v-2q0 -3 -2 -13q-4 -12 -4 -14l-4 -7v-1h1q0 -1 -1 -2l-2 -4q-1 -1 -1 -2h1l1 -1q-4 0 -4 -8q-19 -57 -38 -107q-25 -68 -37 -103v-5
q0 -1 -1.5 -5.5l-2.5 -7.5q-6 -10 -8 -24l-3 -12q-1 -10 -11 -26l-11 -31q-2 -6 -5.5 -16t-5.5 -14q-2 -6 -6 -14q-24 -55 -41 -151q-13 -64 -23 -79q-20 -28 -99 -31q-7 0 -15 14l-2 3q-3 12 -3 14q0 1 -0.5 2.5t-1.5 2.5q-9 29 -11 30v11q-11 45 -13 59l-1 -1h-1
q-2 2 -2 7v11q-9 57 -43 131q-14 39 -18 43l-3 4q-2 6 -2 8l-2 6q-17 41 -35 101q-3 11 -6 18q-1 3 -4 14q-42 -143 -66 -223l-5 -25q-4 -11 -6 -20q-3 -10 -4 -15q-4 -16 -9 -33l-6 -17l-19 -71l-3 -12q-4 -12 -5 -16l-1 -10v-3l1 -5v-3q2 -10 2 -16q0 -17 -14 -27.5
t-31 -10.5z" />
    <glyph glyph-name="X" unicode="X" horiz-adv-x="655" 
d="M48 3q-1 1 -3 2t-5.5 2.5t-5.5 2.5q-19 8 -29 19q-5 5 -5 24l3 5h-1l-1 1l2 5l-1 1q-1 1 1 3q1 1 1 3q11 44 65 136v3q2 4 6 8l9 15q3 7 10 15l4 4l1 3q3 6 14 18q1 2 6 8.5t7 9.5q5 4 15 17q10 15 17 27l14 21q2 2 6 9t7 11q3 5 7.5 12t5.5 8q-1 3 -2.5 6.5t-2.5 4.5
q-5 5 -7 10l-3 7q-1 4 -6 11q-2 4 -3 5l-2 3q-1 1 -1 4q0 1 -1 2l-14 27v-1h-1l-3 9q-6 13 -44 84q0 1 -2 3.5t-3 4.5l-4 10q-3 6 -5 8l-2 2q0 1 -2 4l-1 4q-1 3 -5.5 11.5t-9.5 18.5l-10 20q-1 3 -6 13q-1 3 -3.5 7t-3.5 6q-1 4 -6 12q-10 19 -11 22l-3 5h1q0 2 -1 3
q-2 2 -2 3l1 1v2l-2 9v2l-1 1q1 3 5.5 7t6.5 3h4q5 0 8 -3l1 1l3 -2l3 -1q7 -3 10 -4q16 -5 19 -11q50 -63 65 -109l9 -14q2 -6 8 -14q24 -52 38 -71q0 -4 4 -8q1 -4 5 -8q11 -18 27 -49q1 1 3 6q1 3 5.5 8.5t6.5 5.5q0 1 5 8l3 6q1 3 5 5l2 2q9 11 18 26h-1v1q0 4 5 6l1 1
q22 26 53 83q14 19 16 26v4q2 6 6 6q13 24 29 48l15 25l6 11q6 13 13 20l1 2q1 1 1 3h1l1 -1v3q1 3 4 3h2q2 1 5 4q2 2 5 3l1 1q4 0 14 -2.5t10 -5.5q1 0 5 -5t4 -8q0 -1 2 -1t2 -1v-3q0 -3 1 -4q0 -1 1 -2.5t2 -4t2 -4.5q9 -19 6 -25q-13 -38 -47 -88q-17 -23 -18 -26
l-18 -31q-1 -1 -26 -37q-19 -27 -23 -35l-3 -3q-7 -7 -7 -13q-9 -14 -51 -73l-21 -30q7 -17 9 -19l10 -10q6 -8 15 -21q2 -5 3 -6q0 -3 3 -7l2 -2q7 -11 9 -13l13 -21l-2 -2q7 -3 18 -20q14 -24 34 -50q4 -1 7 -10l3 -2q1 -1 8 -11q2 -6 3 -7q8 -15 17 -26l2 -2q1 -2 2 -3
q2 -6 9 -10l4 -4q14 -21 22 -51q6 -20 4 -27q-3 -3 -7 -4q-5 -2 -8 -6q-1 -2 -6 -7q-16 -16 -22 -10l-5 5l-5 5q-3 4 -3 5q-3 0 -3 8q-1 0 -2 -1v3l-2 2v3h-1q-1 0 -1 2l-33 57q-22 37 -38 62l-2 1l-14 21q-5 4 -10 13q-1 1 -1.5 2.5t-1.5 3t-1 2.5q-17 23 -23 34l-11 18
q-2 3 -7.5 10t-8.5 12l-17 22q-5 5 -5 8l-4 -12q-1 -2 -1 -4q-8 -16 -21 -29q-3 -1 -6 -6l-1 -3q-6 -9 -8 -13q-2 -3 -11 -15l-6 -7q-2 2 -3 2v-2q0 -8 -12 -23q-17 -22 -31 -51q-1 -1 -1 -2l-3 -6l-2 -2q0 -5 -2 -8q-1 -1 -2.5 -3.5t-2.5 -3.5l-4 -6q-5 -8 -11 -26
q-3 -3 -3 -11q-1 -3 0 -7v-5q-6 -19 -10 -25q-2 -2 -4.5 -6t-4.5 -7l-2 -3q-8 -15 -13 -20q-4 -3 -6 -6q-15 -7 -24 -5z" />
    <glyph glyph-name="Y" unicode="Y" horiz-adv-x="623" 
d="M139 -4q-5 -3 -23 3.5t-28 14.5q-5 4 -7 10q-1 3 -1 25q6 94 70 218q22 43 32 66l12 29l-7 6q-21 18 -69 106.5t-62 123.5q-10 17 -33 74t-23 69q0 15 30 15h16l7 -15q1 -3 9 -19q7 -19 10 -24q5 -12 19 -41.5t21 -44.5q8 -17 16 -33.5t11.5 -24.5t4.5 -10q3 -7 11 -21
q4 -5 16 -29q9 -21 25 -50.5t19 -30.5q1 -1 5 5t10 18q16 32 28 54q17 29 17 31t5 7q7 7 28 48q31 56 52 88q20 30 33 53q12 23 20 31t20 8q15 0 24 -7t19 -27q7 -13 7 -19q0 -3 -3 -11q-8 -26 -47 -86q-28 -42 -100 -192q-39 -77 -40 -78q-11 -19 -11 -27q0 -14 -16 -37
q-5 -10 -11 -24q-9 -20 -11 -20q-3 0 -3 -6t-11 -28q-10 -19 -16 -40q-6 -22 -11 -32q-6 -14 -9 -40q-2 -24 -12 -47t-18 -32q-4 -5 -9 -5h-3q-9 2 -13 -2z" />
    <glyph glyph-name="Z" unicode="Z" horiz-adv-x="624" 
d="M159 4v-1q-3 0 -6 1q-30 2 -54 2q-5 0 -9 1h-9q-2 0 -3 1h-2q-5 0 -7 1l-3 -3l-45 4q-12 9 -17 17q-2 0 -2 3h-1v5q0 5 1 10q1 4 1 8l3 5h-1q-1 0 -1 1l2 2q1 1 1 3h-1q-1 0 -1 1l1 2q2 2 2 3q7 27 58 134v3l3 6l2 4q1 1 2 3l1 3l3 8q2 3 9 15l5 7q23 35 23 36t1.5 2.5
l3 3t2.5 3.5q4 4 6 8l15 23q4 7 14 24l14 23q7 12 14 21l32 48l3 6q1 5 7 11l3 3q0 1 1 2.5t2 2.5t1 2q4 5 4 9l5 4q3 4 8 12.5t8 12.5l-1 1h-1q0 4 5 6l1 1q17 24 47 83q0 1 1.5 3t3.5 5t3 6q4 6 7 12l-1 3q2 4 3 5l3 2q5 10 29 48q0 1 1.5 2.5t3 4.5t2.5 6q5 10 7 13l7 11
l-50 -3l-1 -1h-12q-3 -1 -4 0h-10q-3 1 -10 1h-11q-2 0 -4 1h-33q-4 0 -11 -0.5t-8 -0.5q-9 0 -25 2h-19q-3 0 -4 1h-13l-1 1q-12 0 -15 1v-1l-5 1q-2 1 -48 4q-4 0 -8 1t-7 1h-2q-1 0 -2 1h-2q-2 0 -28 5l-7 2q-4 1 -8 1l-19 6h-2q-1 0 -1 1h-1q-2 0 -2 2h-1l-5 4v5
q0 4 1 4l2 2q2 2 4 3v1h3q1 1 5 3q5 4 10 4q17 0 45 -6l16 -4h9q4 -1 7 -1q33 -4 40 -4h9q16 0 30 -1q28 -2 29 -2q3 -1 11 -1q3 -1 10 -1q3 -1 8 -1q3 0 6 1h2q3 1 13 1q6 -2 7 -2l2 1h7q3 -1 9 -1l5 -1l-1 -1q2 1 9 1h5h4l7 -1h4h4l7 1h4h9q2 -1 4 -1q2 1 7.5 1.5t8.5 0.5
q2 0 4 1l8 2q1 1 3 1h35q0 1 1 1l1 1q3 0 7 -1q22 2 31 -14q2 -2 0 -3l-6 -3l3 -2l1 -3v-4l6 -11q6 -11 6 -20v-4q-21 -60 -60 -114q0 -1 -2.5 -4.5t-3.5 -5.5l-4 -10q-4 -8 -6 -10l-22 -37q-15 -24 -21 -35l-2 -3q-1 -2 -3 -4q-1 -1 -1 -2q-1 -2 -1 -3l-2 -4
q-10 -20 -66 -102q-14 -21 -25 -33q-2 -2 -4.5 -5t-4 -5t-2.5 -3l-1 -2q-1 -1 -2 -3v-3q-1 -1 -1 -2v-4q-2 -6 -11 -22l-5 -5q-4 -2 -5 -6v-3q-1 -2 -6.5 -12t-8.5 -15l-5 -7q-2 2 -3 2q2 -8 -9 -25q-17 -25 -27 -52q-2 -6 -6 -10q0 -3 -2 -9q-1 -5 -9 -13q-7 -12 -12 -27
q-1 -1 -1 -2t-0.5 -1.5t-0.5 -1.5q-3 -12 -3 -14v-6q-4 -15 -18 -30h4q2 -1 5 -1l44 -2h45q28 0 35 1h14q3 -1 11 -1h10l8 2h1q4 1 16 1h5q1 -1 4 -1l2 1h24v-1q2 1 10 1h6q12 0 34 2h6q2 0 3 1h7q1 -1 4 -1q11 0 16 1q1 1 3 1h3l7 2q3 1 10 1q10 0 16 -1l14 -2q1 -1 4 -1
q1 -1 1 -5l6 -2q-1 -1 -1 -5q-2 -9 -4 -11t-5 -3l-5 -1h-3v-1h-3h-1h-2q-14 -3 -78 -6l-2 -1h-14q-2 -1 -5 -1h-47q-10 0 -17 -1q-8 -1 -15 -1l-32 -2h-39q-1 -1 -4 -1q-2 0 -3 1h-8q-2 -1 -4 -1h-2q-1 0 -2 1h-19zM408 721v2h-1l-1 1h-2q3 -3 4 -3z" />
    <glyph glyph-name="bracketleft" unicode="[" horiz-adv-x="358" 
d="M145 -190h-4q-45 -1 -83.5 43t-42.5 89l-2 3q-1 2 -1 10v11q0 4 -1 8q-2 8 -2 10q0 7 1 12v12q1 8 1 31v29q0 9 1 16v17q0 9 -1 27.5t-3 39t-2 23.5q-1 22 -2.5 46.5t-2 34.5t-0.5 13v37q0 20 1 35v35q0 7 -1 11q-1 3 -1 10q0 2 2 12q1 5 1 9v25q-1 3 -1 6q0 4 1 6
q1 1 1 4q0 2 0.5 5.5t1 9t0.5 9.5q0 20 1 25h-1l-2 1q0 5 2 11l1 3q4 24 7 77q3 54 4 59l4 20q3 12 3 15l-2 4q5 5 5 9q11 32 26 47q9 13 44.5 21t58.5 8q9 0 12 -1h9v-1h9h1l2 -2h1l11 -2q0 -1 1 -1l1 -1q4 -2 4 -8q0 -3 -1 -3q0 -2 -3 -3q-2 -2 -8 -4l1 -1l-1 -1l-3 -1
q-3 -1 -5 -1l-39 -13q-17 -3 -17 -12q0 -7 7 -15q2 -6 -2 -23q-5 -19 -5 -36q-1 -8 -1 -16q-6 -93 -6 -107v-7q-1 -3 -1 -7t1 -7t1 -7v-202q1 -6 1 -19t-1 -19q0 -6 -1 -10v-18q-1 -4 -1 -10q0 -5 -0.5 -11t-1 -10t-0.5 -7q0 -8 5 -20l2 -6q3 -17 3 -44q0 -8 -2 -12
q-2 -6 -2 -13l3 -4q0 -13 1 -23v-28l-2 -13q-2 4 -4 2q-2 0 0 -2q5 -7 5 -56q0 -27 3 -51q1 -1 1 -6v-6q0 -2 2 -4q1 -1 1 -4v-4l-2 -4q0 -11 4 -31q0 -3 1 -4v-4q-16 0 -16 -6q0 -8 15 -12h2q16 -2 25 -2h14q4 -1 10 -1q1 1 2 -0.5t2 -4.5q0 -1 6 -1h5q-2 -5 0 -9
q0 -11 -4 -16q-5 -4 -21 -8l-9 -2h-5q-3 -1 -5 -1v-1h-10q-1 0 0 -1h-3q-1 -1 -4 -1zM143 -130q-2 2 -2 6h3q3 0 -1 -6z" />
    <glyph glyph-name="backslash" unicode="\" horiz-adv-x="627" 
d="M410 -177q-8 0 -25 17q-3 0 -3 7q-1 0 -2 -1l-2 3l-1 3q-1 1 -1 0l-1 -1l-2 4q-1 3 -2 3q-19 27 -29 46q-16 27 -29 55q-5 9 -15 31l-13 26l-3 3q-3 7 -4 10l-9 17q-3 4 -8 19q-1 7 -3 10q-15 39 -18 48q-3 16 -8 24q-7 22 -28 59q-28 61 -42 97q-10 27 -11 31
q0 1 -1.5 3t-2.5 4q-5 7 -5 14q-1 8 -5 16q0 1 -1 2.5t-2 2.5t-1 2l-2 3q-2 2 0 5q0 2 -1 3l-12 35l-1 -1h-1q-2 2 -2 9v2q-10 37 -40 106q0 2 -9 25q-1 1 -2 4t-2 3l-3 3q-2 2 -2 6q0 3 -1 4q-8 19 -25 64q-2 4 -6 16q-5 12 -7 19q-13 23 -13 45v2l-2 4l-1 3q0 1 1 1h1
q0 2 -1 4l-2 4l3 4q1 3 1 7q-1 3 2 6q1 1 1 2v2q2 3 11 8t13 5l2 -1q1 -1 8 -1q8 -2 10 -5q2 0 3 1t2 1q0 -2 3 -3l3 -3l15 -5q20 -7 25 -13q1 -2 4.5 -8.5t5.5 -10.5q6 -14 10 -22q7 -14 9 -19q7 -14 18 -39l15 -37q5 -10 10 -18l9 -19q8 -15 22 -52q13 -36 16 -43
q1 -1 1 -2q1 -2 1 -3q1 -6 5 -11l2 -4q32 -68 53 -134q8 -18 17 -49q1 -5 3 -12l2 -7q0 -2 3 -5l9 -9q6 -9 14 -29q2 -7 1 -9q-1 -3 1 -9l4 -3l14 -36l2 -11q-3 1 -4 -1q6 -4 10 -10q4 -7 5 -14l1 -4q9 -30 28 -66l3 -6q5 -10 6 -11q3 -3 6 -14l2 -8q6 -16 17 -32
q2 -6 8 -12q1 -2 7 -6q4 -4 4 -5q12 -15 16 -32q3 -12 4 -15l2 -10q8 -30 8 -32q0 -9 1 -12q0 -4 -9 -8q-1 -1 -3 -1q-1 -1 -1 -9l-1 -8q-10 -3 -16 -5q-22 -8 -37 -7z" />
    <glyph glyph-name="bracketright" unicode="]" horiz-adv-x="408" 
d="M117 -204q-48 0 -93 9q-9 3 -12 3q-3 2 -2 8l-4 1q-1 1 -2 1l-4 2q0 1 0.5 2.5l1 3t0.5 3.5q1 8 8 15q7 4 22 4q4 -2 9 0h5q3 -1 5 -1l1 1h4q3 -1 6 -1q1 0 0 1h6q3 -1 5 -1q16 0 35 4q32 5 40 5q7 0 10 -1q-42 18 -43 94l-2 4v38q-1 5 -1 11q0 12 3 27l3 30q0 6 0.5 17
t1.5 15q0 4 1 7l2 18q1 3 1 7v60q2 96 8 165q0 7 -1 11q-1 10 2 24q1 5 1 9v27q-1 4 -1 7t2 7q3 7 3 62h-2q-1 3 2 14l1 3q2 36 2 57q0 43 -5 108q-1 3 -1 15q-1 6 -1 15q-1 4 -1 9l-3 3q0 4 1 6v3q-1 6 -1 15q0 14 5 16q12 5 12 13l-3 3q-11 4 -46 4h-2l-5 -1h-2h-2l-4 1
h-2l-5 -1h-4v1h-5l-4 -1q-1 0 -2 1h-3q-10 1 -10 2h-4q-1 1 -3 5.5t-1 5.5q2 0 3 3q2 3 7 5q-1 1 -1 2q6 0 9 3q1 0 14 6t18 8q29 9 87 9q24 -1 49 -16q16 -11 20 -37q1 -3 1.5 -12.5t0.5 -13.5t0.5 -10t1 -9t0.5 -5q6 -55 6 -93v-38q0 -58 1 -67v-9q-1 -4 -1 -9q0 -6 1 -10
t1 -8q0 -28 -8 -223q-3 -30 -11 -81q0 -3 2 -6v-3q1 -1 1 -2l2 -4q1 -4 1 -14v-8q-1 -7 -3 -10q-3 -5 -3 -11l2 -5q-1 -5 -1 -21q0 -4 -0.5 -13t-1.5 -13l-2 -13q-2 3 -4 3q-3 0 -1 -2q4 -5 4 -21q0 -11 -1 -18q-2 -16 -2 -48q0 -26 1 -39v-9q-1 -4 -1 -9q2 -6 2 -13v-5
q-1 -1 -1 -4q0 -1 2.5 -12.5t4 -22.5t1.5 -18q-1 -17 -15.5 -28.5t-31.5 -11.5q-14 0 -22 -3t-9 -3q-19 -4 -46 -4z" />
    <glyph glyph-name="asciicircum" unicode="^" horiz-adv-x="958" 
d="M459 56q-4 -1 -16 4q-3 1 -5.5 2.5t-3.5 1.5l-2 1q-2 0 -3 3q-2 2 -3 2l-1 -1l-6 5l-1 -1v-1q0 1 -2.5 3t-3.5 2q-1 1 -14 7t-30.5 15t-37.5 19q-78 38 -106 50l-4 1l-8 4l-8 4q-11 7 -18 9q-2 1 -5.5 2.5t-5.5 2.5l-23 15q-65 44 -108.5 116.5t-43.5 147.5q-2 48 24 102
l9 17q4 6 10 10q3 1 3 3q6 5 15 16q5 5 9 6l3 2q22 14 35 20v1l11 4q74 20 121 18l41 -8h5l12 -5q90 -44 125 -121q56 87 120 128l4 1q30 7 49 7q48 0 92 -12q49 -15 82 -46.5t37 -79.5q1 -6 1 -18q0 -29 -9 -69l-5 -18q-2 -6 -4 -10l-9 -22q-3 -11 -4 -11q-1 -3 -5 -7
l-21 -39v-1h1l-7 -9q-56 -76 -79 -103l-16 -16q-7 -8 -13 -14l-3 -4q-3 -3 -5 -4l-4 -4q-59 -55 -91 -79q-2 -2 -11 -9.5t-13 -10.5q-2 -1 -5.5 -3.5t-5.5 -3.5v-1q-3 -1 -5 -3q-1 0 -3.5 -2t-2.5 -3l-1 1l-5 -4q-1 -1 -2 -1q-12 -7 -21 -9zM489 113q24 24 54 50l66 66
q53 60 85 118q0 4 5 9q1 1 4 10q32 80 32 139q0 21 -6 57q0 2 -1 3l-6 7q-8 8 -12 20l-7 12l-3 2q-14 11 -44 26l1 1q-5 0 -20 3t-19 3q-9 1 -25 1q-29 0 -45 -9q-3 -3 -6 -8q-5 -8 -10 -13l-6 -6q-9 -11 -25 -35q-9 -15 -10 -16q-1 -3 -5 -11q-3 -6 -3 -7q-14 -26 -22 -39
l-16 -26q-3 -6 -3 -11v-7l-3 -10q-2 -6 -10 -10.5t-14 -4.5q-3 0 -4 1l-2 4h-2q-3 0 -4 1q-6 2 -11 9q-1 1 -2 0q-2 -2 -3 -1q0 1 -3 5t-4 4q-2 2 -21 14q-17 10 -22 18q-34 61 -48.5 82t-36.5 38q-20 15 -51 15t-48 -11q-10 -6 -11 -11q-19 -40 -19 -83q0 -12 1 -18l6 -77
q0 -7 10 -17l3 -5q8 -19 14 -38q2 -5 0 -8q-1 -3 2 -8l2 -2q2 -5 17 -31l4 -9l-2 -3q6 -1 17 -14q22 -29 70 -53q6 -6 14 -8l6 -2l6 -3q9 -7 37 -20t38 -15q2 -1 5.5 -1.5t5.5 -0.5l7 -2q18 -7 55.5 -29t44.5 -33q1 0 3 -2z" />
    <glyph glyph-name="underscore" unicode="_" horiz-adv-x="553" 
d="M321 -78q-3 0 -6 2h-19q-12 0 -16 1q-4 0 -7 1h-26q-9 -1 -18 -1q-24 -1 -39 -1q-22 2 -43 2q-1 2 -4 2q-2 -2 -4 -2q-4 0 -5 2h-17q-1 0 -2 1h-2q-9 2 -21 2v-2l-7 3q-5 0 -26 1t-39 2q-5 0 -9 1h-10l-2 -1q-2 0 -3 1h-3l-36 4h-8q-8 0 -9 2l-17 1q-5 0 -6 2h-3v1h-3
q-1 0 -2 1v2q-5 2 -5 4h-2q-2 6 -2 13q0 4 1 4l1 4l3 6q1 4 4 4q1 3 10 17q1 0 3 2q1 1 2 1q19 5 60 3q10 -2 20 -2h50q13 -1 28 -1h3q1 -2 3 -2h4l2 2q26 0 49 -2l37 -2l42 -6q2 0 4 1q1 2 4 2l3 1q3 1 8 1q7 0 10 -1q5 0 6 -1q1 -2 5 -2l2 2h9q5 -2 12 -2l6 -1v-3
q3 3 12 3h6q7 -1 19 -1q13 0 19 1h4q2 0 3 1l2 1q3 1 4 1h4q2 -2 4 -2l18 3q3 0 6 3q2 0 4 3q1 1 3 1q3 2 26 2h13q2 -2 5 -2l2 -8l7 -3q0 -7 1 -11v-10q0 -7 -1 -11q-2 -6 -5 -9l-5 -4h-3v-2l-2 -1h-1v-1h-3q-25 -14 -88 -20l-2 -1h-17q-2 -2 -5 -2z" />
    <glyph glyph-name="grave" unicode="`" horiz-adv-x="168" 
d="M111 541h-3l-4 1h-4v2h-1q-1 -1 -1 0h-1q-4 2 -4 5l-3 3q-1 1 -1 3l-2 2q-5 6 -7 12l-1 1q-1 0 -1 1h1q0 4 -3 7q-3 16 -9 21l-2 1h1l1 1l-4 7h-3v1q0 3 -1 4v1q-3 0 -3 3q0 4 -4 8q-1 2 -7 13q-1 5 -3 7q-1 1 -1 4l-3 4q-1 2 -1 4l-5 4q-6 6 -8 9l-2 2q-3 1 -3 3
q0 3 -2 5l-1 1l1 2q-1 0 -2 2q-1 3 -3 4l-8 15q-4 8 -4 14v2h1l-1 2h1l-1 1v1q1 2 3 4q2 4 3 4q7 5 21 12q8 2 10 4h4l3 -1q8 3 9 3q1 -1 4 -1l7 -3l2 -2q1 0 3 -2q4 -2 4 -6l-2 -2v-6q0 -3 3 -6q0 -1 1 -2l3 -2v-3l1 -1q6 -10 10 -14q4 -3 1 -6l3 1q1 0 2 -2q5 -5 5 -7v-1
q0 -1 2 -1l2 -1q4 -3 4 -7v-3l-1 -2q2 -2 4 -3q4 -3 8 -9l5 -9q2 -2 4 -6t3 -5q3 -3 6 -9v-3q0 -1 1 -1v-2l5 -10q6 -8 6 -10q4 -8 4 -9l5 -7q10 -13 10 -26q0 -3 -4 -3q-1 -1 -8 -5l-7 -4q-1 0 -2 -1q-1 0 -2 -1h-3q0 -1 -5 -3l-5 -1q-3 -3 -21 -3z" />
    <glyph glyph-name="a" unicode="a" horiz-adv-x="658" 
d="M473 8l-9 -6q-5 1 -17 1q-20 0 -39 5q-4 0 -8 6l-7 5q0 1 1 2q0 2 -2 2h-1v3h-2v3q-6 14 -8 43q-95 -48 -124 -56q-31 -8 -79 -10q-53 -1 -102 33q-29 21 -42 38q-1 0 -7 11q-14 14 -20.5 57t-6.5 76q0 44 10.5 74t37.5 69q1 1 10 16l2 3q16 19 30 29q9 5 11 6q7 3 9 5
l3 3q24 14 45 21q2 0 11 3h3v-1q20 8 53 8q44 0 91 -10q3 -1 17 -7t15 -7q13 -8 33 -28l2 14q1 1 1 7q0 7 1 8q0 4 1 7q0 12 3 13v3l1 1h1v1q-2 2 2 3q2 0 2 1l2 3l4 2l2 2q8 6 27 6h9l9 -2q0 -2 2 0h3l4 -2q5 -2 13 -3q10 -2 14 -3q5 -2 7 -5q8 -23 7 -52q0 -3 -0.5 -7
t-0.5 -6q0 -7 2 -17q1 -4 1 -9q1 -5 1 -24q0 -15 2 -23v-2q-1 -1 -1 -3l2 -3q0 -2 1 -2q0 -24 1 -69q0 -22 -6 -34l2 -4l3 -3q3 -6 3 -12l-1 -4v-2q0 -2 -2 -4q-3 -1 -3 -4l2 -2v-8q0 -7 -1 -10q0 -1 -1 -3l-1 -2h-5q6 -4 6 -8q0 -3 -1 -4l-1 -3q-3 -11 -3 -21q0 -8 1 -12
v-3q-1 -2 -1 -4q0 -1 1 -2t1 -3q0 -5 -3 -8q-1 -7 2 -16l2 -7q0 -3 3 -4t3 -3v-15q-1 -1 -3 -7l-3 -4q-3 -11 -11 -19q-1 -1 -16 -1zM184 35h16q50 7 93 27q19 7 47 23q7 2 14 6q4 2 10.5 5t10.5 5.5t6 2.5v7l-2 2q-2 2 0 5v9q-1 2 -1 5q0 2 1 5q1 2 1 4q1 2 1.5 6.5
t0.5 6.5t0.5 5.5t1.5 5.5q3 3 3 11v10q-2 14 -2 20q-3 12 -3 30q-1 1 -1 4v4h-1q-1 0 -1 4v4h-1q-1 0 -1 4q0 3 -1 4q-38 109 -85 154l-4 1q-3 1 -8 3.5t-7 3t-5.5 2t-6 2t-6.5 1t-8.5 1t-10.5 0.5h-15h-5q-53 -5 -75 -27q-66 -56 -72 -187q0 -5 1 -8t1 -7v-7q-2 -5 0 -7
q0 -5 4 -20v-4q-2 -1 0 -3q3 -14 9 -32h1l2 -9q14 -33 39.5 -56.5t58.5 -25.5z" />
    <glyph glyph-name="b" unicode="b" horiz-adv-x="607" 
d="M84 -5h-5q-3 2 -19 10q-13 5 -26 14q-2 1 -6 10l-2 4t-2 3l-1 2q-1 2 0 3v2h-2v3l1 2h-1q-2 0 -2 3l1 2q-6 21 -11 95q-3 34 -3 47l-3 2v10q0 4 -2 16q-1 3 -1 7q0 8 3 17q0 17 3 41v7l2 6q0 25 -1 38l-4 45q-2 26 -2 30q0 18 1 31q1 11 1 32l-2 3v4q0 4 1 7q1 2 1 4
q0 3 -0.5 8t-0.5 7q-1 1 -1 3q0 1 2 3q1 1 1 3v29h-2q-1 1 1 7l1 2q1 7 1 33q0 36 -1 60q0 8 1 15v14l-2 3q0 3 1 5t1 4q1 20 6 55q0 19 2 29q0 1 0.5 3t1 5t0.5 6l3 16q2 7 3 8v6h2v6q4 2 5 2q1 1 1 2t0.5 1.5t0.5 1.5q1 3 4 4q1 0 3 2v1q9 3 23 3q5 0 6 -1q0 -1 6 -3
q8 -3 9 -6q0 -2 2 0q2 0 3 -1l1 -3l3 -3q4 -4 12 -8q18 -11 19 -19q3 -15 3 -55q0 -39 -4 -68q0 -9 1 -16t1 -16v-42q0 -35 1 -37v-4q-1 -2 -1 -5t1 -4q1 -2 1 -4q2 -28 2 -67v-50q1 -12 -2 -31q29 23 55 35l4 2q33 11 74 11q51 -2 85 -17q60 -28 88.5 -70t34.5 -107l2 -16
q0 -3 -0.5 -7t-0.5 -5q-1 -2 -1 -4q-2 -16 -2 -20q0 -3 -2 -9q-1 -1 -1 -3q-2 -9 -13 -37v-1h1l-7 -10q-19 -25 -45 -47.5t-47 -31.5q-6 -3 -40 -11l-4 -1q-2 -1 -6.5 -1.5t-6.5 -0.5q-36 -1 -83 4q-38 5 -73 17q-3 -13 -10.5 -33.5t-12.5 -23.5q-6 -6 -7 -9q-8 -8 -22 -8z
M275 76q19 0 33 3q27 4 47.5 27t30.5 51q2 7 3 8q0 3 1 8q3 25 3 48q0 62 -28 123q0 4 -5 7l-5 4q-7 7 -10 12t-6 8q-2 2 -4 6l-6 6l-3 1q-29 23 -38 23v1q-3 0 -15 3q-16 2 -17 2q-42 0 -73 -14q-5 -2 -11 -6l-21 -16q-17 -17 -23 -26q1 -4 1 -16v-8q0 -5 -2 -7
q-3 -2 -3 -7l2 -3v-32l-3 -9l-4 1v-1q6 -6 6 -13q0 -4 -1 -7l-1 -5q-1 -6 -1 -18q0 -17 3 -35v-6q0 -4 2 -10q1 -1 1 -5q0 -5 -1 -8q-1 -4 -1 -8q0 -16 3 -33q2 -6 2 -13q0 -1 1 -2.5t2 -3.5l2 -4q10 -1 19 -4q55 -22 120 -22z" />
    <glyph glyph-name="c" unicode="c" horiz-adv-x="582" 
d="M246 9l-1 -1q-1 0 -1 1h-2q-6 0 -11 1v-1l-4 1h-3q-3 -1 -11 -1h-10l-3 1q-3 0 -3 1v-1l-1 -1l-3 1q-1 1 -3 1v-1q-6 0 -6 2q-67 12 -135 77l-3 2q-9 9 -11 16q-9 9 -10 13q-1 1 -7 18q-8 28 -11 43q-1 3 -1 12q0 8 -1 9q-5 55 -5 56q0 34 7 56t28 55q1 1 1 2t0.5 1.5
t0.5 1.5q1 4 8 11l12 12q4 7 7 8q2 0 2 1q10 9 24 18l-1 1l8 4q63 31 89 37q16 6 32 6l3 1q1 1 6 1q2 -1 4 -1q5 0 13.5 0.5t12.5 0.5q55 0 90 -19q13 -8 14 -12l2 -2l2 -2l8 -4q14 -8 29 -28q0 -1 2 -1q2 -1 2 -4v-2l5 -5v-2l4 -10h2v-3q1 -6 6 -19t5 -15q2 -2 2 -11l2 -1
q0 -1 -1 -2v-1q1 -3 1 -11q0 -7 -1 -11v-5q0 -6 -1 -7l-1 -11q-1 -2 -3 -4l1 -1q0 -1 -1 -2h-1v-2l-1 -1h-2l-5 -5h-8q-5 -1 -9 -1q0 1 -4 2l-5 2h-2q-1 0 -2 1l-1 1q-1 1 -7 3l-8 3q-3 2 -3 3q-1 1 -4 18q-1 3 -1 11v10l-2 4l-7 25v2q-1 0 -1 1h-1q-5 12 -11 25l-3 8
q-2 6 -8 12.5t-30 15.5t-60 9q-3 0 -9.5 -0.5t-10.5 -0.5q-20 -2 -41 -14t-32 -28l-2 -2l-4 -9q-19 -46 -20 -74q0 -9 -3 -21l-3 -15q-1 -1 1 -3l3 -4q2 -2 2 -3q2 -4 4 -17q0 -2 -2 -4q-4 -2 -2 -5l2 -2q3 -12 3 -21q1 -1 1 -3q0 -3 -2 -3l-4 -1q8 -2 8 -7v-8q3 -22 13 -37
q0 -4 3 -7l2 -2q3 -1 4 -7q0 -5 1 -6q4 -8 12 -16l6 -6q1 -1 2 -1t1.5 -0.5t1.5 -0.5h3q2 -1 17 -16l49 -36q18 -7 23 -7q12 0 21 3h6l4 3q1 1 8 3q1 1 2 1q1 -1 2 0l1 1l1 1l4 2l4 2l3 1v-1q3 3 7 6q6 5 11 14l3 3v1q0 1 3 3q1 1 1 2q3 2 7 8q0 1 1 2t3 5v2q5 6 19 11l12 4
h4q2 0 3 -3h3q3 0 3 -1q4 -4 4 -15q0 -3 -1 -4l-2 -4l-1 -1h-1q0 -1 1 -1v-1h-1v-1l-1 -1q-8 -17 -33 -41v-1q-1 0 -1 -1h-2l-1 -1l-8 -6q-1 -1 -4 -1l-4 -2q-12 -4 -16 -6h-3l-2 -2h-3q-5 -5 -29 -9.5t-34 -4.5h-5q-1 -1 -3 -1l-1 1h-6z" />
    <glyph glyph-name="d" unicode="d" horiz-adv-x="625" 
d="M376 -3q-6 -2 -14 3q-3 1 -6 4v2h-1l-1 -1q-1 0 -1 3h-2v2q-11 17 -12 56q-75 -30 -155 -28h-4q-5 0 -13.5 2t-17 4.5t-9.5 2.5l-20 10q-51 27 -85.5 83t-34.5 112q0 13 4 49q0 6 2 16q2 3 3 9l2 5q0 1 2 6.5t3 10.5l2 5q1 3 4 6q5 11 19 33v1h-1l8 9q59 59 103 68
q2 1 13 1q16 0 27 -1h11q2 -1 4 -1q31 -2 69 -5q39 -6 69 -24q0 4 0.5 12.5t1.5 12.5q0 6 -1 9t-1 8q0 3 2 9q1 3 1 6v19q-1 3 -1 5t2 4q1 1 1 4q1 15 1 38h-1l-1 1l3 11q3 27 3 111q0 8 1 16q1 4 1 9q0 4 -1 4l-2 3q0 2 2 6q1 1 1 3q2 21 6 45q0 10 3 19q1 1 1 3l1 4
q1 10 5 11v3h1l1 -1q1 1 1 3h4q6 3 7 3l1 1h1q11 2 29 2h7l8 -2h5q2 0 3 -1l1 -1q3 -2 12 -3q16 -3 19 -9q3 -8 3 -36q0 -6 -1 -17.5t-2.5 -25t-1.5 -16.5q0 -10 1 -17v-17q0 -23 -1 -46q-2 -41 -1 -48v-5q-1 -3 -1 -6q0 -4 1 -6q1 -3 1 -6q0 -48 -1 -89l-2 -69
q-2 -37 -5 -58q-3 -15 -3 -21q-1 -4 4 -16q1 -4 2 -4q1 -4 1 -15q0 -12 -1 -20q0 -5 -2 -9q-3 -3 -3 -10l2 -3v-18q-1 -9 -1 -22l-3 -10l-5 1l1 -1q4 -4 4 -17q0 -9 -1 -14q-2 -12 -2 -34q0 -17 1 -26v-4q-1 -4 1 -9q1 -2 1 -5t-1 -6l-2 -6q-1 -9 2 -21l2 -3q0 -4 5 -8l3 -3
q6 -11 -4 -17q-1 -1 -6.5 0t-8.5 3q-2 1 -15 -5q-1 -1 -5 0l-3 1q-10 0 -15 -6q-6 -8 -13 -12q-9 -8 -21 -9zM238 64q26 2 38 5q11 3 32 13q20 12 30 19v13l-2 3v18v6l-2 4v6q3 12 3 19l3 26q1 9 1 23q0 1 0.5 2.5t1 4.5t0.5 5t0.5 6.5t1.5 6.5q0 21 -1 38t-1 31v30
q-1 19 -1 42v17q-1 1 -12 4q-10 1 -15 5q-27 18 -41 21.5t-89 8.5l-10 1q-2 -1 -10 -3.5t-10.5 -3t-9.5 -3.5t-10 -5.5t-9 -7t-10.5 -9.5t-10 -12t-10.5 -16q-3 -5 -7 -17q-15 -53 -15 -93q0 -14 1 -20q3 -40 7 -56q1 -4 6 -10l2 -2l11 -23q0 -1 1 -3t1 -3t2 -7l2 -2
q3 -5 17 -25l4 -7l-1 -2q6 -3 11 -8l8 -8q23 -18 53 -28q2 0 3 -1h6q1 -1 3 -1q2 -1 6 -1h5q9 -1 17 -1z" />
    <glyph glyph-name="e" unicode="e" horiz-adv-x="644" 
d="M287 9q-81 0 -161 34l-5 1q-40 32 -42 34q-4 4 -22 31q-57 93 -57 178q0 48 21.5 78t67.5 63l6 4q8 6 15 8l5 2q5 1 13 6q6 3 7 3l7 2q5 2 34 11l11 2q51 6 87 6q20 0 28 -1q11 0 28 -5l9 -2h4l7 -3l4 -2q39 -17 64 -42q15 -14 27 -34.5t20 -30.5q14 -20 14 -39
q0 -32 -26 -58q-12 -12 -37 -29q-1 0 -2 -1t-3 -1q-3 -3 -4 -3q-33 -19 -69 -31q-4 -2 -38 -11l-2 -1q-1 0 -3 -1t-3 -1l-2 -1q-10 -4 -17 -5q-3 -1 -5 -1q-3 0 -5 -1l-2 -1q-4 0 -9 -1l-13 -3q-1 -1 -5 -1h-1v1q-10 -3 -17 -4q-19 -1 -37 -6h-3q-2 -1 -4 -1h-2q-1 -1 -3 -1
h-8q16 -30 28 -45l7 -9q3 -1 7 -5l5 -5q2 -3 5 -6q22 -18 46 -18h5l28 -4q19 -3 25 -3q11 0 18 1q9 1 12 0q7 0 10 1h2l13 8q1 0 1 1l11 10q13 13 20 18h2l2 4v2l2 2q1 2 2 3t2 1t2 1v1q0 1 5 6q2 2 3 1l1 -1q-1 3 3 6q6 4 11 12q0 1 1 2q2 0 2 2l1 1q2 2 3 2q4 4 5 6
q0 2 2 4v3q1 3 8 7.5t10 4.5q2 0 3 1q1 0 5 -4h4q0 -1 5 -6q7 -9 7 -10q1 -1 1 -4v-4l-1 -1v-1l-1 -1h1q-5 -11 -24 -33v-1l-5 -5q0 -2 -3 -4l-2 -1q-3 -3 -5 -4l-4 -4q-5 0 -5 -3q-3 -3 -5 -6q-35 -35 -71 -52q-16 -7 -31 -9t-17 -2h-2q-20 -2 -32 -2zM147 177l31 4l2 1
q5 0 11 2q3 0 9 2l11 1q1 0 5.5 1t10 2t10.5 2q3 0 6 1t8 1q16 4 34 10q4 2 15 5.5t17 5.5q13 5 34 14q3 1 6 4q1 1 4 1l12 8h2l16 12q16 14 20 29l-8 4l-6 7q-8 5 -14 11t-9.5 10.5t-12.5 17t-18 24.5q-18 34 -34 46q-24 21 -75 21q-14 0 -28 -3q-10 -1 -16 -6
q-24 -12 -45 -34t-25 -39q-7 -25 -8 -42q0 -2 3 -7l4 -5q3 -5 5 -21q0 -4 -2 -6q-2 -4 -1 -7l3 -3q4 -19 8 -35l2 -11q-4 1 -4 -2q8 -5 17 -26z" />
    <glyph glyph-name="f" unicode="f" horiz-adv-x="544" 
d="M164 0q-40 2 -48 21q-4 8 -6 10v3q2 3 0 3l-2 1q0 1 1 3q0 2 -1 3h-2v6q-8 38 -8 71q-1 9 -1 43v37l-2 3q-1 3 0 9v9q0 5 -1 8t-1 7v6l2 6v6q0 28 2 42q0 6 1 9v6q0 20 -7 41q-7 48 -7 52h-19q-1 0 -2 1h-2q-4 0 -22 2h-5q-6 0 -7 1h-5q-8 0 -10 2h-5l-1 1v1l-4 2h-1
q0 2 -1 5v3l2 2l2 3v1l1 1h2q2 2 3 4q5 5 8 5q11 0 23 1q8 0 15 -1q6 -1 12 -1h13v19q-1 9 -1 22q0 5 -1 8q-2 6 -2 7q0 6 1 10q1 3 1 6q0 4 -0.5 10.5t-0.5 8.5q-1 2 -1 4q-1 1 1 5q1 1 1 3q0 22 1 39h-2q-1 4 1 10l1 2q3 15 6 42q6 55 12 80q2 5 7.5 19.5t5.5 15.5v4
q2 4 4 6t2 3q21 31 46 48q13 10 36 18t32 7l3 1h3v-1l3 1h4l1 -1l24 2q7 1 13 1q14 0 32 -7q1 0 2 -1h1q1 -1 3 -1q32 -17 48 -58q0 -1 3 -2l3 -3q4 -4 5 -9q1 -1 0 -3q-2 -2 0 -4l2 -1q0 -1 1 -2q0 -2 1 -3l3 -7v-4l-3 -1q5 -2 6 -9q1 -10 8 -22q0 -1 1 -2v-2q3 -3 3 -5v-3
q2 -6 4 -9q1 0 2 -1q0 -3 3 -3l2 -1q4 -3 2 -14q0 -6 -1 -7t-1 -3l-7 -5l-2 -2l-1 -3q-5 -2 -9.5 -4.5t-7.5 -4l-5 -2.5l-4 -2l-1 -1q-2 0 -5 1t-6 1v1h-2v1l-1 1h-1l-1 1q-10 9 -27 47h-2q0 5 -2 7q0 2 -1 3l-2 2v4q-1 1 -1 3q-1 1 -1.5 4t-0.5 4t-1 4q0 2 -1 3l-1 8
q-2 2 -9 17q-11 15 -13 25q-2 6 -3 7q-2 2 -2 3q-2 4 -3 5l-1 1v2l-3 6l-1 2q-2 5 -7.5 11.5t-10.5 6.5h-2l-1 1q-7 0 -15 -2q-2 0 -3 -1l-12 -16q-9 -9 -14 -31q-2 -6 -12 -46q-1 -1 -3 -30q-8 -65 -6 -85v-10q0 -9 2 -11q0 -3 4 -68q1 -32 4 -72h2q1 -1 3 -1q1 -1 3 -1
l1 1h6q3 -1 7 -1l4 -1l-1 -1q5 2 11 1q16 -2 24 -1h9q2 0 3 -1h2q8 0 12 1h5q2 0 3 1l2 1h3q3 0 17 -2l11 -2q4 -1 4 -6l5 -2q0 -11 -4 -16q-2 -2 -5 -3l-4 -1h-2v-1h-5q-14 -3 -59 -3h-15q-2 0 -3 1h-4q-6 0 -9 1h-8q-2 0 -4 1h-13q0 -7 -1 -13q-1 -7 -1 -15q0 -3 4 -8
l4 -6q4 -8 4 -23q0 -4 -2 -6q-3 -2 -2 -6l2 -2q0 -6 1 -11q0 -12 -1 -17l-2 -10l-4 1v-1q5 -5 5 -16q0 -7 -1 -12q-1 -10 -1 -31t1 -32v-6q-1 -3 -1 -7q2 -2 2 -9q0 -5 -1 -8q-2 -5 -2 -20q0 -6 2 -18q0 -5 2 -13l4 -7l2 -6q1 -2 1 -10q0 -5 -0.5 -12t-0.5 -8q-4 -21 -6 -21
q-4 -22 -7 -28q-7 -10 -8 -14l-11 -7q-2 0 -12.5 -0.5t-14.5 0.5z" />
    <glyph glyph-name="g" unicode="g" horiz-adv-x="633" 
d="M191 -240q-5 0 -10 1h-25q-36 5 -70 26l-2 1q-2 1 -6.5 4t-8.5 6l-10 5q-28 11 -45 72q-8 31 -7 35q1 5 1 12l11 16q2 0 10.5 5.5t12.5 6.5q22 6 38 5q6 -2 14 -10q8 -9 9 -9l2 -3q0 -3 1 -4l1 1h1q0 -2 1 -3q1 -2 1 -4l1 1h1l2 -3q0 -3 1 -4q10 -13 23 -34
q33 -50 67 -71h4l20 -2q16 0 32 4q22 8 44 29q17 23 34 94q3 15 14 67v15q0 3 2 9q3 6 3 16v13q0 4 1 5t1 3q1 7 2.5 20.5t1.5 19.5h-3q0 4 2 10l1 3q-15 -17 -34 -32l-4 -2q-35 -19 -71 -19q-36 -1 -72 6q-15 3 -34 9q-76 27 -112.5 75.5t-36.5 126.5q0 5 2 13q1 2 1 4t1 3
v6q1 1 1 3q0 6 1 9q0 4 3 9q1 1 1 3q10 26 16 39l7 10q20 26 48.5 48t50.5 31q7 4 39 10l5 1q4 1 13 1q73 0 123 -25l11 -6q1 0 3.5 -1l5 -2t6.5 -2.5t7 -2.5q18 -7 21 -8q2 25 5 29v4q-2 2 0 2h2v6q1 0 2 1l2 1q1 1 3 5q2 2 4 3q2 0 2 3q6 2 22 2q6 0 7 -1q11 0 16 -7h4
q1 0 3 -2l2 -3l4 -2q4 -3 8 -5q19 -12 20 -17q8 -45 8 -106q-1 -23 -1 -46q0 -3 2 -23q1 -11 1 -24q1 -15 1 -66q-1 -29 -1 -55v-6q-1 -3 -1 -7t1 -7v-7q-6 -101 -31 -174q-11 -29 -42 -71l-7 -14q0 -1 -1 -3q-1 -1 -1 -2q-19 -22 -34 -30q-6 -2 -9 -4l-3 -3
q-25 -13 -38 -18q-6 -2 -9 -2l-2 -1l-1 2q-20 -17 -113 -17zM250 94h4q38 5 62 26l12 13q1 2 8 11q2 3 5 6q20 31 23 55q0 5 1 6v3q0 20 -1 37q-1 4 -1 22v19l-3 4q0 4 1 7t1 5q-1 26 2 72v7l-24 10q-7 4 -30.5 14t-61.5 21t-64 11q-61 0 -99 -79q-2 -7 -3 -8q-8 -14 -8 -75
q0 -57 29 -113l12 -12q4 -3 13 -12l10 -10q2 -1 5 -4q7 -7 10 -9l4 -1q19 -10 44 -19l14 -3v-2q9 0 19 -1q7 -1 16 -1z" />
    <glyph glyph-name="h" unicode="h" horiz-adv-x="552" 
d="M379 0l-3 -3q-7 0 -21 2l-11 3q-3 2 -6 6l-3 6v4h-1v3q-1 0 -1 1v3q-4 17 -4 53q0 18 1 33v32l-1 3v16l-1 14q-2 2 0 8q1 4 1 8q0 20 -1 39q0 5 1 10q0 8 -1 9q-2 38 -32 122q0 3 -1 4q-3 3 -4 6v2q0 1 -1 1v2q-2 2 -2 3q-1 1 -2 1v4l-8 12v-1l-3 4q-15 12 -37 12
q-10 0 -15 -1q-12 -1 -21 -5l-2 -1q-5 0 -7 -2q-42 -19 -49 -45q-3 -8 -5 -10v-3l-1 1v-4h-1q-1 -1 -2 -1q0 -5 -4 -6v-1l-1 -1q-2 0 -3 -1q0 -2 3 -8t3 -7q1 -3 1 -11t-1 -14q0 -5 -2 -7q-3 -1 -3 -7l2 -3q-1 -3 -1 -13q0 -12 -1 -16l-3 -8h-4q5 -5 5 -12q0 -3 -1 -6l-1 -5
q-5 -28 -4 -47v-4q-1 -3 -1 -6q0 -2 1 -3q1 -5 -1 -12l-3 -8q-2 -12 -2 -19l1 -6v-3v-5q0 -6 4 -13q1 -3 3 -5v-7q0 -13 -1 -16l-4 -17q-1 -3 -1.5 -5.5t-1 -4.5t-1 -3.5t-1.5 -2.5v-1q-18 -18 -44 -23q-17 -4 -39 -3q-7 2 -13 13l-4 4l-2 3v6h-3v6l-1 1l-1 -1v7
q-5 28 -5 56q0 12 2 44l2 39l-2 2q0 4 1 7v7q0 3 -1 6q-2 5 0 6q0 11 3 14l3 20q1 7 1 16q4 16 4 19v33q-1 7 -1 17q-2 14 -2 53q0 23 3 59q0 4 -1 7q-1 2 -1 6t1 7q1 2 1 4v15q-1 2 -1 4v2l2 2v2q1 11 1 29h-3q0 2 2 8l1 1q1 27 -3 93v14q0 11 -1 13l-3 2q0 4 1 6q1 1 1 3
q0 27 1 48q1 2 1 12q-1 6 -1 11q1 4 1 11v2l-1 4q0 9 4 13l-2 2q0 1 1 1h1q1 0 1 1l-1 1v3q1 0 2 1l2 1q2 2 2 4q0 3 4 4q1 0 2 2q3 2 14.5 5.5t13.5 2.5l7 -1q6 0 11 -3l2 2q2 -1 4 -3l2 -1q11 -3 14 -4q20 -7 21 -13q6 -18 10 -49q2 -6 2 -31v-34q0 -8 3 -32q0 -52 2 -82
v-9q0 -3 1 -5t1 -4q1 -9 1 -40q0 -39 -1 -65q12 12 55 21.5t66 9.5q22 0 33 -2l7 -2q6 0 8 -2q20 -9 40 -31t29 -43q6 -14 12 -53q1 -1 3 -5l4 -9q4 -14 5 -26q0 -6 -1 -7q-1 -3 0 -7l1 -3q0 -6 1 -13t1 -20l-1 -9q-1 1 -2 0q3 -5 3 -17v-67v-5q-1 -3 -1 -6q0 -2 1 -3v-12
q-1 -3 -1 -6v-3l-1 -7v-3q0 -2 0.5 -6t0.5 -7v-5q0 -4 3 -10q1 -3 1 -5q1 -8 -4 -35q-1 -3 -2 -7t-2 -6l-1 -2q-2 -4 -3 -5v1q-2 -2 -11 -4z" />
    <glyph glyph-name="i" unicode="i" horiz-adv-x="291" 
d="M51 559q-8 0 -18.5 6t-14.5 13l-2 3q-1 1 -1 5h-1l-3 6h-1q-2 0 -2 6h-1q-1 -1 -1 0v6q0 16 8 30q2 15 8 23q4 6 11 10q16 9 28 7q1 0 2 1h2q10 4 22 6h3q19 0 32 -9q15 -12 15 -39q0 -6 -2 -18q-3 -13 -9 -21q-14 -15 -38 -20q-21 -15 -37 -15zM91 4l-5 -4
q-3 1 -8.5 1.5t-8.5 0.5q-22 0 -39 4q-3 1 -15 13v1q0 3 -1 3h-1v3h-2v4q-7 16 -7 34q-1 7 -1 16v21v17l-2 2q0 2 1 5q0 4 -1 5v5q-1 2 -1 5l1 2q1 2 1 3q1 2 1 5q1 2 1.5 6.5t0.5 6.5t0.5 5.5t1.5 5.5l2 6q1 3 1 7q1 2 1 8t-1 10q-1 8 -1 14q-2 2 -2 32q0 2 2 18q1 8 1 17
q2 2 0 4q-1 1 -1 3t2 4q1 1 1 3v9q-1 1 -1 2t1 2q1 5 2 11t1 8h-2l3 5q1 10 3 56q0 5 1 10q1 4 1 8l-2 1q0 2 2 4q1 1 1 2q2 16 7 32l2 9q0 1 0.5 4.5t1.5 4.5t3 8q3 12 6 13q1 1 1 4h2v4h2q3 0 5 4q1 1 5 1q1 0 2 1v1q7 0 15 1q10 0 14 -2q0 -1 6 -2q6 -2 8 -5h5l2 -2l2 -2
l11 -5q17 -8 18 -13q3 -34 -2 -55l-4 -19q0 -5 1 -10q0 -8 -1 -9q0 -12 -1 -23q-1 -12 -1 -25v-2q-1 -1 -1 -3t1 -3l1 -2q1 -2 1 -16t-1 -23l-2 -31q-2 -15 -5 -24q-1 -7 -3 -10q0 -3 4 -7q2 -2 2 -3q2 -7 1 -15q-1 -2 -3 -4t-2 -5l2 -1q0 -9 -2 -19q-1 -5 -2 -5h-5
q6 -4 6 -8q0 -3 -1 -4q-1 -2 -1 -4q-3 -12 -3 -25l1 -6v-3v-4q-1 -1 -1 -3q0 -1 1 -2t1 -3q0 -6 -3 -9v-5q0 -4 2 -12q0 -5 2 -7q0 -2 3 -5l3 -2q1 -1 1 -6q0 -2 -0.5 -6t-0.5 -5l-6 -12q-4 -14 -7 -16l-3 -4q-5 -2 -21 -5z" />
    <glyph glyph-name="j" unicode="j" horiz-adv-x="341" 
d="M99 559q-8 0 -18.5 6t-14.5 13l-2 3q-1 1 -1 5h-1l-3 6h-1q-2 0 -2 6h-1q-1 -1 -1 0v6q0 16 8 30q2 15 8 23q10 17 35 17h4q1 0 2 1h2q10 4 22 6h3q19 0 32 -9q15 -12 15 -39q0 -6 -2 -18q-3 -13 -9 -21q-14 -15 -38 -20q-21 -15 -37 -15zM25 -245q-3 0 -4 1h-8l-4 1
l-1 1h-2q-12 2 -16 4h-1v-1l-4 3q-35 21 -51 39q-12 15 -12 20l-2 2l-2 7q-17 44 -17 78q-1 13 -1 31q0 10 1 11v7q2 1 2 4q-1 2 -1 4l3 3q1 2 1 6q2 4 3 5l1 1v2q2 4 13 4q4 0 4 -1t4 -4q2 -2 6 -7h2v-1l3 -5q20 -26 20 -29q0 -1 2 -9t3 -14l5 -26l11 -43q0 -11 20.5 -35.5
t34.5 -24.5q35 0 35 85v19l-3 35q-5 73 -5 130q0 11 0.5 23t1 19t0.5 11q0 7 -2 21q-1 10 -1 23t1 23t1 21q0 4 -1 5t-1 4q0 2 2 6q1 1 1 3v11q-1 1 -1 3q0 1 1 2t1 2q1 9 1 22h-1l-1 1l2 6q2 12 2 33q0 5 -0.5 18t-0.5 21q0 6 1 12q2 8 0 10l-2 2q0 2 2 4q1 1 1 3
q2 17 6 42q0 10 3 22q0 5 1 10q2 15 6 19v4h2q1 0 1 2q-1 3 2 4h2l3 4q0 2 5 4l1 1q6 2 25 2h4q2 -2 7 -3t8 -4q2 -2 3 0h2l4 -5q3 -2 12.5 -6.5t12.5 -6.5q5 -5 6 -8q3 -12 3 -38q0 -12 -2 -32q-2 -24 -2 -25q-2 -5 0 -13q1 -5 1 -12q0 -15 -1 -32v-29v-6q0 -3 1 -5l1 -2
q1 -2 1 -15q0 -18 -1 -32q-1 -27 -1 -43q0 -17 -4 -32q-2 -12 -2 -13q-1 -1 2 -6t4 -5q1 -4 1 -14v-7q-2 -4 -3 -5q-2 -2 -2 -6l2 -2v-11q-2 -19 -4 -20h-4q6 -5 6 -10l-2 -6l-1 -4q-1 -5 -1 -18q0 -5 0.5 -22.5t0.5 -30.5v-15q-2 -47 -10 -90l-3 -2l-9 -20v-2q-1 -4 -6 -9
l-2 -3q-1 -2 -3 -4l-8 -7q-10 -9 -19 -14q-9 -3 -9 -6q-32 -17 -51 -21q-11 -3 -30 -3h-2q-1 -1 -4 -1z" />
    <glyph glyph-name="k" unicode="k" horiz-adv-x="487" 
d="M46 9q-7 0 -12 4q-1 0 -3 1t-3 1v4l-1 -1h-1q-1 0 -1 2v2h-1l-1 -1v4q-14 23 -18 103q0 7 -1 10l-2 3v18q0 4 -1 7t-1 8t1 10q1 4 1 9q3 39 3 46q0 2 2 12q1 5 1 12q0 20 -1 36l-2 29q0 19 -0.5 35.5t-0.5 23.5l-1 7q0 30 4 74q0 5 -1 8t-1 7q0 3 2 9q1 3 1 6v17
q-1 3 -1 5t2 4q1 1 1 3q0 6 0.5 18t1.5 17h-2q-1 3 1 9l1 1q3 20 6 104q0 2 2 16q1 7 1 13l-2 3q0 5 3 8q1 20 9 46q1 2 3 9q0 2 0.5 4.5t1 4t0.5 2.5q1 1 4 9t3 9q1 3 4 3v4l1 -1h1q1 0 1 2v1h2q2 0 3 1l7 2h1l1 1q23 0 27 -4q1 -1 6 -3q7 -2 8 -3q0 -1 2 -1h2q1 0 2 -1
l2 -2l11 -5q11 -4 17 -11q3 -26 -3 -62l-4 -28q-2 -3 0 -14q0 -14 -1 -17l-2 -39q-2 -40 -1 -47v-4q-1 -3 -1 -6t1 -5q1 -3 1 -5q0 -42 -1 -77l-2 -67q0 -11 -2 -33l21 21q1 1 11 13l7 9l1 2l3 3l4 4q8 10 10 12q4 6 11 13q8 8 9 10l2 3l5 5l7 7q0 1 2 3h1l11 11v1h-1l4 3
q6 5 33 36l14 15q1 0 2 1q12 12 21 20q2 2 4 3l4 4h1l1 1l4 4q10 10 14 10l1 1q1 1 1 2h1v-1l2 2h2l5 1h1l1 1q1 0 4.5 -3t3.5 -4v-2q2 -3 0 -5l1 -1v-2q-1 -1 -1 -2v-12q0 -4 -2 -6q-12 -15 -31 -34q-6 -5 -13 -12q-6 -8 -11 -13l-13 -15l-14 -16l-6 -7q-18 -24 -40 -46
l-22 -22q-3 -3 -3 -6l-1 -2q-1 -2 -6 -7t-6 -5l-4 -5q-2 -2 -4 -5l-11 -10l-1 1q-1 -3 -9 -11q-7 -6 -17 -18l2 -2l2 -3q6 -6 10 -11l8 -12l5 -5q2 -2 3 -4l2 -2l9 -10l5 -5q10 -13 13 -15q0 -4 3 -4l2 -2q1 -1 2 -1q2 -4 42 -50l18 -28q3 -3 6 -3l2 -2q4 -3 9 -11
q2 -2 2 -3q0 -3 1 -4l2 -1l2 -2q1 -2 3 -4q5 -7 5 -8l2 -4l-2 -2q6 0 10 -9q8 -15 16 -24l2 -2q0 -3 2 -3q4 -3 4 -5t1 -3q3 -6 7 -10l2 -2q2 -2 5 -2l2 -2q6 -6 7 -17q1 -4 1 -8v-2q-1 -1 -1 -4l-8 -3l-4 -5l-31 -9q-3 0 -5 1h-5v1h-1v1h-2v1q-8 5 -14 17l-16 24h-1
q-4 4 -4 7l-5 5l-1 2q-1 1 -2 3v2q-1 2 -3 5.5t-3 5.5q-5 5 -7 12q-1 2 -3 4q0 1 -18 22q-2 4 -9 11q-13 14 -20 25q-6 6 -10 12l-2 2q-4 2 -4 6l-1 1l-2 2v2l-1 1l-3 2q-2 2 -2 3q-8 12 -10 14h-1l-2 4l-30 36q0 -18 -1 -23l-2 -10l-5 1v-1q5 -4 5 -20v-9q-2 -20 -2 -29
t2 -29v-10q0 -3 1 -4q2 -5 1 -10q-1 -3 -1 -7q-1 -12 3 -22l2 -8l4 -4q2 -1 4 -3q2 -6 2 -8q0 -7 -5 -17q-4 -11 -10 -11l-15 -5l-9 -4q-11 -5 -34 -11q-12 -2 -20 -2z" />
    <glyph glyph-name="l" unicode="l" horiz-adv-x="237" 
d="M58 5l-12 1q-10 1 -20 5q-3 2 -6 7l-3 7v5l-1 -1q-2 1 0 3v2h-2v4q-4 22 -9 132l-1 3v19q0 4 -1 8q-1 3 -1 8t1 10v9q1 7 1 25v22q0 7 1 12v12q0 39 -3 63l-2 64q0 23 1 40v37q-1 3 -1 7q0 6 1 9v21q0 3 -1 4q0 3 1 4t1 3q1 17 1 33h-1l1 10q3 19 5 72v26q0 1 2 15
q1 7 1 13l-1 3q0 3 1 4t1 3q3 24 9 46q13 43 16 43q0 1 1 2v2q2 -2 2 1q0 2 2 2h2q4 4 5 4l1 1q2 0 8 -2t6 -3q1 0 3.5 -2t2.5 -4q1 -1 2 -1h1l1 -4q8 -8 11 -12q2 -4 2 -5q0 -19 -7 -59q-4 -24 -4 -44q-1 -7 -1 -14l-3 -80v-9q0 -4 1 -6v-140l-3 -70q0 -1 3 -13l1 -4
q2 -16 2 -32l-2 -8q-1 -2 -1 -9l1 -4q0 -9 1 -16v-21l-1 -10q-2 3 -3 2q-2 0 0 -2q3 -6 3 -20v-10v-7l-1 -12q0 -14 2 -44v-13q0 -2 1 -3v-13q-1 -3 -1 -7q0 -10 2 -28v-5q0 -4 4 -12q1 -2 1 -4q1 -13 -3 -41q-1 -17 -4 -19q0 -1 -1 -3t-1 -3q-2 -2 -9 -2q-2 0 -3 -3
q-1 -4 -3 -4z" />
    <glyph glyph-name="m" unicode="m" horiz-adv-x="786" 
d="M361 -1q-3 -3 -14 -3q-3 0 -3 1t-3 3l-2 2q-12 1 -16 8q-4 4 -4 5v3h-1q-1 0 -1 3h-1v4q-5 16 -11 77q-1 13 -5 43l-1 2q-2 8 -2 18q-3 12 -3 15q-1 2 -1 9v9l-6 43q0 27 -17 77.5t-32 81.5v2l-1 1l-3 2q0 3 -1 4t-1 3q-1 3 -4 6l-1 1q-1 1 0 2q0 1 -1 2q-4 8 -7 11l-2 3
q-8 8 -21 8q-10 0 -18 -5q-6 -3 -16 -13l-1 -3q-1 0 -1 -1h-2l-1 -1l-2 -2q-7 -6 -15.5 -12.5t-13 -10.5t-6.5 -6q2 -10 3 -11q0 -2 1 -11t2.5 -20.5t1.5 -13.5v-2q0 -1 2 -5q1 -1 1 -3l10 -71q1 -8 -1 -26q-1 -5 -1 -11q-1 -1 3 -4q2 -3 4 -5q2 -6 2 -11v-5q0 -2 -2 -4
t-2 -5l2 -2q0 -5 1 -9v-11q-2 -5 -3 -5h-4q6 -4 6 -8q0 -3 -1 -5t-1 -4q-3 -12 -3 -25l1 -7v-3v-3q-1 -2 -1 -4q0 -1 1 -2t1 -3q0 -3 -1 -4q-2 -4 -2 -5q-2 -6 -2 -10l1 -7q0 -2 1 -3q0 -4 3 -7l2 -4q1 -10 -12 -27q-6 -7 -11 -12q-3 -1 -6 -4q-1 -1 -14 3l-10 -3
q-8 4 -19 8q-17 6 -27 12l-6 6q-2 2 -4 3l-2 2v1l1 1h-1l-1 1v2h-1q-1 0 -1 1l1 1v1q-7 11 -7 30v34l-2 1v9q0 2 -1 4q-1 1 -1 4v3l2 2v3q1 2 1.5 6.5t0.5 6.5q0 8 1 10q0 2 1 5t1 6q-1 3 -1 9q0 2 -5 21l-2 14q-5 19 -5 35q0 3 -0.5 9t-1.5 8v2q-2 2 -2 4q0 3 1 4l1 3
q-1 2 -1 5l-3 6l2 2q0 13 -1 18h-2l2 6q0 13 -7 54v9q0 7 -1 8l-2 1q0 2 1 3l1 2q0 13 3 31q0 9 2 15q1 1 1 3q1 3 1 4q0 10 5 12v3h2v3l5 1l2 3q1 1 4 1t3 2q7 0 15 1q4 1 9 1q4 0 5 -1l6 -2l9 -2q0 -2 2 0h3q0 -3 4 -3q2 -1 6 -1.5t6 -0.5q13 -2 19 -8q2 -3 4 -16
q36 24 51 29q32 8 61 7l7 -2h4q1 -1 3 -1q19 -9 39.5 -31t32.5 -44q8 -17 17 -56q0 -1 7 -11q0 -1 1 -2.5t1 -2.5v-2q2 3 4 9t4 9v2q1 1 3 5l2 3q1 1 3 6q0 1 0.5 2.5t1.5 2.5q58 85 112 108q16 6 35 6q17 0 33 -4q17 -6 19 -7q28 -21 28 -36q0 -5 3 -9l3 -4q11 -27 15 -45
q1 -2 1.5 -6.5t0.5 -6.5q-4 4 -4 1q0 -1 1 -2q7 -10 10 -41q2 -17 5.5 -49.5t4.5 -47.5q0 -5 1 -9v-10q0 -3 1 -5q1 -3 1 -8v-13q-1 -5 -1 -11q0 -14 2 -42q0 -5 1 -8q0 -7 3 -16q1 -3 1 -7q2 -26 -5 -47q-1 -2 -1.5 -5t-0.5 -5l-2 -9q-2 -4 -2 -6t-9 -4l-1 -5v-3l-1 -3
q-6 0 -11 -1q-4 -1 -10 -1h-3q-11 0 -16 11q-5 9 -5 22q-1 0 -1 3l1 3q-1 0 -1 1v2q-1 0 -1 1v3q-3 17 -6 109q-1 16 -2.5 40.5t-1.5 28.5l-2 4q0 7 -1 13t-1 15q-4 20 -4 22q-2 10 -2 27q-7 41 -10 56q-4 22 -16 49q-7 14 -7 16q-8 18 -17 18h-1q-1 0 -1 -1h-2
q-7 -3 -12 -8l-4 -4q-3 -3 -5 -6l-6 -6q-10 -10 -11 -13q-1 -1 -3.5 -5t-4.5 -6q-3 -3 -4 -5l-4 -4l-12 -20l-2 -2q-9 -15 -14 -29v-1l-4 -8q-7 -22 -15.5 -70.5t-8.5 -70.5l1 -4q0 -4 -1 -6t-1 -4q0 -4 -5 -66q-1 -2 -1 -20q0 -3 1 -4q0 -3 1 -5q0 -7 3 -11l2 -4
q1 -3 1 -11q0 -11 -3 -26q-2 -15 -3 -16l-3 -4q-1 -1 -9 -1l-3 -3l-1 -1v-2z" />
    <glyph glyph-name="n" unicode="n" horiz-adv-x="581" 
d="M109 9l-9 -7q-5 1 -17 1q-20 0 -39 5q-4 0 -15 11v3h-2q-2 0 0 2v1h-2q-1 0 0 1v2q-8 13 -11 38q0 2 -0.5 5t-1 8.5t-0.5 9.5l-2 20l-2 2v10q0 2 -1 4q-2 7 -1 10q0 1 0.5 2.5t1.5 2.5q0 8 1 13v11v4l2 4q0 22 -5 36l-2 14q-3 15 -3 21q0 2 0.5 6.5t0.5 8.5v18q0 3 -1 4
t-1 3q0 3 1 5l2 2q0 3 -2 9v2v1l2 2q1 8 1 18h-1l-1 1l2 5q2 6 3 57l2 10q1 4 1 8l-2 2q0 2 1 3l2 2q1 10 10 33q0 9 6 17q1 1 3 8q5 11 9 12v2q0 2 2 2q0 -1 1 -1v1q0 3 3 3h2l3 3q1 1 4 1q1 -1 2 0l1 1q24 0 26 -6l13 -8h2l3 -2q2 -2 2 -3l10 -6q15 -8 16 -14q1 -2 -1 -27
q1 1 2 1q10 7 44.5 24.5t39.5 18.5q29 10 70 8q3 0 8 -1h4q2 -1 4 -1q21 -10 45.5 -32.5t36.5 -43.5q9 -17 20 -60q0 -4 6 -12l2 -3q5 -14 8 -29q1 -3 1 -8q-1 -3 0 -9l2 -3l3 -13l3 -23v-10q-1 2 -3 0q6 -8 6 -30q2 -40 5 -62v-12q0 -2 1 -3q1 -2 1 -5v-8q-1 -3 -1 -6
q-1 -9 1 -27v-4q0 -5 3 -11q1 -2 1 -4q1 -14 -6 -33q-1 -3 -2.5 -6l-2.5 -5l-2 -3q-2 -1 -4 -3q-1 -1 -9 1q-1 0 -2 -1l-1 -1q-2 -1 -4 -1l-26 11q-8 3 -8 8v2h-1v2l-1 1v2q-3 15 -5 68q0 7 -0.5 20.5t-1.5 19.5l-1 3q-1 2 -1 9q0 4 -2 16q-1 3 -1 7v18l-4 43q-1 1 -1 10
q0 2 -0.5 6t-1.5 6q-13 76 -49 142v2q-5 5 -5 8q-1 4 -4 7l-4 4v2l-1 1q-2 3 -6 7.5t-4 5.5l-1 -1l-3 4q-11 6 -26 6q-16 0 -29 -6q-6 -4 -15.5 -8t-11.5 -6l-2 -2q-2 0 -4 -2q-2 -1 -3 -1q-21 -14 -29 -24q-2 -2 -5 -8l-5 -7q-3 -8 -10 -17q-2 -3 -4 -5q0 -2 -1 -3l-1 -2
h-1l-2 -4q-1 -1 -3 -2l-3 -2q0 -14 1 -17v-5q0 -2 1 -3l1 -2q3 -48 3 -67q1 -11 -2 -24l-2 -10l7 -8q2 -6 2 -10v-5q0 -2 -2 -4q-4 -2 -2 -5l2 -2q0 -4 1 -8q0 -8 -1 -11q-1 -5 -2 -5h-4q6 -5 6 -7v-5q-1 -2 -1 -4q-1 -5 -1 -17q0 -11 1 -17v-3q0 -4 2 -6q1 -1 1 -3
q0 -3 -1 -4q-1 -2 -1 -5q-1 -7 2 -17l2 -7l7 -6q3 -8 -5 -30q-4 -13 -11 -20q-1 -1 -16 -1z" />
    <glyph glyph-name="o" unicode="o" horiz-adv-x="663" 
d="M272 2q-33 0 -72 6l-4 1q-3 0 -8 2t-9 4t-5 2l-7 3q-3 1 -7 2l-4 2q-16 8 -38 26.5t-34 33.5q-2 3 -5 6q-46 54 -62 90t-16 97q0 4 -1 7q-1 4 1 16l2 5l3 14v8q0 2 4 6q3 11 13 33h-1l-1 1q0 2 5 7l2 1q45 56 79 75q1 1 24 11q5 1 7 3l3 2l11 2q34 9 68 12q18 1 61 -1.5
t48 -3.5q32 -4 70 -35q13 -12 18 -15l38 -47q0 -1 2 -3l4 -5q2 -2 2 -3q41 -65 44 -135q0 -3 4 -9q1 -1 1 -3q1 -3 1 -11q0 -7 -1 -11q0 -5 -1 -6l-3 -6l1 -2q-1 -9 -5 -27l-4 -7q-1 1 -2 1q2 -7 -6 -21q-17 -28 -27 -41q-1 -2 -3.5 -4.5t-3.5 -2.5l-5 -6q0 -1 -10 -8
l-24 -20q-2 -1 -4 -3q-3 -1 -9 -7q-1 0 -8 -5q-10 -3 -12 -8l-6 -2v-1l-6 -2v-1l-4 -2h-2q-44 -15 -96 -15zM288 48q7 0 17 2l3 2l24 5q17 3 32 10l10 4q1 0 4 0.5t4 1.5q2 1 3 0q28 28 40 48v2l2 4q1 2 3 10q0 3 3 9q1 2 1 5q3 8 6 23v4l2 4v4q1 19 -9 66l-9 37q0 1 -1 1v2
q-4 6 -4 8v3q0 1 -0.5 2.5t-1.5 2.5l-4 6v4q-1 2 -3.5 8t-4.5 9h-1l-2 5q-11 23 -31 49q-1 1 -3 5q-4 4 -5 6l-3 3h-1l-3 4q-22 31 -97 31q-64 0 -100 -24q-14 -9 -25 -31t-12 -40v-3q-1 -1 -1 -3v-3l1 -3q5 -74 7 -83q0 -2 1.5 -10.5t2.5 -14.5q0 -3 0.5 -7t0.5 -6.5
t0.5 -5t0.5 -3.5q0 -2 5 -5l5 -4q3 -3 10 -20v-9q0 -3 1 -4l3 -2l1 -3q2 -3 5.5 -9t7.5 -12q2 -4 3 -5q2 -3 0 -3l-2 -2q8 -2 13 -11l4 -6q18 -23 44 -38q2 -2 5 -3q2 -1 4 -3q3 0 4 -1l3 -2q1 0 2 -1q1 0 3 -1l7 -4q13 -5 25 -5z" />
    <glyph glyph-name="p" unicode="p" horiz-adv-x="620" 
d="M85 -257l-6 -4l-19 9q-18 8 -26 14q-2 1 -6 10q-3 7 -4 8q-2 2 0 3q1 1 0 2h-2l1 2v2h-1l-1 1v2q1 1 1 2q-7 24 -7 76q0 7 -0.5 15t-1 14t-0.5 9l-2 2v8q0 4 -2 14q-1 3 -1 7t1 8v44q0 5 1 9t1 10q0 5 -1.5 15t-3.5 20t-2 12q-4 36 -4 48q0 10 4 53q0 3 -1 5q-1 3 1 11
t2 11q-1 1 -1 5v3q0 2 1 3t1 2q2 18 2 25h-2l3 7q3 20 3 80q0 7 1 13t1 12l-2 3q0 3 1 4t1 3q0 6 7 47q0 10 3 25q0 1 0.5 2.5t1 4t0.5 4.5q1 16 6 21v5h2v6l5 1q1 1 1 2t0.5 1.5t0.5 1.5q2 2 4 3q2 0 3 1v1q9 3 23 3q5 0 6 -1q0 -1 6 -3q7 -1 9 -5q0 -2 2 0q3 0 5 -3l2 -2
q2 -2 12 -7q18 -10 18 -18q2 -8 2 -14h1q53 38 115 38t107 -24.5t88 -75.5l7 -12l8 -12q10 -29 10 -71q0 -109 -58 -167q-2 -2 -5 -4.5t-5 -4t-3 -2.5t-5.5 -4.5t-8.5 -6.5l-13 -9l-13 -12l-5 -3q-20 -14 -37 -21q-8 -4 -22 -8l-4 -3q-41 -11 -49 -13h-6q-2 -1 -5 -1h-3v1
q-10 -3 -23 -3q-41 0 -78 23q0 -1 2 -3q0 -7 1 -13t1 -16l-2 -8h-4q4 -3 7 -12q0 -4 -1 -7l-1 -5q-2 -31 2 -55v-11q0 -3 1 -4t1 -5t-1 -7t-1 -7v-3l-1 -5q0 -6 2 -20v-5q0 -8 4 -13l2 -6q1 -16 -14 -47q-12 -22 -13 -23q-6 -4 -7 -6q-2 -2 -15 1q0 2 -5 -3zM221 34
q8 0 24 2q12 2 27 8q111 49 133 174q1 2 1 9q-1 3 -1 7q0 5 1 8t1 6q-1 6 -3 21q-2 2 0 4v3q-2 11 -8 33h-1l-3 9q-15 32 -42 61.5t-57 40.5l-3 1q-3 0 -5 2q-2 1 -5 1q-27 5 -43 5q-41 0 -79 -34l-18 -17q-1 -2 -3 -4v1q-2 -2 -3 -4q0 -2 -2 -20q-3 -19 -3 -26v-3l1 -6v-3
v-14q-4 -53 -3 -69v-3q-1 -2 -1 -5t1 -4l1 -3q0 -15 -3 -59q14 -48 27 -80l2 -2q12 -19 23 -27q15 -13 44 -13z" />
    <glyph glyph-name="q" unicode="q" horiz-adv-x="631" 
d="M390 -276h-2l-2 1q-1 1 -2 1q-19 6 -23 19l-11 34l5 87l-2 2q-2 3 0 8v7q0 4 -1 7t-1 7l2 8q1 3 1 7q1 3 1.5 10t0.5 11q0 13 1 18q0 1 0.5 2t1 3.5t0.5 4.5q1 4 1 9q0 17 -1 30l-2 23q-3 24 -3 44q-52 -38 -117 -45q-6 -1 -21 -1h-9q-104 8 -154 66q-53 55 -53 132v14
q0 8 1 11v6q0 3 1 5t1 4q2 13 13 49v1h-1l7 14q47 81 99 115q8 5 42 16l5 2q2 0 6.5 0.5t6.5 1.5q52 3 89 -9q17 -5 44.5 -23.5t39.5 -29.5q0 9 1 12q2 3 3 13q1 9 3 16q1 5 4 8l1 3v3l1 -1h1q1 1 1 4t3 4h2q3 3 4 5q2 2 4 2q1 0 2 1l1 2q26 0 27 -4l6 -4q5 -3 7 -6
q0 -1 2 -1q3 0 4 -3l2 -2q1 -1 11 -7q16 -10 18 -16q7 -35 7 -69v-28q4 -28 4 -30q1 -9 1 -40v-34q1 -1 1 -4q-1 -2 -1 -4q0 -3 1 -5t1 -4q2 -26 2 -66v-49q1 -20 -3 -42q-2 -16 -2 -17q-1 -1 3 -9l3 -6q2 -8 2 -14q0 -1 -0.5 -5t-0.5 -7v-4l-1 -2l-2 -2q0 -1 -0.5 -3
t-0.5 -3l2 -3v-14q-1 -7 -1 -17l-2 -9h-5q4 -3 6 -10v-5q-2 -6 -2 -9q-4 -22 -2 -52q1 -1 1 -5q-1 -2 -1 -5q0 -2 1 -3t1 -4t-3 -12l4 -70q-3 -10 -7 -14l-5 -5q0 -1 -15 0l-9 -5h-17l-2 -2q-2 -1 -6.5 -3.5t-9.5 -5.5h-7l-1 -1h-4l-2 1v-1zM230 51h12l11 2v-1q10 2 32 12
q47 30 62 67q2 8 5 12q0 1 1 2v1q0 4 1 7t1 5q0 3 -0.5 7.5t-0.5 6.5q-1 1 -1 3q0 1 2 3q1 1 1 2v28h-2q-1 2 1 7l1 1q2 16 2 27q0 13 -4 53q0 16 -2 24l-2 2q0 3 1 5q1 1 1 3q-1 12 -1 33q-9 1 -15.5 2.5t-10.5 3t-10 5t-8.5 5t-10.5 7.5l-12 9q-24 16 -34 21
q-25 14 -53 14q-16 0 -29 -4q-26 -7 -50.5 -43.5t-35.5 -69.5q-5 -11 -5 -23q-2 -24 -2 -40q0 -55 12.5 -93.5t47.5 -73.5q8 -6 28 -15q9 -5 11 -6l7 -3l6 -2q1 -1 3 -1q0 -1 2 -1q1 -1 3 -1q2 -1 3 -1l4 -1q9 -1 28 -1z" />
    <glyph glyph-name="r" unicode="r" horiz-adv-x="511" 
d="M111 2l-9 -6q-5 1 -17 1q-46 0 -54 16v2h-2q-1 0 0 1v2h-3l1 2q-8 14 -11 38l-4 45l-3 2v11q0 3 -1 5q-2 7 -1 10t1 6q2 16 2 27q0 4 1 7t1 6q0 12 -6 36l-2 15q-3 18 -3 24q0 2 0.5 7t0.5 10v20q0 3 -1 4t-1 4t1 5q1 1 1 3v5q0 4 -1 5t-1 2l2 2q1 1 1 2q0 15 1 19h-3
l3 6q2 8 4 45v17l2 10q1 5 1 9l-2 2q0 1 2 3q1 1 1 2q3 15 12 33l2 3q1 4 2.5 8t1.5 5q2 2 5 8q5 11 9 12l1 1v2h1l1 -1v1l1 2h4q1 0 1 1h2q1 1 6 3h1q3 -1 14 -3q8 -2 11 -5l5 -3q3 -2 6 -5l2 -2h2l3 -4q2 -2 10 -7t10 -6q4 -3 4 -6q2 -16 -3 -43l-4 -16v-34l9 9q2 3 5 6
q2 2 18 16q2 2 4 3.5t3 3t2 2.5l2 2h1l7 6q38 29 77 34l2 1q1 1 3 1h1q8 2 13 2h3q1 -1 3 -1l2 1q13 0 16 -1l4 -1v-1q8 2 14 -2q19 -9 32 -19l4 -2l3 -3q1 0 1.5 -1t1.5 -2.5t2 -3.5l2 -4q11 -13 14 -20v-2q1 -1 2 -3q1 -1 1 -2q0 -2 2 -4l3 -3q2 -6 2 -9q0 -13 -8 -16
l-2 -1h-1l-8 -5l-3 -2q0 -6 -16 -14l-9 -3q-4 -2 -11 5l-4 2v1q-1 1 -1 3l-1 -1q-1 0 -1 2v2h-1q-1 -1 -1 0v3q-5 10 -9 25q-5 15 -9 24h-1q-1 1 -1 3q-1 2 -3 4t-2 4q-1 1 -1 3l-8 9q-3 3 -5 3q-6 2 -10 2q-10 0 -23 -7q-7 -3 -19 -11l-6 -6h-2l-5 -5h-1v-1h-2l-9 -9v-1
l-3 -2q-15 -13 -29 -31q-8 -8 -8 -10l-1 -1l-1 -1l-2 -2q-6 -8 -15 -17q-6 -6 -7 -8t-7 -8q0 -32 2 -50q0 -19 -2 -28q-2 -10 -2 -11q0 -2 7 -9q2 -6 2 -12v-5v-2l-1 -2l-2 -2l-1 -1v-3l2 -2q0 -5 1 -9v-12l-2 -6h-4q6 -4 6 -8v-5q-1 -2 -1 -4q-1 -5 -1 -16q0 -14 2 -21v-3
q-1 -3 1 -6q1 -1 1 -3q0 -3 -1 -5q-1 -3 -1 -5q-1 -9 3 -18l2 -7l4 -4l3 -3q3 -7 -5 -29q-4 -12 -7 -15l-4 -4q-2 -2 -16 -2z" />
    <glyph glyph-name="s" unicode="s" horiz-adv-x="533" 
d="M161 -12q-13 0 -32 3h-6q-3 0 -4 1l-2 1q-2 1 -6 1l-3 1q-1 0 -2 1h-1l-15 6l-1 -1q-4 0 -4 3q-37 21 -44 26l-12 12h-2q-1 1 -1 2l-1 2q-7 9 -17 27q-12 26 -8 37q2 0 0 2v1h1v4l1 1q3 4 5 6h1v1q9 3 16 3q1 -1 5 -1q5 -1 5 -2q1 -1 2 -1h2q1 -1 2 -1q9 -3 15 -3
q2 -1 4 -3q7 -9 7 -17l4 -10q3 -10 12 -23q13 -16 22 -23q1 0 2 -1l1 -1q1 -1 2 -1q38 -23 71 -23l2 1q2 1 3 1h1q1 1 3.5 1.5t3.5 0.5l4 1q1 1 3 1q2 -2 3 0l1 1q3 1 13 7l3 2l1 -1q0 1 9 8q2 3 6 7l-7 46l-9 25q-7 13 -12 24l-7 12l-17 38q-34 34 -41 38q-5 3 -18 9
q-13 4 -19 9q-20 10 -43 30q-6 2 -11 7q0 1 -1.5 3t-2.5 4l-2 4q-6 9 -7 10q-4 4 -4 6q-2 2 0 4q0 2 -1 3q-3 11 -5 34h-2v5l3 6q24 77 45 96q7 7 36 15l4 2h8q30 5 50 5q4 0 13.5 -0.5t12.5 -1.5q3 -3 16 -3q1 1 2 1q10 1 38 -5q1 -1 5 -1q1 0 2.5 -0.5t2.5 -1.5
q3 -1 12.5 -5.5t10.5 -4.5l1 -1h3q27 -12 44 -38q0 -2 6 -2q2 -1 6 -7q1 -1 1 -2q-1 -1 0 -3h1q4 -5 6 -9l1 -2q0 -1 -1 -2l-2 -1q4 0 6 -6q3 -9 8 -18q0 -1 1 -2v-2q3 -3 3 -5q-1 -1 -1 -3q2 -6 4 -9q0 -3 3 -3l2 -2l2 -2q3 -4 0 -14t-5 -12t-2 -3q-1 -1 -10 -1l-5 -4
q-10 0 -32 2q-1 1 -5 3q-1 1 -3 1l-2 1v1h-1q-7 8 -11 23q-3 7 -3 9l-2 1v4q-3 0 -3 3v7q-2 4 -2 6v5l-8 10q-2 4 -7 10q-7 6 -8 11q-3 1 -3 3v2l-3 2q-2 4 -5 7l-1 -1v3q-6 6 -17 13q0 4 -5 4h-1v1l-2 1q-16 13 -35 13q-28 0 -50 -25.5t-22 -54.5q0 -6 1 -9q3 -24 24 -36
q8 -14 23 -27q2 -2 9 -2h2q8 -3 19 -10q2 0 2 -2l4 -4l2 -2h3l11 -6q10 -6 14 -9l6 -5l-3 -3q10 2 24 -12q29 -29 40 -52.5t11 -61.5l-6 -33l-18 -45q-12 -16 -19 -23l-1 -2q-3 -1 -9 -7q-1 0 -3 -2l-4 -4q-5 -4 -33 -14l-6 -2l-5 -2q-35 -10 -56 -10z" />
    <glyph glyph-name="t" unicode="t" horiz-adv-x="425" 
d="M153 -1l-9 -7q-3 1 -8.5 1.5t-8.5 0.5q-23 0 -39 5q-3 1 -8.5 7.5t-5.5 7.5q-1 0 -1 2l1 2l-1 1q-1 -1 -1.5 0t0.5 2v2h-2q-1 0 -1 2l1 2q-2 6 -4 17q0 3 -0.5 8.5t-1.5 8.5v20v19q0 11 1 21t1 19l-2 3q0 4 1 7t1 7q0 3 -1 6v4q0 1 0.5 2t1 3.5t0.5 4.5q1 3 1 7
q0 1 1.5 7.5t2.5 10.5q0 3 0.5 8.5t1.5 7.5q4 16 4 17q1 1 1 23q-1 14 -1 22v46q0 5 4 49v4l-2 2v4q0 3 1 5l2 4v12q-1 1 -1 3q-6 0 -10 -1t-7 -1h-6q-3 -1 -5 -1l-1 -1q-1 0 -2 1h-1q-6 -1 -19 -1h-5q-4 0 -5 1l-12 1h-1v1q-2 -1 -2 0h-1v1l-2 2h-1q-3 6 -1 8l2 2q0 2 1 3
v1l9 10q6 0 17 1q2 1 11 1h11q6 2 11 2q6 0 11 1t9 1l3 3q1 5 1 19q0 21 -3 54v12q0 8 -1 9l-2 2q0 3 1 4t1 2q0 6 2 38v10q-1 8 0 9v9q0 12 3 15l-1 1v2h1l1 1q2 0 0 2q-1 2 2 3q1 0 4 5q0 1 3 2q1 1 1 2l1 1q3 2 14.5 6t13.5 3q0 -1 7 -1q8 0 9 -1q2 -1 3 0t5 -1
q1 -1 2 -1q5 -2 13 -3q18 -4 22 -10q6 -16 10 -42q2 -6 2 -26q-1 -15 -1 -27q0 -2 2 -14q1 -6 1 -13v-62l1 1l3 -1v-1q4 2 10 1q14 0 21 1h10q2 0 2 -1q7 0 10 1h4q2 0 3 1l1 1h3q5 0 13 -3q5 -1 7 -3l2 -2q1 0 -1 -5l3 -4q-2 -2 -3 -7q-2 -4 -6 -10l-2 -2l-4 -2l-1 1h-1
l-1 -1h-1h-13l-14 2h-13h-9q-1 -1 -3 -1t-3 1h-16l-3 -89q-1 -17 -6 -37q-3 -11 -3 -14q-2 -2 2 -7l3 -6q1 -3 1 -10q0 -8 -1 -13q-2 -5 -3 -6q-3 -1 -3 -6l2 -3q-1 -3 -1 -12q0 -3 -0.5 -8t-1.5 -7l-3 -7h-4q5 -5 5 -12l-2 -6l-1 -4q-6 -26 -5 -48v-4q-1 -3 -1 -5t1 -3
t1 -4t-1 -6q-1 -1 -1 -3q-1 -1 -1 -2v-3l-1 -6v-3v-3l1 -5q0 -4 2 -12q0 -3 6 -9q1 -1 1 -5q0 -3 -1 -8.5t-1 -6.5q-4 -14 -6 -14q-4 -16 -11 -23q-2 -2 -16 -2z" />
    <glyph glyph-name="u" unicode="u" 
d="M245 11l-55 -3q-3 0 -6 1h-9q-3 -1 -9 1h-2l-5 1h-2q-15 4 -27 5q-4 0 -6 1q-32 18 -43.5 31t-30.5 50q-2 2 -2 3l-12 23v1l-1 1l-2 8q0 2 -1 2l-6 14q-7 15 -7 17q-11 28 -16 72q0 2 -2 8q0 3 1 5v3q0 3 -2 9v5l1 1v20h-1l1 6q1 6 1 22v39q0 5 1 10t1 8l-2 2l2 3v2
q1 10 7 32l2 8q1 4 1 8l8 19v2h1q1 0 1 1v2h1q1 0 2 1l4 3q1 0 1 1h1q15 0 15 -2q3 0 9 -6h2l1 -1q0 -2 1 -2q3 -3 6 -5q9 -6 9 -10q0 -25 -4 -46q-2 -16 -2 -18q-2 -2 0 -10v-62q0 -1 1 -2v-3q1 -2 4 -32q1 -9 5 -37l3 -32q0 -1 3 -3l2 -3q3 -5 5 -13q1 -2 0 -3q-2 -2 0 -5
l1 -1l2 -6q2 -6 3 -8q0 -1 1 -2q0 -2 -1 -2l-2 -1q4 -1 7 -9q3 -12 10 -22q3 0 9.5 -11t26 -24t52.5 -17h2h4l4 -2h4h23q10 1 28 7l13 6q26 21 30 68q1 11 2.5 28t1.5 18q0 4 -1 5t-1 4q0 1 2 5l1 3v6q-1 2 -1 5l-1 2q0 1 1 2l2 2v22h-2l2 7q2 22 -5 73v12q0 10 -1 12l-2 2
q0 3 1 4l1 3q-2 20 3 47q0 15 2 25q1 2 1.5 6t0.5 6q1 17 6 21v5l1 -1q2 0 2 3q-1 3 2 4q2 0 2 1q2 2 3 4q2 2 5 3q1 0 2 1v1q4 2 18 2q7 0 11 -2q0 -1 6 -3q6 -3 8 -5q1 -1 3 -1h2l4 -5l11 -6q18 -8 19 -15q6 -16 6 -68q-1 -13 -1 -27q0 -3 2 -13q1 -6 1 -13q0 -3 0.5 -8
t1 -13t0.5 -14l2 -32q1 -1 1 -4q-1 -2 -1 -4q0 -3 1 -4l1 -3q1 -8 1 -23q0 -104 -50 -144q-5 -5 -20 -16l-12 -13q-10 -9 -26 -15q-5 -3 -8 -2q-3 0 -8 -3l-2 -2q-23 -8 -32 -9l-9 -1v2q-8 -5 -25 -6z" />
    <glyph glyph-name="v" unicode="v" horiz-adv-x="593" 
d="M222 -16h-8q-2 0 -9 6q-1 1 -2 1h-2l-4 2q-4 4 -7 8.5l-5 7.5t-4 8l-3 7.5t-2 8.5l-1.5 9t-1.5 11t-2 11q-5 10 -8 18l-9 18l-2 1l-1 2l-3 6q-1 1 -1 2l-2 4q-3 3 -4 9l-2 4q-7 19 -10 23q0 1 -0.5 3.5t-2 5t-1.5 3.5l-9 17q-7 10 -7 11l-7 12q-8 12 -18 33q-1 3 -2.5 6
l-3 6t-2.5 4v2q-4 4 -4 8l-2 2q-1 5 -4 8q-2 2 -1 4q-2 5 -4.5 11t-3.5 7h-1l-2 5q-2 7 -24 53q-2 2 -3 9l-4 8l-2 1q-1 1 -1 3v3q-8 23 -10 33q0 1 -1 4.5t-2.5 8t-1.5 5.5q0 5 -1 9q-3 12 -3 15q0 2 -1 3v1h1v2q-1 1 -1 2l2 2l2 7q1 0 1 1v1q1 1 8 4t8 2l4 -1q4 0 6 -2
l1 1h2q3 -2 3 -3q1 -1 4 -1.5t5 -0.5q12 -3 13 -8q9 -12 20 -50q3 -13 6 -19l4 -9l4 -8q1 -2 3.5 -6.5t3.5 -8.5l7 -17q2 -5 6 -11q0 -3 2 -5l21 -38q7 -16 14 -30q1 -1 13 -33q2 0 6 -4l2 -2q9 -9 9 -19q-2 -1 1 -4l6 -9q1 -2 2.5 -5.5t1.5 -4.5l1 -5l-2 -1q4 -1 9 -14
q6 -14 9 -19q3 9 11 19l1 2q2 3 4 5q5 7 10 19q1 7 6 16l5 13q3 10 17 42l12 24q6 12 10 22q1 1 1 2q1 2 1 3q0 5 5 10q4 4 5 9q0 1 0.5 2.5t1.5 2.5v3l2 2l2 2l10 21l-1 1l4 6q9 14 28 63q1 1 4 9l4 8l-1 2l2 2q1 1 1 2q6 11 15 24q4 4 6 10q2 0 3 3q3 4 6 4v1h6q3 -1 6 -1
h2q24 -6 25 -7l6 -3q6 -2 7 -3l1 -1q2 0 4 -2q1 -1 2 -1q0 -1 8 -5t10 -7q3 -3 3 -5q0 -10 -15 -38q-9 -14 -13 -26l-16 -36q-10 -19 -12 -28q-3 -3 -3 -7q-2 -2 -2 -7l-42 -92q-6 -13 -18 -32q-7 -9 -8 -12q-1 -1 -1 -4v-10q-3 -15 -13 -25q-4 -2 -5 -5l1 -3l-6 -10
q-2 -2 -4 -7t-3 -6l-5 -6l-3 2q3 -7 -6 -20q-13 -16 -21 -36q0 -2 -1 -3l-3 -4v-2q0 -3 -4 -7l-3 -3q-6 -10 -7 -15q-2 -2 -2 -6v-4l1 -3q-2 -6 -11 -12.5t-16 -6.5z" />
    <glyph glyph-name="w" unicode="w" horiz-adv-x="833" 
d="M228 -4q-24 0 -34 10.5t-15 36.5q-6 17 -8 21l-3 6q-5 6 -6 13l-2 5l-7 15q-3 4 -3 7q0 2 -1 3l-14 30h-1l-3 9q-15 35 -47 93q-1 2 -6 11q-4 6 -6 11l-5 8l-3 2q0 1 -1 2v3q-1 2 -2 3t-1 2q-15 29 -30 60q-29 63 -27 77l-1 3q-1 2 -1 4h1l-1 3q-1 2 -1 4q0 1 1 2t1 2
q1 2 1 5q-1 3 1 5v3q5 7 15 7q2 0 2 -1l4 -2q5 -1 8 -5h2q0 -1 1 -2l2 -3l13 -9q5 -3 7 -4.5t4 -5t2.5 -5t4 -8.5t5.5 -13q29 -65 50 -101q3 -7 10 -16q3 -4 6 -10l4 -6l24 -45q14 -30 18 -36q1 -1 3 -5l2 -4q1 -5 5 -9q18 -35 29 -57q0 8 1 11l3 10l3 -3v2q-3 7 3 33
q9 42 14 75q3 9 3 15q1 1 1 5q0 5 4 17l11 46q0 2 3 14v9q0 6 1 7q4 19 15 40q-1 8 0 12t1 10q0 5 10 6l4 2l5 14q2 1 5.5 1.5t5.5 0.5q1 1 2 1q3 0 6 1q2 1 5 1l3 2l1 -1q14 2 20 2l5 -1q8 0 16 -8l8 -8l2 -3v-3q1 -1 2 0h1l1 -3v-3q1 0 2 1h1l1 -3q0 -3 1 -3q2 -3 20 -37
q4 -9 9 -22.5t8 -20.5q4 -13 8 -22q12 -33 15 -46l3 -3q0 -1 2 -8.5t3 -10.5q0 -1 3 -7l4 -8q0 -1 0.5 -2t1 -3.5t0.5 -4.5q0 -9 2 -17q18 36 31 66q19 45 20 45q1 5 9 19q2 4 8 15v5q7 7 7 9q16 26 44.5 65t39.5 42l3 3v-1h1l2 2q1 2 4 2q1 -1 2 -1l8 2q1 -1 2 0h1
q3 -1 8.5 -5.5t5.5 -6.5l1 -4q2 -6 2 -7h1l1 -1v-6l4 -9q4 -12 4 -15q0 -4 -1 -5q-12 -32 -38 -79q-13 -22 -19 -35q-13 -24 -16 -38q-37 -86 -39 -93l-2 -4q-2 -5 -3 -6q0 -3 -1 -5q-1 -3 -1 -5q-27 -80 -38 -111q-4 -11 -27 -18.5t-50 -7.5q-47 0 -58 17q-20 31 -24 65
q-2 8 0 12t1 10l-3 3q0 3 -1 8t-1.5 9t-0.5 5q-1 3 -1 7q0 2 1 3q3 -2 5 0q-9 7 -9 13q-1 1 -1 8l-1 5q-5 31 -15 59v1l-1 1l-2 8q0 2 -1 2q0 2 -2 4q-3 3 -3 13q0 1 -1 4q0 2 -1 3q-2 8 -4 14q-11 -51 -14 -66l1 -4q-4 -20 -4 -22q-2 -8 -2 -18q-5 -15 -5 -22
q-6 -24 -9 -48q-5 -20 -5 -22q-3 -20 -4 -47q-1 -17 -17.5 -30t-37.5 -13z" />
    <glyph glyph-name="x" unicode="x" horiz-adv-x="603" 
d="M35 -23h-7q-2 0 -6 6l-7 2q-1 1 -6 11q-6 10 -8 15q-2 0 0 5v6q-1 0 0 1q1 0 1 1l-1 1l1 1h1l-1 1v1q9 17 20 31l15 19q11 14 15 18v3q2 2 3 4l2 2q1 1 2 3l1 1q0 1 1.5 3l3 4t2.5 3l5 5q1 1 2 3l2 2q4 3 13 14q3 3 6 6.5t4 4.5l2 2q2 3 4 5q12 14 15 19q11 14 18 27
l13 19q15 23 28 39l-4 4q-1 1 -1 3q0 1 -1 2l-14 19l-1 -1l-3 7q-11 20 -42 56l-6 9q-3 4 -6 7l-3 1l-2 3v2q-4 4 -20 28l-9 12q-3 3 -4 6q-4 4 -5 6q-2 2 -2 3t-1 2h-1v2q-1 0 -1 1v2q-1 3 -1 5v1q0 2 2 6t3 4t3 2q2 1 5 1l1 1v1h2l1 -1q9 3 15 3q3 0 6 -1q12 -6 21 -15
t36 -40q9 -9 15 -17q3 -3 21 -25l18 -24q0 -5 4 -5l5 -6q6 -6 9 -11q0 2 1 3l4 5q1 0 2 1q14 18 16 21v1h-1q0 1 2 3l4 3q14 16 47 66q12 12 14 18v3q4 4 5 4q10 13 26 29q1 3 12 14l2 1l4 4q6 8 10 8l2 2l1 -1v1l2 2h2l1 -1h8q3 -1 10 -5.5t7 -5.5t3 -4q4 -4 4 -6l1 -1
q1 -1 2 -1v-4l2 -3q1 -3 3 -5q5 -12 5 -14v-2q-12 -24 -32 -47q-15 -17 -22 -29l-7 -11q-3 -5 -20 -27q-16 -23 -20 -29l-2 -3q-1 -1 -2.5 -3t-2.5 -4l-2 -3q-20 -30 -37 -53q19 -26 22 -35l10 -8q6 -4 14 -16l2 -6q0 -2 3 -5l2 -1q0 -1 1.5 -2.5l3 -3t2.5 -3.5
q2 -3 4.5 -6.5t3.5 -4.5l4 -6l-2 -2q6 -2 14 -14q13 -18 26 -31l6 -6q0 -1 2 -1l2 -2q2 -4 6 -8q6 -8 13 -12l2 -2l6 -4h3q2 -1 17 -18l11 -13l-1 -5l3 -5q-2 -6 -6 -10q-2 -3 -5 -5q0 -1 -6 -1h-6l-2 1h-3q-1 1 -2 1v-1l-3 2q-32 11 -80 53l-2 1l-5 5l-4 4q-3 1 -9.5 8.5
t-7.5 10.5l-20 25l-5 8q-2 3 -5 6l-15 18q-4 4 -8.5 9.5t-5.5 6.5l-9 11q-10 12 -12 14q-6 -8 -12 -14q-10 -10 -11 -12q-4 -4 -4 -10q-1 -2 -1 -4q-5 -9 -15 -20q-2 -2 -4 -3l-2 -2q-3 -2 -4 -3l-1 -3q-2 -6 -18 -22q-6 -7 -6 -5l-3 2q1 -7 -12 -19q-19 -19 -31 -35l-6 -6
q0 -6 -6 -8l-2 -2q-5 0 -16 -17l-2 -3q-4 -6 -4 -7q-1 -2 -1 -4q-8 -9 -25 -15q-7 -3 -11 -3z" />
    <glyph glyph-name="y" unicode="y" 
d="M83 -229l-11 -8q-1 1 -3 2t-5.5 2.5t-5.5 2.5q-19 8 -27 16t-8 26q0 2 1 3l1 2l-1 1h-1q0 1 2 3q1 1 1 3h-2v2l2 2v2q6 38 51 135l-1 4l5 8q6 12 7 15q3 8 7 14q2 2 3 4l2 3q10 23 22 36q4 7 5 9q5 4 6 9q7 12 13 26q6 15 11 22q8 19 15 31q-4 4 -6 5l-2 1q-5 5 -6 8
l-3 3q-1 1 -6 7q-2 4 -2 5l-13 21l-2 4q-3 5 -4 7q-7 10 -10 14q-8 9 -9 13q-21 32 -29 49q-8 13 -9 15v2q-4 4 -4 8l-2 3q0 1 -1 1v2q-3 6 -5 6v4l-8 17h-1l-1 5l-25 51q-1 1 -3 8q-1 5 -3 6l-2 1v3q0 2 -1 2q-2 4 -8 27q0 1 -1 2l-2 8l-1 2q0 2 -1 6.5t-1 5.5q-1 1 0 4h-1
v2h1q1 0 1 1v2q0 1 1 1l3 5q1 2 6.5 5t8.5 3h3q4 1 6 0l1 1h3l1 -1q5 0 8 1q11 0 12 -3q8 -8 18 -36q3 -7 6 -16l4 -8l4 -8q2 -8 19 -42l2 -2q0 -3 3 -5q1 -1 1 -2q8 -14 18 -34q13 -26 16 -31l3 -6l5 -12l3 -6q1 -6 3 -9q0 -2 6 -5q1 -1 2 -1q9 -9 9 -18q0 -3 1 -4l2 -1
q1 -1 5 -8t4 -8l2 -4l-2 -2q3 -1 14 -19l7 12l2 6q1 4 7 10q6 8 8 13v3q2 5 5 6q1 1 1 2q5 7 15 25h-1l-1 1q0 3 5 5l1 1q11 16 32 58q12 24 21 36q3 4 6 9l2 2v3q3 3 5 4q2 2 2 3l34 45q4 4 8 12t7 11l12 22q2 3 5 6v2q1 1 1 3h1l1 -1l1 2v3h4l3 3q2 2 4 2q1 0 2 1l1 1
q24 0 26 -5q0 -1 5 -4q5 -5 6 -8q0 -1 2 -1t2 -1l1 -3v-4q0 -1 5.5 -12t5.5 -13q0 -6 -1 -12q-3 -7 -32 -53q-2 -3 -19 -26q-20 -28 -20 -29q-2 -3 -6 -13l-5 -13l-39 -71q-1 -2 -3 -4q-1 -1 -1 -5l-2 -4q-32 -64 -55 -102q-4 -9 -11 -18l-21 -31q-2 -2 -2 -11q0 -4 -1 -4
q-1 -10 -11 -24q0 -2 -4 -5q-3 -1 -6 -6l1 -4q-6 -7 -15 -28l-6 -7q-2 2 -3 2q1 -7 -9 -25q-14 -22 -25 -51q0 -1 -2 -5q-3 -4 -3 -9t-5 -11l-4 -6q-6 -12 -9 -26q-1 -1 -1 -5l-2 -6q0 -4 1 -7v-6q-2 -13 -9 -25q-2 -2 -4.5 -6t-4.5 -7l-2 -3q-9 -17 -13 -21q-3 -2 -7 -6
q-2 -2 -13 2z" />
    <glyph glyph-name="z" unicode="z" horiz-adv-x="626" 
d="M178 -15v-1l-4 1h-74l-79 7q-17 14 -20 20q-1 1 -1 6l2 8q0 5 -1 6l3 3v1h-1l2 2q1 1 1 2h-1l-1 1l3 3q10 26 65 93l1 3q1 2 9 10q0 1 1.5 3l3 4t2.5 3l5 5q3 2 5 4l13 12l18 18l5 5q2 2 16 18q9 12 12 15q26 31 46 51q8 7 16 15l3 4q4 7 7 8q3 2 7 7l4 4q1 1 1 2l4 2
l17 17l-1 1l6 4q10 8 52 53q1 3 9 9q2 2 4 5l3 3l6 6q13 12 32 29q4 4 8 7q-6 1 -15 1h-14q-39 -2 -40 -2h-9q-17 -1 -50.5 -3t-50.5 -3q-4 0 -6 -2l-2 -1q-4 -1 -16 -1q-3 0 -4 1q-2 0 -4 -1h-2q-2 -1 -8 -1q-8 0 -11 -1l-5 1v1q-4 -2 -14 -2q-5 0 -8 -1h-16q-3 -1 -8 -1
q-1 -1 -3 -1h-5q-1 -1 -2 -1q-3 0 -4 1h-4q-2 0 -4 -1h-7q-1 -1 -4 -1h-2q-2 0 -6 -2q-1 -1 -3 -1q-4 -1 -21 1q-6 1 -11 1q-4 1 -4 6l-4 2q0 11 4 16q0 2 4 3l3 1h2v1h3q0 1 1 0h1q7 2 67 7l1 1h10q2 0 4 1h4q1 1 5 1q2 -1 4 -1q4 1 13 1h17q4 0 5 1q2 0 18 2q7 1 13 1
l13 2q11 1 37 3h15q3 0 4 1h10q3 0 4 1h9q10 0 16 1h5l48 2h15q1 1 2 1q1 -1 2 -1q7 0 23 -2h4q3 -1 6 -1q8 0 11 -3l2 3h2q1 -1 2 -1l7 2h2l1 1q3 -1 9 -5.5t6 -6.5l1 -4q2 -6 1 -7q0 -1 1 -2h1v-3q-1 -1 -1 -3q0 -1 0.5 -2t1 -3.5t0.5 -4.5q2 -9 -2 -18q-16 -25 -47 -51
q-17 -15 -19 -18q-5 -5 -8 -9q-6 -8 -9 -9q-3 -4 -21 -22q-19 -19 -23 -24l-2 -2q-4 -3 -5 -6l-35 -40q-16 -17 -30 -31q-22 -24 -35 -33q0 -2 -1 -3q-2 -4 -2 -6l-1 -2q-5 -8 -14 -17q-1 -3 -4 -3t-5 -3l-1 -3q-5 -5 -8 -9t-9 -10q-5 -7 -5 -4l-3 2q1 -7 -11 -18
q-14 -14 -29 -34l-3 -3q-3 -4 -3 -7q-1 -2 -7 -7l-4 -4q-7 -7 -12 -19l-2 -3l-2 -4q-1 -2 -1 -6t-1 -4l-3 -7q7 -1 17 -1h69q30 2 64 2h32l6 2h2q3 1 14 1h4q1 -1 4 -1h2q4 0 8 1h9l5 -1v-1q4 2 14 2q10 -1 32 1h9q2 0 3 1h4q1 -1 4 -1q11 0 16 1h3q1 0 7 2l2 1q4 1 27 -1
l15 -2q1 -1 4 -1q2 -2 2 -5l6 -2q-1 -1 -1 -5q-3 -11 -11 -14l-5 -1h-3v-1h-3h-1h-2q-16 -4 -78 -5l-2 -1h-13q-2 -1 -4 -1q-3 0 -5 1h-16q-7 -1 -11 0h-11q-9 0 -16 -1t-13 -1q-5 0 -12 -1t-17 -1h-17q-8 -1 -15 -1h-6q-2 -2 -4 0h-7q-2 0 -3 -1h-2q-1 0 -2 1h-18z" />
    <glyph glyph-name="braceleft" unicode="{" horiz-adv-x="458" 
d="M231 -184q-55 0 -103.5 40.5t-60.5 99.5l-2 6q0 11 1 19v30q-1 11 2 34q0 3 0.5 6.5t1 6t0.5 3.5l7 73l2 30q0 10 -4 23q-4 16 -4 21v3q1 12 -6.5 19t-24.5 11q-22 4 -32 13t-8 22q4 22 21 45q7 11 9 15q1 1 1.5 3.5t0.5 3.5q0 6 4 13l2 4l4 22q1 3 4 6q3 14 7 42h-1
q0 1 0.5 3t1.5 4.5t1 3.5l2 2q9 53 14 118q4 52 9 76q1 5 2 10.5t2 8.5t1 4l-1 5q2 11 6 15q19 54 45 86q22 27 70 42q22 5 26 5l4 1q3 1 5 1v-1q2 0 5 1h7q1 -1 2 -1l15 -2q1 -1 3 -1h2q3 -3 5 -9q0 -2 -2 -4q-1 0 -5 -2q-2 -1 -5.5 -2.5t-4.5 -2.5v-1q-7 0 -9 -2
q-35 -16 -44 -70q-2 -15 -7 -37q-12 -49 -13 -75q-2 -23 -2 -24q-1 -17 -18 -145q0 -5 -1 -8q-3 -12 -3 -16q-1 -4 -1 -9q-11 -31 -50.5 -63t-69.5 -39q16 -4 44 -8q5 -1 11.5 -2t9.5 -1.5t7 -1t6 -1t5 -1.5t5 -1.5t4.5 -1.5t4.5 -2t4.5 -2t6.5 -3q13 -7 17 -11
q29 -43 29 -64q0 -6 -1 -8q-2 -6 -2 -13l3 -5q-2 -48 -3 -58l-3 -16q-1 4 -4 4q-2 0 -1 -4q3 -6 3 -19q0 -6 -2 -30q-3 -32 -3 -58q0 -18 2 -44q0 -3 1 -7v-9l3 -4q2 -4 2 -14q-1 -4 -1 -7q1 -12 1 -19q0 -2 -1 -3q-1 -2 -1 -4q-2 -5 0 -7q6 -9 22.5 -13t26.5 -2q13 5 22 10
l6 4q5 2 10 5q3 3 6 -2q1 -1 1 -2l8 4q2 0 4 2h2l1 1l1 1q0 -1 1 -3t1.5 -4.5t1.5 -4.5q3 -12 3 -14q0 -1 -0.5 -4t-0.5 -5q-6 -11 -20 -17l-4 -2t-3 -2l-2 -1l-4 -2q-3 -1 -5 -1v-1l-9 -3v-1q-4 -4 -29 -4z" />
    <glyph glyph-name="bar" unicode="|" horiz-adv-x="254" 
d="M79 -86l-3 -6q-28 0 -41 8q-3 1 -6 6.5t-5 10.5l-2 5v7h-1q-1 0 -1 3v2q0 2 -1 1v4q0 2 -1 2q-1 5 -4 23t-4 25q0 4 -1 16.5t-2 23t-1 14.5l-2 30q0 24 -1 26l-1 3v10l-1 16q-2 5 0 19v9q0 6 0.5 22.5t1.5 22.5q1 3 1 16v5q2 30 -2 58q-1 31 -1 93q0 24 1 29q0 1 -0.5 3
t-0.5 4q0 11 1 13q2 8 2 9v2l-1 3v1q1 2 -1 7v3q-1 1 2 4v3l1 32l-1 -1v1q0 4 1 8v2q5 35 3 99q1 2 1.5 11t0.5 12q-1 3 -1 7l-2 3v7q2 2 1 3q0 35 2 60v16v17q0 19 4 34q0 8 2 8v5v2q2 1 2 4v4l3 2l3 5q-1 2 3 5q1 0 1 1v1q3 3 15 3q7 0 8 -2q0 -1 5 -3q3 -3 5 -7q2 -1 3 0
h2q0 -3 1 -4l2 -3q2 -5 9 -10q13 -15 14 -18v-5l1 -10v-5v-21q1 -8 1 -18q1 -9 1 -38v-35q0 -10 2 -18l1 -18v-49l-2 -41v-5q-1 -3 1 -11v-3v-68l-2 -59q0 -15 -2 -45q-2 -16 -2 -18q-1 0 -1 -1.5t1 -2.5l4 -11q1 -7 1 -28l-2 -8q-1 -2 -1 -8l1 -3v-35l-2 -8h-1h-2
q3 -5 4 -12v-13l-1 -4q-1 -9 -1 -28q0 -23 2 -35v-17q3 -4 0 -13v-7q0 -21 2 -31q0 -5 2 -13l4 -8v-5q3 -10 3 -31q-2 -6 -2 -14l-1 -8q-1 -7 -2 -14.5t-1 -10.5l-1 -4q-3 -6 -3 -10q-1 -4 -9 -4h-2q-3 0 -4 -6z" />
    <glyph glyph-name="braceright" unicode="}" horiz-adv-x="442" 
d="M53 -242q-16 0 -32 8t-19 22q0 4 -2 12q0 8 17 21q25 9 54 12l3 1q3 0 4.5 -0.5t1.5 -2.5l6 -3v-1l37 16l3 3q4 4 8 9t8 14.5t5 23t-1 34.5l-3 39q-2 8 -3 22q-4 18 -5 51q0 5 -0.5 14.5t-1.5 12.5q0 3 -1 5q-2 6 -2 9v4q1 2 1 4q0 8 -2 14l-1 3q0 3 1 4t1 2q0 11 -1 29
h-2q-1 1 1 7l1 1q1 9 3 31q3 44 8 58q2 15 13 26l-1 3l7 6q20 19 43 28q-32 23 -49 56l-3 2l-4 16l-2 6q-3 5 -3 7q-1 1 0 8v8q-2 34 -1 38q0 5 1 10v9q0 9 -5 49q0 8 -1 21q-3 36 -2 55v26q0 1 -3 10q0 3 1 6q1 2 1 4t-0.5 6t-0.5 5q-1 1 -1 3q-2 1 0 3l2 1q0 4 -0.5 11.5
t-1.5 10.5h-2l1 7q0 18 -10 51q-1 1 -1 6q0 4 -1 4h-2q0 2 1 3t1 2q0 18 -1 22.5t-8 11.5l-2 1q-1 1 -3.5 2.5t-4.5 2.5q-8 3 -9 4h-4v1h-3q-1 0 -2 1l-8 3l-1 1h-1q-4 4 -4 10q1 2 3 4q2 3 5 5v2q1 0 2 1q4 0 10 6q11 8 17 9q8 1 23 1q45 0 82 -37q19 -21 27 -47
q12 -38 12 -47q1 -1 1 -4q0 -2 2 -8q1 -2 1 -4q4 -19 7 -111q0 -34 -6 -53q0 -3 4 -7l3 -6q3 -9 3 -23q-2 -5 -3 -6q-2 -2 -2 -6l3 -3q0 -6 1 -11v-14q0 -6 -2 -6l-4 -1q7 -4 7 -9v-5q-1 -2 -1 -4q0 -18 6 -33v-2q0 -2 1 -3l2 -2v-1v-3q-1 -1 -1 -3q0 -3 2 -9l1 -1v-1
q0 -1 1 -1h2q0 -5 -1 -10q-2 -9 0 -12l7 -12q1 -3 4 -4q1 -1 0 -8l3 -3q1 0 2 -1l2 -1l-2 -6q3 -9 0 -9l-4 -4q-6 -8 -13 -9l-4 -4q-7 -7 -10 -8q-17 -9 -17 -25q0 -3 2 -21q0 -4 1 -7t1 -8v-25q0 -24 1 -26v-3q0 -1 2 -7q1 -2 1 -4q2 -9 8 -75q2 -23 3 -32q2 -17 -2 -59
q0 -2 3 -8t3 -7q2 -12 2 -17l-1 -6v-3q-2 -6 -3 -7q-2 -2 -4 -8l2 -3l-8 -32l-5 -8q-2 3 -4 1q4 -9 -9 -25q-18 -22 -38.5 -38.5t-39.5 -28t-20 -11.5l-13 -8q-49 -11 -71 -11z" />
    <glyph glyph-name="asciitilde" unicode="~" horiz-adv-x="1060" 
d="M653 617q-20 0 -36 29q-11 19 -11 31q0 11 8 17q11 8 18 8q8 0 16 -8t11 -4q4 7 16 7q27 0 27 -22q0 -14 -13 -31.5t-20 -22.5q-5 -4 -16 -4zM550 -34q-3 -2 -3 2l-1 1h-10v4l-3 -3q-6 -2 -8 -2q-5 0 -8 1h-6l-3 1h-2l-1 -1l-3 1h-2q-1 1 -1 0h-3l-2 1q-57 9 -142 46h-3
q-7 6 -17 8l-6 4l-8 3q-5 2 -10 7q-4 1 -6 3q-24 15 -36 24q-3 1 -9 7l-9 6q-2 2 -20 15q-57 36 -112 101l-9 9q-3 3 -4 6q-4 8 -8 11l-5 5q-3 3 -3 6l-2 3q-2 3 -7.5 12t-9.5 14l-1 -1l-4 9l-44 91q-3 9 -5 17l-4 13l-2 3q-1 1 -1 5v4q-7 32 -7 69q0 50 5 65q1 0 1 3v3
q2 1 2 4v3q3 0 3 3q1 1 3 5q2 3 3 3q1 1 1 2l1 1q2 2 10 2h4q0 4 2 4t5 1q4 2 9 0q0 1 1 2l4 -1q2 -1 4 -1q9 0 13 1q16 0 23 -3q26 -10 55 -27q11 -6 26 -15q21 -14 27 -16h1l1 -1l4 -2l1 -1h1l10 -6q6 0 57 9q3 0 5 1h4q8 0 10 2q9 2 87 13q14 2 72 10l85 11q5 0 14 3h3
l1 1h2q14 3 34 6q4 1 9 1q3 -1 9 0l3 1q1 0 14.5 2t18.5 3q4 0 7 1l1 -2q5 4 18 5q10 1 18 9q6 2 10 6l3 2q4 1 11 7q4 1 6 3q13 7 26 17q4 1 10 7q2 1 6 5l4 4q18 13 46 28q6 4 12 7.5t9 5.5l3 1l2 1l5 2q1 0 1 0.5t1 0.5q2 2 5 -3l6 2q1 1 3 1l3 1q0 -5 1 -8q0 -2 1 -3
l3 -4l1 1h2q4 0 4 -6q20 -15 21 -16q3 -2 5 -10q8 -32 8 -64q0 -31 -4 -72q0 -17 -2 -35q-1 -2 -16 -85q0 -6 -3 -9v-5q-1 -2 -1 -4q-18 -62 -44 -118q-15 -27 -32 -52q-4 -4 -4 -11l-1 -3q-5 -11 -15 -23l-5 -5q-3 -2 -6 -6l-1 -3q-6 -7 -10.5 -13t-7.5 -9l-2 -3l-7 -6
l-1 1q-1 -6 -17 -20l-42 -39q-6 -6 -9 -7q-13 -13 -17 -13l-27 -20q-4 -2 -5 -3q-7 -7 -8 -7q-12 -8 -42 -20q-19 -6 -23 -6q-1 0 -4 -0.5t-4 -1.5zM530 116q0 22 1 35l-1 3q0 4 1 7v19q0 5 1 10q0 1 1 4l1 3q4 33 6 36q0 2 4 18q2 5 3 21q6 59 44 108q1 2 3 4.5t3 3.5l4 4
l3 2q4 3 7 7q3 3 4 3q2 2 4 2q6 5 20 13v1l7 2q65 25 106 25l2 1h4q1 -1 3 -1q39 -2 63 -8l3 33l2 10q0 8 1 11q0 6 -1 7l-1 3q0 4 1 6q1 1 1 3q0 30 3 54v15q-1 7 -1 14v15q-1 4 -1 10q-38 -30 -125 -80l-2 -3h-10q-1 0 -2 -1t-3 -1h-5q-2 -1 -5 -1q-1 0 -3.5 -0.5t-5.5 -1
t-6 -0.5t-8.5 -0.5t-8.5 -1.5q-2 -1 -10 -1q-2 0 -5.5 -0.5t-5.5 -1.5q-26 -2 -66 -11q-19 -3 -37 -5.5t-27 -4t-11 -1.5q-55 -10 -87 -12q-15 -3 -16 -3q-10 -2 -17 -2q-3 -1 -10 -1q-1 0 -4 -0.5t-4 -1.5q-3 -1 -5 -1h-7l-35 -5v-1h-10q-46 -6 -71 -11h-6q-14 0 -29 4h-3
q-1 0 -2.5 0.5t-2.5 1.5q-3 1 -3 2q-61 26 -76 41l-12 8q-9 4 -15 9l-4 2l-4 2l-1 1l-3 2l2 -2q11 -12 12 -19t3 -25q0 -4 0.5 -13.5t1.5 -12.5q10 -56 10 -60q1 -11 21 -59q60 27 130 27q28 0 71 -8q6 0 8 -2h4q1 -1 3 -1q51 -16 89 -50q14 -14 31 -40q2 -2 4 -3l4 -4l3 -1
q9 -9 14 -19l2 -6q0 -1 2 -7l3 -1l6 -10l10 -23q-2 0 -3 -1q7 -3 12 -20q6 -16 20 -46l2 -4q1 -5 2 -5q3 -3 4 -7q0 -1 1 -2zM606 36q38 30 55 47l12 13q3 3 4 6q6 8 9 11q3 2 6 5q10 12 23 29l1 2l3 3q7 9 7 10q26 41 66 142v3q2 10 4 13q4 5 5 11q0 4 1 6v3q0 1 2 3
q1 1 1 2q2 7 7 28h-1l3 8q0 2 1.5 8t2.5 9q-22 14 -68 16h-7q-40 0 -72 -22l-3 -3q-3 -3 -4 -5q-22 -33 -29 -61q-2 -9 -6 -20l-6 -16q0 -2 1 -3v-6l1 -2q0 -3 -2 -19q-1 -4 -2 -5q-2 -2 -2 -6l1 -2q-1 -3 -1 -12q0 -2 -0.5 -6.5t-1.5 -6.5l-2 -7q-1 1 -3 1q2 -4 2 -10
q0 -2 -0.5 -5.5t-0.5 -6.5q-4 -21 -4 -50v-5q-1 -2 -1 -5q0 -2 1 -3v-4q0 -4 -1 -7t-1 -6v-3l-1 -7v-3q0 -2 0.5 -6t0.5 -7v-4q0 -3 2 -11q1 -5 2 -5q0 -9 -5 -29zM495 11q-15 23 -47 98l-3 2q-1 1 -1 3q-1 3 -1 4q-1 5 -6 12q-4 5 -5 12l-2 6l-12 31q0 1 -2.5 7t-3.5 8
q-37 64 -68 95l-3 3q-5 2 -6 6l-2 3q-1 0 -9 6q-1 1 -1 2l-2 2q-10 8 -16 11v-1l-5 4q-30 15 -68 17h-9q-12 0 -17 -1l-3 -1h-8q-28 -5 -47 -11q-12 -6 -17 -11q-3 -7 -4 -9q0 -1 1 -2t2 -2.5t2 -2.5t1 -3q35 -53 64 -91q4 -4 20 -22q18 -22 21 -24l8 -5q7 -5 20 -17l5 -5
q2 -4 5 -6l3 -1l31 -25l-2 -2q8 -2 23 -14q20 -15 49 -30l2 -1q2 0 3 -1q4 -2 5 -3l5 -2h2q11 -8 13 -9q18 -8 27 -11q2 0 5 -1q6 -3 12 -3q3 -1 5 -1l17 -6q2 -1 17 -7q1 -1 2 -1zM726 279h-6q-6 2 -10 2l-2 1h-2v1q-4 2 -6 4l-5 4q-3 1 -3 3l-1 1h1q-1 0 -1 1l-1 2v1
q1 4 3 4l1 1q1 1 2 1h2q0 1 2 1q3 2 4 1q0 -1 3 -2t4 -2l3 -2q2 -2 2 -3h2q2 -4 5 -4q3 -2 4 -1q1 0 1 1h1v1q0 1 1 1v2q1 0 2 1v-1q0 1 1 2l5 4v1h1l2 2q0 1 1 1v2q3 3 6 4l3 1q1 0 2 1q0 -1 1 -2h2q0 -1 2 -3t2 -4q1 -1 1 -2l-1 -1l-1 -1v-2q-2 -3 -11 -11v-1l-1 -1l-1 -1
l-1 -1l-3 -1q-1 -1 -3 -1l-2 -2l-5 -2h-5zM267 208h-6q-6 2 -10 2h-1l-2 1q-6 4 -7 5l-1 1q-2 1 -4 3q-3 2 -3 3v1h-1v4h-1q1 4 3 4l1 1q1 1 2 1h2q1 1 2 1q3 2 4 1q1 0 3 -2q3 -1 4 -2l3 -2q2 -2 2 -3h2q2 -4 5 -4h1q2 -2 3 -1h2v2q0 1 1 1v1q1 0 1 1h2q-1 1 0 2l5 4v1h1
l2 2q0 1 1 1v2q3 3 6 4l3 1q1 0 2 1q0 -1 1 -2h3q3 -6 4 -7v-2q-1 -1 -1 -2l-1 -1v-1q-1 -2 -10 -11v-1h-1l-1 -2h-2v-1l-3 -1l-1 -1h-1l-1 -1q-1 -1 -3 -1q-6 -2 -7 -2h-2z" />
    <glyph glyph-name="exclamdown" unicode="&#xa1;" horiz-adv-x="290" 
d="M51 441q-9 0 -10 3q-1 1 0 2l1 2v2l-1 1q-1 4 -4 5q0 1 -2 1h-2v3l-1 1v1q-1 6 -8 9q-5 2 1 6q-2 0 -4 -1q-2 0 -4 4l-2 2l1 1h1q0 1 -2 1q-4 0 -4 5v1l5 4l-3 3q-5 4 -5 6l-3 21l1 1v2q2 1 0 6l-2 6q0 1 1 2v3q0 1 -2 3q-5 5 0 11q3 3 18 5q2 0 5.5 0.5t5.5 1.5h2
q1 1 2 1l2 1h2l8 2l6 1l27 5h12q1 1 2 1v-1h2q4 0 6 -2q2 0 4 -2q0 -1 1 -2q3 -2 6 -5h1l1 -1l-2 -1v-1l1 -2q-1 -9 1 -13l2 -1h-1q0 -3 1 -4h2v-1q-2 -2 -1 -2l1 -1l1 -1l-1 -1h-1q0 -2 1 -4q1 -1 1 -4q0 -2 -1 -4l-1 -3q0 -2 -1 -3q-1 -2 -1 -5l1 -1h1l2 -2q0 -2 2 -2h1
v-1l-1 -1l-1 -1l-1 -1q-4 -6 -14 -13v-1h-1v-1h-1q-6 -6 -7 -9q-6 -7 -16 -24q0 -1 -3 -2l-1 -1q-4 -5 -7 -8q-2 0 -4 -1q-4 -2 -16 -2zM62 -176v1q-1 0 -2 1q-4 0 -5 1l-5 4h-2v2l-1 2h-2v2q0 1 -1 2q-4 4 -4 5q-2 4 -7 19t-5 19q-9 27 -10 38l-2 2q-1 1 -1 3l2 3q0 4 -1 9
q-2 10 -2 11q-1 55 -3 64l-3 6h2q0 12 -1 20q0 1 -1 2q-2 2 -1 2q0 1 1 2v10q0 2 -1 3q-2 7 -1 9q1 1 1 4v19q-1 9 -1 21q0 7 2 25q1 5 1 12q4 12 4 35q0 4 -1 7t-1 7q-1 3 -1 13q0 3 -0.5 8t-1.5 7v4l-2 4v4v4l2 2v4v11l2 2q0 2 0.5 4.5t1 7t0.5 7.5q0 56 11 76l-1 2
q0 2 1 2h2l-1 2q0 2 1 2h2v4q12 12 15 13q16 5 39 5q3 0 8.5 0.5t8.5 1.5l9 -8q15 0 16 -1q2 -4 4 -6q3 -3 9 -23t3 -28l-2 -4q-5 -4 -5 -8l-2 -3q-3 -11 -2 -20q3 -9 3 -10q0 -3 -1 -4q-2 -3 -1 -6v-4q-1 -6 -1 -19t1 -20l1 -3q1 -3 1 -6t-6 -8h4q3 -3 3 -18q-1 -7 0 -10
l-3 -2q0 -3 3 -5q2 -2 2 -4v-5q0 -5 -2 -13l-3 -5q-4 -4 -4 -5q6 -12 6 -38v-38q0 -21 -2 -39v-3q-1 -1 -1 -3v-6q-2 -8 0 -14q0 -10 1 -18q0 -14 1 -18v-11q-1 -5 -1 -10l4 -21q7 -32 4 -56q0 -3 -4 -7l-12 -8q-7 -5 -11 -8l-2 -2q0 -1 -1 -1h-2l-2 -1q-2 -3 -8 -5l-5 -3
q-4 -4 -28 -4z" />
    <glyph glyph-name="cent" unicode="&#xa2;" horiz-adv-x="582" 
d="M237 -79l-8 -7q-11 0 -30 14l-1 2q0 1 -1 3l-2 4l-2 7v2l1 2h-1l1 5l-1 -1l-1 1l1 1q1 2 0 3q-4 15 -4 53q-5 0 -5 2q-67 12 -135 77l-3 2q-9 9 -11 16q-9 9 -10 13q-1 1 -7 18q-8 28 -11 43q-1 3 -1 12q0 8 -1 9q-5 55 -5 56q0 34 7 56t28 55q1 1 1 2t0.5 1.5t0.5 1.5
q1 4 8 11l12 12q4 7 7 8q2 0 2 1q10 9 24 18l-1 1l8 4q63 31 89 37h1v2q2 11 1 12l-1 2l2 7q0 2 1 16t2 26q0 1 0.5 4t0.5 5l-1 9v8q-2 5 0 7v4l1 1v1l-1 2h2v1v1l2 1l1 3l4 2l1 1q19 6 21 5q0 -1 5 -1t7 -2h2l2 1l12 -7q13 -6 15 -10q3 -12 3 -32q0 -12 -2 -36l-4 -24v-1
q49 0 84 -19q13 -8 14 -12l2 -2l2 -2l8 -4q14 -8 29 -28q0 -1 2 -1q2 -1 2 -4v-2l5 -5v-2l4 -10h2v-3q1 -6 6 -19t5 -15q2 -2 2 -11l2 -1q0 -1 -1 -3q1 -3 1 -11q0 -7 -1 -11v-5q0 -6 -1 -7l-1 -11q-1 -2 -3 -4l1 -1q0 -1 -1 -2h-1v-2l-1 -1h-2l-5 -5h-8q-5 -1 -9 -1
q0 1 -4 2l-5 2h-2q-1 0 -2 1l-1 1q-1 1 -7 3l-8 3q-3 2 -3 3q-1 1 -4 18q-1 3 -1 11v10l-2 4l-7 25v2q-1 0 -1 1h-1q-5 12 -11 25l-3 8q-2 6 -8 12.5t-30 15.5t-60 9q-3 0 -9.5 -0.5t-10.5 -0.5q-20 -2 -41 -14t-32 -28l-2 -2l-4 -9q-19 -46 -20 -74q0 -9 -3 -21l-3 -15
q-1 -1 1 -3l3 -4q2 -2 2 -3q2 -4 4 -17q0 -2 -2 -4q-4 -2 -2 -5l2 -2q3 -12 3 -21q1 -1 1 -3q0 -3 -2 -3l-4 -1q8 -2 8 -7v-8q3 -22 13 -37q0 -4 3 -7l2 -2q3 -1 4 -7q0 -5 1 -6q4 -8 12 -16l6 -6q1 -1 2 -1t1.5 -0.5t1.5 -0.5h3q2 -1 17 -16l49 -36q18 -7 23 -7q12 0 21 3
h6l4 3q1 1 8 3q1 1 2 1q1 -1 2 0l1 1l1 1l4 2l4 2l3 1v-1q3 3 7 6q6 5 11 14l3 3v1q0 1 3 3q1 1 1 2q3 2 7 8q0 1 1 2t3 5v2q5 6 19 11l12 4h4q2 0 3 -3h3q3 0 3 -1q4 -4 4 -15q0 -3 -1 -4l-2 -4l-1 -1h-1q0 -1 1 -1v-1h-1v-1l-1 -1q-8 -17 -33 -41v-1q-1 0 -1 -1h-2l-1 -1
l-8 -6q-1 -1 -4 -1l-4 -2q-12 -4 -16 -6h-3l-2 -2h-3q-7 -7 -54 -13v-7q1 -2 1 -10l3 -6v-1q0 -10 -7.5 -32t-13.5 -28l-3 -3l-1.5 -1.5t-1.5 -0.5q0 -2 -1 -2q-2 -1 -6 1z" />
    <glyph glyph-name="sterling" unicode="&#xa3;" horiz-adv-x="607" 
d="M178 5q-26 0 -47 4q-2 2 -4 2q-4 1 -4 6l-5 3q0 1 1 3q-1 2 -3 4v5h-2v4h-1h-1q-2 2 0 3v3q-11 34 -11 96q-1 11 -1 23l-3 3q0 5 1 7q0 5 -2 13q-1 3 -1 7q0 5 3 14q0 11 1 19q1 6 1 16l2 8q1 4 1 9q0 3 -2 25l-2 19q-2 4 -2 19l-18 -1q-3 0 -6 2h-6l-1 -2q-2 0 -3 2h-1
q-16 3 -22 4q-3 0 -7 1h-6q0 1 -4 3q-6 0 -8 1t-3 1h-3v2h-2l-1 1v1q-4 4 -4 5v1h-1q-1 1 -1 6t1 7q0 7 5 7v3h2q6 9 8 11q0 1 3 4q25 0 37 -3q12 -2 13 -2h27v20q0 4 -1 6t-1 5t1 5t1 4v7q0 4 -1 5l-1 3q0 1 2 3q1 1 1 2q0 18 1 25h-3q0 4 2 6l1 1q1 6 1 45v34q0 7 1 13
l1 11l-2 3q0 3 1 5q1 1 1 3q1 15 8 47q0 4 4 24q1 3 3 11q3 17 7 20v5h2q1 0 1 2q-1 3 2 4l18 24q26 13 29 14q22 7 35 7q33 0 44 -11l3 -2q3 0 3 -1l10 -2q18 -4 43 -21q1 -1 2 0q1 -1 5 -4l1 -3l9 -4l1 -3l10 -10l2 1l2 -3q1 -1 7 -9t11 -13q3 -3 3 -11q0 -13 -8 -27.5
t-19 -17.5h-10l-14 5l-6 11q-1 0 -2 1h-1q-1 1 -14 13l-13 12l-7 9q-25 19 -53 18v-2q1 -6 1 -46q0 -4 -2 -28l-4 -27q0 -8 1 -13v-48v-31v-3q-1 -3 0 -3q0 -6 2 -8q1 -8 1.5 -38t0.5 -41h12l3 -2v-1q6 3 11 3q4 -1 12 -1t12 1h5q1 0 2 1h3q2 -1 4 -1q9 0 13 1h5l3 2
q0 2 2 2h3q7 0 16 -3q10 -2 11 -2q1 -1 3 -2l1 -1q1 0 1 -8l4 -3q0 -15 -4 -26q0 -2 -4 -4.5t-5 -2.5h-5v-1h-2q-12 -4 -59 -7q-2 -2 -4 0q-3 0 -4 -1h-5q0 -2 -3 0h-4q-3 1 -9 1h-8q-3 0 -4 1h-9q-2 -12 -2 -13q-2 -2 3 -7l3 -5q3 -10 2 -22q0 -4 -2 -6q-3 -2 -2 -6l2 -3
v-27l-3 -7h-4q6 -4 6 -11q0 -4 -1 -6l-1 -5q-1 -8 -1 -24q0 -17 1 -25v-10q0 -2 1 -3t1 -4v-4l-2 -4v-4v-2l-1 -5q0 -9 3 -18q0 -10 1.5 -25t1.5 -36v-1h15q2 -1 4 -1q7 0 12 1h9q5 0 10 1h24q5 -1 11 -1q2 0 3 1h5q1 -1 2 -1h6l1 1h1l1 -1h16q5 -1 37 -1h12l1 1h2
q1 -1 2 -1q13 0 22 -1q1 -1 6 -1h6q1 -1 6 -1h6q1 -1 3 -1h5l1 -1l4 -2l1 -1q0 -2 1 -4v-4l-2 -2q-1 -1 -2 -1v-1q0 -2 -3 -2q-4 -4 -7 -6q-2 -2 -4 -2q-3 -1 -22 -1q-8 0 -14 1h-20q-3 -1 -6 -1q-8 0 -17 1q-14 0 -15 -1h-7q-2 -1 -25 -1h-23h-1q-1 0 -3 0.5t-4.5 0.5
t-6.5 0.5t-8 0.5q-2 0 -5 -1l-1 -1h-11q-2 0 -3 1h-17l-4 1l1 1q-8 -6 -49 -6z" />
    <glyph glyph-name="dieresis" unicode="&#xa8;" horiz-adv-x="278" 
d="M97 576h-14l-1 1h-1q-26 3 -27 4l-6 2q-5 1 -8 1q-1 1 -2 1h-4q-1 1 -3 1q-3 2 -10 3q-16 3 -18 5q-6 4 -1 10l3 3v3q-1 1 -1 2v4l2 4v4v2l-1 1h-1l3 21q2 5 6 8h2l-1 2l-3 3v1q0 4 1 5h2q2 0 2 2h-1q0 2 1 3q2 4 5 4v-1l3 -1q-4 4 0 6q3 2 13 2.5t10 -0.5q1 -1 9 -1.5
t22 -4t26 -11.5v-2h2v-1h1q12 -10 13 -13l2 -1v-1q0 -1 1 -1l1 -1l-1 -1h-1q-1 -1 -1 -2l-3 -3h-1q-1 -1 1 -4q1 -1 1 -3t1 -3q1 -2 1 -4q0 -3 -1 -4q-1 -2 -1 -4l1 -1l1 -1q-3 -1 -3 -2l1 -2l-1 -1h-1q0 -3 -1 -4h1l-1 -1q-2 -2 -1 -12q0 -1 -1 -2q-2 -2 0 -2l2 -1h-3
q-1 -3 -6 -6l-1 -1l-2 -2q-1 0 -2 -1q-2 -2 -5 -2zM251 568h-14l-1 1h-1q-26 3 -27 4l-6 2q-5 1 -8 1q-1 1 -2 1h-4q-1 1 -3 1q-3 2 -10 3q-16 3 -18 5q-6 4 -1 10l3 3v3q-1 1 -1 2v4l2 4v4v2l-1 1h-1l3 21q2 5 6 8h2l-1 2l-3 3v1q0 4 1 5h2q2 0 2 2h-1q0 2 1 3q2 4 5 4v-1
l3 -1q-4 4 0 6q3 2 13 2.5t10 -0.5q1 -1 9 -1.5t22 -4t26 -11.5v-2h2v-1h1q12 -10 13 -13l2 -1v-1q0 -1 1 -1l1 -1l-1 -1h-1q-1 -1 -1 -2l-3 -3h-1q-1 -1 1 -4q1 -1 1 -3t1 -3q1 -2 1 -4q0 -3 -1 -4q-1 -2 -1 -4l1 -1l1 -1q-3 -1 -3 -2l1 -2l-1 -1h-1q0 -3 -1 -4h1l-1 -1
q-2 -2 -1 -12q0 -1 -1 -2q-2 -2 0 -2l2 -1h-3q-1 -3 -6 -6l-1 -1l-2 -2q-1 0 -2 -1q-2 -2 -5 -2z" />
    <glyph glyph-name="macron" unicode="&#xaf;" horiz-adv-x="249" 
d="M58 643l-2 -1h-6.5t-8.5 1l-2 1q-2 -2 -3 -1l-6 1h-6l-1 1v1l-1 1l-2 -2l-7 10q-8 13 -8 16l-2 6q0 5 1 5q-1 1 -1 2l-2 1v2q2 1 -1 2v7q0 8 1 9q-2 5 0 5q12 4 25 4h25h13l12 1h2l4 2h11h3l8 -1h3q1 1 7 0h5q7 0 13 -2h2q2 -1 3 -1q0 1 1 1l2 1q4 4 9 0h2q0 -1 2 -1h1h9
h3l1 -5q1 5 6 3q4 -1 13 -1h5l2 -1l3 2q2 0 3 -2q1 -1 3 1q3 -2 7 0l1 1l2 1q1 0 2 1v1q4 3 9 0h1l1 -1h1h4l6 -4q0 -2 3 -4l2 -7l6 -6q-3 -4 1 -10q0 -5 0.5 -12t0.5 -11l-1 -2q-2 -1 -2 -2l-2 -5h-2l-1 1v-1l-2 -1l1 -1q-1 0 -2 -1q-9 -3 -15 -3l-18 -1q-3 1 -9 1v-1h-8
q-2 -1 -5 0l-3 1q-1 0 -6 1t-7 1l-6 2l-1 -1h-3l-5 1q-2 -2 -5 -1q-4 0 -8 -1q-3 0 -6 -0.5t-4 -0.5q-3 0 -5 1q-6 0 -10 -1q-3 -3 -5 1l-1 -1q-2 0 -4 -1v-1l-3 3q-5 0 -8 1v-4l-1 2q-5 2 -25 -2q-5 0 -7 -1v-1q-2 0 -2 1z" />
    <glyph glyph-name="acute" unicode="&#xb4;" horiz-adv-x="168" 
d="M60 541h-3q-18 0 -21 3l-5 1q-5 2 -5 3h-3q-3 2 -4 2l-7 4q-7 4 -8 5q-4 0 -4 3q0 13 10 26l5 7q0 1 4 9q0 2 6 10l5 10v2q1 0 1 1v3q3 6 6 9q0 1 2.5 5t4.5 6l5 9q4 6 8 9q2 1 4 3q0 1 -1 2v3q0 4 4 7q1 1 2 1q2 0 2 1v1q0 2 5 7l2 2l3 -1q-3 3 1 6q4 4 10 14l1 1v3
q1 2 3 2q1 1 1 2q3 3 3 6v6l-2 2q0 4 4 6q2 2 3 2l2 2l7 3q3 0 4 1q1 0 9 -3l3 1h4q2 -2 10 -4q14 -7 21 -12q1 0 3 -4l3 -4v-1l-1 -1h1l-1 -2h1v-2q0 -6 -4 -14l-8 -15q-2 -1 -3 -4q-1 -2 -2 -2l1 -2l-1 -1q-2 -2 -2 -5q0 -2 -3 -3l-2 -2q-2 -3 -8 -9l-5 -4q0 -2 -1 -4
l-3 -4q0 -3 -1 -4q-2 -2 -3 -7q-6 -11 -7 -13q-4 -4 -4 -7q0 -4 -3 -4v-1q-1 -1 -1 -4v-1h-3l-4 -7l1 -1h1l-2 -1q-6 -5 -9 -21q-3 -3 -3 -7h1l-1 -1l-1 -1q-2 -6 -7 -12l-2 -2q0 -2 -1 -3l-3 -3q0 -3 -4 -5h-1h-1h-1v-2h-4z" />
    <glyph glyph-name="cedilla" unicode="&#xb8;" horiz-adv-x="153" 
d="M63 -183q-8 0 -16 2q0 -2 -3 1h-1v1h-2l-3 2q-2 1 -2 2h-3h-1l-1 1h-1l-2 2q-1 1 -2 1h-2l-2.5 2.5t-2.5 2t-2.5 2t-2.5 3.5q-4 0 -4 4l-1 1q-3 3 -3 6h-2l-1 2v1l-1 1q-1 1 -1 2q-1 6 -1 14v8l4 4q1 1 2 1v-1q1 1 2 0l8 6h9q5 0 5 -4v-1l1 -2q-1 -3 1 -5v-3h1q0 -3 2 -3
h1v-1q1 -1 1 -3l3 -2q0 -3 3 -3q2 -2 9 -2h4q2 1 4.5 2t3.5 1h1l1 -1l4 2q1 0 2.5 1.5t2.5 1.5q1 1 2 1q1 2 3 2l2 2l2 1q0 1 1 3l2 2q2 2 4 0l-1 2q1 3 5 7h1q1 0 1 3q1 5 3 6h3q2 7 3 8q0 1 1 3.5t1 5.5q0 4 -3 11l-5 5q-16 10 -28 10q-7 0 -11 -4l-3 -1q0 -2 -1 -4l-2 -2
l-1 -1v-3h-2l-9 4l-2 1l-2 -1h-5q-1 1 -3 1l-3 -1l-3 2l-4 1q0 4 3 9l2 3v4q1 0 1 3l2 4v1h1v1q0 3 2 4q0 2 1 4q3 3 1 4q2 0 4 3l2 2l-2 2q1 0 2 1v2l3 2v2l1 -1q-1 1 1 3q3 3 4 6v1q0 1 1 1v1q2 0 0 2v1l-1 2q0 1 1 2l2 2l4 2h2q2 1 3 0l1 1h2q1 -1 6 1q9 -2 10 -3l3 -1h3
l-1 -1h1v-1q0 -4 -2 -5l-2 -6l-2 -3q1 -1 1 -2l-2 -3l2 1q9 0 18 -4q9 -3 18 -8q2 -1 6.5 -4.5t4.5 -4.5q6 -4 18 -24l1 -3q3 -3 3 -9q1 -1 1 -4v-4h2q0 -5 -1 -6v-2q0 -21 -10 -40l-11 -16h-1l-1 -2q-1 -1 -3 -5q-6 -6 -11 -12l-4 -4l-6 -2q-3 -3 -6 -3h-1q-15 -7 -35 -7z
" />
    <glyph glyph-name="questiondown" unicode="&#xbf;" horiz-adv-x="505" 
d="M189 461q-3 0 -8 1h-5l-4 2q-2 0 -6 6l-2 2h-1l-18 26q-2 3 -7 8l-1 1v1q-1 0 -1 1h-1q-11 8 -13 13l-2 1v1l-2 2l1 1h1q1 1 1 2q1 1 2 1l1 1q1 0 1 1q1 1 -1 4q-1 1 -1 3l-1 3q-1 2 -1 4q0 3 1 4q1 2 1 4l-2 2l1 1h2q0 1 -1 2l-1 1h3q0 3 1 4h-1l-1 1h2q2 4 1 13
q0 1 1 2t0 2h-2q0 1 2 1h1q1 3 6 6l1 1q2 2 4 2q2 2 6 3h1l1 -1v1h4q4 -1 7 -1h2q25 -3 27 -5l6 -1l8 -2h5l4 -2q30 0 31 -13l-2 -4l-3 -4l1 -2v-2q0 -4 -1 -7t-1 -6v-1l2 -2l-3 -20q-2 -5 -5 -7t1 -7v-1q0 -5 -3 -5q-1 -1 -1 -2q-2 -4 -3 -5q-2 -2 -3 -1l-3 1q4 -4 0 -5
q-6 -4 -7 -10h-1q-1 -1 -1 -2v-1l-2 -2h-2q-2 -1 -4 -5q0 -1 -1 -2v-1q0 -2 1 -3l1 -1q-3 -3 -13 -3zM133 -193q-22 0 -33 1q-2 0 -13 3q-8 0 -14 2q-34 23 -55 72t-18 85q5 29 10 41l8 18q9 15 9 30v4q1 13 12 31q2 5 5 7q3 1 6 8v4q0 1 2.5 6l4.5 9l10 20q1 3 5 7l2 2
l2 -4l1 2v2q0 10 10 27q18 30 27 60l1 2q1 1 1 3q3 5 3 10t3 11q3 4 3 7q5 15 4 26q0 11 -3 15q-1 3 -3 5q-1 2 -1 7q0 18 13 42q1 2 15 6l3 5q0 5 3 5q15 6 35 10q12 2 19 1q7 0 16 -12q2 -2 4 -5l2 -2v-3l1 -3q0 -1 1 -1l1 1q0 -2 1 -4v-3h2v-7q2 -12 2 -20
q-2 -56 -38 -142v-4q-2 -6 -4 -10q-5 -8 -8 -17q-4 -8 -9 -17l-27 -50q0 -1 -1 -2.5t-2 -3.5l-2 -4q-5 -9 -6 -11q-21 -54 -21 -131q0 -8 2 -22v-2q3 -3 3 -5q0 -3 -1 -5v-8l1 -3q1 -1 -1 -2q-1 -1 -1 -2v-2l-1 -4v-2q0 -2 0.5 -4.5t0.5 -3.5l1 1l1 -7q13 -18 46 -18
q26 0 43 17l5 5q3 1 3 2q18 21 24 37q1 2 1 10t1 9v7q0 13 3 16l-1 2v2h1q1 1 2 1l-1 2v2q0 1 2 3l1 1q1 2 1 5t3 6q1 1 1 2v2q3 3 12 10t11 6q1 -1 8 -1t12 -6l1 2q1 1 3 1q1 0 4 -3.5t3 -4.5l12 -8q27 -18 27 -31q0 -100 -155 -142q-31 -6 -67 -6z" />
    <glyph glyph-name="Agrave" unicode="&#xc0;" horiz-adv-x="736" 
d="M280 809h-3l-4 1h-4v2h-1q-1 -1 -1 0h-1q-4 2 -4 5l-3 3q-1 1 -1 3l-2 2q-5 6 -7 12l-1 1q-1 0 -1 1h1q0 4 -3 7q-3 16 -9 21l-2 1h1l1 1l-4 7h-3v1q0 3 -1 4v1q-3 0 -3 3q0 4 -4 8q-1 2 -7 13q-1 5 -3 7q-1 1 -1 4l-3 4q-1 2 -1 4l-5 4q-6 6 -8 9l-2 2q-3 1 -3 3
q0 3 -2 5l-1 1l1 2l-2 2q-2 2 -3 4l-8 15q-4 8 -4 14v2h1l-1 2h1l-1 1v1q1 2 3 4q2 4 3 4q7 5 21 12q8 2 10 4h4l3 -1q7 3 9 3q1 -1 4 -1l7 -3l2 -2q1 0 3 -2q4 -2 4 -6l-2 -2v-6q0 -3 3 -6q0 -1 1 -2l3 -2v-3l1 -1q6 -10 10 -14q4 -3 1 -6l3 1q1 0 2 -2q5 -5 5 -7v-1
q0 -1 2 -1l2 -1q4 -3 4 -7v-3l-1 -2q2 -2 4 -3q4 -3 8 -9l5 -9q2 -2 4.5 -6t2.5 -5q3 -3 6 -9v-3q0 -1 1 -1v-2l5 -10q6 -8 6 -10q4 -8 4 -9l5 -7q10 -13 10 -26q0 -3 -4 -3q-1 -1 -8 -5l-7 -4q-1 0 -2 -1q-1 0 -2 -1h-3q0 -1 -5 -3l-5 -1q-3 -3 -21 -3zM573 -4q-2 -1 -10 2
l-9 2q-1 0 -1 2h-2h-1l-1 2q-1 1 -1 2l-2 -2l-2 4q-22 19 -64 97l-5 10l-3 2l-3 8q-4 6 -5 9l-4 6q-2 3 -4 7l-3 10q-1 6 -3 9l-17 43q-3 14 -8 23q-7 15 -15 31q-12 23 -13 26q-8 16 -15.5 30.5t-10.5 20.5l-3 7q-1 1 -1 2q-1 2 -1 3h-30l-1 -1h-11q-2 0 -3 1h-3
q-7 0 -13 2q-2 0 -3 1h-39q-14 0 -20 2h-2q-1 -1 -2 -1t-2 1h-2q-2 2 -5 0h-1v1h-2q-3 1 -9 1v-1l-3 1q-6 2 -31 3q-3 0 -5 1h-5l-1 -1q-1 0 -1 1h-2l-17 3q-1 1 -4 1t-4 1l-24 -49q-1 -1 -1 -4q-1 -2 -1 -6q-1 -2 -1 -4q-9 -23 -13 -27l-2 -2q-1 -1 -3 -5v-3l-5 -12
q-7 -13 -8 -15l-4 -7l-2 1q1 -7 -9 -23q-9 -16 -23 -50l-2 -4q-1 -4 -3 -6l-2 -7l-7 -12q-6 -9 -11 -25l-1 -2l-2 -4v-3q-3 -7 -3 -13q-2 -6 -17 -31t-19 -29q-4 -3 -6 -6q-2 -2 -7 1q-1 0 -5 -4t-4 -3q-1 0 -5 3t-8.5 8t-5.5 9q-1 1 0 10l3 12q1 1 1 3h-1q0 1 1 3t1 3l2 4
q9 28 52 122v3l4 8q4 8 6 14t6 13q1 1 2 4l2 3q3 5 9 19q4 8 8 15q3 7 5 9l4 8q2 3 5.5 13t5.5 14q1 3 3 7.5t2 5.5l6 13q11 32 29 66q9 21 10 23q1 1 3 5q0 6 4 11q3 5 6 11q3 3 3 8l2 2l13 27l-1 1l5 7q14 27 38 84q11 19 14 30v3l3 6q2 2 2 3q1 1 9.5 20t15.5 34l6 12
q2 6 5 12l5 11q3 8 4 9q-1 9 2 12l-1 1v3h2q1 0 1 2q-1 1 -1 2q1 0 2 1q2 0 2 1l2 3q2 2 4 3q2 0 2 2q20 5 28 5h8q8 0 9 -1q0 -1 2 -1l2 1q5 0 5 -2q19 0 27 -2q3 -1 6 -4q8 -11 19 -59l7 -28l11 -28q11 -32 20 -56q5 -16 9 -22l2 -4q0 -4 1 -5q1 -5 6 -9q5 -12 16.5 -39
t22.5 -55.5t13 -32.5q8 -16 18 -48q1 -5 3 -12l2 -7q0 -3 9 -10q3 -3 3 -4q6 -7 14 -28q2 -6 1 -8q-1 -4 2 -9l3 -3l15 -34l1 -9q-2 0 -4 -2q11 -2 15 -20q1 -3 1 -5q12 -33 25 -56l2 -4q1 -5 5 -8q4 -2 5 -11q0 -1 1 -4l1 -3q4 -11 12 -22q5 -5 6 -8l6 -2q2 -1 4 -3
q8 -10 11 -33l2 -16q0 -1 -1 -3t-1 -3t-11 -9q-1 0 -2 -4q-2 -5 -3 -5l-13 -8q-18 -11 -32 -16zM353 384l-11 30l-8 12q-1 2 -1 8q-1 9 -5 15l-4 7q-3 4 -2 7q0 2 -1 3l-12 32h-2q-2 2 -2 8l1 2q-5 17 -36 95q-4 11 -4 13q-4 10 -4 11q-18 -37 -18 -39q0 -1 -7 -16
q-4 -11 -8 -17q-16 -38 -33 -71q0 -3 -1 -4q-3 -6 -3 -8l-2 -4q-8 -20 -30 -69h6l6 -2h6q1 -1 6 -1h5h8l10 -2h8h6q12 0 22 -1q9 -1 17 -1l19 -3q1 -1 4 1h1q3 2 9 0h1l2 -2h1l1 1h5q2 -1 6 -1l3 -1v-1q2 2 8 1q14 -2 19 -2h5l1 1h4q1 -1 2 -1t2 -1z" />
    <glyph glyph-name="Aacute" unicode="&#xc1;" horiz-adv-x="736" 
d="M316 806h-3q-18 0 -21 3l-5 1q-5 2 -5 3h-3q-3 2 -4 2l-7 4q-7 4 -8 5q-4 0 -4 3q0 13 10 26l5 7q0 1 4 9q0 2 6 10l5 10v2q1 0 1 1v3q3 6 6 9q1 1 3 5t4 6l5 9q4 6 8 9q2 1 4 3q0 1 -1 2v3q0 4 4 7q1 1 2 1q2 0 2 1v1q0 2 5 7l2 2l3 -1q-3 3 1 6q4 4 10 14l1 1v3
q1 2 3 2q1 1 1 2q3 3 3 6v6l-2 2q0 4 4 6q2 2 3 2l2 2l7 3q3 0 4 1q1 0 9 -3l3 1h4q2 -2 10 -4q14 -7 21 -12q1 0 3 -4l3 -4v-1l-1 -1h1l-1 -2h1v-2q0 -6 -4 -14l-8 -15q-2 -2 -3 -4t-2 -2l1 -2l-1 -1q-2 -2 -2 -5q0 -2 -3 -3l-2 -2q-2 -3 -8 -9l-5 -4q0 -2 -1 -4l-3 -4
q0 -3 -1 -4q-2 -2 -3 -7q-6 -11 -7 -13q-4 -4 -4 -7q0 -4 -3 -4v-1q-1 -1 -1 -4v-1h-3l-4 -7l1 -1h1l-2 -1q-6 -4 -9 -21q-3 -3 -3 -7h1l-1 -1l-1 -1q-2 -6 -7 -12l-2 -2q0 -2 -1 -3l-3 -3q0 -3 -4 -5h-1h-1h-1v-2h-4zM573 -4q-2 -1 -10 2l-9 2q-1 0 -1 2h-2h-1l-1 2
q-1 1 -1 2l-2 -2l-2 4q-22 19 -64 97l-5 10l-3 2l-3 8q-4 6 -5 9l-4 6q-2 3 -4 7l-3 10q-1 6 -3 9l-17 43q-3 14 -8 23q-7 15 -15 31q-12 23 -13 26q-8 16 -15.5 30.5t-10.5 20.5l-3 7q-1 1 -1 2q-1 2 -1 3h-30l-1 -1h-11q-2 0 -3 1h-3q-7 0 -13 2q-2 0 -3 1h-39
q-14 0 -20 2h-2q-1 -1 -2 -1t-2 1h-2q-2 2 -5 0h-1v1h-2q-3 1 -9 1v-1l-3 1q-6 2 -31 3q-3 0 -5 1h-5l-1 -1q-1 0 -1 1h-2l-17 3q-1 1 -4 1t-4 1l-24 -49q-1 -1 -1 -4q-1 -2 -1 -6q-1 -2 -1 -4q-9 -23 -13 -27l-2 -2q-1 -1 -3 -5v-3l-5 -12q-7 -13 -8 -15l-4 -7l-2 1
q1 -7 -9 -23q-9 -16 -23 -50l-2 -4q-1 -4 -3 -6l-2 -7l-7 -12q-6 -9 -11 -25l-1 -2l-2 -4v-3q-3 -7 -3 -13q-2 -6 -17 -31t-19 -29q-4 -3 -6 -6q-2 -2 -7 1q-1 0 -5 -4t-4 -3q-1 0 -5 3t-8.5 8t-5.5 9q-1 1 0 10l3 12q1 1 1 3h-1q0 1 1 3t1 3l2 4q9 28 52 122v3l4 8
q4 8 6 14t6 13q1 1 2 4l2 3q3 5 9 19q4 8 8 15q3 7 5 9l4 8q2 3 5.5 13t5.5 14q1 3 3 7.5t2 5.5l6 13q11 32 29 66q9 21 10 23q1 1 3 5q0 6 4 11q3 5 6 11q3 3 3 8l2 2l13 27l-1 1l5 7q14 27 38 84q11 19 14 30v3l3 6q2 2 2 3q1 1 9.5 20t15.5 34l6 12q2 6 5 12l5 11
q3 8 4 9q-1 9 2 12l-1 1v3h2q1 0 1 2q-1 1 -1 2q1 0 2 1q2 0 2 1l2 3q2 2 4 3q2 0 2 2q20 5 28 5h8q8 0 9 -1q0 -1 2 -1l2 1q5 0 5 -2q19 0 27 -2q3 -1 6 -4q8 -11 19 -59l7 -28l11 -28q11 -32 20 -56q5 -16 9 -22l2 -4q0 -4 1 -5q1 -5 6 -9q5 -12 16.5 -39t22.5 -55.5
t13 -32.5q8 -16 18 -48q1 -5 3 -12l2 -7q0 -3 9 -10q3 -3 3 -4q6 -7 14 -28q2 -6 1 -8q-1 -4 2 -9l3 -3l15 -34l1 -9q-2 0 -4 -2q11 -2 15 -20q1 -3 1 -5q12 -33 25 -56l2 -4q1 -5 5 -8q4 -2 5 -11q0 -1 1 -4l1 -3q4 -11 12 -22q5 -5 6 -8l6 -2q2 -1 4 -3q8 -10 11 -33
l2 -16q0 -1 -1 -3t-1 -3t-11 -9q-1 0 -2 -4q-2 -5 -3 -5l-13 -8q-18 -11 -32 -16zM353 384l-11 30l-8 12q-1 2 -1 8q-1 9 -5 15l-4 7q-3 4 -2 7q0 2 -1 3l-12 32h-2q-2 2 -2 8l1 2q-5 17 -36 95q-4 11 -4 13q-4 10 -4 11q-18 -37 -18 -39q0 -1 -7 -16q-4 -11 -8 -17
q-16 -38 -33 -71q0 -3 -1 -4q-3 -6 -3 -8l-2 -4q-8 -20 -30 -69h6l6 -2h6q1 -1 6 -1h5h8l10 -2h8h6q12 0 22 -1q9 -1 17 -1l19 -3q1 -1 4 1h1q3 2 9 0h1l2 -2h1l1 1h5q2 -1 6 -1l3 -1v-1q2 2 8 1q14 -2 19 -2h5l1 1h4q1 -1 2 -1t2 -1z" />
    <glyph glyph-name="Acircumflex" unicode="&#xc2;" horiz-adv-x="736" 
d="M376 782q-1 1 -4 1l-7 3l-2 2q-1 0 -3 2q-4 2 -4 6l2 2v6q0 3 -3 6q0 1 -1 2l-3 2v3l-1 1q-6 10 -10 14q-4 3 -1 6l-3 -1q-1 0 -2 2q-5 5 -5 7v1q0 1 -2 1l-2 1q-4 3 -4 7v3l1 2q-2 2 -4 3q-4 3 -8 9l-6 11v-1l-5 -9q-4 -6 -8 -9q-2 -1 -4 -3q0 -1 1 -2v-3q0 -4 -4 -7
q-1 -1 -2 -1q-2 0 -2 -1v-1q0 -2 -5 -7l-2 -2l-3 1q3 -3 -1 -6q-4 -4 -10 -14l-1 -1v-3q-1 -2 -3 -2q-1 -1 -1 -2q-3 -3 -3 -6v-6l2 -2q0 -4 -4 -6q-2 -2 -3 -2l-2 -2l-7 -3q-3 0 -4 -1q-1 0 -9 3l-3 -1h-4q-2 2 -10 4q-14 7 -21 12q-1 0 -3 4l-3 4v1l1 1h-1l1 2h-1v2
q0 6 4 14l8 15q2 2 3 4t2 2l-1 2l1 1q2 2 2 5q0 2 3 3l2 2q2 3 8 9l5 4q0 2 1 4l3 4q0 3 1 4q2 2 3 7q6 11 7 13q4 4 4 7q0 4 3 4v1q1 1 1 4v1h3l4 7l-1 1h-1l2 1q6 4 9 21q3 3 3 7h-1q0 1 1 1l1 1q0 2 1 3v3q0 3 3 3l3 3l2 2q0 2 1 3l3 3q0 3 4 5h1q0 1 1 0h1v2h4l4 1h3
q13 0 17 -1h13l4 -1h4v-2h1q1 1 1 0h1q4 -2 4 -5l3 -3q1 -1 1 -3q3 -2 4 -3q4 0 4 -3q0 -2 -1 -4l3 -5l1 -1h-1q0 -4 3 -7q3 -16 9 -21l2 -1h-1l-1 -1l4 -7h3v-1q0 -3 1 -4v-1q3 0 3 -3q0 -4 4 -8q1 -2 7 -13q1 -5 3 -7q1 -1 1 -4l3 -4q1 -2 1 -4l5 -4q6 -6 8 -9l2 -2
q3 -1 3 -3q0 -3 2 -5l1 -1l-1 -2l2 -2q2 -3 3 -4l8 -15q4 -8 4 -14v-2h-1l1 -2h-1l1 -1v-1q-1 -2 -3 -4q-2 -4 -3 -4q-7 -5 -21 -12q-8 -2 -10 -4h-4l-3 1q-7 -3 -9 -3zM573 -4q-2 -1 -10 2l-9 2q-1 0 -1 2h-2h-1l-1 2q-1 1 -1 2l-2 -2l-2 4q-22 19 -64 97l-5 10l-3 2l-3 8
q-4 6 -5 9l-4 6q-2 3 -4 7l-3 10q-1 6 -3 9l-17 43q-3 14 -8 23q-7 15 -15 31q-12 23 -13 26q-8 16 -15.5 30.5t-10.5 20.5l-3 7q-1 1 -1 2q-1 2 -1 3h-30l-1 -1h-11q-2 0 -3 1h-3q-7 0 -13 2q-2 0 -3 1h-39q-14 0 -20 2h-2q-1 -1 -2 -1t-2 1h-2q-2 2 -5 0h-1v1h-2
q-3 1 -9 1v-1l-3 1q-6 2 -31 3q-3 0 -5 1h-5l-1 -1q-1 0 -1 1h-2l-17 3q-1 1 -4 1t-4 1l-24 -49q-1 -1 -1 -4q-1 -2 -1 -6q-1 -2 -1 -4q-9 -23 -13 -27l-2 -2q-1 -1 -3 -5v-3l-5 -12q-7 -13 -8 -15l-4 -7l-2 1q1 -7 -9 -23q-9 -16 -23 -50l-2 -4q-1 -4 -3 -6l-2 -7l-7 -12
q-6 -9 -11 -25l-1 -2l-2 -4v-3q-3 -7 -3 -13q-2 -6 -17 -31t-19 -29q-4 -3 -6 -6q-2 -2 -7 1q-1 0 -5 -4t-4 -3q-1 0 -5 3t-8.5 8t-5.5 9q-1 1 0 10l3 12q1 1 1 3h-1q0 1 1 3t1 3l2 4q9 28 52 122v3l4 8q4 8 6 14t6 13q1 1 2 4l2 3q3 5 9 19q4 8 8 15q3 7 5 9l4 8
q2 3 5.5 13t5.5 14q1 3 3 7.5t2 5.5l6 13q11 32 29 66q9 21 10 23q1 1 3 5q0 6 4 11q3 5 6 11q3 3 3 8l2 2l13 27l-1 1l5 7q14 27 38 84q11 19 14 30v3l3 6q2 2 2 3q1 1 9.5 20t15.5 34l6 12q2 6 5 12l5 11q3 8 4 9q-1 9 2 12l-1 1v3h2q1 0 1 2q-1 1 -1 2q1 0 2 1q2 0 2 1
l2 3q2 2 4 3q2 0 2 2q20 5 28 5h8q8 0 9 -1q0 -1 2 -1l2 1q5 0 5 -2q19 0 27 -2q3 -1 6 -4q8 -11 19 -59l7 -28l11 -28q11 -32 20 -56q5 -16 9 -22l2 -4q0 -4 1 -5q1 -5 6 -9q5 -12 16.5 -39t22.5 -55.5t13 -32.5q8 -16 18 -48q1 -5 3 -12l2 -7q0 -3 9 -10q3 -3 3 -4
q6 -7 14 -28q2 -6 1 -8q-1 -4 2 -9l3 -3l15 -34l1 -9q-2 0 -4 -2q11 -2 15 -20q1 -3 1 -5q12 -33 25 -56l2 -4q1 -5 5 -8q4 -2 5 -11q0 -1 1 -4l1 -3q4 -11 12 -22q5 -5 6 -8l6 -2q2 -1 4 -3q8 -10 11 -33l2 -16q0 -1 -1 -3t-1 -3t-11 -9q-1 0 -2 -4q-2 -5 -3 -5l-13 -8
q-18 -11 -32 -16zM353 384l-11 30l-8 12q-1 2 -1 8q-1 9 -5 15l-4 7q-3 4 -2 7q0 2 -1 3l-12 32h-2q-2 2 -2 8l1 2q-5 17 -36 95q-4 11 -4 13q-4 10 -4 11q-18 -37 -18 -39q0 -1 -7 -16q-4 -11 -8 -17q-16 -38 -33 -71q0 -3 -1 -4q-3 -6 -3 -8l-2 -4q-8 -20 -30 -69h6l6 -2
h6q1 -1 6 -1h5h8l10 -2h8h6q12 0 22 -1q9 -1 17 -1l19 -3q1 -1 4 1h1q3 2 9 0h1l2 -2h1l1 1h5q2 -1 6 -1l3 -1v-1q2 2 8 1q14 -2 19 -2h5l1 1h4q1 -1 2 -1t2 -1z" />
    <glyph glyph-name="Atilde" unicode="&#xc3;" horiz-adv-x="736" 
d="M364 799q-9 0 -17 4v-1l-8 1q-13 4 -25 9l-1 3q-4 2 -5 2t-4 3q-10 6 -13 10v1q-1 2 -2 4.5t-2 2.5q-7 4 -13.5 11t-9.5 9q-1 1 -11.5 10t-15.5 11h-1h-11q-9 0 -15 -1q-12 0 -20 -8t-10 -20q1 0 1 -5v-7l1 -1v-1v-5q-1 -11 -9 -11q-6 0 -6 6l-2 10l-1 3q-3 6 -3 22
q0 24 12 43l2 4l1 1l4 4q15 20 55 20q6 0 18 -2h1q1 0 1 -1h2l1 -1v-1q2 -1 6.5 -2t6.5 -4l1 -1q0 -1 1 -1q1 -1 1 -2l3 -1q1 -1 1 -2q2 -1 4 -5l1 -2l18 -16q29 -23 38 -26q1 0 4 -0.5t7 -0.5q7 -2 24 -2h5l5 1h4q3 -1 4 0q3 0 5 1h3q6 2 10 5t6 5t4 5l1 4q3 5 10 26l2 6
q16 0 16 -18q0 -11 -3 -26q0 -2 -1 -3v-3l-2 -7q-2 -8 -7 -17q-2 -8 -4 -9l-10 -13q-23 -16 -51 -20q-2 -1 -7 -1zM573 -4q-2 -1 -10 2l-9 2q-1 0 -1 2h-2h-1l-1 2q-1 1 -1 2l-2 -2l-2 4q-22 19 -64 97l-5 10l-3 2l-3 8q-4 6 -5 9l-4 6q-2 3 -4 7l-3 10q-1 6 -3 9l-17 43
q-3 14 -8 23q-7 15 -15 31q-12 23 -13 26q-8 16 -15.5 30.5t-10.5 20.5l-3 7q-1 1 -1 2q-1 2 -1 3h-30l-1 -1h-11q-2 0 -3 1h-3q-7 0 -13 2q-2 0 -3 1h-39q-14 0 -20 2h-2q-1 -1 -2 -1t-2 1h-2q-2 2 -5 0h-1v1h-2q-3 1 -9 1v-1l-3 1q-6 2 -31 3q-3 0 -5 1h-5l-1 -1
q-1 0 -1 1h-2l-17 3q-1 1 -4 1t-4 1l-24 -49q-1 -1 -1 -4q-1 -2 -1 -6q-1 -2 -1 -4q-9 -23 -13 -27l-2 -2q-1 -1 -3 -5v-3l-5 -12q-7 -13 -8 -15l-4 -7l-2 1q1 -7 -9 -23q-9 -16 -23 -50l-2 -4q-1 -4 -3 -6l-2 -7l-7 -12q-6 -9 -11 -25l-1 -2l-2 -4v-3q-3 -7 -3 -13
q-2 -6 -17 -31t-19 -29q-4 -3 -6 -6q-2 -2 -7 1q-1 0 -5 -4t-4 -3q-1 0 -5 3t-8.5 8t-5.5 9q-1 1 0 10l3 12q1 1 1 3h-1q0 1 1 3t1 3l2 4q9 28 52 122v3l4 8q4 8 6 14t6 13q1 1 2 4l2 3q3 5 9 19q4 8 8 15q3 7 5 9l4 8q2 3 5.5 13t5.5 14q1 3 3 7.5t2 5.5l6 13q11 32 29 66
q9 21 10 23q1 1 3 5q0 6 4 11q3 5 6 11q3 3 3 8l2 2l13 27l-1 1l5 7q14 27 38 84q11 19 14 30v3l3 6q2 2 2 3q1 1 9.5 20t15.5 34l6 12q2 6 5 12l5 11q3 8 4 9q-1 9 2 12l-1 1v3h2q1 0 1 2q-1 1 -1 2q1 0 2 1q2 0 2 1l2 3q2 2 4 3q2 0 2 2q20 5 28 5h8q8 0 9 -1q0 -1 2 -1
l2 1q5 0 5 -2q19 0 27 -2q3 -1 6 -4q8 -11 19 -59l7 -28l11 -28q11 -32 20 -56q5 -16 9 -22l2 -4q0 -4 1 -5q1 -5 6 -9q5 -12 16.5 -39t22.5 -55.5t13 -32.5q8 -16 18 -48q1 -5 3 -12l2 -7q0 -3 9 -10q3 -3 3 -4q6 -7 14 -28q2 -6 1 -8q-1 -4 2 -9l3 -3l15 -34l1 -9
q-2 0 -4 -2q11 -2 15 -20q1 -3 1 -5q12 -33 25 -56l2 -4q1 -5 5 -8q4 -2 5 -11q0 -1 1 -4l1 -3q4 -11 12 -22q5 -5 6 -8l6 -2q2 -1 4 -3q8 -10 11 -33l2 -16q0 -1 -1 -3t-1 -3t-11 -9q-1 0 -2 -4q-2 -5 -3 -5l-13 -8q-18 -11 -32 -16zM353 384l-11 30l-8 12q-1 2 -1 8
q-1 9 -5 15l-4 7q-3 4 -2 7q0 2 -1 3l-12 32h-2q-2 2 -2 8l1 2q-5 17 -36 95q-4 11 -4 13q-4 10 -4 11q-18 -37 -18 -39q0 -1 -7 -16q-4 -11 -8 -17q-16 -38 -33 -71q0 -3 -1 -4q-3 -6 -3 -8l-2 -4q-8 -20 -30 -69h6l6 -2h6q1 -1 6 -1h5h8l10 -2h8h6q12 0 22 -1q9 -1 17 -1
l19 -3q1 -1 4 1h1q3 2 9 0h1l2 -2h1l1 1h5q2 -1 6 -1l3 -1v-1q2 2 8 1q14 -2 19 -2h5l1 1h4q1 -1 2 -1t2 -1z" />
    <glyph glyph-name="Adieresis" unicode="&#xc4;" horiz-adv-x="736" 
d="M264 801h-14l-1 1h-1q-26 3 -27 4l-6 2q-5 1 -8 1q-1 1 -2 1h-4q-1 1 -3 1q-3 2 -10 3q-16 4 -18 5q-6 4 -1 10l3 3v3q-1 1 -1 2v4l2 4v4v2l-1 1h-1l3 21q2 5 6 8h2q0 1 -1 2q-2 1 -3 3v1q0 4 1 5h2q2 0 2 2h-1q0 2 1 3q2 4 5 4v-1l3 -1q-5 5 0 6q3 2 13 2.5t10 -0.5
q1 -1 9 -1.5t22 -4t26 -11.5v-2h2v-1h1q12 -10 13 -13l2 -1v-1q0 -1 1 -1l1 -1l-1 -1h-1q-1 -1 -1 -2l-3 -3h-1q-1 -1 1 -4q1 -1 1 -3t1 -3q1 -2 1 -4q0 -3 -1 -4q-1 -2 -1 -4l1 -1l1 -1l-3 -2l1 -2l-1 -1h-1q0 -3 -1 -4h1l-1 -1q-2 -2 -1 -12q0 -1 -1 -2q-2 -2 0 -2l2 -1
h-3q-2 -3 -6 -6l-1 -1l-2 -2q-1 0 -2 -1q-2 -2 -5 -2zM418 793h-14l-1 1h-1q-26 3 -27 4l-6 2q-5 1 -8 1q-1 1 -2 1h-4q-1 1 -3 1q-3 2 -10 3q-16 4 -18 5q-6 4 -1 10l3 3v3q-1 1 -1 2v4l2 4v4v2l-1 1h-1l3 21q2 5 6 8h2q0 1 -1 2l-3 3v1q0 4 1 5h2q2 0 2 2h-1q0 2 1 3
q2 4 5 4v-1l3 -1q-5 5 0 6q3 2 13 2.5t10 -0.5q1 -1 9 -1.5t22 -4t26 -11.5v-2h2v-1h1q12 -10 13 -13l2 -1v-1q0 -1 1 -1l1 -1l-1 -1h-1q-1 -1 -1 -2l-3 -3h-1q-1 -1 1 -4q1 -1 1 -3t1 -3q1 -2 1 -4q0 -3 -1 -4q-1 -2 -1 -4l1 -1l1 -1l-3 -2l1 -2l-1 -1h-1q0 -3 -1 -4h1
l-1 -1q-2 -2 -1 -12q0 -1 -1 -2q-2 -2 0 -2l2 -1h-3q-2 -3 -6 -6l-1 -1l-2 -2q-1 0 -2 -1q-2 -2 -5 -2zM573 -4q-2 -1 -10 2l-9 2q-1 0 -1 2h-2h-1l-1 2q-1 1 -1 2l-2 -2l-2 4q-22 19 -64 97l-5 10l-3 2l-3 8q-4 6 -5 9l-4 6q-2 3 -4 7l-3 10q-1 6 -3 9l-17 43q-3 14 -8 23
q-7 15 -15 31q-12 23 -13 26q-8 16 -15.5 30.5t-10.5 20.5l-3 7q-1 1 -1 2q-1 2 -1 3h-30l-1 -1h-11q-2 0 -3 1h-3q-7 0 -13 2q-2 0 -3 1h-39q-14 0 -20 2h-2q-1 -1 -2 -1t-2 1h-2q-2 2 -5 0h-1v1h-2q-3 1 -9 1v-1l-3 1q-6 2 -31 3q-3 0 -5 1h-5l-1 -1q-1 0 -1 1h-2l-17 3
q-1 1 -4 1t-4 1l-24 -49q-1 -1 -1 -4q-1 -2 -1 -6q-1 -2 -1 -4q-9 -23 -13 -27l-2 -2q-1 -1 -3 -5v-3l-5 -12q-7 -13 -8 -15l-4 -7l-2 1q1 -7 -9 -23q-9 -16 -23 -50l-2 -4q-1 -4 -3 -6l-2 -7l-7 -12q-6 -9 -11 -25l-1 -2l-2 -4v-3q-3 -7 -3 -13q-2 -6 -17 -31t-19 -29
q-4 -3 -6 -6q-2 -2 -7 1q-1 0 -5 -4t-4 -3q-1 0 -5 3t-8.5 8t-5.5 9q-1 1 0 10l3 12q1 1 1 3h-1q0 1 1 3t1 3l2 4q9 28 52 122v3l4 8q4 8 6 14t6 13q1 1 2 4l2 3q3 5 9 19q4 8 8 15q3 7 5 9l4 8q2 3 5.5 13t5.5 14q1 3 3 7.5t2 5.5l6 13q11 32 29 66q9 21 10 23q1 1 3 5
q0 6 4 11q3 5 6 11q3 3 3 8l2 2l13 27l-1 1l5 7q14 27 38 84q11 19 14 30v3l3 6q2 2 2 3q1 1 9.5 20t15.5 34l6 12q2 6 5 12l5 11q3 8 4 9q-1 9 2 12l-1 1v3h2q1 0 1 2q-1 1 -1 2q1 0 2 1q2 0 2 1l2 3q2 2 4 3q2 0 2 2q20 5 28 5h8q8 0 9 -1q0 -1 2 -1l2 1q5 0 5 -2
q19 0 27 -2q3 -1 6 -4q8 -11 19 -59l7 -28l11 -28q11 -32 20 -56q5 -16 9 -22l2 -4q0 -4 1 -5q1 -5 6 -9q5 -12 16.5 -39t22.5 -55.5t13 -32.5q8 -16 18 -48q1 -5 3 -12l2 -7q0 -3 9 -10q3 -3 3 -4q6 -7 14 -28q2 -6 1 -8q-1 -4 2 -9l3 -3l15 -34l1 -9q-2 0 -4 -2
q11 -2 15 -20q1 -3 1 -5q12 -33 25 -56l2 -4q1 -5 5 -8q4 -2 5 -11q0 -1 1 -4l1 -3q4 -11 12 -22q5 -5 6 -8l6 -2q2 -1 4 -3q8 -10 11 -33l2 -16q0 -1 -1 -3t-1 -3t-11 -9q-1 0 -2 -4q-2 -5 -3 -5l-13 -8q-18 -11 -32 -16zM353 384l-11 30l-8 12q-1 2 -1 8q-1 9 -5 15l-4 7
q-3 4 -2 7q0 2 -1 3l-12 32h-2q-2 2 -2 8l1 2q-5 17 -36 95q-4 11 -4 13q-4 10 -4 11q-18 -37 -18 -39q0 -1 -7 -16q-4 -11 -8 -17q-16 -38 -33 -71q0 -3 -1 -4q-3 -6 -3 -8l-2 -4q-8 -20 -30 -69h6l6 -2h6q1 -1 6 -1h5h8l10 -2h8h6q12 0 22 -1q9 -1 17 -1l19 -3q1 -1 4 1h1
q3 2 9 0h1l2 -2h1l1 1h5q2 -1 6 -1l3 -1v-1q2 2 8 1q14 -2 19 -2h5l1 1h4q1 -1 2 -1t2 -1z" />
    <glyph glyph-name="Aring" unicode="&#xc5;" horiz-adv-x="736" 
d="M313 805h-16q-27 5 -55 25l-1 1q-2 1 -6 5l-1 2l-3 3l-4 6q-3 6 -7 18l-1 3v1v2q-2 18 -2 22q0 7 2 17q2 7 11 21l2 2q0 2 3 5l6 6q1 1 3 1q4 4 10 7v1l2 1h1q35 11 37 11h10q1 -1 3 -1h1l4 -1q16 -4 24 -8q4 -1 11.5 -5.5t14.5 -8.5l8 -4q10 -8 15 -21q3 -6 3 -7
q1 -2 4 -19v-3q1 -14 -4 -31q0 -4 -7 -14v-4q-2 -2 -4 -6l-2 -2q-1 0 -2 -1v-1q-2 -2 -5 -4l-2 -2l-2 -2q-1 -1 -7 -4t-16 -7h-3l-2 -1h-1q0 -1 -4 -1l-10 -1h-2q-1 0 -2 -1h-4zM303 850l4 -1h1l7.5 2.5t6.5 1.5l1 1q1 0 2 1v2h2q2 2 5 4l1 1l1 2q1 2 2.5 4t2.5 6l2 6v2
q0 1 1 2v6q2 5 0 11v1v1l-1 1v1q0 7 -15.5 13.5t-27.5 5.5q-3 0 -5 -2q-5 -1 -10 -6l-2 -2q-7 -9 -9 -14v-2q-1 -1 -1 -2l-2 -4v-1l1 -2l-1 -4v-1h-1v-9l1 -1v-2q2 -5 9 -10l1 -1v-2h1l1 -2l5 -3q1 -1 3 -1h2l4 -1q5 -2 8 -2zM573 -4q-2 -1 -10 2l-9 2q-1 0 -1 2h-2h-1l-1 2
q-1 1 -1 2l-2 -2l-2 4q-22 19 -64 97l-5 10l-3 2l-3 8q-4 6 -5 9l-4 6q-2 3 -4 7l-3 10q-1 6 -3 9l-17 43q-3 14 -8 23q-7 15 -15 31q-12 23 -13 26q-8 16 -15.5 30.5t-10.5 20.5l-3 7q-1 1 -1 2q-1 2 -1 3h-30l-1 -1h-11q-2 0 -3 1h-3q-7 0 -13 2q-2 0 -3 1h-39
q-14 0 -20 2h-2q-1 -1 -2 -1t-2 1h-2q-2 2 -5 0h-1v1h-2q-3 1 -9 1v-1l-3 1q-6 2 -31 3q-3 0 -5 1h-5l-1 -1q-1 0 -1 1h-2l-17 3q-1 1 -4 1t-4 1l-24 -49q-1 -1 -1 -4q-1 -2 -1 -6q-1 -2 -1 -4q-9 -23 -13 -27l-2 -2q-1 -1 -3 -5v-3l-5 -12q-7 -13 -8 -15l-4 -7l-2 1
q1 -7 -9 -23q-9 -16 -23 -50l-2 -4q-1 -4 -3 -6l-2 -7l-7 -12q-6 -9 -11 -25l-1 -2l-2 -4v-3q-3 -7 -3 -13q-2 -6 -17 -31t-19 -29q-4 -3 -6 -6q-2 -2 -7 1q-1 0 -5 -4t-4 -3q-1 0 -5 3t-8.5 8t-5.5 9q-1 1 0 10l3 12q1 1 1 3h-1q0 1 1 3t1 3l2 4q9 28 52 122v3l4 8
q4 8 6 14t6 13q1 1 2 4l2 3q3 5 9 19q4 8 8 15q3 7 5 9l4 8q2 3 5.5 13t5.5 14q1 3 3 7.5t2 5.5l6 13q11 32 29 66q9 21 10 23q1 1 3 5q0 6 4 11q3 5 6 11q3 3 3 8l2 2l13 27l-1 1l5 7q14 27 38 84q11 19 14 30v3l3 6q2 2 2 3q1 1 9.5 20t15.5 34l6 12q2 6 5 12l5 11
q3 8 4 9q-1 9 2 12l-1 1v3h2q1 0 1 2q-1 1 -1 2q1 0 2 1q2 0 2 1l2 3q2 2 4 3q2 0 2 2q20 5 28 5h8q8 0 9 -1q0 -1 2 -1l2 1q5 0 5 -2q19 0 27 -2q3 -1 6 -4q8 -11 19 -59l7 -28l11 -28q11 -32 20 -56q5 -16 9 -22l2 -4q0 -4 1 -5q1 -5 6 -9q5 -12 16.5 -39t22.5 -55.5
t13 -32.5q8 -16 18 -48q1 -5 3 -12l2 -7q0 -3 9 -10q3 -3 3 -4q6 -7 14 -28q2 -6 1 -8q-1 -4 2 -9l3 -3l15 -34l1 -9q-2 0 -4 -2q11 -2 15 -20q1 -3 1 -5q12 -33 25 -56l2 -4q1 -5 5 -8q4 -2 5 -11q0 -1 1 -4l1 -3q4 -11 12 -22q5 -5 6 -8l6 -2q2 -1 4 -3q8 -10 11 -33
l2 -16q0 -1 -1 -3t-1 -3t-11 -9q-1 0 -2 -4q-2 -5 -3 -5l-13 -8q-18 -11 -32 -16zM353 384l-11 30l-8 12q-1 2 -1 8q-1 9 -5 15l-4 7q-3 4 -2 7q0 2 -1 3l-12 32h-2q-2 2 -2 8l1 2q-5 17 -36 95q-4 11 -4 13q-4 10 -4 11q-18 -37 -18 -39q0 -1 -7 -16q-4 -11 -8 -17
q-16 -38 -33 -71q0 -3 -1 -4q-3 -6 -3 -8l-2 -4q-8 -20 -30 -69h6l6 -2h6q1 -1 6 -1h5h8l10 -2h8h6q12 0 22 -1q9 -1 17 -1l19 -3q1 -1 4 1h1q3 2 9 0h1l2 -2h1l1 1h5q2 -1 6 -1l3 -1v-1q2 2 8 1q14 -2 19 -2h5l1 1h4q1 -1 2 -1t2 -1z" />
    <glyph glyph-name="AE" unicode="&#xc6;" horiz-adv-x="1144" 
d="M916 -20h-16q-2 0 -4 1h-5q-7 0 -11 1h-11q-2 0 -5 1h-21q-7 -1 -14 -1h-30q-10 0 -18 1t-15 1h-3q-1 -2 -3 0q-3 0 -4 1h-10q-1 -1 -3 -1h-1q-1 1 -2 1q-7 1 -15 1l-5 1l-47 3q-4 0 -7 1t-6 1l-2 -1q-1 0 -2 1h-1q-2 0 -9 1.5t-12 2.5h-3l-8 2l-9 2q-1 0 -1 2h-2h-1
l-2 3v1l-2 -2l-5 7q-6 2 -8 2.5t-4 3.5t-2 4t-1 8q-19 24 -46 76l-5 10l-3 2l-3 8q-4 6 -5 9l-4 6q-2 3 -4 7l-3 10q-1 6 -3 9l-17 43q-3 15 -8 23q-7 15 -15 31q-12 23 -13 26q-8 16 -15.5 30.5t-10.5 20.5l-3 7q-1 1 -1 2q-1 2 -1 3h-30l-1 -1h-11q-2 0 -3 1h-3
q-7 0 -13 2q-2 0 -3 1h-39q-14 0 -20 2h-2q-1 -1 -2 -1t-2 1h-2q-2 2 -5 0h-1v1h-2q-3 1 -9 1v-1l-3 1q-6 2 -31 3q-3 0 -5 1h-5l-1 -1q-1 0 -1 1h-2l-17 3q-1 1 -4 1t-4 1l-24 -49q-1 -1 -1 -4q-1 -2 -1 -6q-1 -2 -1 -4q-9 -23 -13 -27l-2 -2q-1 -1 -3 -5v-3l-5 -12
q-7 -13 -8 -15l-4 -7l-2 1v-2q0 -6 -9 -21q-9 -16 -23 -50l-2 -4q-1 -4 -3 -6l-2 -7l-7 -12q-6 -9 -11 -25l-1 -2l-2 -4v-3q-3 -7 -3 -13q-2 -6 -17 -31t-19 -29q-4 -3 -6 -6q-2 -2 -7 1q-1 0 -5 -4t-4 -3q-1 0 -5 3t-8.5 8t-5.5 9q-1 1 0 10l3 12q1 1 1 3h-1q0 1 1 3t1 3
l2 4q10 28 52 122v3l4 8q4 8 6 14t6 13q1 1 2 4l2 3q3 5 9 19q4 8 8 15q3 7 5 9l4 8q2 3 5.5 13t5.5 14q1 3 3 7.5t2 5.5l6 13q11 32 29 66q9 21 10 23q1 1 3 5q0 6 4 11q3 5 6 11q3 3 3 8l2 2l13 27l-1 1l5 7q14 27 38 84q11 19 14 30v3l3 6q2 2 2 3q1 1 9.5 20t15.5 34
l6 12q2 6 5 12l5 11q3 8 4 9q-1 9 2 12l-1 1v3h2q1 0 1 2q-1 1 -1 2q1 0 2 1q2 0 2 1l2 3q2 2 4 3q2 0 2 2q20 5 28 5h8q8 0 9 -1q0 -1 2 -1l2 1q5 0 5 -2q19 0 27 -2q3 -1 6 -4q8 -11 19 -59l7 -28l11 -28q11 -32 20 -56q5 -16 9 -22l2 -4q0 -4 1 -5q1 -5 6 -9
q5 -12 16.5 -39t22.5 -55.5t13 -32.5q8 -16 18 -48q1 -5 3 -12l2 -7q0 -3 9 -10q3 -3 3 -4q6 -7 14 -28q2 -6 1 -8q-1 -4 2 -9l3 -3l13 -30v7q-3 12 -3 49q0 17 1 30q1 11 1 32l-2 3v4q0 1 2 7q1 2 1 4q0 3 -0.5 8t-0.5 7q-1 1 -1 3t1 3t1 2q1 11 1 29h-2q-2 4 1 7l1 2
q2 30 -2 92q0 8 1 16q0 11 -1 12l-2 3q0 3 1 5q1 1 1 3q0 20 3 52q0 16 2 26q0 7 1 12q0 19 3 22q1 0 1 2q-1 1 -1 3h3v1q-2 5 -1 6l1 2q0 2 1 2v2h1v1q7 9 10 10t18 2q14 2 29 2q5 0 8 1t7 1q19 0 40 3h5q2 0 3 1h2q17 2 64 3h5q15 0 28 -1q2 0 3 1h3l2 1q3 1 14 1h3l2 -2
h3l1 1h8q6 0 9 -1l5 -1l-1 -1q6 2 14 1l28 -3h12q1 -1 3 -1q8 -2 12 -1h3q1 -1 2 0h3l2 1q18 0 27 -9l3 -3l-3 -6l1 -2q2 -1 0 -3q-2 -6 -15 -19l-6 -3h-1q-1 0 -1 1h-1v-1l-1 1q-1 0 -8 1.5t-13 3.5t-26 5h-2q-2 0 -3 1h-11h-3l-2 2h-3l-20 2q-2 0 -4 1h-47q-7 -1 -15 -1
h-15q-13 0 -17 -1h-17q-2 0 -3 -1h-4l-1 1q-6 -1 -16 -1v-1l-4 1q-7 0 -31 -2q7 -4 9 -10q10 -35 7 -86q-2 -30 -2 -31q0 -11 3 -32v-40q0 -33 1 -40v-9q0 -3 1 -5t1 -4q1 -7 1 -23q1 1 4 1q7 0 13 1h18q3 1 13 1q15 0 25 -1l19 -3l3 1q1 1 2 1h8q1 -1 3 -1q0 -1 2 -1h5
q4 0 6 -1l3 -1l-1 -1q1 1 5 1h5l12 -2h5h2q1 -1 2 -1l1 1h4q1 -1 2 -1q4 -2 9 0h4q1 0 2 1l1 1q4 0 15 -3l8 -2q4 -1 4 -6l3 -2l-3 -16q-2 -2 -4 -3l-3 -1h-2v-1h-3q-8 -2 -21 -2q-3 0 -11.5 0.5t-13.5 0.5l-1 -1q-2 0 -3 1h-5q-1 -1 -3 -1q-1 0 -2 1h-3q-8 2 -13 2
q-2 2 -7 2h-33h-6l-6 2h-6h-2q-1 -1 -2 0h-4q-2 2 -4 0h-1q-1 0 -1 1h-13q-2 1 -11 1q-10 0 -17 -1h-3v-62q0 -21 -4 -40q-2 -12 -3 -16q0 -2 3 -8l3 -6q2 -8 2 -13q0 -15 -3 -18q-3 -1 -3 -6l2 -3v-13q0 -11 -1 -15l-3 -8l-4 1q6 -6 6 -12q-3 -3 -3 -11q-4 -19 -2 -46v-4
q-1 -2 -1 -4q2 -6 2 -7q0 -3 -1 -5q-2 -8 -2 -13q0 -4 2 -12l2 -8v-35q1 -1 3 -1h9q31 0 64 -3h6l12 -1h6q4 -1 8 -1q1 -2 3 0h4l2 1q2 1 6 1q5 0 8 -1h5q1 -1 3 -1h19l5 -1v-1q5 2 14 1q20 -2 29 -1h16q7 -1 13 0h3q1 0 2 1q2 0 3 1h6q9 0 15 -1l8 -2q4 -1 4 -6l3 -2
l-3 -16q-4 -4 -7 -4h-1v-1h-4q-12 -3 -61 -3zM413 384l-11 30l-8 12q-1 2 -1 8q-1 9 -5 15l-4 7q-3 4 -2 7q0 2 -1 3l-12 32h-2q-2 2 -2 8l1 2q-5 17 -36 95q-4 11 -4 13q-4 10 -4 11q-18 -37 -18 -39q0 -1 -7 -16q-4 -11 -8 -17q-16 -38 -33 -71q0 -3 -1 -4q-3 -6 -3 -8
l-2 -4q-8 -20 -30 -69h6l6 -2h6q1 -1 6 -1h5h8l10 -2h8h6q12 0 22 -1q9 -1 17 -1l19 -3q1 -1 4 1h1q3 2 9 0h1l2 -2h1l1 1h5q2 -1 6 -1l3 -1v-1q2 2 8 1q14 -2 19 -2h5l1 1h4q1 -1 2 -1t2 -1zM600 239l2 -1v3z" />
    <glyph glyph-name="Ccedilla" unicode="&#xc7;" horiz-adv-x="791" 
d="M402 -149q-8 0 -16 2q0 -2 -3 1h-1v1h-2l-3 2q-2 1 -2 2h-3h-1l-1 1h-1l-2 2q-1 1 -2 1h-2l-2.5 2.5t-2.5 2t-2.5 2t-2.5 3.5q-4 0 -4 4l-1 1q-3 3 -3 6h-2l-1 2v1l-1 1q-1 1 -1 2q-1 6 -1 14v8l4 4q1 1 2 1v-1q1 1 2 0l8 6h9q5 0 5 -4v-1l1 -2q-1 -3 1 -5v-3h1
q0 -3 2 -3h1v-1q1 -1 1 -3l3 -2q0 -3 3 -3q2 -2 9 -2h4q2 1 4.5 2t3.5 1h1l1 -1l4 2q1 0 2.5 1.5t2.5 1.5q1 1 2 1q1 2 3 2l2 2l2 1q0 1 1 3l2 2q2 2 4 0l-1 2q1 3 5 7h1q1 0 1 3q2 5 3 6h3q2 7 3 8q0 1 1 3.5t1 5.5q0 4 -3 11l-5 5q-16 10 -28 10q-7 0 -11 -4l-3 -1
q0 -2 -1 -4l-2 -2l-1 -1v-3h-2l-9 4l-2 1l-2 -1h-5q-1 1 -3 1l-3 -1l-3 2l-4 1q0 4 3 9l2 3v4q1 0 1 3l2 4v1h1v1q0 3 2 4q0 2 1 4q2 3 1 4q3 0 4 3l2 2l-2 2q1 0 2 1v2l3 2v2l1 -1q-1 1 1 3q3 3 4 6q-89 -3 -198 43l-5 1q-14 6 -22 14q-4 0 -19 11q-1 1 -7.5 7t-12.5 12
q-24 24 -41 46q-7 8 -12 19l-5 7q-66 105 -66 176q0 26 5 69q1 2 1 9q0 9 6 21q3 6 3 7q8 22 8 28q1 3 6 8q12 24 24 44h-2q1 3 8 10l2 2q71 81 123 120q3 2 35 21q10 5 11 6l4 3l2 1l4 2h2q2 2 5 2q73 28 123 28q45 0 57 -5h6q21 -1 62 -15q2 0 7.5 -2t6.5 -2q4 -1 12 -4.5
t15 -6.5l6 -3q0 -2 3 -2q1 -1 2 -1t2 -1q22 -12 40 -33q2 -2 11 -23q5 -5 7 -5q4 -6 5 -11q2 -2 0 -3q-2 -2 0 -4l2 -1l4 -14v-5h-3q5 -2 5 -12q0 -16 4 -28v-3q0 -2 1 -3l1 -1v-3v-4q-1 -2 -1 -4q0 -6 2 -16q1 -1 1 -3q0 -4 3 -7l2 -2q2 -8 -3 -29q-3 -14 -4 -15
q-2 -4 -2 -5q-2 -2 -9 -2q-1 0 -4 -4l-2 -3l-12 1q-10 1 -20 5q-3 3 -6 7l-3 5v4h-1q-1 0 0 1v2h-2v3q-5 16 -8 49q-1 16 -3 21l-1 1q-1 1 -1 4v3v2l-2 2v2v16q-1 3 -1 6v4q0 2 -1 3q0 2 -7 15l-3 7q-3 4 -7 14l-3 8q-2 0 -2 2l-2 3l-3 4v2q-1 1 -2.5 3.5t-2.5 3.5h-1l-1 2
q-5 7 -25 20l-10 5h-1l-2 2q-2 1 -5 3t-6 3l-13 5l-4 2v-2h-9q-5 0 -18 -3q-14 -2 -17 -2h-4q-8 1 -24 1q-60 0 -120 -42q-31 -20 -63.5 -58.5t-46.5 -71.5l-5 -11l-3 -11q-14 -67 -14 -111q0 -15 1 -22q1 -10 3 -32q1 -20 3 -31q0 -2 8 -10l2 -3q2 -3 11 -27q2 -6 1 -8
q-1 -3 1 -9l4 -2q1 -4 16 -32q4 -10 3 -10t-3 -2q8 -1 16 -15l4 -8q17 -25 47 -50q2 0 11 -9q1 -1 2 -1t1.5 -0.5t1.5 -0.5t2.5 -1t3.5 -3t5 -4l4 -4l3 -2q17 -11 32 -15q3 -1 6.5 -2t5.5 -2l2 -1q3 -1 9 -1h6q4 -1 14.5 -3.5t17.5 -3.5q25 -6 51 -6h13q7 -1 13 0q4 0 4 -4
v-2h10q16 5 18 5l3 2l6 2q2 0 3 1q3 1 8 4h2q7 4 14 7v1l4 1q13 7 38 28l10 10v2l2 2q1 0 2 1q2 3 9 10q1 2 4 5t4 5q6 7 8 11q2 2 3 5l4 6q1 3 3 3l1 1v2l1 -1q2 3 3 3h1l4 2q1 0 1 1h1q13 0 13 -4q0 -2 3 -3q2 -4 2 -5h1l1 -1v-4q0 -1 1.5 -4t2.5 -6t1 -4q0 -3 -1 -6
q-11 -20 -50 -51q-4 -3 -7.5 -5.5t-5.5 -4.5l-2 -1q-9 -7 -39 -23q-2 -2 -5 -2q-3 -3 -4 -3q-51 -22 -93 -26l-12 -3l-1 -4q-1 -3 -2 -3q1 -1 1 -2l-2 -3l2 1q9 0 18 -4q9 -3 18 -8q2 -1 6.5 -4.5t4.5 -4.5q6 -4 18 -24l1 -3q3 -3 3 -9q1 -1 1 -4v-4h2q0 -5 -1 -6v-2
q0 -21 -10 -40l-11 -16h-1l-1 -2q-1 -1 -3 -5q-6 -6 -11 -12l-4 -4l-6 -2q-3 -3 -6 -3h-1q-15 -7 -35 -7z" />
    <glyph glyph-name="Egrave" unicode="&#xc8;" horiz-adv-x="559" 
d="M185 800h-3l-4 1h-4v2h-1q-1 -1 -1 0h-1q-4 2 -4 5l-3 3q-1 1 -1 3l-2 2q-5 6 -7 12l-1 1q-1 0 -1 1h1q0 4 -3 7q-3 17 -9 21l-2 1h1l1 1l-4 7h-3v1q0 3 -1 4v1q-3 0 -3 3q0 4 -4 8q-1 2 -7 13q-1 5 -3 7q-1 1 -1 4l-3 4q-1 2 -1 4l-5 4q-6 6 -8 9l-2 2q-3 1 -3 3
q0 3 -2 5l-1 1l1 2q-1 0 -2 2t-3 4l-8 15q-4 8 -4 14v2h1l-1 2h1l-1 1v1q1 2 3 4q2 4 3 4q7 5 21 12q8 2 10 4h4l3 -1q8 3 9 3q1 -1 4 -1l7 -3l2 -2q1 0 3 -2q4 -2 4 -6l-2 -2v-6q0 -3 3 -6q0 -1 1 -2l3 -2v-3l1 -1q6 -10 10 -14q4 -3 1 -6l3 1q1 0 2 -2q5 -5 5 -7v-1
q0 -1 2 -1l2 -1q4 -3 4 -7v-3l-1 -2q2 -2 4 -3q4 -3 8 -9l5 -9q2 -2 4.5 -6t2.5 -5q3 -3 6 -9v-3q0 -1 1 -1v-2l5 -10q6 -8 6 -10q4 -8 4 -9l5 -7q10 -13 10 -26q0 -3 -4 -3q-1 -1 -8 -5l-7 -4q-1 0 -2 -1q-1 0 -2 -1h-3q0 -1 -5 -3l-5 -1q-3 -3 -21 -3zM331 4h-16
q-2 0 -4 1h-5q-7 0 -11 1h-11q-2 0 -5 1h-21q-7 -1 -14 -1h-30q-10 0 -18 1t-15 1h-3q-2 -2 -3 0q-3 0 -4 1h-10q-1 -1 -3 -1h-1q-1 1 -2 1q-7 1 -15 1l-5 1l-47 3q-4 0 -7 1t-6 1l-2 -1q-1 0 -2 1h-1q-7 1 -23 5q-7 0 -10 3l-12 4h-1l-1 1v1h-2v2l-2 2q-12 3 -14.5 5.5
t-3.5 11.5q-1 4 -1 7q-1 2 1 8q1 1 1 3q1 1 1 2q0 4 -2 4q0 2 1 3q0 2 -1 2h11q-1 6 -1 62l-2 3q0 4 1 7v6q-2 6 -2 13l2 7q1 3 1 6q1 3 1.5 9.5t0.5 9.5t0.5 8.5t1.5 7.5l2 8q1 4 1 10q0 15 -1 27t-1 21q-3 12 -3 49q0 17 1 30q1 11 1 32l-2 3v4q0 1 2 7q1 2 1 4
q0 3 -0.5 8t-0.5 7q-1 1 -1 3t1 3t1 2q1 11 1 29h-2q-1 4 1 7l1 2q2 30 -2 92q0 8 1 16q0 11 -1 12l-2 3q0 3 1 5q1 1 1 3q0 20 3 52q0 16 2 26q0 7 1 12q0 19 3 22q1 0 1 2q-1 1 -1 3h3v1q-2 5 -1 6l1 2q0 2 1 2v2h1v1q7 9 10 10t18 2q14 2 29 2q5 0 8 1t7 1q19 0 40 3h5
q2 0 3 1h2q17 2 64 3h5q15 0 28 -1q2 0 3 1h3l2 1q3 1 14 1h3l2 -2h3l1 1h8q6 0 9 -1l5 -1l-1 -1q6 2 14 1l28 -3h12q1 -1 3 -1q8 -2 12 -1h3q1 -1 2 0h3l2 1q18 0 27 -9l3 -3l-3 -6l1 -2q1 -1 0 -3q-2 -6 -15 -19l-6 -3h-1q-1 0 -1 1h-1v-1l-1 1q-1 0 -8 1.5t-13 3.5t-26 5
h-2q-2 0 -3 1h-11h-3l-2 2h-3l-20 2q-2 0 -4 1h-47q-7 -1 -15 -1h-15q-13 0 -17 -1h-17q-2 0 -3 -1h-4l-1 1q-6 -1 -16 -1v-1l-4 1q-7 0 -31 -2q7 -4 9 -10q10 -35 7 -86q-2 -30 -2 -31q0 -11 3 -32v-40q0 -33 1 -40v-9q0 -3 1 -5t1 -4q1 -7 1 -23q1 1 4 1q7 0 13 1h18
q3 1 13 1q15 0 25 -1l19 -3l3 1q1 1 2 1h8q1 -1 3 -1q0 -1 2 -1h5q4 0 6 -1l3 -1l-1 -1q1 1 5 1h5l12 -2h5h2q1 -1 2 -1l1 1h4q1 -1 2 -1q5 -2 9 0h4q1 0 2 1l1 1q5 0 15 -3l8 -2q4 -1 4 -6l3 -2l-3 -16q-2 -2 -4 -3l-3 -1h-2v-1h-3q-8 -2 -21 -2q-3 0 -11.5 0.5t-13.5 0.5
l-1 -1q-2 0 -3 1h-5q-1 -1 -3 -1q-1 0 -2 1h-3q-8 2 -13 2q-2 2 -7 2h-33h-6l-6 2h-6h-2q-1 -1 -2 0h-4q-2 2 -4 0h-1q-1 0 -1 1h-13q-2 1 -11 1q-10 0 -17 -1h-3v-62q0 -21 -4 -40q-2 -12 -3 -16q0 -2 3 -8l3 -6q2 -8 2 -13q0 -15 -3 -18q-3 -1 -3 -6l2 -3v-13
q0 -11 -1 -15l-3 -8l-4 1q6 -6 6 -12q-3 -3 -3 -11q-4 -19 -2 -46v-4q-1 -2 -1 -4q2 -6 2 -7q0 -3 -1 -5q-2 -8 -2 -13q0 -4 2 -12l2 -8q6 -6 6 -7q1 -1 1 -5q0 -9 -7 -23q1 -1 3 -1h9q31 0 64 -3h6l12 -1h6q4 -1 8 -1q2 -2 3 0h4l2 1q2 1 6 1q5 0 8 -1h5q1 -1 3 -1h19l5 -1
v-1q5 2 14 1q20 -2 29 -1h16q7 -1 13 0h3q1 0 2 1q2 0 3 1h6q9 0 15 -1l8 -2q4 -1 4 -6l3 -2l-3 -16q-4 -4 -7 -4h-1v-1h-4q-12 -3 -61 -3z" />
    <glyph glyph-name="Eacute" unicode="&#xc9;" horiz-adv-x="559" 
d="M217 799h-3q-18 0 -21 3l-5 1q-5 2 -5 3h-3q-3 2 -4 2l-7 4q-7 4 -8 5q-4 0 -4 3q0 13 10 26l5 7q0 1 4 9q0 2 6 10l5 10v2q1 0 1 1v3q3 6 6 9q1 1 3 5t4 6l5 9q4 6 8 9q2 1 4 3q0 1 -1 2v3q0 4 4 7q1 1 2 1q2 0 2 1v1q0 2 5 7l2 2l3 -1q-3 3 1 6q4 4 10 14l1 1v3
q1 2 3 2q1 1 1 2q3 3 3 6v6l-2 2q0 4 4 6q2 2 3 2l2 2l7 3q3 0 4 1q2 0 9 -3l3 1h4q2 -2 10 -4q14 -7 21 -12q1 0 3 -4l3 -4v-1l-1 -1h1l-1 -2h1v-2q0 -6 -4 -14l-8 -15q-1 -1 -3 -4l-2 -2l1 -2l-1 -1q-2 -2 -2 -5q0 -2 -3 -3l-2 -2q-2 -3 -8 -9l-5 -4q0 -2 -1 -4l-3 -4
q0 -3 -1 -4q-2 -2 -3 -7q-6 -11 -7 -13q-4 -4 -4 -7q0 -4 -3 -4v-1q-1 -1 -1 -4v-1h-3l-4 -7l1 -1h1l-2 -1q-6 -5 -9 -21q-3 -3 -3 -7h1l-1 -1l-1 -1q-2 -6 -7 -12l-2 -2q0 -2 -1 -3l-3 -3q0 -3 -4 -5h-1h-1h-1v-2h-4zM331 4h-16q-2 0 -4 1h-5q-7 0 -11 1h-11q-2 0 -5 1h-21
q-7 -1 -14 -1h-30q-10 0 -18 1t-15 1h-3q-2 -2 -3 0q-3 0 -4 1h-10q-1 -1 -3 -1h-1q-1 1 -2 1q-3 1 -8 1h-7l-5 1l-47 3q-4 0 -7 1t-6 1l-2 -1q-1 0 -2 1h-1q-3 0 -23 5q-7 0 -10 3l-12 4h-1l-1 1v1h-2v2l-2 2q-12 3 -14.5 5.5t-3.5 11.5q-1 4 -1 7q-1 2 1 8q1 1 1 3
q1 1 1 2q0 4 -2 4q0 2 1 3q0 2 -1 2h11q-1 6 -1 62l-2 3q0 4 1 7v6q-2 6 -2 13l2 7q1 3 1 6q1 3 1.5 9.5t0.5 9.5t0.5 8.5t1.5 7.5l2 8q1 4 1 10q0 15 -1 27t-1 21q-3 12 -3 49q0 17 1 30q1 11 1 32l-2 3v4q0 1 2 7q1 2 1 4q0 3 -0.5 8t-0.5 7q-1 1 -1 3t1 3t1 2q1 11 1 29
h-2q-1 4 1 7l1 2q2 30 -2 92q0 8 1 16q0 11 -1 12l-2 3q0 3 1 5q1 1 1 3q0 20 3 52q0 16 2 26q0 7 1 12q0 19 3 22q1 0 1 2q-1 1 -1 3h3v1q0 1 -1 4q-1 1 0 2l1 2q0 2 1 2v2h1v1q7 9 10 10t18 2q14 2 29 2q5 0 8 1q12 4 47 4h5q2 0 3 1h2q3 0 24 1.5t40 1.5h5q15 0 28 -1
q2 0 3 1h3l2 1q3 1 14 1h3l2 -2h3l1 1h8q6 0 9 -1l5 -1l-1 -1q6 2 14 1l28 -3h12q1 -1 3 -1q4 -1 12 -1h3q1 -1 2 0h3l2 1q18 0 27 -9l3 -3l-3 -6l1 -2q1 -1 0 -3q-4 -12 -15 -19l-6 -3h-1q-1 0 -1 1h-1v-1l-1 1q-30 10 -47 10h-2q-2 0 -3 1h-11h-3l-2 2h-3l-20 2q-2 0 -4 1
h-47q-7 -1 -15 -1h-15q-13 0 -17 -1h-17q-2 0 -3 -1h-4l-1 1q-6 -1 -16 -1v-1l-4 1q-7 0 -31 -2q7 -4 9 -10q10 -35 7 -86q-2 -30 -2 -31q0 -11 3 -32v-40q0 -11 0.5 -24.5t0.5 -15.5v-9q0 -3 1 -5t1 -4q1 -7 1 -23q1 1 4 1q7 0 13 1h18q3 1 13 1q20 0 25 -1l19 -3l3 1
q1 1 2 1h8q1 -1 3 -1q0 -1 2 -1h5q4 0 6 -1l3 -1l-1 -1q1 1 5 1h5l12 -2h5h2q1 -1 2 -1l1 1h4q1 -1 2 -1q5 -2 9 0h4q1 0 2 1l1 1q5 0 15 -3l8 -2q4 -1 4 -6l3 -2l-3 -16q-2 -2 -4 -3l-3 -1h-2v-1h-3q-1 0 -8 -1t-13 -1q-3 0 -11.5 0.5t-13.5 0.5l-1 -1q-2 0 -3 1h-5
q-1 -1 -3 -1q-1 0 -2 1h-3q-2 0 -7 1t-6 1q-2 2 -7 2h-33h-6l-6 2h-6h-2q-1 -1 -2 0h-4q-2 2 -4 0h-1q-1 0 -1 1h-13q-2 1 -11 1q-2 0 -7.5 -0.5t-9.5 -0.5h-3v-62q0 -21 -4 -40q-2 -12 -3 -16q0 -2 3 -8l3 -6q2 -8 2 -13q0 -15 -3 -18q-3 -1 -3 -6l2 -3v-13q0 -11 -1 -15
l-3 -8l-4 1q6 -6 6 -12q-3 -3 -3 -11q-2 -10 -2 -46v-4q-1 -2 -1 -4q2 -6 2 -7q0 -3 -1 -5q-2 -8 -2 -13q0 -4 2 -12l2 -8q6 -6 6 -7q1 -1 1 -5q0 -9 -7 -23q1 -1 3 -1h9q31 0 64 -3h6l12 -1h6q4 -1 8 -1q2 -2 3 0h4l2 1q2 1 6 1q5 0 8 -1h5q1 -1 3 -1h19l5 -1v-1q5 2 14 1
q10 -1 29 -1h16h13h3q1 0 2 1q2 0 3 1h6q9 0 15 -1l8 -2q4 -1 4 -6l3 -2l-3 -16q-4 -4 -7 -4h-1v-1h-4q-12 -3 -61 -3z" />
    <glyph glyph-name="Ecircumflex" unicode="&#xca;" horiz-adv-x="559" 
d="M288 799q-1 1 -4 1l-7 3l-2 2q-1 0 -3 2q-4 2 -4 6l2 2v6q0 3 -3 6q0 1 -1 2l-3 2v3l-1 1q-6 10 -10 14q-4 3 -1 6l-3 -1q-1 0 -2 2q-5 5 -5 7v1q0 1 -2 1l-2 1q-4 3 -4 7v3l1 2q-2 2 -4 3q-4 3 -8 9l-6 11v-1l-5 -9q-4 -6 -8 -9q-2 -1 -4 -3q0 -1 1 -2v-3q0 -4 -4 -7
q-1 -1 -2 -1q-2 0 -2 -1v-1q0 -2 -5 -7l-2 -2l-3 1q3 -3 -1 -6q-4 -4 -10 -14l-1 -1v-3q-1 -2 -3 -2q-1 -1 -1 -2q-3 -3 -3 -6v-6l2 -2q0 -4 -4 -6q-2 -2 -3 -2l-2 -2l-7 -3q-3 0 -4 -1q-1 0 -9 3l-3 -1h-4q-2 2 -10 4q-14 7 -21 12q-1 0 -3 4l-3 4v1l1 1h-1l1 2h-1v2
q0 6 4 14l8 15q2 1 3 4q1 2 2 2l-1 2l1 1q2 2 2 5q0 2 3 3l2 2q2 3 8 9l5 4q0 2 1 4l3 4q0 3 1 4q2 2 3 7q6 11 7 13q4 4 4 7q0 4 3 4v1q1 1 1 4v1h3l4 7l-1 1h-1l2 1q6 5 9 21q3 3 3 7h-1q0 1 1 1l1 1q0 2 1 3v3q0 3 3 3l3 3l2 2q0 2 1 3l3 3q0 3 4 5h1q0 1 1 0h1v2h4l4 1
h3q13 0 17 -1h13l4 -1h4v-2h1q1 1 1 0h1q4 -2 4 -5l3 -3q1 -1 1 -3q3 -2 4 -3q4 0 4 -3q0 -2 -1 -4l3 -5l1 -1h-1q0 -4 3 -7q3 -17 9 -21l2 -1h-1l-1 -1l4 -7h3v-1q0 -3 1 -4v-1q3 0 3 -3q0 -4 4 -8q1 -2 7 -13q1 -5 3 -7q1 -1 1 -4l3 -4q1 -2 1 -4l5 -4q6 -6 8 -9l2 -2
q3 -1 3 -3q0 -3 2 -5l1 -1l-1 -2l2 -2q2 -2 3 -4l8 -15q4 -8 4 -14v-2h-1l1 -2h-1l1 -1v-1q-1 -2 -3 -4q-2 -4 -3 -4q-7 -5 -21 -12q-8 -2 -10 -4h-4l-3 1q-7 -3 -9 -3zM331 4h-16q-2 0 -4 1h-5q-7 0 -11 1h-11q-2 0 -5 1h-21q-7 -1 -14 -1h-30q-10 0 -18 1t-15 1h-3
q-2 -2 -3 0q-3 0 -4 1h-10q-1 -1 -3 -1h-1q-1 1 -2 1q-7 1 -15 1l-5 1l-47 3q-4 0 -7 1t-6 1l-2 -1q-1 0 -2 1h-1q-7 1 -23 5q-7 0 -10 3l-12 4h-1l-1 1v1h-2v2l-2 2q-12 3 -14.5 5.5t-3.5 11.5q-1 4 -1 7q-1 2 1 8q1 1 1 3q1 1 1 2q0 4 -2 4q0 2 1 3q0 2 -1 2h11
q-1 6 -1 62l-2 3q0 4 1 7v6q-2 6 -2 13l2 7q1 3 1 6q1 3 1.5 9.5t0.5 9.5t0.5 8.5t1.5 7.5l2 8q1 4 1 10q0 15 -1 27t-1 21q-3 12 -3 49q0 17 1 30q1 11 1 32l-2 3v4q0 1 2 7q1 2 1 4q0 3 -0.5 8t-0.5 7q-1 1 -1 3t1 3t1 2q1 11 1 29h-2q-1 4 1 7l1 2q2 30 -2 92q0 8 1 16
q0 11 -1 12l-2 3q0 3 1 5q1 1 1 3q0 20 3 52q0 16 2 26q0 7 1 12q0 19 3 22q1 0 1 2q-1 1 -1 3h3v1q-2 5 -1 6l1 2q0 2 1 2v2h1v1q7 9 10 10t18 2q14 2 29 2q5 0 8 1t7 1q19 0 40 3h5q2 0 3 1h2q17 2 64 3h5q15 0 28 -1q2 0 3 1h3l2 1q3 1 14 1h3l2 -2h3l1 1h8q6 0 9 -1
l5 -1l-1 -1q6 2 14 1l28 -3h12q1 -1 3 -1q8 -2 12 -1h3q1 -1 2 0h3l2 1q18 0 27 -9l3 -3l-3 -6l1 -2q1 -1 0 -3q-2 -6 -15 -19l-6 -3h-1q-1 0 -1 1h-1v-1l-1 1q-1 0 -8 1.5t-13 3.5t-26 5h-2q-2 0 -3 1h-11h-3l-2 2h-3l-20 2q-2 0 -4 1h-47q-7 -1 -15 -1h-15q-13 0 -17 -1
h-17q-2 0 -3 -1h-4l-1 1q-6 -1 -16 -1v-1l-4 1q-7 0 -31 -2q7 -4 9 -10q10 -35 7 -86q-2 -30 -2 -31q0 -11 3 -32v-40q0 -33 1 -40v-9q0 -3 1 -5t1 -4q1 -7 1 -23q1 1 4 1q7 0 13 1h18q3 1 13 1q15 0 25 -1l19 -3l3 1q1 1 2 1h8q1 -1 3 -1q0 -1 2 -1h5q4 0 6 -1l3 -1l-1 -1
q1 1 5 1h5l12 -2h5h2q1 -1 2 -1l1 1h4q1 -1 2 -1q5 -2 9 0h4q1 0 2 1l1 1q5 0 15 -3l8 -2q4 -1 4 -6l3 -2l-3 -16q-2 -2 -4 -3l-3 -1h-2v-1h-3q-8 -2 -21 -2q-3 0 -11.5 0.5t-13.5 0.5l-1 -1q-2 0 -3 1h-5q-1 -1 -3 -1q-1 0 -2 1h-3q-8 2 -13 2q-2 2 -7 2h-33h-6l-6 2h-6h-2
q-1 -1 -2 0h-4q-2 2 -4 0h-1q-1 0 -1 1h-13q-2 1 -11 1q-10 0 -17 -1h-3v-62q0 -21 -4 -40q-2 -12 -3 -16q0 -2 3 -8l3 -6q2 -8 2 -13q0 -15 -3 -18q-3 -1 -3 -6l2 -3v-13q0 -11 -1 -15l-3 -8l-4 1q6 -6 6 -12q-3 -3 -3 -11q-4 -19 -2 -46v-4q-1 -2 -1 -4q2 -6 2 -7
q0 -3 -1 -5q-2 -8 -2 -13q0 -4 2 -12l2 -8q6 -6 6 -7q1 -1 1 -5q0 -9 -7 -23q1 -1 3 -1h9q31 0 64 -3h6l12 -1h6q4 -1 8 -1q2 -2 3 0h4l2 1q2 1 6 1q5 0 8 -1h5q1 -1 3 -1h19l5 -1v-1q5 2 14 1q20 -2 29 -1h16q7 -1 13 0h3q1 0 2 1q2 0 3 1h6q9 0 15 -1l8 -2q4 -1 4 -6l3 -2
l-3 -16q-4 -4 -7 -4h-1v-1h-4q-12 -3 -61 -3z" />
    <glyph glyph-name="Edieresis" unicode="&#xcb;" horiz-adv-x="559" 
d="M168 870h-14l-1 1h-1q-26 3 -27 4l-6 2q-5 1 -8 1q-1 1 -2 1h-4q-1 1 -3 1q-3 2 -10 3q-16 3 -18 5q-6 4 -1 10l3 3v3q-1 1 -1 2v4l2 4v4v2l-1 1h-1l3 21q2 5 6 8h2l-1 2l-3 3v1q0 4 1 5h2q2 0 2 2h-1q0 2 1 3q2 4 5 4v-1l3 -1q-5 4 0 6q3 2 13 2.5t10 -0.5q1 -1 9 -1.5
t22 -4t26 -11.5v-2h2v-1h1q12 -10 13 -13l2 -1v-1q0 -1 1 -1l1 -1l-1 -1h-1q-1 -1 -1 -2l-3 -3h-1q-1 -1 1 -4q1 -1 1 -3t1 -3q1 -2 1 -4q0 -3 -1 -4q-1 -2 -1 -4l1 -1l1 -1q-3 -1 -3 -2l1 -2l-1 -1h-1q0 -3 -1 -4h1l-1 -1q-2 -2 -1 -12q0 -1 -1 -2q-2 -2 0 -2l2 -1h-3
q-2 -3 -6 -6l-1 -1l-2 -2q-1 0 -2 -1q-2 -2 -5 -2zM322 862h-14l-1 1h-1q-26 3 -27 4l-6 2q-5 1 -8 1q-1 1 -2 1h-4q-1 1 -3 1q-3 2 -10 3q-16 3 -18 5q-6 4 -1 10l3 3v3q-1 1 -1 2v4l2 4v4v2l-1 1h-1l3 21q2 5 6 8h2l-1 2l-3 3v1q0 4 1 5h2q2 0 2 2h-1q0 2 1 3q2 4 5 4v-1
l3 -1q-5 4 0 6q3 2 13 2.5t10 -0.5q1 -1 9 -1.5t22 -4t26 -11.5v-2h2v-1h1q12 -10 13 -13l2 -1v-1q0 -1 1 -1l1 -1l-1 -1h-1q-1 -1 -1 -2l-3 -3h-1q-1 -1 1 -4q1 -1 1 -3t1 -3q1 -2 1 -4q0 -3 -1 -4q-1 -2 -1 -4l1 -1l1 -1q-3 -1 -3 -2l1 -2l-1 -1h-1q0 -3 -1 -4h1l-1 -1
q-2 -2 -1 -12q0 -1 -1 -2q-2 -2 0 -2l2 -1h-3q-2 -3 -6 -6l-1 -1l-2 -2q-1 0 -2 -1q-2 -2 -5 -2zM331 4h-16q-2 0 -4 1h-5q-7 0 -11 1h-11q-2 0 -5 1h-21q-7 -1 -14 -1h-30q-10 0 -18 1t-15 1h-3q-2 -2 -3 0q-3 0 -4 1h-10q-1 -1 -3 -1h-1q-1 1 -2 1q-7 1 -15 1l-5 1l-47 3
q-4 0 -7 1t-6 1l-2 -1q-1 0 -2 1h-1q-7 1 -23 5q-7 0 -10 3l-12 4h-1l-1 1v1h-2v2l-2 2q-12 3 -14.5 5.5t-3.5 11.5q-1 4 -1 7q-1 2 1 8q1 1 1 3q1 1 1 2q0 4 -2 4q0 2 1 3q0 2 -1 2h11q-1 6 -1 62l-2 3q0 4 1 7v6q-2 6 -2 13l2 7q1 3 1 6q1 3 1.5 9.5t0.5 9.5t0.5 8.5
t1.5 7.5l2 8q1 4 1 10q0 15 -1 27t-1 21q-3 12 -3 49q0 17 1 30q1 11 1 32l-2 3v4q0 1 2 7q1 2 1 4q0 3 -0.5 8t-0.5 7q-1 1 -1 3t1 3t1 2q1 11 1 29h-2q-1 4 1 7l1 2q2 30 -2 92q0 8 1 16q0 11 -1 12l-2 3q0 3 1 5q1 1 1 3q0 20 3 52q0 16 2 26q0 7 1 12q0 19 3 22q1 0 1 2
q-1 1 -1 3h3v1q-2 5 -1 6l1 2q0 2 1 2v2h1v1q7 9 10 10t18 2q14 2 29 2q5 0 8 1t7 1q19 0 40 3h5q2 0 3 1h2q17 2 64 3h5q15 0 28 -1q2 0 3 1h3l2 1q3 1 14 1h3l2 -2h3l1 1h8q6 0 9 -1l5 -1l-1 -1q6 2 14 1l28 -3h12q1 -1 3 -1q8 -2 12 -1h3q1 -1 2 0h3l2 1q18 0 27 -9l3 -3
l-3 -6l1 -2q1 -1 0 -3q-2 -6 -15 -19l-6 -3h-1q-1 0 -1 1h-1v-1l-1 1q-1 0 -8 1.5t-13 3.5t-26 5h-2q-2 0 -3 1h-11h-3l-2 2h-3l-20 2q-2 0 -4 1h-47q-7 -1 -15 -1h-15q-13 0 -17 -1h-17q-2 0 -3 -1h-4l-1 1q-6 -1 -16 -1v-1l-4 1q-7 0 -31 -2q7 -4 9 -10q10 -35 7 -86
q-2 -30 -2 -31q0 -11 3 -32v-40q0 -33 1 -40v-9q0 -3 1 -5t1 -4q1 -7 1 -23q1 1 4 1q7 0 13 1h18q3 1 13 1q15 0 25 -1l19 -3l3 1q1 1 2 1h8q1 -1 3 -1q0 -1 2 -1h5q4 0 6 -1l3 -1l-1 -1q1 1 5 1h5l12 -2h5h2q1 -1 2 -1l1 1h4q1 -1 2 -1q5 -2 9 0h4q1 0 2 1l1 1q5 0 15 -3
l8 -2q4 -1 4 -6l3 -2l-3 -16q-2 -2 -4 -3l-3 -1h-2v-1h-3q-8 -2 -21 -2q-3 0 -11.5 0.5t-13.5 0.5l-1 -1q-2 0 -3 1h-5q-1 -1 -3 -1q-1 0 -2 1h-3q-8 2 -13 2q-2 2 -7 2h-33h-6l-6 2h-6h-2q-1 -1 -2 0h-4q-2 2 -4 0h-1q-1 0 -1 1h-13q-2 1 -11 1q-10 0 -17 -1h-3v-62
q0 -21 -4 -40q-2 -12 -3 -16q0 -2 3 -8l3 -6q2 -8 2 -13q0 -15 -3 -18q-3 -1 -3 -6l2 -3v-13q0 -11 -1 -15l-3 -8l-4 1q6 -6 6 -12q-3 -3 -3 -11q-4 -19 -2 -46v-4q-1 -2 -1 -4q2 -6 2 -7q0 -3 -1 -5q-2 -8 -2 -13q0 -4 2 -12l2 -8q6 -6 6 -7q1 -1 1 -5q0 -9 -7 -23
q1 -1 3 -1h9q31 0 64 -3h6l12 -1h6q4 -1 8 -1q2 -2 3 0h4l2 1q2 1 6 1q5 0 8 -1h5q1 -1 3 -1h19l5 -1v-1q5 2 14 1q20 -2 29 -1h16q7 -1 13 0h3q1 0 2 1q2 0 3 1h6q9 0 15 -1l8 -2q4 -1 4 -6l3 -2l-3 -16q-4 -4 -7 -4h-1v-1h-4q-12 -3 -61 -3z" />
    <glyph glyph-name="Igrave" unicode="&#xcc;" horiz-adv-x="237" 
d="M33 802h-3l-4 1h-4v2h-1q-1 -1 -1 0h-1q-4 2 -4 5l-3 3q-1 1 -1 3l-2 2q-5 6 -7 12l-1 1q-1 0 -1 1h1q0 4 -3 7q-3 17 -9 21l-2 1h1l1 1l-4 7h-3v1q0 3 -1 4v1q-3 0 -3 3q0 4 -4 8q-1 2 -7 13q-1 5 -3 7q-1 1 -1 4l-3 4q-1 2 -1 4l-5 4q-6 6 -8 9l-2 2q-3 1 -3 3
q0 3 -2 5l-1 1l1 2q-1 0 -2 2q-1 3 -3 4l-8 15q-4 8 -4 14v2h1l-1 2h1l-1 1v1q1 2 3 4q2 4 3 4q7 5 21 12q8 2 10 4h4l3 -1q8 3 9 3q1 -1 4 -1l7 -3l2 -2q1 0 3 -2q4 -2 4 -6l-2 -2v-6q0 -3 3 -6q0 -1 1 -2l3 -2v-3l1 -1q6 -10 10 -14q4 -3 1 -6l3 1q1 0 2 -2q5 -5 5 -7v-1
q0 -1 2 -1l2 -1q4 -3 4 -7v-3l-1 -2q2 -2 4 -3q4 -3 8 -9l5 -9q2 -2 4 -6t3 -5q3 -3 6 -9v-3q0 -1 1 -1v-2l5 -10q6 -8 6 -10q4 -8 4 -9l5 -7q10 -13 10 -26q0 -3 -4 -3q-1 -1 -8 -5l-7 -4q-1 0 -2 -1q-1 0 -2 -1h-3q0 -1 -5 -3l-5 -1q-3 -3 -21 -3zM57 2q-2 1 -6 1
q-3 1 -5 1q-15 2 -26 7q-3 1 -6 11q-3 8 -4 8v5q-1 0 -1 1v5h-2v3q2 2 0 2q-5 32 -5 131l-1 3q-2 3 0 8v15q-1 3 -1 7t1 8q1 3 1 7q1 3 1.5 10t0.5 10q0 13 1 18q0 4 1 9q1 4 1 9v15q-2 22 -2 33t-1 22t-1 26q0 16 1 28v31q-1 2 -1 5q0 4 1 7q1 2 1 4v3l-1 7v3q-1 1 -1 3
t1 3t1 2v26l-1 1l1 7q2 29 -2 85v26l-2 3q0 3 1 5q1 1 1 3q0 29 1 50v13q0 11 1 13v13q0 10 1 14q0 5 2 7v3q-1 1 -1 3h2v3q-1 2 1 4q1 0 2 2v2q1 3 3 5q5 6 19 6h2q0 -1 5 -3q4 -1 6 -5l2 1h1q0 -1 2 -3q1 -1 1 -3l19 -15q3 -4 4 -8q6 -40 5 -82q0 -4 -0.5 -10.5t-0.5 -9.5
q0 -21 3 -41v-36q0 -30 1 -36v-9q0 -3 1 -4v-4q0 -1 2 -107l-5 -54q0 -2 2 -5v-3q1 -1 1 -2l1 -3q1 -4 1 -16v-8q0 -6 -1 -7q-2 -2 -2 -7l1 -2v-13q0 -12 -1 -17l-1 -8q-1 1 -3 1q3 -5 3 -13q0 -1 -0.5 -5t-0.5 -7q-3 -29 -2 -53v-10q0 -3 1 -4v-4q0 -4 -1 -7t-1 -7
q-1 -9 1 -26q0 -3 1 -5q0 -6 3 -12q1 -3 1 -5q2 -12 -3 -44l-5 -24l-3 -8q-2 -2 -11 -2l-3 -5q0 -5 -3 -5z" />
    <glyph glyph-name="Iacute" unicode="&#xcd;" horiz-adv-x="237" 
d="M41 793h-3q-18 0 -21 3l-5 1q-5 2 -5 3h-3q-3 2 -4 2l-7 4q-7 4 -8 5q-4 0 -4 3q0 13 10 26l5 7q0 1 4 9q0 2 6 10l5 10v2q1 0 1 1v3q3 6 6 9q1 1 3 5t4 6l5 9q4 6 8 9q2 1 4 3q0 1 -1 2v3q0 4 4 7q1 1 2 1q2 0 2 1v1q0 2 5 7l2 2l3 -1q-3 3 1 6q4 4 10 14l1 1v3q1 2 3 2
q1 1 1 2q3 3 3 6v6l-2 2q0 4 4 6q2 2 3 2l2 2l7 3q3 0 4 1q2 0 9 -3l3 1h4q2 -2 10 -4q14 -7 21 -12q1 0 3 -4l3 -4v-1l-1 -1h1l-1 -2h1v-2q0 -6 -4 -14l-8 -15q-1 -1 -3 -4l-2 -2l1 -2l-1 -1q-2 -2 -2 -5q0 -2 -3 -3l-2 -2q-2 -3 -8 -9l-5 -4q0 -2 -1 -4l-3 -4q0 -3 -1 -4
q-2 -2 -3 -7q-6 -11 -7 -13q-4 -4 -4 -7q0 -4 -3 -4v-1q-1 -1 -1 -4v-1h-3l-4 -7l1 -1h1l-2 -1q-6 -5 -9 -21q-3 -3 -3 -7h1l-1 -1l-1 -1q-2 -6 -7 -12l-2 -2q0 -2 -1 -3l-3 -3q0 -3 -4 -5h-1h-1h-1v-2h-4zM57 2q-2 1 -6 1q-3 1 -5 1q-15 2 -26 7q-3 1 -6 11q-3 8 -4 8v5
q-1 0 -1 1v5h-2v3q2 2 0 2q-5 32 -5 131l-1 3q-2 3 0 8v15q-1 3 -1 7t1 8q1 3 1 7q1 3 1.5 10t0.5 10q0 13 1 18q0 4 1 9q1 4 1 9v15q-2 22 -2 33t-1 22t-1 26q0 16 1 28v31q-1 2 -1 5q0 4 1 7q1 2 1 4v3l-1 7v3q-1 1 -1 3t1 3t1 2v26l-1 1l1 7q2 29 -2 85v26l-2 3q0 3 1 5
q1 1 1 3q0 29 1 50v13q0 11 1 13v13q0 10 1 14q0 5 2 7v3q-1 1 -1 3h2v3q-1 2 1 4q1 0 2 2v2q1 3 3 5q5 6 19 6h2q0 -1 5 -3q4 -1 6 -5l2 1h1q0 -1 2 -3q1 -1 1 -3l19 -15q3 -4 4 -8q6 -40 5 -82q0 -4 -0.5 -10.5t-0.5 -9.5q0 -21 3 -41v-36q0 -30 1 -36v-9q0 -3 1 -4v-4
q0 -1 2 -107l-5 -54q0 -2 2 -5v-3q1 -1 1 -2l1 -3q1 -4 1 -16v-8q0 -6 -1 -7q-2 -2 -2 -7l1 -2v-13q0 -12 -1 -17l-1 -8q-1 1 -3 1q3 -5 3 -13q0 -1 -0.5 -5t-0.5 -7q-3 -29 -2 -53v-10q0 -3 1 -4v-4q0 -4 -1 -7t-1 -7q-1 -9 1 -26q0 -3 1 -5q0 -6 3 -12q1 -3 1 -5
q2 -12 -3 -44l-5 -24l-3 -8q-2 -2 -11 -2l-3 -5q0 -5 -3 -5z" />
    <glyph glyph-name="Icircumflex" unicode="&#xce;" horiz-adv-x="237" 
d="M113 785q-1 1 -4 1l-7 3l-2 2q-1 0 -3 2q-4 2 -4 6l2 2v6q0 3 -3 6q0 1 -1 2l-3 2v3l-1 1q-6 10 -10 14q-4 3 -1 6l-3 -1q-1 0 -2 2q-5 5 -5 7v1q0 1 -2 1l-2 1q-4 3 -4 7v3l1 2q-2 2 -4 3q-4 3 -8 9l-6 11v-1l-5 -9q-4 -6 -8 -9q-2 -1 -4 -3q0 -1 1 -2v-3q0 -4 -4 -7
q-1 -1 -2 -1q-2 0 -2 -1v-1q0 -2 -5 -7l-2 -2l-3 1q3 -3 -1 -6q-4 -4 -10 -14l-1 -1v-3q-1 -2 -3 -2q-1 -1 -1 -2q-3 -3 -3 -6v-6l2 -2q0 -4 -4 -6q-2 -2 -3 -2l-2 -2l-7 -3q-3 0 -4 -1q-2 0 -9 3l-3 -1h-4q-2 2 -10 4q-14 7 -21 12q-1 0 -3 4l-3 4v1l1 1h-1l1 2h-1v2
q0 6 4 14l8 15q1 1 3 4l2 2l-1 2l1 1q2 2 2 5q0 2 3 3l2 2q2 3 8 9l5 4q0 2 1 4l3 4q0 3 1 4q2 2 3 7q6 11 7 13q4 4 4 7q0 4 3 4v1q1 1 1 4v1h3l4 7l-1 1h-1l2 1q6 5 9 21q3 3 3 7h-1l1 1l1 1q0 2 1 3v3q0 3 3 3l3 3l2 2q0 2 1 3l3 3q0 3 4 5h1q0 1 1 0h1v2h4l4 1h3
q13 0 17 -1h13l4 -1h4v-2h1q1 1 1 0h1q4 -2 4 -5l3 -3q1 -1 1 -3q3 -2 4 -3q4 0 4 -3q0 -2 -1 -4l3 -5l1 -1h-1q0 -4 3 -7q3 -17 9 -21l2 -1h-1l-1 -1l4 -7h3v-1q0 -3 1 -4v-1q3 0 3 -3q0 -4 4 -8q1 -2 7 -13q1 -5 3 -7q1 -1 1 -4l3 -4q1 -2 1 -4l5 -4q6 -6 8 -9l2 -2
q3 -1 3 -3q0 -3 2 -5l1 -1l-1 -2q1 0 2 -2q1 -3 3 -4l8 -15q4 -8 4 -14v-2h-1l1 -2h-1l1 -1v-1q-1 -2 -3 -4q-2 -4 -3 -4q-7 -5 -21 -12q-8 -2 -10 -4h-4l-3 1q-8 -3 -9 -3zM57 2q-2 1 -6 1q-3 1 -5 1q-15 2 -26 7q-3 1 -6 11q-3 8 -4 8v5q-1 0 -1 1v5h-2v3q2 2 0 2
q-5 32 -5 131l-1 3q-2 3 0 8v15q-1 3 -1 7t1 8q1 3 1 7q1 3 1.5 10t0.5 10q0 13 1 18q0 4 1 9q1 4 1 9v15q-2 22 -2 33t-1 22t-1 26q0 16 1 28v31q-1 2 -1 5q0 4 1 7q1 2 1 4v3l-1 7v3q-1 1 -1 3t1 3t1 2v26l-1 1l1 7q2 29 -2 85v26l-2 3q0 3 1 5q1 1 1 3q0 29 1 50v13
q0 11 1 13v13q0 10 1 14q0 5 2 7v3q-1 1 -1 3h2v3q-1 2 1 4q1 0 2 2v2q1 3 3 5q5 6 19 6h2q0 -1 5 -3q4 -1 6 -5l2 1h1q0 -1 2 -3q1 -1 1 -3l19 -15q3 -4 4 -8q6 -40 5 -82q0 -4 -0.5 -10.5t-0.5 -9.5q0 -21 3 -41v-36q0 -30 1 -36v-9q0 -3 1 -4v-4q0 -1 2 -107l-5 -54
q0 -2 2 -5v-3q1 -1 1 -2l1 -3q1 -4 1 -16v-8q0 -6 -1 -7q-2 -2 -2 -7l1 -2v-13q0 -12 -1 -17l-1 -8q-1 1 -3 1q3 -5 3 -13q0 -1 -0.5 -5t-0.5 -7q-3 -29 -2 -53v-10q0 -3 1 -4v-4q0 -4 -1 -7t-1 -7q-1 -9 1 -26q0 -3 1 -5q0 -6 3 -12q1 -3 1 -5q2 -12 -3 -44l-5 -24l-3 -8
q-2 -2 -11 -2l-3 -5q0 -5 -3 -5z" />
    </font>
</defs>
</svg>
